<?xml version="1.0" encoding="utf-8"?>
<!-- Generator: Adobe Illustrator 23.0.1, SVG Export Plug-In . SVG Version: 6.00 Build 0)  -->
<!DOCTYPE svg PUBLIC "-//W3C//DTD SVG 1.1//EN" "http://www.w3.org/Graphics/SVG/1.1/DTD/svg11.dtd" [
	<!ENTITY ns_extend "http://ns.adobe.com/Extensibility/1.0/">
	<!ENTITY ns_ai "http://ns.adobe.com/AdobeIllustrator/10.0/">
	<!ENTITY ns_graphs "http://ns.adobe.com/Graphs/1.0/">
	<!ENTITY ns_vars "http://ns.adobe.com/Variables/1.0/">
	<!ENTITY ns_imrep "http://ns.adobe.com/ImageReplacement/1.0/">
	<!ENTITY ns_sfw "http://ns.adobe.com/SaveForWeb/1.0/">
	<!ENTITY ns_custom "http://ns.adobe.com/GenericCustomNamespace/1.0/">
	<!ENTITY ns_adobe_xpath "http://ns.adobe.com/XPath/1.0/">
]>
<svg version="1.1" id="Layer_1" xmlns:x="&ns_extend;" xmlns:i="&ns_ai;" xmlns:graph="&ns_graphs;"
	 xmlns="http://www.w3.org/2000/svg" xmlns:xlink="http://www.w3.org/1999/xlink" x="0px" y="0px" viewBox="0 0 800 800"
	 enable-background="new 0 0 800 800" xml:space="preserve">
<metadata>
	<sfw  xmlns="&ns_sfw;">
		<slices></slices>
		<sliceSourceBounds  bottomLeftOrigin="true" height="801" width="801" x="-0.5" y="-800.5"></sliceSourceBounds>
	</sfw>
</metadata>
<line fill="none" stroke="#9E9E9E" stroke-miterlimit="10" x1="1.33" y1="0.67" x2="799.34" y2="799.33"/>
<line fill="none" stroke="#9E9E9E" stroke-miterlimit="10" x1="799.34" y1="0.67" x2="1.33" y2="799.33"/>
<line fill="none" stroke="#9E9E9E" stroke-miterlimit="10" x1="399" y1="0.67" x2="399" y2="798"/>
<line fill="none" stroke="#9E9E9E" stroke-miterlimit="10" x1="0" y1="400" x2="798.01" y2="400"/>
<line fill="none" stroke="#9E9E9E" stroke-miterlimit="10" x1="0" y1="400" x2="166.25" y2="0.67"/>
<line fill="none" stroke="#9E9E9E" stroke-miterlimit="10" x1="798.01" y1="400" x2="635.74" y2="0.67"/>
<line fill="none" stroke="#9E9E9E" stroke-miterlimit="10" x1="0" y1="400" x2="167.58" y2="798"/>
<line fill="none" stroke="#9E9E9E" stroke-miterlimit="10" x1="798.01" y1="400" x2="631.75" y2="799.33"/>
<line fill="none" stroke="#9E9E9E" stroke-miterlimit="10" x1="399" y1="0.67" x2="1.33" y2="165.72"/>
<line fill="none" stroke="#9E9E9E" stroke-miterlimit="10" x1="399" y1="0.67" x2="798.01" y2="167.05"/>
<line fill="none" stroke="#9E9E9E" stroke-miterlimit="10" x1="399" y1="798" x2="799.34" y2="632.95"/>
<line fill="none" stroke="#9E9E9E" stroke-miterlimit="10" x1="399" y1="798" x2="1.33" y2="634.28"/>
<line fill="none" stroke="#9E9E9E" stroke-miterlimit="10" x1="117.04" y1="117.8" x2="399" y2="798"/>
<line fill="none" stroke="#9E9E9E" stroke-miterlimit="10" x1="680.96" y1="119.13" x2="399" y2="798"/>
<line fill="none" stroke="#9E9E9E" stroke-miterlimit="10" x1="399" y1="0.67" x2="118.37" y2="682.2"/>
<line fill="none" stroke="#9E9E9E" stroke-miterlimit="10" x1="682.29" y1="680.87" x2="399" y2="0.67"/>
<line fill="none" stroke="#9E9E9E" stroke-miterlimit="10" x1="117.04" y1="117.8" x2="798.01" y2="400"/>
<line fill="none" stroke="#9E9E9E" stroke-miterlimit="10" x1="118.37" y1="682.2" x2="798.01" y2="400"/>
<line fill="none" stroke="#9E9E9E" stroke-miterlimit="10" x1="680.96" y1="119.13" x2="0" y2="400"/>
<line fill="none" stroke="#9E9E9E" stroke-miterlimit="10" x1="682.29" y1="680.87" x2="0" y2="400"/>
<line fill="none" stroke="#9E9E9E" stroke-miterlimit="10" x1="631.75" y1="799.33" x2="301.91" y2="0.67"/>
<line fill="none" stroke="#9E9E9E" stroke-miterlimit="10" x1="166.25" y1="0.67" x2="498.75" y2="798"/>
<line fill="none" stroke="#9E9E9E" stroke-miterlimit="10" x1="635.74" y1="0.67" x2="301.91" y2="799.33"/>
<line fill="none" stroke="#9E9E9E" stroke-miterlimit="10" x1="167.58" y1="798" x2="497.42" y2="0.67"/>
<line fill="none" stroke="#9E9E9E" stroke-miterlimit="10" x1="1.33" y1="165.72" x2="799.34" y2="497.17"/>
<line fill="none" stroke="#9E9E9E" stroke-miterlimit="10" x1="799.34" y1="632.95" x2="0" y2="304.16"/>
<line fill="none" stroke="#9E9E9E" stroke-miterlimit="10" x1="798.01" y1="167.05" x2="1.33" y2="494.51"/>
<line fill="none" stroke="#9E9E9E" stroke-miterlimit="10" x1="1.33" y1="634.28" x2="798.01" y2="302.83"/>
<circle fill="none" stroke="#9E9E9E" stroke-miterlimit="10" cx="400" cy="400" r="400"/>
</svg>
