<?xml version="1.0" encoding="iso-8859-1"?>
<!-- Generator: Adobe Illustrator 23.0.1, SVG Export Plug-In . SVG Version: 6.00 Build 0)  -->
<svg version="1.1" id="pencil" xmlns="http://www.w3.org/2000/svg" xmlns:xlink="http://www.w3.org/1999/xlink" x="0px" y="0px"
	 viewBox="0 0 800 800" style="enable-background:new 0 0 800 800;" xml:space="preserve">
<line style="fill:none;stroke:#9E9E9E;stroke-miterlimit:10;" x1="1.33" y1="0.666" x2="799.335" y2="799.334"/>
<line style="fill:none;stroke:#9E9E9E;stroke-miterlimit:10;" x1="799.335" y1="0.666" x2="1.33" y2="799.334"/>
<line style="fill:none;stroke:#9E9E9E;stroke-miterlimit:10;" x1="399.5" y1="0.5" x2="681.5" y2="117.5"/>
<line style="fill:none;stroke:#9E9E9E;stroke-miterlimit:10;" x1="797.5" y1="399.5" x2="681.5" y2="117.5"/>
<line style="fill:none;stroke:#9E9E9E;stroke-miterlimit:10;" x1="681.5" y1="680.5" x2="797.5" y2="399.5"/>
<line style="fill:none;stroke:#9E9E9E;stroke-miterlimit:10;" x1="399.5" y1="798.5" x2="681.5" y2="680.5"/>
<line style="fill:none;stroke:#9E9E9E;stroke-miterlimit:10;" x1="118.5" y1="680.5" x2="399.5" y2="798.5"/>
<line style="fill:none;stroke:#9E9E9E;stroke-miterlimit:10;" x1="1.5" y1="399.5" x2="118.5" y2="680.5"/>
<line style="fill:none;stroke:#9E9E9E;stroke-miterlimit:10;" x1="118.5" y1="117.5" x2="1.5" y2="399.5"/>
<line style="fill:none;stroke:#9E9E9E;stroke-miterlimit:10;" x1="399.5" y1="0.5" x2="118.5" y2="117.5"/>
<line style="fill:none;stroke:#9E9E9E;stroke-miterlimit:10;" x1="399.5" y1="399.5" x2="399.5" y2="0.5"/>
<line style="fill:none;stroke:#9E9E9E;stroke-miterlimit:10;" x1="1.5" y1="399.5" x2="399.5" y2="399.5"/>
<line style="fill:none;stroke:#9E9E9E;stroke-miterlimit:10;" x1="399.5" y1="798.5" x2="399.5" y2="399.5"/>
<line style="fill:none;stroke:#9E9E9E;stroke-miterlimit:10;" x1="797.5" y1="399.5" x2="399.5" y2="399.5"/>
<line style="fill:none;stroke:#9E9E9E;stroke-miterlimit:10;" x1="118.5" y1="117.5" x2="681.5" y2="117.5"/>
<line style="fill:none;stroke:#9E9E9E;stroke-miterlimit:10;" x1="681.5" y1="680.5" x2="681.5" y2="117.5"/>
<line style="fill:none;stroke:#9E9E9E;stroke-miterlimit:10;" x1="118.5" y1="680.5" x2="681.5" y2="680.5"/>
<line style="fill:none;stroke:#9E9E9E;stroke-miterlimit:10;" x1="118.5" y1="117.5" x2="118.5" y2="680.5"/>
<line style="fill:none;stroke:#9E9E9E;stroke-miterlimit:10;" x1="0.5" y1="399.5" x2="399.5" y2="798.5"/>
<line style="fill:none;stroke:#9E9E9E;stroke-miterlimit:10;" x1="797.5" y1="399.5" x2="399.5" y2="798.5"/>
<line style="fill:none;stroke:#9E9E9E;stroke-miterlimit:10;" x1="399.5" y1="0.5" x2="798.5" y2="399.5"/>
<line style="fill:none;stroke:#9E9E9E;stroke-miterlimit:10;" x1="0.5" y1="399.5" x2="399.5" y2="0.5"/>
<circle style="fill:none;" cx="400" cy="400" r="400"/>
</svg>
