<?xml version="1.0" encoding="iso-8859-1"?>
<!-- Generator: Adobe Illustrator 23.0.1, SVG Export Plug-In . SVG Version: 6.00 Build 0)  -->
<svg version="1.1" id="colour" xmlns="http://www.w3.org/2000/svg" xmlns:xlink="http://www.w3.org/1999/xlink" x="0px" y="0px"
	 viewBox="0 0 800 800" style="enable-background:new 0 0 800 800;" xml:space="preserve">
<polygon style="fill:#00CED8;" points="199,107 145,200 254,201 "/>
<polygon style="fill:#00CED8;" points="346,254 399,239 402,351 "/>
<polygon style="fill:#00CED8;" points="399,453 346,546 399,560 "/>
<polygon style="fill:#00CED8;" points="146,600 251,600 198,692 "/>
<polygon style="fill:#00CED8;" points="53,546 -1,560 -2,450 "/>
<polygon style="fill:#00CED8;" points="-1,239 53,253 -2,344 "/>
<polygon style="fill:#21D658;" points="254,201 346,254 402,351 399,453 346,546 251,600 146,600 53,546 -2,450 -0.5,338.874 
	53,253 145,200 "/>
<polygon style="fill:#21D658;" points="400,54 199,54 199,107 254,201 346,254 399,239 "/>
<polygon style="fill:#21D658;" points="-1,54 199,54 199,107 145,200 53,254 -1,239 "/>
<polygon style="fill:#21D658;" points="-1,560 -1,746 199,746 198,692 146,600 53,546 "/>
<polygon style="fill:#21D658;" points="251,600 346,546 399,560 399,746 199,746 198,692 "/>
<polygon style="fill:#00CED8;" points="599,107 545,200 654,201 "/>
<polygon style="fill:#00CED8;" points="746,254 799,239 802,351 "/>
<polygon style="fill:#00CED8;" points="799,453 746,546 799,560 "/>
<polygon style="fill:#00CED8;" points="546,600 651,600 598,692 "/>
<polygon style="fill:#00CED8;" points="453,546 399,560 398,450 "/>
<polygon style="fill:#00CED8;" points="399,239 453,253 398,344 "/>
<polygon style="fill:#21D658;" points="654,201 746,254 802,351 799,453 746,546 651,600 546,600 453,546 398,450 399.5,338.874 
	453,253 545,200 "/>
<polygon style="fill:#21D658;" points="800,54 599,54 599,107 654,201 746,254 799,239 "/>
<polygon style="fill:#21D658;" points="399,54 599,54 599,107 545,200 453,254 399,239 "/>
<polygon style="fill:#21D658;" points="399,560 399,746 599,746 598,692 546,600 453,546 "/>
<polygon style="fill:#21D658;" points="651,600 746,546 799,560 799,746 599,746 598,692 "/>

</svg>
