<?xml version="1.0" encoding="iso-8859-1"?>
<!-- Generator: Adobe Illustrator 23.0.1, SVG Export Plug-In . SVG Version: 6.00 Build 0)  -->
<svg version="1.1" id="colour" xmlns="http://www.w3.org/2000/svg" xmlns:xlink="http://www.w3.org/1999/xlink" x="0px" y="0px"
	 width="800px" height="800px" viewBox="0 0 800 800" style="enable-background:new 0 0 800 800;" xml:space="preserve">
<polygon style="fill:#21E5EA;" points="392,330 417,396 444,353 444,368 471,377 457,400 471,425 444,433 444,463 407,434 398,475 
	382,434 354,462 353,433 325,425 345,398 295,366 352,369 354,337 381,346 "/>
<polygon style="fill:#ED0000;" points="354,269 393,330 443,263 444,215 377,231 354,214 "/>
<polygon style="fill:#ED0000;" points="444,354 444,263 471,224 517,239 544,276 512,322 "/>
<polygon style="fill:#ED0000;" points="471,377 509,323 562,300 590,338 590,385 544,401 "/>
<polygon style="fill:#ED0000;" points="471,425 544,401 590,416 589,463 560,501 513,486 "/>
<polygon style="fill:#ED0000;" points="444,463 516,487 543,524 516,561 471,576 443,539 "/>
<polygon style="fill:#ED0000;" points="378,487 443,539 444,586 398,600 353,586 353,538 "/>
<polygon style="fill:#ED0000;" points="354,462 353,538 325,576 276,562 253,525 272,497 "/>
<polygon style="fill:#ED0000;" points="209,468 209,416 252,401 325,425 277,494 236,511 "/>
<polygon style="fill:#ED0000;" points="237,299 281,314 281,372 252,401 209,387 209,337 "/>
<polygon style="fill:#ED0000;" points="281,239 325,224 354,261 354,337 281,314 253,275 "/>
<polygon style="fill:#ED0000;" points="398,77 444,139 444,186 399,199 353,186 353,134 "/>
<polygon style="fill:#ED0000;" points="443,93 491,76 563,100 516,162 471,176 444,139 "/>
<polygon style="fill:#ED0000;" points="590,137 590,214 561,256 516,239 489,200 516,162 "/>
<polygon style="fill:#ED0000;" points="725,149 647.313,264.219 608.716,241.236 620.528,193.682 "/>
<polygon style="fill:#ED0000;" points="599,292 643,276 644,400 600,338 "/>
<polygon style="fill:#ED0000;" points="589,463 634,400 644,534 590,511 "/>
<polygon style="fill:#ED0000;" points="616.286,545.6 671.448,548.289 657.019,658.351 610.452,587.193 "/>
<polygon style="fill:#ED0000;" points="516,562 561,547 591,589 589,662 515,638 488,600 "/>
<polygon style="fill:#ED0000;" points="471,624 515,638 559,700 491,724 444,707 443,662 "/>
<polygon style="fill:#ED0000;" points="352,616 398,600 444,616 443,662 398,725 353,662 "/>
<polygon style="fill:#ED0000;" points="325,624 353,662 352,709 307,724 237,700 280,638 "/>
<polygon style="fill:#ED0000;" points="235,547 276,562 307,605 280,638 209,662 209,586 "/>
<polygon style="fill:#ED0000;" points="163,525 209,539 209,586 163,644 "/>
<polygon style="fill:#ED0000;" points="163,401 209,462 209,508 163,525 "/>
<polygon style="fill:#ED0000;" points="135.326,282.128 175.86,305.558 168.822,351.027 94,362 "/>
<polygon style="fill:#ED0000;" points="122,137 189,213 189,261 144,275 "/>
<polygon style="fill:#ED0000;" points="209,137 281,160 307,199 281,239 237,255 209,213 "/>
<polygon style="fill:#ED0000;" points="237,88 295,88 383,48 353,124 325,166 281,150 "/>
<polygon style="fill:#21E5EA;" points="590.02,63.477 580.691,89.896 608.846,90.451 616.536,118.413 641.147,102.31 
	662.673,120.244 642.786,47.929 "/>
<polygon style="fill:#21E5EA;" points="669.592,760.546 577.081,744.187 566.737,716.875 598.416,719.412 606.681,689.517 
	629.125,704.888 662.104,693.166 "/>
<polygon style="fill:#21E5EA;" points="163,723 163,644 181,670 209,662 209,690 237,700 222,722 "/>
<polygon style="fill:#21E5EA;" points="165,76 218,76 235,98 207,107 207,137 181,128 163,149 "/>
</svg>
