<?xml version="1.0" encoding="iso-8859-1"?>
<!-- Generator: Adobe Illustrator 23.0.1, SVG Export Plug-In . SVG Version: 6.00 Build 0)  -->
<svg version="1.1" id="colours" xmlns="http://www.w3.org/2000/svg" xmlns:xlink="http://www.w3.org/1999/xlink" x="0px" y="0px"
	 viewBox="0 0 800 800" style="enable-background:new 0 0 800 800;" xml:space="preserve">
<polygon style="fill:#FBE3EF;" points="362,251 400,290 440,251 455,306 507,293 493,348 546,361 508,399 546,439 493,453 506,505 
	453,491 438,546 400,507 362,546 346,492 292,507 308,453 254,439 294,399 254,361 307,346 293,294 345,307 "/>
<polygon style="fill:#FBF194;" points="401,112 440,251 400,290 362,251 "/>
<polygon style="fill:#FBF194;" points="546,145 507,290 455,306 440,251 "/>
<polygon style="fill:#FBF194;" points="650,256 546,361 493,348 507,290 "/>
<polygon style="fill:#FBF194;" points="689,401 546,439 508,400 546,361 "/>
<polygon style="fill:#FBF194;" points="655,544 508,505 493,454 546,439 "/>
<polygon style="fill:#FBF194;" points="546,654 440,546 454,491 508,505 "/>
<polygon style="fill:#FBF194;" points="400,692 362,546 400,507 440,546 "/>
<polygon style="fill:#FBF194;" points="254,651 292,507 346,492 362,546 "/>
<polygon style="fill:#FBF194;" points="308,454 254,439 146,546 292,507 "/>
<polygon style="fill:#FBF194;" points="109,400 254,361 294,400 254,439 "/>
<path style="fill:#FBF102;" d="M306,345"/>
<polygon style="fill:#FBF194;" points="294,294 149,256 254,361 306,345 "/>
<polygon style="fill:#FBF194;" points="254,146 362,251 345,307 294,294 "/>
<polygon style="fill:#C1F1B8;" points="306,53 386,53 401,112 362,251 254,146 241,93 "/>
<polygon style="fill:#C1F1B8;" points="508,290 546,145 586,108 650,146 692,215 650,256 "/>
<polygon style="fill:#C1F1B8;" points="546,439 689,401 747,415 748,491 708,559 655,544 "/>
<polygon style="fill:#C1F1B8;" points="440,546 400,692 414,746 493,744 560,707 546,654 "/>
<polygon style="fill:#C1F1B8;" points="145,651 107,585 146,546 294,507 254,651 214,691 "/>
<polygon style="fill:#C1F1B8;" points="254,361 149,256 90,241 53,307 53,385 109,400 "/>
<polygon style="fill:#B8F2E7;" points="493,53 560,93 546,145 440,251 401,112 416,53 "/>
<polygon style="fill:#B8F2E7;" points="546,361 650,256 707,241 748,308 747,385 689,401 "/>
<polygon style="fill:#B8F2E7;" points="508,507 546,654 587,693 654,654 694,582 655,544 "/>
<polygon style="fill:#B8F2E7;" points="362,546 254,651 241,708 309,746 385,747 400,692 "/>
<polygon style="fill:#B8F2E7;" points="53,415 53,491 90,559 146,546 254,439 109,400 "/>
<polygon style="fill:#B8F2E7;" points="146,146 220,107 254,146 293,294 149,256 107,214 "/>
<polygon style="fill:#DDA4FF;" points="400,0 487.538,51.487 415,53 401,106.297 386,53 306,53 "/>
<polygon style="fill:#DDA4FF;" points="747,199 748,309 707,241 650,256 692,215 650,146 "/>
<polygon style="fill:#DDA4FF;" points="747,600 654,654 694,582 655,544 708,559 748,491 "/>
<polygon style="fill:#DDA4FF;" points="399,800 308,746 384,747 400,692 414,746 493,744 "/>
<polygon style="fill:#DDA4FF;" points="54,599 53,491 90,559 146,546 107,585 146,651 "/>
<polygon style="fill:#DDA4FF;" points="53,199 53,307 90,241 149,256 107,214 146,146 "/>
<polygon style="fill:#A378FF;" points="200,54 306,53 241,93 254,146 220,107 146,146 "/>
<polygon style="fill:#A378FF;" points="600,54 650,141 586,108 546,145 560,93 493,53 "/>
<polygon style="fill:#A378FF;" points="800,400 748,491 747,415 689,401 747,386 748,309 "/>
<polygon style="fill:#A378FF;" points="601,747 654,654 587,693 546,654 560,707 496,745 "/>
<polygon style="fill:#A378FF;" points="200,747 146,651 214,691 254,651 241,707 308,746 "/>
<polygon style="fill:#A378FF;" points="0,401 53,307 53,386 109,400 53,415 53,491 "/>
<polygon style="fill:#FF7896;" points="400,0 493,53 600,54 571,0 "/>
<polygon style="fill:#FF7896;" points="747,199 748,309 800,400 799,230 "/>
<polygon style="fill:#FF7896;" points="748,491 747,600 799,571 800,400 "/>
<polygon style="fill:#FF7896;" points="601,747 569,800 399,800 493,744 "/>
<polygon style="fill:#FF7896;" points="200,747 308,746 399,800 230,800 "/>
<polygon style="fill:#FF7896;" points="54,599 -1,567 0,401 53,491 "/>
<polygon style="fill:#FF7896;" points="53,307 53,199 0,231 0,401 "/>
<polygon style="fill:#FF7896;" points="306,53 400,0 227,0 200,54 "/>
<polygon style="fill:#FF2EC0;" points="571,0 600,54 661,53 692,0 "/>
<polygon style="fill:#FF2EC0;" points="746,136 800,108 799,227 747,199 "/>
<polygon style="fill:#FF2EC0;" points="747,600 748,662 800,689 799,571 "/>
<polygon style="fill:#FF2EC0;" points="601,747 662,747 694,800 569,800 "/>
<polygon style="fill:#FF2EC0;" points="200,747 139,746 108,801 230,800 "/>
<polygon style="fill:#FF2EC0;" points="54,663 54,599 -1,567 -2,693 "/>
<polygon style="fill:#FF2EC0;" points="54,137 53,199 0,231 -2,106 "/>
<polygon style="fill:#FF2EC0;" points="109,0 137,54 200,54 227,0 "/>
<polygon style="fill:#00B9E7;" points="692,0 735,67 800,108 746,137 747,199 650,146 600,54 661,53 "/>
<polygon style="fill:#00B9E7;" points="654,654 747,600 748,663 800,689 741,727 694,800 661,747 601,747 "/>
<polygon style="fill:#00B9E7;" points="54,599 146,651 200,747 139,746 108,801 65,736 -2,693 54,663 "/>
<polygon style="fill:#00B9E7;" points="68,63 109,0 137,54 200,54 146,146 53,199 54,137 -2,106 "/>
<polygon style="fill:#004DE7;" points="735,67 692,0 799,0 800,108 "/>
<polygon style="fill:#004DE7;" points="744,727 800,689 799,801 694,800 "/>
<polygon style="fill:#004DE7;" points="65,736 108,801 0,800 -2,693 "/>
<polygon style="fill:#004DE7;" points="-1,0 109,0 68,63 -2,106 "/>

</svg>
