<?xml version="1.0" encoding="iso-8859-1"?>
<!-- Generator: Adobe Illustrator 23.0.1, SVG Export Plug-In . SVG Version: 6.00 Build 0)  -->
<svg version="1.1" id="pen" xmlns="http://www.w3.org/2000/svg" xmlns:xlink="http://www.w3.org/1999/xlink" x="0px" y="0px"
	 viewBox="0 0 800 800" style="enable-background:new 0 0 800 800;" xml:space="preserve">
<line style="fill:none;stroke:#000000;stroke-width:3;stroke-miterlimit:10;" x1="-1.5" y1="106.5" x2="53.5" y2="136.5"/>
<line style="fill:none;stroke:#000000;stroke-width:3;stroke-miterlimit:10;" x1="110.5" y1="0.5" x2="137.5" y2="54.5"/>
<line style="fill:none;stroke:#000000;stroke-width:3;stroke-miterlimit:10;" x1="692.5" y1="0.5" x2="661.5" y2="52.5"/>
<line style="fill:none;stroke:#000000;stroke-width:3;stroke-miterlimit:10;" x1="800.5" y1="107.5" x2="746.5" y2="136.5"/>
<line style="fill:none;stroke:#000000;stroke-width:3;stroke-miterlimit:10;" x1="799.5" y1="688.5" x2="747.5" y2="662.5"/>
<line style="fill:none;stroke:#000000;stroke-width:3;stroke-miterlimit:10;" x1="693.5" y1="799.5" x2="661.5" y2="746.5"/>
<line style="fill:none;stroke:#000000;stroke-width:3;stroke-miterlimit:10;" x1="106.5" y1="799.5" x2="139.5" y2="746.5"/>
<line style="fill:none;stroke:#000000;stroke-width:3;stroke-miterlimit:10;" x1="-1.5" y1="694.5" x2="54.5" y2="663.5"/>
<line style="fill:none;stroke:#000000;stroke-width:3;stroke-miterlimit:10;" x1="110.5" y1="0.5" x2="68.5" y2="62.5"/>
<line style="fill:none;stroke:#000000;stroke-width:3;stroke-miterlimit:10;" x1="-1.5" y1="106.5" x2="68.5" y2="62.5"/>
<line style="fill:none;stroke:#000000;stroke-width:3;stroke-miterlimit:10;" x1="692.5" y1="0.5" x2="735.5" y2="66.5"/>
<line style="fill:none;stroke:#000000;stroke-width:3;stroke-miterlimit:10;" x1="800.5" y1="107.5" x2="735.5" y2="66.5"/>
<line style="fill:none;stroke:#000000;stroke-width:3;stroke-miterlimit:10;" x1="-1.5" y1="694.5" x2="65.5" y2="735.5"/>
<line style="fill:none;stroke:#000000;stroke-width:3;stroke-miterlimit:10;" x1="106.5" y1="799.5" x2="65.5" y2="735.5"/>
<line style="fill:none;stroke:#000000;stroke-width:3;stroke-miterlimit:10;" x1="693.5" y1="799.5" x2="741.5" y2="726.5"/>
<line style="fill:none;stroke:#000000;stroke-width:3;stroke-miterlimit:10;" x1="799.5" y1="688.5" x2="741.5" y2="726.5"/>
<line style="fill:none;stroke:#000000;stroke-width:3;stroke-miterlimit:10;" x1="53.5" y1="136.5" x2="52.5" y2="384.5"/>
<line style="fill:none;stroke:#000000;stroke-width:3;stroke-miterlimit:10;" x1="52.5" y1="414.5" x2="54.5" y2="663.5"/>
<line style="fill:none;stroke:#000000;stroke-width:3;stroke-miterlimit:10;" x1="139.5" y1="746.5" x2="384.5" y2="746.5"/>
<line style="fill:none;stroke:#000000;stroke-width:3;stroke-miterlimit:10;" x1="414.5" y1="746.5" x2="661.5" y2="746.5"/>
<line style="fill:none;stroke:#000000;stroke-width:3;stroke-miterlimit:10;" x1="747.5" y1="662.5" x2="747.5" y2="414.5"/>
<line style="fill:none;stroke:#000000;stroke-width:3;stroke-miterlimit:10;" x1="746.5" y1="385.5" x2="746.5" y2="136.5"/>
<line style="fill:none;stroke:#000000;stroke-width:3;stroke-miterlimit:10;" x1="661.5" y1="52.5" x2="415.5" y2="52.5"/>
<line style="fill:none;stroke:#000000;stroke-width:3;stroke-miterlimit:10;" x1="385.5" y1="52.5" x2="137.5" y2="54.5"/>
<line style="fill:none;stroke:#000000;stroke-width:3;stroke-miterlimit:10;" x1="229.5" y1="0.5" x2="106.5" y2="214.5"/>
<line style="fill:none;stroke:#000000;stroke-width:3;stroke-miterlimit:10;" x1="-1.5" y1="231.5" x2="216.5" y2="106.5"/>
<line style="fill:none;stroke:#000000;stroke-width:3;stroke-miterlimit:10;" x1="569.5" y1="0.5" x2="692.5" y2="214.5"/>
<line style="fill:none;stroke:#000000;stroke-width:3;stroke-miterlimit:10;" x1="799.5" y1="230.5" x2="586.5" y2="106.5"/>
<line style="fill:none;stroke:#000000;stroke-width:3;stroke-miterlimit:10;" x1="799.5" y1="570.5" x2="586.5" y2="693.5"/>
<line style="fill:none;stroke:#000000;stroke-width:3;stroke-miterlimit:10;" x1="569.5" y1="800.5" x2="694.5" y2="583.5"/>
<line style="fill:none;stroke:#000000;stroke-width:3;stroke-miterlimit:10;" x1="230.5" y1="800.5" x2="107.5" y2="585.5"/>
<line style="fill:none;stroke:#000000;stroke-width:3;stroke-miterlimit:10;" x1="-0.5" y1="567.5" x2="213.5" y2="691.5"/>
<line style="fill:none;stroke:#000000;stroke-width:3;stroke-miterlimit:10;" x1="240.5" y1="92.5" x2="399.5" y2="-0.5"/>
<line style="fill:none;stroke:#000000;stroke-width:3;stroke-miterlimit:10;" x1="560.5" y1="92.5" x2="399.5" y2="-0.5"/>
<line style="fill:none;stroke:#000000;stroke-width:3;stroke-miterlimit:10;" x1="706.5" y1="239.5" x2="799.5" y2="399.5"/>
<line style="fill:none;stroke:#000000;stroke-width:3;stroke-miterlimit:10;" x1="708.5" y1="558.5" x2="799.5" y2="399.5"/>
<line style="fill:none;stroke:#000000;stroke-width:3;stroke-miterlimit:10;" x1="560.5" y1="707.5" x2="399.5" y2="799.5"/>
<line style="fill:none;stroke:#000000;stroke-width:3;stroke-miterlimit:10;" x1="239.5" y1="707.5" x2="399.5" y2="799.5"/>
<line style="fill:none;stroke:#000000;stroke-width:3;stroke-miterlimit:10;" x1="92.5" y1="560.5" x2="-0.5" y2="399.5"/>
<line style="fill:none;stroke:#000000;stroke-width:3;stroke-miterlimit:10;" x1="92.5" y1="240.5" x2="-0.5" y2="399.5"/>
<line style="fill:none;stroke:#000000;stroke-width:3;stroke-miterlimit:10;" x1="385.5" y1="52.5" x2="454.5" y2="306.5"/>
<line style="fill:none;stroke:#000000;stroke-width:3;stroke-miterlimit:10;" x1="415.5" y1="52.5" x2="346.5" y2="308.5"/>
<line style="fill:none;stroke:#000000;stroke-width:3;stroke-miterlimit:10;" x1="560.5" y1="92.5" x2="492.5" y2="346.5"/>
<line style="fill:none;stroke:#000000;stroke-width:3;stroke-miterlimit:10;" x1="586.5" y1="106.5" x2="401.5" y2="290.5"/>
<line style="fill:none;stroke:#000000;stroke-width:3;stroke-miterlimit:10;" x1="692.5" y1="214.5" x2="508.5" y2="398.5"/>
<line style="fill:none;stroke:#000000;stroke-width:3;stroke-miterlimit:10;" x1="706.5" y1="239.5" x2="454.5" y2="306.5"/>
<line style="fill:none;stroke:#000000;stroke-width:3;stroke-miterlimit:10;" x1="747.5" y1="414.5" x2="492.5" y2="346.5"/>
<line style="fill:none;stroke:#000000;stroke-width:3;stroke-miterlimit:10;" x1="746.5" y1="385.5" x2="492.5" y2="453.5"/>
<line style="fill:none;stroke:#000000;stroke-width:3;stroke-miterlimit:10;" x1="708.5" y1="558.5" x2="452.5" y2="490.5"/>
<line style="fill:none;stroke:#000000;stroke-width:3;stroke-miterlimit:10;" x1="694.5" y1="583.5" x2="508.5" y2="398.5"/>
<line style="fill:none;stroke:#000000;stroke-width:3;stroke-miterlimit:10;" x1="586.5" y1="693.5" x2="399.5" y2="507.5"/>
<line style="fill:none;stroke:#000000;stroke-width:3;stroke-miterlimit:10;" x1="560.5" y1="707.5" x2="492.5" y2="453.5"/>
<line style="fill:none;stroke:#000000;stroke-width:3;stroke-miterlimit:10;" x1="384.5" y1="746.5" x2="452.5" y2="490.5"/>
<line style="fill:none;stroke:#000000;stroke-width:3;stroke-miterlimit:10;" x1="414.5" y1="746.5" x2="346.5" y2="492.5"/>
<line style="fill:none;stroke:#000000;stroke-width:3;stroke-miterlimit:10;" x1="213.5" y1="691.5" x2="399.5" y2="507.5"/>
<line style="fill:none;stroke:#000000;stroke-width:3;stroke-miterlimit:10;" x1="239.5" y1="707.5" x2="306.5" y2="453.5"/>
<line style="fill:none;stroke:#000000;stroke-width:3;stroke-miterlimit:10;" x1="92.5" y1="560.5" x2="346.5" y2="492.5"/>
<line style="fill:none;stroke:#000000;stroke-width:3;stroke-miterlimit:10;" x1="107.5" y1="585.5" x2="293.5" y2="399.5"/>
<line style="fill:none;stroke:#000000;stroke-width:3;stroke-miterlimit:10;" x1="52.5" y1="414.5" x2="306.5" y2="346.5"/>
<line style="fill:none;stroke:#000000;stroke-width:3;stroke-miterlimit:10;" x1="52.5" y1="384.5" x2="306.5" y2="453.5"/>
<line style="fill:none;stroke:#000000;stroke-width:3;stroke-miterlimit:10;" x1="106.5" y1="214.5" x2="293.5" y2="399.5"/>
<line style="fill:none;stroke:#000000;stroke-width:3;stroke-miterlimit:10;" x1="92.5" y1="240.5" x2="346.5" y2="308.5"/>
<line style="fill:none;stroke:#000000;stroke-width:3;stroke-miterlimit:10;" x1="240.5" y1="92.5" x2="306.5" y2="346.5"/>
<line style="fill:none;stroke:#000000;stroke-width:3;stroke-miterlimit:10;" x1="216.5" y1="106.5" x2="401.5" y2="290.5"/>
</svg>
