<?xml version="1.0" encoding="iso-8859-1"?>
<!-- Generator: Adobe Illustrator 23.0.1, SVG Export Plug-In . SVG Version: 6.00 Build 0)  -->
<svg version="1.1" id="pen" xmlns="http://www.w3.org/2000/svg" xmlns:xlink="http://www.w3.org/1999/xlink" x="0px" y="0px"
	 width="800px" height="800px" viewBox="0 0 800 800" style="enable-background:new 0 0 800 800;" xml:space="preserve">
<line style="fill:none;stroke:#B82225;stroke-width:4;stroke-linecap:round;stroke-linejoin:bevel;stroke-miterlimit:10;" x1="381" y1="346" x2="472" y2="224"/>
<line style="fill:none;stroke:#B82225;stroke-width:4;stroke-linecap:round;stroke-linejoin:bevel;stroke-miterlimit:10;" x1="445" y1="356" x2="562" y2="300"/>
<line style="fill:none;stroke:#B82225;stroke-width:4;stroke-linecap:round;stroke-linejoin:bevel;stroke-miterlimit:10;" x1="444" y1="368" x2="590" y2="416"/>
<line style="fill:none;stroke:#B82225;stroke-width:4;stroke-linecap:round;stroke-linejoin:bevel;stroke-miterlimit:10;" x1="454" y1="400" x2="543" y2="523"/>
<line style="fill:none;stroke:#B82225;stroke-width:4;stroke-linecap:round;stroke-linejoin:bevel;stroke-miterlimit:10;" x1="444" y1="433" x2="444" y2="585"/>
<line style="fill:none;stroke:#B82225;stroke-width:4;stroke-linecap:round;stroke-linejoin:bevel;stroke-miterlimit:10;" x1="379" y1="488" x2="326" y2="577"/>
<line style="fill:none;stroke:#B82225;stroke-width:4;stroke-linecap:round;stroke-linejoin:bevel;stroke-miterlimit:10;" x1="352" y1="463" x2="236" y2="511"/>
<line style="fill:none;stroke:#B82225;stroke-width:4;stroke-linecap:round;stroke-linejoin:bevel;stroke-miterlimit:10;" x1="353" y1="434" x2="209" y2="387"/>
<line style="fill:none;stroke:#B82225;stroke-width:4;stroke-linecap:round;stroke-linejoin:bevel;stroke-miterlimit:10;" x1="444" y1="368" x2="444" y2="215"/>
<line style="fill:none;stroke:#B82225;stroke-width:4;stroke-linecap:round;stroke-linejoin:bevel;stroke-miterlimit:10;" x1="454" y1="400" x2="544" y2="276"/>
<line style="fill:none;stroke:#B82225;stroke-width:4;stroke-linecap:round;stroke-linejoin:bevel;stroke-miterlimit:10;" x1="444" y1="433" x2="591" y2="385"/>
<line style="fill:none;stroke:#B82225;stroke-width:4;stroke-linecap:round;stroke-linejoin:bevel;stroke-miterlimit:10;" x1="444" y1="464" x2="560" y2="501"/>
<line style="fill:none;stroke:#B82225;stroke-width:4;stroke-linecap:round;stroke-linejoin:bevel;stroke-miterlimit:10;" x1="443" y1="538" x2="471" y2="576"/>
<line style="fill:none;stroke:#B82225;stroke-width:4;stroke-linecap:round;stroke-linejoin:bevel;stroke-miterlimit:10;" x1="353" y1="434" x2="353" y2="586"/>
<line style="fill:none;stroke:#B82225;stroke-width:4;stroke-linecap:round;stroke-linejoin:bevel;stroke-miterlimit:10;" x1="344" y1="399" x2="253" y2="524"/>
<line style="fill:none;stroke:#B82225;stroke-width:4;stroke-linecap:round;stroke-linejoin:bevel;stroke-miterlimit:10;" x1="381" y1="346" x2="237" y2="299"/>
<line style="fill:none;stroke:#B82225;stroke-width:4;stroke-linecap:round;stroke-linejoin:bevel;stroke-miterlimit:10;" x1="391" y1="328" x2="326" y2="223"/>
<line style="fill:none;stroke:#B82225;stroke-width:4;stroke-linecap:round;stroke-linejoin:bevel;stroke-miterlimit:10;" x1="472" y1="224" x2="561" y2="254"/>
<line style="fill:none;stroke:#B82225;stroke-width:4;stroke-linecap:round;stroke-linejoin:bevel;stroke-miterlimit:10;" x1="544" y1="276" x2="489" y2="201"/>
<line style="fill:none;stroke:#B82225;stroke-width:4;stroke-linecap:round;stroke-linejoin:bevel;stroke-miterlimit:10;" x1="560" y1="501" x2="634" y2="399"/>
<line style="fill:none;stroke:#B82225;stroke-width:4;stroke-linecap:round;stroke-linejoin:bevel;stroke-miterlimit:10;" x1="543" y1="523" x2="488" y2="600"/>
<line style="fill:none;stroke:#B82225;stroke-width:4;stroke-linecap:round;stroke-linejoin:bevel;stroke-miterlimit:10;" x1="471" y1="576" x2="561" y2="547"/>
<line style="fill:none;stroke:#B82225;stroke-width:4;stroke-linecap:round;stroke-linejoin:bevel;stroke-miterlimit:10;" x1="444" y1="585" x2="352" y2="615"/>
<line style="fill:none;stroke:#B82225;stroke-width:4;stroke-linecap:round;stroke-linejoin:bevel;stroke-miterlimit:10;" x1="353" y1="586" x2="444" y2="615"/>
<line style="fill:none;stroke:#B82225;stroke-width:4;stroke-linecap:round;stroke-linejoin:bevel;stroke-miterlimit:10;" x1="326" y1="577" x2="235" y2="548"/>
<line style="fill:none;stroke:#B82225;stroke-width:4;stroke-linecap:round;stroke-linejoin:bevel;stroke-miterlimit:10;" x1="253" y1="524" x2="307" y2="603"/>
<line style="fill:none;stroke:#B82225;stroke-width:4;stroke-linecap:round;stroke-linejoin:bevel;stroke-miterlimit:10;" x1="236" y1="511" x2="164" y2="400"/>
<line style="fill:none;stroke:#B82225;stroke-width:4;stroke-linecap:round;stroke-linejoin:bevel;stroke-miterlimit:10;" x1="254" y1="275" x2="307" y2="199"/>
<line style="fill:none;stroke:#B82225;stroke-width:4;stroke-linecap:round;stroke-linejoin:bevel;stroke-miterlimit:10;" x1="326" y1="223" x2="237" y2="252"/>
<line style="fill:none;stroke:#B82225;stroke-width:4;stroke-linecap:round;stroke-linejoin:bevel;stroke-miterlimit:10;" x1="397" y1="77" x2="471" y2="176"/>
<line style="fill:none;stroke:#B82225;stroke-width:4;stroke-linecap:round;stroke-linejoin:bevel;stroke-miterlimit:10;" x1="444" y1="186" x2="443" y2="93"/>
<line style="fill:none;stroke:#B82225;stroke-width:4;stroke-linecap:round;stroke-linejoin:bevel;stroke-miterlimit:10;" x1="491" y1="76" x2="443" y2="93"/>
<line style="fill:none;stroke:#B82225;stroke-width:4;stroke-linecap:round;stroke-linejoin:bevel;stroke-miterlimit:10;" x1="590" y1="416" x2="591" y2="511"/>
<line style="fill:none;stroke:#B82225;stroke-width:4;stroke-linecap:round;stroke-linejoin:bevel;stroke-miterlimit:10;" x1="643" y1="534" x2="591" y2="511"/>
<line style="fill:none;stroke:#B82225;stroke-width:4;stroke-linecap:round;stroke-linejoin:bevel;stroke-miterlimit:10;" x1="444" y1="707" x2="491" y2="723"/>
<line style="fill:none;stroke:#B82225;stroke-width:4;stroke-linecap:round;stroke-linejoin:bevel;stroke-miterlimit:10;" x1="444" y1="615" x2="444" y2="707"/>
<line style="fill:none;stroke:#B82225;stroke-width:4;stroke-linecap:round;stroke-linejoin:bevel;stroke-miterlimit:10;" x1="471" y1="624" x2="398" y2="725"/>
<line style="fill:none;stroke:#B82225;stroke-width:4;stroke-linecap:round;stroke-linejoin:bevel;stroke-miterlimit:10;" x1="325" y1="624" x2="398" y2="725"/>
<line style="fill:none;stroke:#B82225;stroke-width:4;stroke-linecap:round;stroke-linejoin:bevel;stroke-miterlimit:10;" x1="352" y1="615" x2="352" y2="709"/>
<line style="fill:none;stroke:#B82225;stroke-width:4;stroke-linecap:round;stroke-linejoin:bevel;stroke-miterlimit:10;" x1="307" y1="723" x2="352" y2="709"/>
<line style="fill:none;stroke:#B82225;stroke-width:4;stroke-linecap:round;stroke-linejoin:bevel;stroke-miterlimit:10;" x1="209" y1="690" x2="307" y2="723"/>
<line style="fill:none;stroke:#B82225;stroke-width:4;stroke-linecap:round;stroke-linejoin:bevel;stroke-miterlimit:10;" x1="220" y1="724" x2="307" y2="603"/>
<line style="fill:none;stroke:#B82225;stroke-width:4;stroke-linecap:round;stroke-linejoin:bevel;stroke-miterlimit:10;" x1="325" y1="624" x2="181" y2="670"/>
<line style="fill:none;stroke:#B82225;stroke-width:4;stroke-linecap:round;stroke-linejoin:bevel;stroke-miterlimit:10;" x1="163" y1="646" x2="181" y2="670"/>
<line style="fill:none;stroke:#B82225;stroke-width:4;stroke-linecap:round;stroke-linejoin:bevel;stroke-miterlimit:10;" x1="235" y1="548" x2="163" y2="646"/>
<line style="fill:none;stroke:#B82225;stroke-width:4;stroke-linecap:round;stroke-linejoin:bevel;stroke-miterlimit:10;" x1="209" y1="539" x2="209" y2="690"/>
<line style="fill:none;stroke:#B82225;stroke-width:4;stroke-linecap:round;stroke-linejoin:bevel;stroke-miterlimit:10;" x1="163" y1="525" x2="209" y2="539"/>
<line style="fill:none;stroke:#B82225;stroke-width:4;stroke-linecap:round;stroke-linejoin:bevel;stroke-miterlimit:10;" x1="209" y1="510" x2="163" y2="525"/>
<line style="fill:none;stroke:#B82225;stroke-width:4;stroke-linecap:round;stroke-linejoin:bevel;stroke-miterlimit:10;" x1="209" y1="416" x2="209" y2="510"/>
<line style="fill:none;stroke:#B82225;stroke-width:4;stroke-linecap:round;stroke-linejoin:bevel;stroke-miterlimit:10;" x1="122" y1="137" x2="189" y2="213"/>
<line style="fill:none;stroke:#B82225;stroke-width:4;stroke-linecap:round;stroke-linejoin:bevel;stroke-miterlimit:10;" x1="189" y1="261" x2="189" y2="213"/>
<line style="fill:none;stroke:#B82225;stroke-width:4;stroke-linecap:round;stroke-linejoin:bevel;stroke-miterlimit:10;" x1="144" y1="275" x2="189" y2="261"/>
<line style="fill:none;stroke:#B82225;stroke-width:4;stroke-linecap:round;stroke-linejoin:bevel;stroke-miterlimit:10;" x1="122" y1="137" x2="144" y2="275"/>
<line style="fill:none;stroke:#B82225;stroke-width:4;stroke-linecap:round;stroke-linejoin:bevel;stroke-miterlimit:10;" x1="94" y1="362" x2="135" y2="282"/>
<line style="fill:none;stroke:#B82225;stroke-width:4;stroke-linecap:round;stroke-linejoin:bevel;stroke-miterlimit:10;" x1="176" y1="306" x2="135" y2="282"/>
<line style="fill:none;stroke:#B82225;stroke-width:4;stroke-linecap:round;stroke-linejoin:bevel;stroke-miterlimit:10;" x1="169" y1="351" x2="176" y2="306"/>
<line style="fill:none;stroke:#B82225;stroke-width:4;stroke-linecap:round;stroke-linejoin:bevel;stroke-miterlimit:10;" x1="94" y1="362" x2="169" y2="351"/>
<line style="fill:none;stroke:#B82225;stroke-width:4;stroke-linecap:round;stroke-linejoin:bevel;stroke-miterlimit:10;" x1="209" y1="387" x2="209" y2="337"/>
<line style="fill:none;stroke:#B82225;stroke-width:4;stroke-linecap:round;stroke-linejoin:bevel;stroke-miterlimit:10;" x1="237" y1="299" x2="209" y2="337"/>
<line style="fill:none;stroke:#B82225;stroke-width:4;stroke-linecap:round;stroke-linejoin:bevel;stroke-miterlimit:10;" x1="218" y1="76" x2="235" y2="98"/>
<line style="fill:none;stroke:#B82225;stroke-width:4;stroke-linecap:round;stroke-linejoin:bevel;stroke-miterlimit:10;" x1="207" y1="107" x2="235" y2="98"/>
<line style="fill:none;stroke:#B82225;stroke-width:4;stroke-linecap:round;stroke-linejoin:bevel;stroke-miterlimit:10;" x1="209" y1="213" x2="207" y2="107"/>
<line style="fill:none;stroke:#B82225;stroke-width:4;stroke-linecap:round;stroke-linejoin:bevel;stroke-miterlimit:10;" x1="181" y1="128" x2="281" y2="160"/>
<line style="fill:none;stroke:#B82225;stroke-width:4;stroke-linecap:round;stroke-linejoin:bevel;stroke-miterlimit:10;" x1="163" y1="149" x2="181" y2="128"/>
<line style="fill:none;stroke:#B82225;stroke-width:4;stroke-linecap:round;stroke-linejoin:bevel;stroke-miterlimit:10;" x1="164" y1="76" x2="218" y2="76"/>
<line style="fill:none;stroke:#B82225;stroke-width:4;stroke-linecap:round;stroke-linejoin:bevel;stroke-miterlimit:10;" x1="163" y1="149" x2="164" y2="76"/>
<line style="fill:none;stroke:#B82225;stroke-width:4;stroke-linecap:round;stroke-linejoin:bevel;stroke-miterlimit:10;" x1="237" y1="88" x2="295" y2="88"/>
<line style="fill:none;stroke:#B82225;stroke-width:4;stroke-linecap:round;stroke-linejoin:bevel;stroke-miterlimit:10;" x1="281" y1="150" x2="237" y2="88"/>
<line style="fill:none;stroke:#B82225;stroke-width:4;stroke-linecap:round;stroke-linejoin:bevel;stroke-miterlimit:10;" x1="325" y1="166" x2="281" y2="150"/>
<line style="fill:none;stroke:#B82225;stroke-width:4;stroke-linecap:round;stroke-linejoin:bevel;stroke-miterlimit:10;" x1="353" y1="124" x2="325" y2="166"/>
<line style="fill:none;stroke:#B82225;stroke-width:4;stroke-linecap:round;stroke-linejoin:bevel;stroke-miterlimit:10;" x1="383" y1="48" x2="353" y2="124"/>
<line style="fill:none;stroke:#B82225;stroke-width:4;stroke-linecap:round;stroke-linejoin:bevel;stroke-miterlimit:10;" x1="295" y1="88" x2="383" y2="48"/>
<line style="fill:none;stroke:#B82225;stroke-width:4;stroke-linecap:round;stroke-linejoin:bevel;stroke-miterlimit:10;" x1="354" y1="132" x2="397" y2="77"/>
<line style="fill:none;stroke:#B82225;stroke-width:4;stroke-linecap:round;stroke-linejoin:bevel;stroke-miterlimit:10;" x1="353" y1="186" x2="354" y2="132"/>
<line style="fill:none;stroke:#B82225;stroke-width:4;stroke-linecap:round;stroke-linejoin:bevel;stroke-miterlimit:10;" x1="398" y1="200" x2="353" y2="186"/>
<line style="fill:none;stroke:#B82225;stroke-width:4;stroke-linecap:round;stroke-linejoin:bevel;stroke-miterlimit:10;" x1="444" y1="186" x2="398" y2="200"/>
<line style="fill:none;stroke:#B82225;stroke-width:4;stroke-linecap:round;stroke-linejoin:bevel;stroke-miterlimit:10;" x1="471" y1="176" x2="516" y2="162"/>
<line style="fill:none;stroke:#B82225;stroke-width:4;stroke-linecap:round;stroke-linejoin:bevel;stroke-miterlimit:10;" x1="563" y1="100" x2="516" y2="162"/>
<line style="fill:none;stroke:#B82225;stroke-width:4;stroke-linecap:round;stroke-linejoin:bevel;stroke-miterlimit:10;" x1="491" y1="76" x2="563" y2="100"/>
<line style="fill:none;stroke:#B82225;stroke-width:4;stroke-linecap:round;stroke-linejoin:bevel;stroke-miterlimit:10;" x1="590" y1="137" x2="516" y2="162"/>
<line style="fill:none;stroke:#B82225;stroke-width:4;stroke-linecap:round;stroke-linejoin:bevel;stroke-miterlimit:10;" x1="489" y1="201" x2="516" y2="162"/>
<line style="fill:none;stroke:#B82225;stroke-width:4;stroke-linecap:round;stroke-linejoin:bevel;stroke-miterlimit:10;" x1="590" y1="214" x2="590" y2="137"/>
<line style="fill:none;stroke:#B82225;stroke-width:4;stroke-linecap:round;stroke-linejoin:bevel;stroke-miterlimit:10;" x1="561" y1="254" x2="590" y2="214"/>
<line style="fill:none;stroke:#B82225;stroke-width:4;stroke-linecap:round;stroke-linejoin:bevel;stroke-miterlimit:10;" x1="621" y1="194" x2="725" y2="149"/>
<line style="fill:none;stroke:#B82225;stroke-width:4;stroke-linecap:round;stroke-linejoin:bevel;stroke-miterlimit:10;" x1="647" y1="264" x2="725" y2="149"/>
<line style="fill:none;stroke:#B82225;stroke-width:4;stroke-linecap:round;stroke-linejoin:bevel;stroke-miterlimit:10;" x1="609" y1="241" x2="647" y2="264"/>
<line style="fill:none;stroke:#B82225;stroke-width:4;stroke-linecap:round;stroke-linejoin:bevel;stroke-miterlimit:10;" x1="621" y1="194" x2="609" y2="241"/>
<line style="fill:none;stroke:#B82225;stroke-width:4;stroke-linecap:round;stroke-linejoin:bevel;stroke-miterlimit:10;" x1="599" y1="292" x2="643" y2="276"/>
<line style="fill:none;stroke:#B82225;stroke-width:4;stroke-linecap:round;stroke-linejoin:bevel;stroke-miterlimit:10;" x1="644" y1="400" x2="643" y2="276"/>
<line style="fill:none;stroke:#B82225;stroke-width:4;stroke-linecap:round;stroke-linejoin:bevel;stroke-miterlimit:10;" x1="599" y1="292" x2="600" y2="338"/>
<line style="fill:none;stroke:#B82225;stroke-width:4;stroke-linecap:round;stroke-linejoin:bevel;stroke-miterlimit:10;" x1="644" y1="400" x2="600" y2="338"/>
<line style="fill:none;stroke:#B82225;stroke-width:4;stroke-linecap:round;stroke-linejoin:bevel;stroke-miterlimit:10;" x1="562" y1="300" x2="590" y2="338"/>
<line style="fill:none;stroke:#B82225;stroke-width:4;stroke-linecap:round;stroke-linejoin:bevel;stroke-miterlimit:10;" x1="591" y1="385" x2="590" y2="338"/>
<line style="fill:none;stroke:#B82225;stroke-width:4;stroke-linecap:round;stroke-linejoin:bevel;stroke-miterlimit:10;" x1="616" y1="546" x2="673" y2="547"/>
<line style="fill:none;stroke:#B82225;stroke-width:4;stroke-linecap:round;stroke-linejoin:bevel;stroke-miterlimit:10;" x1="657" y1="658" x2="673" y2="547"/>
<line style="fill:none;stroke:#B82225;stroke-width:4;stroke-linecap:round;stroke-linejoin:bevel;stroke-miterlimit:10;" x1="616" y1="546" x2="610" y2="587"/>
<line style="fill:none;stroke:#B82225;stroke-width:4;stroke-linecap:round;stroke-linejoin:bevel;stroke-miterlimit:10;" x1="657" y1="658" x2="610" y2="587"/>
<line style="fill:none;stroke:#B82225;stroke-width:4;stroke-linecap:round;stroke-linejoin:bevel;stroke-miterlimit:10;" x1="561" y1="547" x2="591" y2="589"/>
<line style="fill:none;stroke:#B82225;stroke-width:4;stroke-linecap:round;stroke-linejoin:bevel;stroke-miterlimit:10;" x1="589" y1="662" x2="591" y2="589"/>
<line style="fill:none;stroke:#B82225;stroke-width:4;stroke-linecap:round;stroke-linejoin:bevel;stroke-miterlimit:10;" x1="515" y1="638" x2="589" y2="662"/>
<line style="fill:none;stroke:#B82225;stroke-width:4;stroke-linecap:round;stroke-linejoin:bevel;stroke-miterlimit:10;" x1="488" y1="600" x2="559" y2="700"/>
<line style="fill:none;stroke:#B82225;stroke-width:4;stroke-linecap:round;stroke-linejoin:bevel;stroke-miterlimit:10;" x1="471" y1="624" x2="515" y2="638"/>
<line style="fill:none;stroke:#B82225;stroke-width:4;stroke-linecap:round;stroke-linejoin:bevel;stroke-miterlimit:10;" x1="491" y1="723" x2="559" y2="700"/>
<line style="fill:none;stroke:#B82225;stroke-width:4;stroke-linecap:round;stroke-linejoin:bevel;stroke-miterlimit:10;" x1="567" y1="717" x2="598" y2="724"/>
<line style="fill:none;stroke:#B82225;stroke-width:4;stroke-linecap:round;stroke-linejoin:bevel;stroke-miterlimit:10;" x1="607" y1="690" x2="598" y2="724"/>
<line style="fill:none;stroke:#B82225;stroke-width:4;stroke-linecap:round;stroke-linejoin:bevel;stroke-miterlimit:10;" x1="629" y1="705" x2="607" y2="690"/>
<line style="fill:none;stroke:#B82225;stroke-width:4;stroke-linecap:round;stroke-linejoin:bevel;stroke-miterlimit:10;" x1="662" y1="693" x2="629" y2="705"/>
<line style="fill:none;stroke:#B82225;stroke-width:4;stroke-linecap:round;stroke-linejoin:bevel;stroke-miterlimit:10;" x1="667" y1="761" x2="662" y2="693"/>
<line style="fill:none;stroke:#B82225;stroke-width:4;stroke-linecap:round;stroke-linejoin:bevel;stroke-miterlimit:10;" x1="567" y1="717" x2="577" y2="744"/>
<line style="fill:none;stroke:#B82225;stroke-width:4;stroke-linecap:round;stroke-linejoin:bevel;stroke-miterlimit:10;" x1="667" y1="761" x2="577" y2="744"/>
<line style="fill:none;stroke:#B82225;stroke-width:4;stroke-linecap:round;stroke-linejoin:bevel;stroke-miterlimit:10;" x1="281" y1="312" x2="281" y2="372"/>
<line style="fill:none;stroke:#B82225;stroke-width:4;stroke-linecap:round;stroke-linejoin:bevel;stroke-miterlimit:10;" x1="250" y1="401" x2="281" y2="372"/>
<line style="fill:none;stroke:#B82225;stroke-width:4;stroke-linecap:round;stroke-linejoin:bevel;stroke-miterlimit:10;" x1="344" y1="399" x2="295" y2="366"/>
<line style="fill:none;stroke:#B82225;stroke-width:4;stroke-linecap:round;stroke-linejoin:bevel;stroke-miterlimit:10;" x1="352" y1="369" x2="295" y2="366"/>
<line style="fill:none;stroke:#B82225;stroke-width:4;stroke-linecap:round;stroke-linejoin:bevel;stroke-miterlimit:10;" x1="354" y1="214" x2="352" y2="369"/>
<line style="fill:none;stroke:#B82225;stroke-width:4;stroke-linecap:round;stroke-linejoin:bevel;stroke-miterlimit:10;" x1="391" y1="328" x2="417" y2="396"/>
<line style="fill:none;stroke:#B82225;stroke-width:4;stroke-linecap:round;stroke-linejoin:bevel;stroke-miterlimit:10;" x1="445" y1="356" x2="417" y2="396"/>
<line style="fill:none;stroke:#B82225;stroke-width:4;stroke-linecap:round;stroke-linejoin:bevel;stroke-miterlimit:10;" x1="352" y1="463" x2="382" y2="434"/>
<line style="fill:none;stroke:#B82225;stroke-width:4;stroke-linecap:round;stroke-linejoin:bevel;stroke-miterlimit:10;" x1="398" y1="475" x2="382" y2="434"/>
<line style="fill:none;stroke:#B82225;stroke-width:4;stroke-linecap:round;stroke-linejoin:bevel;stroke-miterlimit:10;" x1="409" y1="433" x2="398" y2="475"/>
<line style="fill:none;stroke:#B82225;stroke-width:4;stroke-linecap:round;stroke-linejoin:bevel;stroke-miterlimit:10;" x1="444" y1="464" x2="409" y2="433"/>
</svg>
