<?xml version="1.0" encoding="iso-8859-1"?>
<!-- Generator: Adobe Illustrator 23.0.1, SVG Export Plug-In . SVG Version: 6.00 Build 0)  -->
<svg version="1.1" id="colours" xmlns="http://www.w3.org/2000/svg" xmlns:xlink="http://www.w3.org/1999/xlink" x="0px" y="0px"
	 viewBox="0 0 800 800" style="enable-background:new 0 0 800 800;" xml:space="preserve">
<polygon style="fill:#DF00EC;" points="400,200 459,258 459,339 541,339 599,400 541,459 459,458 459,541 399,600 340,541 340,458 
	258,459 200,399 258,339 341,339 340,257 "/>
<polygon style="fill:#E700A2;" points="200,399 141,339 59,339 58,258 0,200 0,600 59,541 58,459 141,459 "/>
<polygon style="fill:#E700A2;" points="740,339 658,339 599,400 658,459 740,458 740,541 799,600 800,200 740,257 "/>
<polygon style="fill:#E700A2;" points="399,600 459,658 459,739 541,739 599,798 199,798 256,740 339,740 340,657 "/>
<polygon style="fill:#E700A2;" points="400,200 459,136 459,58 541,58 599,0 199,0 258,58 340,58 340,141 "/>
<polygon style="fill:#00D1E7;" points="59,58 141,59 199,0 1,0 0,200 59,141 "/>
<polygon style="fill:#00D1E7;" points="799,0 800,200 740,141 740,58 658,58 599,0 "/>
<polygon style="fill:#00D1E7;" points="740,657 799,600 799,798 599,798 658,739 740,739 "/>
<polygon style="fill:#00D1E7;" points="0,600 59,658 58,739 141,739 199,798 1,800 "/>
<polygon style="fill:#FFC8EC;" points="199,0 258,58 340,58 340,141 400,200 340,257 341,339 258,339 200,399 141,339 59,339 
	58,258 0,200 59,141 59,58 141,59 "/>
<polygon style="fill:#FFC8EC;" points="599,0 658,58 740,58 740,141 800,200 740,257 741,339 658,339 600,399 541,339 459,339 
	458,258 400,200 459,141 459,58 541,59 "/>
<polygon style="fill:#FFC8EC;" points="599,400 658,458 740,458 740,541 800,600 740,657 741,739 658,739 600,799 541,739 459,739 
	458,658 400,600 459,541 459,458 541,459 "/>
<polygon style="fill:#FFC8EC;" points="198,400 257,458 339,458 339,541 399,600 339,657 340,739 257,739 199,799 140,739 58,739 
	57,658 -1,600 58,541 58,458 140,459 "/>
</svg>
