<?xml version="1.0" encoding="iso-8859-1"?>
<!-- Generator: Adobe Illustrator 23.0.1, SVG Export Plug-In . SVG Version: 6.00 Build 0)  -->
<svg version="1.1" id="colours" xmlns="http://www.w3.org/2000/svg" xmlns:xlink="http://www.w3.org/1999/xlink" x="0px" y="0px"
	 viewBox="0 0 800 800" style="enable-background:new 0 0 800 800;" xml:space="preserve">
<polygon style="opacity:0.5;fill:#FFFF00;" points="400,0 517,117 683,117 683,283 798,400 800,1 "/>
<polygon style="opacity:0.5;fill:#FFFF00;" points="1,1 1,399 117,282 117,117 282,117 400,0 "/>
<polygon style="opacity:0.5;fill:#FFFF00;" points="1,799 1,399 117,516 117,682 283,682 399,799 "/>
<polygon style="opacity:0.5;fill:#FFFF00;" points="800,799 798,400 683,517 683,682 513,682 399,799 "/>
<polygon style="opacity:0.5;fill:#FF0000;" points="400,1 517,117 683,117 683,283 798,400 683,517 683,682 513,682 400,799 
	283,682 117,682 117,516 0,400 117,285 117,117 282,117 "/>
<g>
</g>
<g>
</g>
<g>
</g>
<g>
</g>
<g>
</g>
<g>
</g>
<g>
</g>
<g>
</g>
<g>
</g>
<g>
</g>
<g>
</g>
<g>
</g>
<g>
</g>
<g>
</g>
<g>
</g>
</svg>
