<?xml version="1.0" encoding="iso-8859-1"?>
<!-- Generator: Adobe Illustrator 23.0.1, SVG Export Plug-In . SVG Version: 6.00 Build 0)  -->
<svg version="1.1" xmlns="http://www.w3.org/2000/svg" xmlns:xlink="http://www.w3.org/1999/xlink" x="0px" y="0px"
	 viewBox="0 0 800 800" style="enable-background:new 0 0 800 800;" xml:space="preserve">
<g id="pencil">
	<line style="fill:none;stroke:#9E9E9E;stroke-miterlimit:10;" x1="1.33" y1="0.666" x2="799.335" y2="799.334"/>
	<line style="fill:none;stroke:#9E9E9E;stroke-miterlimit:10;" x1="799.335" y1="0.666" x2="1.33" y2="799.334"/>
	<line style="fill:none;stroke:#9E9E9E;stroke-miterlimit:10;" x1="399.5" y1="0.5" x2="681.5" y2="117.5"/>
	<line style="fill:none;stroke:#9E9E9E;stroke-miterlimit:10;" x1="797.5" y1="399.5" x2="681.5" y2="117.5"/>
	<line style="fill:none;stroke:#9E9E9E;stroke-miterlimit:10;" x1="681.5" y1="680.5" x2="797.5" y2="399.5"/>
	<line style="fill:none;stroke:#9E9E9E;stroke-miterlimit:10;" x1="399.5" y1="798.5" x2="681.5" y2="680.5"/>
	<line style="fill:none;stroke:#9E9E9E;stroke-miterlimit:10;" x1="118.5" y1="680.5" x2="399.5" y2="798.5"/>
	<line style="fill:none;stroke:#9E9E9E;stroke-miterlimit:10;" x1="1.5" y1="399.5" x2="118.5" y2="680.5"/>
	<line style="fill:none;stroke:#9E9E9E;stroke-miterlimit:10;" x1="118.5" y1="117.5" x2="1.5" y2="399.5"/>
	<line style="fill:none;stroke:#9E9E9E;stroke-miterlimit:10;" x1="399.5" y1="0.5" x2="118.5" y2="117.5"/>
	<line style="fill:none;stroke:#9E9E9E;stroke-miterlimit:10;" x1="399.5" y1="399.5" x2="399.5" y2="0.5"/>
	<line style="fill:none;stroke:#9E9E9E;stroke-miterlimit:10;" x1="1.5" y1="399.5" x2="399.5" y2="399.5"/>
	<line style="fill:none;stroke:#9E9E9E;stroke-miterlimit:10;" x1="399.5" y1="798.5" x2="399.5" y2="399.5"/>
	<line style="fill:none;stroke:#9E9E9E;stroke-miterlimit:10;" x1="797.5" y1="399.5" x2="399.5" y2="399.5"/>
	<line style="fill:none;stroke:#9E9E9E;stroke-miterlimit:10;" x1="118.5" y1="117.5" x2="681.5" y2="117.5"/>
	<line style="fill:none;stroke:#9E9E9E;stroke-miterlimit:10;" x1="681.5" y1="680.5" x2="681.5" y2="117.5"/>
	<line style="fill:none;stroke:#9E9E9E;stroke-miterlimit:10;" x1="118.5" y1="680.5" x2="681.5" y2="680.5"/>
	<line style="fill:none;stroke:#9E9E9E;stroke-miterlimit:10;" x1="118.5" y1="117.5" x2="118.5" y2="680.5"/>
	<line style="fill:none;stroke:#9E9E9E;stroke-miterlimit:10;" x1="0.5" y1="399.5" x2="399.5" y2="798.5"/>
	<line style="fill:none;stroke:#9E9E9E;stroke-miterlimit:10;" x1="797.5" y1="399.5" x2="399.5" y2="798.5"/>
	<line style="fill:none;stroke:#9E9E9E;stroke-miterlimit:10;" x1="399.5" y1="0.5" x2="798.5" y2="399.5"/>
	<line style="fill:none;stroke:#9E9E9E;stroke-miterlimit:10;" x1="0.5" y1="399.5" x2="399.5" y2="0.5"/>
	<circle style="fill:none;" cx="400" cy="400" r="400"/>
</g>
<g id="pen">
	<line style="fill:none;stroke:#000000;stroke-width:4;stroke-miterlimit:10;" x1="399.5" y1="0.5" x2="516.5" y2="117.5"/>
	<line style="fill:none;stroke:#000000;stroke-width:4;stroke-miterlimit:10;" x1="682" y1="117" x2="517" y2="117"/>
	<line style="fill:none;stroke:#000000;stroke-width:4;stroke-miterlimit:10;" x1="682" y1="282" x2="682" y2="117"/>
	<line style="fill:none;stroke:#000000;stroke-width:4;stroke-miterlimit:10;" x1="800" y1="400" x2="682" y2="282"/>
	<line style="fill:none;stroke:#000000;stroke-width:4;stroke-miterlimit:10;" x1="682" y1="515" x2="800" y2="400"/>
	<line style="fill:none;stroke:#000000;stroke-width:4;stroke-miterlimit:10;" x1="682" y1="680" x2="682" y2="515"/>
	<line style="fill:none;stroke:#000000;stroke-width:4;stroke-miterlimit:10;" x1="517" y1="681" x2="682" y2="680"/>
	<line style="fill:none;stroke:#000000;stroke-width:4;stroke-miterlimit:10;" x1="400" y1="798" x2="517" y2="681"/>
	<line style="fill:none;stroke:#000000;stroke-width:4;stroke-miterlimit:10;" x1="282" y1="680" x2="400" y2="798"/>
	<line style="fill:none;stroke:#000000;stroke-width:4;stroke-miterlimit:10;" x1="119" y1="680" x2="282" y2="680"/>
	<line style="fill:none;stroke:#000000;stroke-width:4;stroke-miterlimit:10;" x1="119" y1="517" x2="119" y2="680"/>
	<line style="fill:none;stroke:#000000;stroke-width:4;stroke-miterlimit:10;" x1="0" y1="400" x2="119" y2="517"/>
	<line style="fill:none;stroke:#000000;stroke-width:4;stroke-miterlimit:10;" x1="119" y1="282" x2="0" y2="400"/>
	<line style="fill:none;stroke:#000000;stroke-width:4;stroke-miterlimit:10;" x1="119" y1="117" x2="119" y2="282"/>
	<line style="fill:none;stroke:#000000;stroke-width:4;stroke-miterlimit:10;" x1="282" y1="118" x2="119" y2="117"/>
	<line style="fill:none;stroke:#000000;stroke-width:4;stroke-miterlimit:10;" x1="400" y1="0" x2="282" y2="118"/>
</g>
<g id="colours">
	<polygon style="opacity:0.5;fill:#FFB8B8;" points="400,0 517,117 683,117 683,283 798,400 800,1 	"/>
	<polygon style="opacity:0.5;fill:#FFB8B8;" points="1,1 1,399 117,282 117,117 282,117 400,0 	"/>
	<polygon style="opacity:0.5;fill:#FFB8B8;" points="1,799 1,399 117,516 117,682 283,682 399,799 	"/>
	<polygon style="opacity:0.5;fill:#FFB8B8;" points="800,799 798,400 683,517 683,682 513,682 399,799 	"/>
	<polygon style="opacity:0.5;fill:#BBFFD2;" points="400,1 517,117 683,117 683,283 798,400 683,517 683,682 513,682 400,799 
		283,682 117,682 117,516 0,400 117,285 117,117 282,117 	"/>
	<g>
	</g>
	<g>
	</g>
	<g>
	</g>
	<g>
	</g>
	<g>
	</g>
	<g>
	</g>
	<g>
	</g>
	<g>
	</g>
	<g>
	</g>
	<g>
	</g>
	<g>
	</g>
	<g>
	</g>
	<g>
	</g>
	<g>
	</g>
	<g>
	</g>
</g>
</svg>
