<?xml version="1.0" encoding="iso-8859-1"?>
<!-- Generator: Adobe Illustrator 23.0.1, SVG Export Plug-In . SVG Version: 6.00 Build 0)  -->
<svg version="1.1" id="pencil" xmlns="http://www.w3.org/2000/svg" xmlns:xlink="http://www.w3.org/1999/xlink" x="0px" y="0px"
	 viewBox="0 0 800 800" style="enable-background:new 0 0 800 800;" xml:space="preserve">
<line style="fill:none;stroke:#9E9E9E;stroke-miterlimit:10;" x1="0.665" y1="0.332" x2="399.668" y2="398.668"/>
<line style="fill:none;stroke:#9E9E9E;stroke-miterlimit:10;" x1="399.668" y1="0.332" x2="0.665" y2="398.668"/>
<line style="fill:none;stroke:#9E9E9E;stroke-miterlimit:10;" x1="199.75" y1="0.249" x2="340.75" y2="58.603"/>
<line style="fill:none;stroke:#9E9E9E;stroke-miterlimit:10;" x1="398.75" y1="199.251" x2="340.75" y2="58.603"/>
<line style="fill:none;stroke:#9E9E9E;stroke-miterlimit:10;" x1="340.75" y1="339.399" x2="398.75" y2="199.251"/>
<line style="fill:none;stroke:#9E9E9E;stroke-miterlimit:10;" x1="199.75" y1="398.252" x2="340.75" y2="339.399"/>
<line style="fill:none;stroke:#9E9E9E;stroke-miterlimit:10;" x1="59.25" y1="339.399" x2="199.75" y2="398.252"/>
<line style="fill:none;stroke:#9E9E9E;stroke-miterlimit:10;" x1="0.75" y1="199.251" x2="59.25" y2="339.399"/>
<line style="fill:none;stroke:#9E9E9E;stroke-miterlimit:10;" x1="59.25" y1="58.603" x2="0.75" y2="199.251"/>
<line style="fill:none;stroke:#9E9E9E;stroke-miterlimit:10;" x1="199.75" y1="0.249" x2="59.25" y2="58.603"/>
<line style="fill:none;stroke:#9E9E9E;stroke-miterlimit:10;" x1="199.75" y1="199.251" x2="199.75" y2="0.249"/>
<line style="fill:none;stroke:#9E9E9E;stroke-miterlimit:10;" x1="0.75" y1="199.251" x2="199.75" y2="199.251"/>
<line style="fill:none;stroke:#9E9E9E;stroke-miterlimit:10;" x1="199.75" y1="398.252" x2="199.75" y2="199.251"/>
<line style="fill:none;stroke:#9E9E9E;stroke-miterlimit:10;" x1="398.75" y1="199.251" x2="199.75" y2="199.251"/>
<line style="fill:none;stroke:#9E9E9E;stroke-miterlimit:10;" x1="59.25" y1="58.603" x2="340.75" y2="58.603"/>
<line style="fill:none;stroke:#9E9E9E;stroke-miterlimit:10;" x1="340.75" y1="339.399" x2="340.75" y2="58.603"/>
<line style="fill:none;stroke:#9E9E9E;stroke-miterlimit:10;" x1="59.25" y1="339.399" x2="340.75" y2="339.399"/>
<line style="fill:none;stroke:#9E9E9E;stroke-miterlimit:10;" x1="59.25" y1="58.603" x2="59.25" y2="339.399"/>
<line style="fill:none;stroke:#9E9E9E;stroke-miterlimit:10;" x1="0.25" y1="199.251" x2="199.75" y2="398.252"/>
<line style="fill:none;stroke:#9E9E9E;stroke-miterlimit:10;" x1="398.75" y1="199.251" x2="199.75" y2="398.252"/>
<line style="fill:none;stroke:#9E9E9E;stroke-miterlimit:10;" x1="199.75" y1="0.249" x2="399.25" y2="199.251"/>
<line style="fill:none;stroke:#9E9E9E;stroke-miterlimit:10;" x1="0.25" y1="199.251" x2="199.75" y2="0.249"/>
<ellipse style="fill:none;" cx="200" cy="199.5" rx="200" ry="199.5"/>
<line style="fill:none;stroke:#9E9E9E;stroke-miterlimit:10;" x1="399.665" y1="0.332" x2="798.667" y2="398.668"/>
<line style="fill:none;stroke:#9E9E9E;stroke-miterlimit:10;" x1="798.667" y1="0.332" x2="399.665" y2="398.668"/>
<line style="fill:none;stroke:#9E9E9E;stroke-miterlimit:10;" x1="598.75" y1="0.249" x2="739.75" y2="58.603"/>
<line style="fill:none;stroke:#9E9E9E;stroke-miterlimit:10;" x1="797.75" y1="199.251" x2="739.75" y2="58.603"/>
<line style="fill:none;stroke:#9E9E9E;stroke-miterlimit:10;" x1="739.75" y1="339.399" x2="797.75" y2="199.251"/>
<line style="fill:none;stroke:#9E9E9E;stroke-miterlimit:10;" x1="598.75" y1="398.252" x2="739.75" y2="339.399"/>
<line style="fill:none;stroke:#9E9E9E;stroke-miterlimit:10;" x1="458.25" y1="339.399" x2="598.75" y2="398.252"/>
<line style="fill:none;stroke:#9E9E9E;stroke-miterlimit:10;" x1="399.75" y1="199.251" x2="458.25" y2="339.399"/>
<line style="fill:none;stroke:#9E9E9E;stroke-miterlimit:10;" x1="458.25" y1="58.603" x2="399.75" y2="199.251"/>
<line style="fill:none;stroke:#9E9E9E;stroke-miterlimit:10;" x1="598.75" y1="0.249" x2="458.25" y2="58.603"/>
<line style="fill:none;stroke:#9E9E9E;stroke-miterlimit:10;" x1="598.75" y1="199.251" x2="598.75" y2="0.249"/>
<line style="fill:none;stroke:#9E9E9E;stroke-miterlimit:10;" x1="399.75" y1="199.251" x2="598.75" y2="199.251"/>
<line style="fill:none;stroke:#9E9E9E;stroke-miterlimit:10;" x1="598.75" y1="398.252" x2="598.75" y2="199.251"/>
<line style="fill:none;stroke:#9E9E9E;stroke-miterlimit:10;" x1="797.75" y1="199.251" x2="598.75" y2="199.251"/>
<line style="fill:none;stroke:#9E9E9E;stroke-miterlimit:10;" x1="458.25" y1="58.603" x2="739.75" y2="58.603"/>
<line style="fill:none;stroke:#9E9E9E;stroke-miterlimit:10;" x1="739.75" y1="339.399" x2="739.75" y2="58.603"/>
<line style="fill:none;stroke:#9E9E9E;stroke-miterlimit:10;" x1="458.25" y1="339.399" x2="739.75" y2="339.399"/>
<line style="fill:none;stroke:#9E9E9E;stroke-miterlimit:10;" x1="458.25" y1="58.603" x2="458.25" y2="339.399"/>
<line style="fill:none;stroke:#9E9E9E;stroke-miterlimit:10;" x1="399.25" y1="199.251" x2="598.75" y2="398.252"/>
<line style="fill:none;stroke:#9E9E9E;stroke-miterlimit:10;" x1="797.75" y1="199.251" x2="598.75" y2="398.252"/>
<line style="fill:none;stroke:#9E9E9E;stroke-miterlimit:10;" x1="598.75" y1="0.249" x2="798.25" y2="199.251"/>
<line style="fill:none;stroke:#9E9E9E;stroke-miterlimit:10;" x1="399.25" y1="199.251" x2="598.75" y2="0.249"/>
<ellipse style="fill:none;" cx="599" cy="199.5" rx="200" ry="199.5"/>
<line style="fill:none;stroke:#9E9E9E;stroke-miterlimit:10;" x1="-0.335" y1="400.332" x2="398.668" y2="798.668"/>
<line style="fill:none;stroke:#9E9E9E;stroke-miterlimit:10;" x1="398.668" y1="400.332" x2="-0.335" y2="798.668"/>
<line style="fill:none;stroke:#9E9E9E;stroke-miterlimit:10;" x1="198.75" y1="400.249" x2="339.75" y2="458.603"/>
<line style="fill:none;stroke:#9E9E9E;stroke-miterlimit:10;" x1="397.75" y1="599.251" x2="339.75" y2="458.603"/>
<line style="fill:none;stroke:#9E9E9E;stroke-miterlimit:10;" x1="339.75" y1="739.399" x2="397.75" y2="599.251"/>
<line style="fill:none;stroke:#9E9E9E;stroke-miterlimit:10;" x1="198.75" y1="798.252" x2="339.75" y2="739.399"/>
<line style="fill:none;stroke:#9E9E9E;stroke-miterlimit:10;" x1="58.25" y1="739.399" x2="198.75" y2="798.252"/>
<line style="fill:none;stroke:#9E9E9E;stroke-miterlimit:10;" x1="-0.25" y1="599.251" x2="58.25" y2="739.399"/>
<line style="fill:none;stroke:#9E9E9E;stroke-miterlimit:10;" x1="58.25" y1="458.603" x2="-0.25" y2="599.251"/>
<line style="fill:none;stroke:#9E9E9E;stroke-miterlimit:10;" x1="198.75" y1="400.249" x2="58.25" y2="458.603"/>
<line style="fill:none;stroke:#9E9E9E;stroke-miterlimit:10;" x1="198.75" y1="599.251" x2="198.75" y2="400.249"/>
<line style="fill:none;stroke:#9E9E9E;stroke-miterlimit:10;" x1="-0.25" y1="599.251" x2="198.75" y2="599.251"/>
<line style="fill:none;stroke:#9E9E9E;stroke-miterlimit:10;" x1="198.75" y1="798.252" x2="198.75" y2="599.251"/>
<line style="fill:none;stroke:#9E9E9E;stroke-miterlimit:10;" x1="397.75" y1="599.251" x2="198.75" y2="599.251"/>
<line style="fill:none;stroke:#9E9E9E;stroke-miterlimit:10;" x1="58.25" y1="458.603" x2="339.75" y2="458.603"/>
<line style="fill:none;stroke:#9E9E9E;stroke-miterlimit:10;" x1="339.75" y1="739.399" x2="339.75" y2="458.603"/>
<line style="fill:none;stroke:#9E9E9E;stroke-miterlimit:10;" x1="58.25" y1="739.399" x2="339.75" y2="739.399"/>
<line style="fill:none;stroke:#9E9E9E;stroke-miterlimit:10;" x1="58.25" y1="458.603" x2="58.25" y2="739.399"/>
<line style="fill:none;stroke:#9E9E9E;stroke-miterlimit:10;" x1="-0.75" y1="599.251" x2="198.75" y2="798.252"/>
<line style="fill:none;stroke:#9E9E9E;stroke-miterlimit:10;" x1="397.75" y1="599.251" x2="198.75" y2="798.252"/>
<line style="fill:none;stroke:#9E9E9E;stroke-miterlimit:10;" x1="198.75" y1="400.249" x2="398.25" y2="599.251"/>
<line style="fill:none;stroke:#9E9E9E;stroke-miterlimit:10;" x1="-0.75" y1="599.251" x2="198.75" y2="400.249"/>
<ellipse style="fill:none;" cx="199" cy="599.5" rx="200" ry="199.5"/>
<line style="fill:none;stroke:#9E9E9E;stroke-miterlimit:10;" x1="399.665" y1="399.332" x2="798.667" y2="797.668"/>
<line style="fill:none;stroke:#9E9E9E;stroke-miterlimit:10;" x1="798.667" y1="399.332" x2="399.665" y2="797.668"/>
<line style="fill:none;stroke:#9E9E9E;stroke-miterlimit:10;" x1="598.75" y1="399.249" x2="739.75" y2="457.603"/>
<line style="fill:none;stroke:#9E9E9E;stroke-miterlimit:10;" x1="797.75" y1="598.251" x2="739.75" y2="457.603"/>
<line style="fill:none;stroke:#9E9E9E;stroke-miterlimit:10;" x1="739.75" y1="738.399" x2="797.75" y2="598.251"/>
<line style="fill:none;stroke:#9E9E9E;stroke-miterlimit:10;" x1="598.75" y1="797.252" x2="739.75" y2="738.399"/>
<line style="fill:none;stroke:#9E9E9E;stroke-miterlimit:10;" x1="458.25" y1="738.399" x2="598.75" y2="797.252"/>
<line style="fill:none;stroke:#9E9E9E;stroke-miterlimit:10;" x1="399.75" y1="598.251" x2="458.25" y2="738.399"/>
<line style="fill:none;stroke:#9E9E9E;stroke-miterlimit:10;" x1="458.25" y1="457.603" x2="399.75" y2="598.251"/>
<line style="fill:none;stroke:#9E9E9E;stroke-miterlimit:10;" x1="598.75" y1="399.249" x2="458.25" y2="457.603"/>
<line style="fill:none;stroke:#9E9E9E;stroke-miterlimit:10;" x1="598.75" y1="598.251" x2="598.75" y2="399.249"/>
<line style="fill:none;stroke:#9E9E9E;stroke-miterlimit:10;" x1="399.75" y1="598.251" x2="598.75" y2="598.251"/>
<line style="fill:none;stroke:#9E9E9E;stroke-miterlimit:10;" x1="598.75" y1="797.252" x2="598.75" y2="598.251"/>
<line style="fill:none;stroke:#9E9E9E;stroke-miterlimit:10;" x1="797.75" y1="598.251" x2="598.75" y2="598.251"/>
<line style="fill:none;stroke:#9E9E9E;stroke-miterlimit:10;" x1="458.25" y1="457.603" x2="739.75" y2="457.603"/>
<line style="fill:none;stroke:#9E9E9E;stroke-miterlimit:10;" x1="739.75" y1="738.399" x2="739.75" y2="457.603"/>
<line style="fill:none;stroke:#9E9E9E;stroke-miterlimit:10;" x1="458.25" y1="738.399" x2="739.75" y2="738.399"/>
<line style="fill:none;stroke:#9E9E9E;stroke-miterlimit:10;" x1="458.25" y1="457.603" x2="458.25" y2="738.399"/>
<line style="fill:none;stroke:#9E9E9E;stroke-miterlimit:10;" x1="399.25" y1="598.251" x2="598.75" y2="797.252"/>
<line style="fill:none;stroke:#9E9E9E;stroke-miterlimit:10;" x1="797.75" y1="598.251" x2="598.75" y2="797.252"/>
<line style="fill:none;stroke:#9E9E9E;stroke-miterlimit:10;" x1="598.75" y1="399.249" x2="798.25" y2="598.251"/>
<line style="fill:none;stroke:#9E9E9E;stroke-miterlimit:10;" x1="399.25" y1="598.251" x2="598.75" y2="399.249"/>
<ellipse style="fill:none;" cx="599" cy="598.5" rx="200" ry="199.5"/>

</svg>
