<?xml version="1.0" encoding="iso-8859-1"?>
<!-- Generator: Adobe Illustrator 23.0.1, SVG Export Plug-In . SVG Version: 6.00 Build 0)  -->
<svg version="1.1" id="colour" xmlns="http://www.w3.org/2000/svg" xmlns:xlink="http://www.w3.org/1999/xlink" x="0px" y="0px"
	 viewBox="0 0 800 800" style="enable-background:new 0 0 800 800;" xml:space="preserve">
<polygon style="fill:#94C93D;" points="163.5,263 236.5,264 299.5,300 335.5,363 335.5,437 299.5,499 236.5,536 163.5,536 99.5,499 
	62.5,437 62.5,363 99.5,299 "/>
<polygon style="fill:#94C93D;" points="135.5,53 135.5,90 99.5,153 36.5,190 -0.5,190 -0.5,54 "/>
<polygon style="fill:#94C93D;" points="399.5,54 399.5,190 363.5,190 299.5,153 262.5,90 262.5,54 "/>
<polygon style="fill:#94C93D;" points="-0.5,610 36.5,610 100.5,645 135.5,713 135.5,747 -0.5,746 "/>
<polygon style="fill:#94C93D;" points="400.5,746 262.5,746 262.5,710 300.5,645 363.5,610 399.5,610 "/>
<polygon style="fill:#E9E626;" points="99.5,154 163.5,190 163.5,263 99.5,300 36.5,263 36.5,190 "/>
<polygon style="fill:#E9E626;" points="299.5,154 363.5,190 363.5,263 299.5,300 236.5,264 236.5,190 "/>
<polygon style="fill:#E9E626;" points="299.5,500 363.5,536 363.5,610 299.5,646 236.5,609 236.5,536 "/>
<polygon style="fill:#E9E626;" points="99.5,500 163.5,536 163.5,610 99.5,646 36.5,610 36.5,537 "/>
<polygon style="fill:#BF59A2;" points="135.5,53 135.5,90 199.5,127 262.5,90 262.5,54 "/>
<polygon style="fill:#BF59A2;" points="399.5,327 335.5,363 335.5,437 400.5,473 "/>
<polygon style="fill:#BF59A2;" points="-0.5,327 62.5,363 62.5,437 0.5,473 "/>
<polygon style="fill:#BF59A2;" points="135.5,747 135.5,710 199.5,673 262.5,710 262.5,746 "/>
<polygon style="fill:#83D4F1;" points="199.5,127 236.5,190 163.5,190 "/>
<polygon style="fill:#83D4F1;" points="0.5,473 36.5,537 -0.5,537 "/>
<polygon style="fill:#83D4F1;" points="400.5,473 363.5,536 399.5,537 "/>
<polygon style="fill:#83D4F1;" points="363.5,263 399.5,327 399.5,263 "/>
<polygon style="fill:#83D4F1;" points="36.5,263 -0.5,263 -0.5,327 "/>
<polygon style="fill:#83D4F1;" points="163.5,610 236.5,609 199.5,673 "/>
<polygon style="fill:#F47D5E;" points="163.5,536 163.5,610 236.5,609 236.5,536 "/>
<polygon style="fill:#F47D5E;" points="199.5,673 236.5,609 299.5,646 262.5,710 "/>
<polygon style="fill:#F47D5E;" points="163.5,610 99.5,646 135.5,710 199.5,673 "/>
<polygon style="fill:#F47D5E;" points="135.5,90 199.5,127 163.5,190 99.5,154 "/>
<polygon style="fill:#F47D5E;" points="262.5,90 299.5,154 236.5,190 199.5,127 "/>
<polygon style="fill:#F47D5E;" points="163.5,263 163.5,190 236.5,190 236.5,264 "/>
<polygon style="fill:#F47D5E;" points="62.5,363 -0.5,327 36.5,263 99.5,300 "/>
<polygon style="fill:#F47D5E;" points="62.5,437 99.5,500 36.5,537 0.5,473 "/>
<polygon style="fill:#F47D5E;" points="363.5,263 299.5,300 335.5,363 399.5,327 "/>
<polygon style="fill:#F47D5E;" points="335.5,437 400.5,473 363.5,536 299.5,500 "/>
<polygon style="fill:#F47D5E;" points="399.5,537 363.5,536 363.5,610 399.5,610 "/>
<rect x="363.5" y="190" style="fill:#F47D5E;" width="36" height="73"/>
<rect x="-0.5" y="190" style="fill:#F47D5E;" width="37" height="73"/>
<rect x="-0.5" y="537" style="fill:#F47D5E;" width="37" height="73"/>
<polygon style="fill:#94C93D;" points="563.5,263 636.5,264 699.5,300 735.5,363 735.5,437 699.5,499 636.5,536 563.5,536 
	499.5,499 462.5,437 462.5,363 499.5,299 "/>
<polygon style="fill:#94C93D;" points="535.5,53 535.5,90 499.5,153 436.5,190 399.5,190 399.5,54 "/>
<polygon style="fill:#94C93D;" points="799.5,54 799.5,190 763.5,190 699.5,153 662.5,90 662.5,54 "/>
<polygon style="fill:#94C93D;" points="399.5,610 436.5,610 500.5,645 535.5,713 535.5,747 399.5,746 "/>
<polygon style="fill:#94C93D;" points="800.5,746 662.5,746 662.5,710 700.5,645 763.5,610 799.5,610 "/>
<polygon style="fill:#E9E626;" points="499.5,154 563.5,190 563.5,263 499.5,300 436.5,263 436.5,190 "/>
<polygon style="fill:#E9E626;" points="699.5,154 763.5,190 763.5,263 699.5,300 636.5,264 636.5,190 "/>
<polygon style="fill:#E9E626;" points="699.5,500 763.5,536 763.5,610 699.5,646 636.5,609 636.5,536 "/>
<polygon style="fill:#E9E626;" points="499.5,500 563.5,536 563.5,610 499.5,646 436.5,610 436.5,537 "/>
<polygon style="fill:#BF59A2;" points="535.5,53 535.5,90 599.5,127 662.5,90 662.5,54 "/>
<polygon style="fill:#BF59A2;" points="799.5,327 735.5,363 735.5,437 800.5,473 "/>
<polygon style="fill:#BF59A2;" points="399.5,327 462.5,363 462.5,437 400.5,473 "/>
<polygon style="fill:#BF59A2;" points="535.5,747 535.5,710 599.5,673 662.5,710 662.5,746 "/>
<polygon style="fill:#83D4F1;" points="599.5,127 636.5,190 563.5,190 "/>
<polygon style="fill:#83D4F1;" points="400.5,473 436.5,537 399.5,537 "/>
<polygon style="fill:#83D4F1;" points="800.5,473 763.5,536 799.5,537 "/>
<polygon style="fill:#83D4F1;" points="763.5,263 799.5,327 799.5,263 "/>
<polygon style="fill:#83D4F1;" points="436.5,263 399.5,263 399.5,327 "/>
<polygon style="fill:#83D4F1;" points="563.5,610 636.5,609 599.5,673 "/>
<polygon style="fill:#F47D5E;" points="563.5,536 563.5,610 636.5,609 636.5,536 "/>
<polygon style="fill:#F47D5E;" points="599.5,673 636.5,609 699.5,646 662.5,710 "/>
<polygon style="fill:#F47D5E;" points="563.5,610 499.5,646 535.5,710 599.5,673 "/>
<polygon style="fill:#F47D5E;" points="535.5,90 599.5,127 563.5,190 499.5,154 "/>
<polygon style="fill:#F47D5E;" points="662.5,90 699.5,154 636.5,190 599.5,127 "/>
<polygon style="fill:#F47D5E;" points="563.5,263 563.5,190 636.5,190 636.5,264 "/>
<polygon style="fill:#F47D5E;" points="462.5,363 399.5,327 436.5,263 499.5,300 "/>
<polygon style="fill:#F47D5E;" points="462.5,437 499.5,500 436.5,537 400.5,473 "/>
<polygon style="fill:#F47D5E;" points="763.5,263 699.5,300 735.5,363 799.5,327 "/>
<polygon style="fill:#F47D5E;" points="735.5,437 800.5,473 763.5,536 699.5,500 "/>
<polygon style="fill:#F47D5E;" points="799.5,537 763.5,536 763.5,610 799.5,610 "/>
<rect x="763.5" y="190" style="fill:#F47D5E;" width="36" height="73"/>
<rect x="399.5" y="190" style="fill:#F47D5E;" width="37" height="73"/>
<rect x="399.5" y="537" style="fill:#F47D5E;" width="37" height="73"/>
</svg>
