<?xml version="1.0" encoding="iso-8859-1"?>
<!-- Generator: Adobe Illustrator 23.0.1, SVG Export Plug-In . SVG Version: 6.00 Build 0)  -->
<svg version="1.1" id="colour" xmlns="http://www.w3.org/2000/svg" xmlns:xlink="http://www.w3.org/1999/xlink" x="0px" y="0px"
	 width="800px" height="800px" viewBox="0 0 800 800" style="enable-background:new 0 0 800 800;" xml:space="preserve">
<polygon style="fill:#21E5EA;" points="392,330 417,366 444,353 444,368 471,377 457,400 471,425 444,433 424,443 417,454 398,475 
	382,474 354,462 373,423 325,425 345,398 325,376 352,369 354,337 381,346 "/>
<polygon style="fill:#ED0000;" points="354,269 393,310 443,263 443.511,238.49 444,215 399,199 354,214 "/>
<polygon style="fill:#ED0000;" points="454,344 454,253 481,214 527,229 554,266 504,301 "/>
<polygon style="fill:#ED0000;" points="499,368 506,322 559,299 587,337 587,384 541,400 "/>
<polygon style="fill:#ED0000;" points="490,425 563,401 589.5,409.641 609,416 608,463 589,521 532,486 "/>
<polygon style="fill:#ED0000;" points="444,463 516,487 583,544 516,561 491,566 443,539 "/>
<polygon style="fill:#ED0000;" points="408,487 443,559 454,596 408,610 363,596 363,548 386.975,515.5 "/>
<polygon style="fill:#ED0000;" points="354,462 353,538 325,576 276,562 253,525 272,497 "/>
<polygon style="fill:#ED0000;" points="189,468 189,416 232,401 305,425 257,494 216,511 "/>
<polygon style="fill:#ED0000;" points="207,289 251,304 295,366 222,391 179,377 149,347 "/>
<polygon style="fill:#ED0000;" points="281,239 325,264 354,261 354,337 308.908,322.793 281,314 253,275 "/>
<polygon style="fill:#ED0000;" points="418,77 434,139 417,152 434,186 389,199 343,186 343,134 "/>
<polygon style="fill:#ED0000;" points="471.801,50.529 522.374,44.584 587.269,83.937 527.702,113.985 480.719,137.669 
	462.586,95.607 "/>
<polygon style="fill:#ED0000;" points="648,122 628,199 599,241 554,224 527,185 564,157 "/>
<polygon style="fill:#ED0000;" points="707.377,132.109 691.31,256.076 650.191,237.986 656.1,189.343 "/>
<polygon style="fill:#ED0000;" points="628,302 672,286 673,410 629,348 "/>
<polygon style="fill:#ED0000;" points="618,463 663,400 703,534 619,511 "/>
<polygon style="fill:#ED0000;" points="650.29,552.148 703.064,568.423 661.81,671.477 634.33,590.998 "/>
<polygon style="fill:#ED0000;" points="545,607 590,592 620,634 618,707 544,683 517,645 "/>
<polygon style="fill:#ED0000;" points="471,654 515,668 559,730 491,754 444,737 443,692 "/>
<polygon style="fill:#ED0000;" points="352,626 398,610 444,626 443,672 398,735 353,672 "/>
<polygon style="fill:#ED0000;" points="352.621,691.067 341.33,736.899 304.568,766.2 264.25,741.212 237.91,672.058 
	313.071,665.439 "/>
<polygon style="fill:#ED0000;" points="195,557 236,602 267,615 240,648 169,672 169,596 "/>
<polygon style="fill:#ED0000;" points="79.505,542.18 127.515,544.835 138.697,590.485 77.815,657.763 "/>
<polygon style="fill:#ED0000;" points="143,401 139,462 189,508 103,525 "/>
<polygon style="fill:#ED0000;" points="81.472,327.118 125.657,361.736 89.832,390.607 11.059,393.238 "/>
<polygon style="fill:#ED0000;" points="65.748,171.762 136.826,193.067 165.027,231.909 136.837,269.676 "/>
<polygon style="fill:#ED0000;" points="187,147 239,180 285,209 259,249 215,265 227,203 "/>
<polygon style="fill:#ED0000;" points="222,64 292,42 339,58 338,100 310,142 266,126 "/>
<polygon style="fill:#21E5EA;" points="630.02,43.477 620.691,69.896 648.846,70.451 656.536,98.413 681.147,82.31 702.673,100.244 
	682.786,27.929 "/>
<polygon style="fill:#21E5EA;" points="649.592,780.546 597.081,764.187 586.737,736.875 618.416,739.412 626.681,709.517 
	649.125,724.888 682.104,713.166 "/>
<polygon style="fill:#21E5EA;" points="133,743 133,664 151,690 179,682 179,710 207,720 192,742 "/>
<polygon style="fill:#21E5EA;" points="130,59 183,59 200,81 172,90 172,120 146,111 128,132 "/>
</svg>
