<?xml version="1.0" encoding="iso-8859-1"?>
<!-- Generator: Adobe Illustrator 23.0.1, SVG Export Plug-In . SVG Version: 6.00 Build 0)  -->
<svg version="1.1" id="colour" xmlns="http://www.w3.org/2000/svg" xmlns:xlink="http://www.w3.org/1999/xlink" x="0px" y="0px"
	 viewBox="0 0 800 800" style="enable-background:new 0 0 800 800;" xml:space="preserve">
<polyline style="fill:#DAFFFD;" points="299.877,42.342 259.031,142.466 358.158,100.623 342.217,60.275 "/>
<polygon style="fill:#DAFFFD;" points="200.252,0.998 241.596,18.433 200.75,117.559 158.908,18.433 "/>
<polygon style="fill:#DAFFFD;" points="282.941,199.75 382.068,158.406 399.004,199.75 381.569,241.094 "/>
<polygon style="fill:#DAFFFD;" points="259.031,257.533 358.158,299.375 340.723,339.723 299.379,357.158 "/>
<polygon style="fill:#DAFFFD;" points="59.781,59.279 101.125,42.342 142.967,142.466 42.844,100.623 "/>
<polygon style="fill:#DAFFFD;" points="18.436,158.406 116.567,199.75 18.436,241.094 1.5,199.75 "/>
<polygon style="fill:#DAFFFD;" points="42.844,299.375 142.967,257.533 101.125,357.158 59.283,340.719 "/>
<polygon style="fill:#DAFFFD;" points="200.252,283.435 241.596,381.068 200.75,398.502 158.908,381.566 "/>
<polygon style="fill:#E1FFD5;" points="1.5,316.809 59.283,340.719 85.185,399 1.5,399 "/>
<polygon style="fill:#E1FFD5;" points="341.221,340.719 400,316.809 400,399 315.817,399 "/>
<polygon style="fill:#E1FFD5;" points="1.5,0.998 85.185,0.998 58.784,59.279 1.5,83.189 "/>
<polygon style="fill:#E1FFD5;" points="399.004,0.5 317.809,0.998 341.221,59.279 399.004,84.185 "/>
<polygon style="fill:#FFE7FF;" points="142.967,142.466 185.308,158.406 200.75,117.559 216.69,158.406 259.031,142.466 
	241.596,179.825 282.941,199.75 241.596,217.184 259.031,257.533 217.188,241.094 200.252,283.435 183.814,241.094 142.967,257.533 
	158.908,217.184 116.567,199.75 158.908,182.316 "/>
<polygon style="fill:#5CD6FF;" points="200.252,0.998 158.908,18.433 200.75,117.559 185.308,158.406 142.967,142.466 
	101.125,42.342 59.283,59.279 85.185,0.998 "/>
<polygon style="fill:#5CA5FF;" points="1.5,199.75 18.436,241.094 116.567,199.75 158.908,217.184 142.967,257.533 42.844,299.375 
	59.283,340.719 1.5,316.809 "/>
<polygon style="fill:#5CD6FF;" points="200.252,283.435 241.596,381.068 200.75,398.502 315.817,399 341.221,340.719 
	299.379,357.158 259.031,257.533 217.188,241.094 "/>
<polygon style="fill:#5CA5FF;" points="259.529,142.466 358.656,100.623 341.719,59.279 399.502,84.185 399.502,199.75 
	382.566,158.406 283.439,199.75 242.094,182.316 "/>
<polygon style="fill:#5CD6FF;" points="200.75,0.998 241.596,18.433 200.75,117.559 217.686,158.406 259.031,142.466 
	299.877,42.342 341.221,59.279 317.809,0.998 "/>
<polygon style="fill:#5CA5FF;" points="282.941,199.75 380.573,241.094 399.004,200.248 399.502,316.809 340.723,340.719 
	358.656,299.375 259.031,257.533 241.596,217.184 "/>
<polygon style="fill:#5CD6FF;" points="101.125,357.158 142.967,257.533 184.312,241.094 200.252,283.435 158.908,381.566 
	200.252,398.502 85.185,398.502 59.283,340.719 "/>
<polygon style="fill:#5CA5FF;" points="1.5,83.189 59.283,59.279 42.844,100.623 142.967,142.466 159.406,182.316 116.567,199.75 
	18.436,158.406 1.5,200.248 "/>
<polyline style="fill:#DAFFFD;" points="697.877,42.342 657.031,142.466 756.157,100.623 740.218,60.275 "/>
<polygon style="fill:#DAFFFD;" points="598.252,0.998 639.596,18.433 598.75,117.559 556.907,18.433 "/>
<polygon style="fill:#DAFFFD;" points="680.941,199.75 780.068,158.406 797.004,199.75 779.569,241.094 "/>
<polygon style="fill:#DAFFFD;" points="657.031,257.533 756.157,299.375 738.723,339.723 697.379,357.158 "/>
<polygon style="fill:#DAFFFD;" points="457.781,59.279 499.125,42.342 540.968,142.466 440.844,100.623 "/>
<polygon style="fill:#DAFFFD;" points="416.436,158.406 514.567,199.75 416.436,241.094 399.5,199.75 "/>
<polygon style="fill:#DAFFFD;" points="440.844,299.375 540.968,257.533 499.125,357.158 457.283,340.719 "/>
<polygon style="fill:#DAFFFD;" points="598.252,283.435 639.596,381.068 598.75,398.502 556.907,381.566 "/>
<polygon style="fill:#E1FFD5;" points="399.5,316.809 457.283,340.719 483.185,399 399.5,399 "/>
<polygon style="fill:#E1FFD5;" points="739.221,340.719 798,316.809 798,399 713.817,399 "/>
<polygon style="fill:#E1FFD5;" points="399.5,0.998 483.185,0.998 456.784,59.279 399.5,83.189 "/>
<polygon style="fill:#E1FFD5;" points="797.004,0.5 715.809,0.998 739.221,59.279 797.004,84.185 "/>
<polygon style="fill:#FFE7FF;" points="540.968,142.466 583.308,158.406 598.75,117.559 614.69,158.406 657.031,142.466 
	639.596,179.825 680.941,199.75 639.596,217.184 657.031,257.533 615.188,241.094 598.252,283.435 581.814,241.094 540.968,257.533 
	556.907,217.184 514.567,199.75 556.907,182.316 "/>
<polygon style="fill:#5CD6FF;" points="598.252,0.998 556.907,18.433 598.75,117.559 583.308,158.406 540.968,142.466 
	499.125,42.342 457.283,59.279 483.185,0.998 "/>
<polygon style="fill:#5CA5FF;" points="399.5,199.75 416.436,241.094 514.567,199.75 556.907,217.184 540.968,257.533 
	440.844,299.375 457.283,340.719 399.5,316.809 "/>
<polygon style="fill:#5CD6FF;" points="598.252,283.435 639.596,381.068 598.75,398.502 713.817,399 739.221,340.719 
	697.379,357.158 657.031,257.533 615.188,241.094 "/>
<polygon style="fill:#5CA5FF;" points="657.529,142.466 756.656,100.623 739.719,59.279 797.502,84.185 797.502,199.75 
	780.566,158.406 681.439,199.75 640.094,182.316 "/>
<polygon style="fill:#5CD6FF;" points="598.75,0.998 639.596,18.433 598.75,117.559 615.686,158.406 657.031,142.466 
	697.877,42.342 739.221,59.279 715.809,0.998 "/>
<polygon style="fill:#5CA5FF;" points="680.941,199.75 778.573,241.094 797.004,200.248 797.502,316.809 738.723,340.719 
	756.656,299.375 657.031,257.533 639.596,217.184 "/>
<polygon style="fill:#5CD6FF;" points="499.125,357.158 540.968,257.533 582.312,241.094 598.252,283.435 556.907,381.566 
	598.252,398.502 483.185,398.502 457.283,340.719 "/>
<polygon style="fill:#5CA5FF;" points="399.5,83.189 457.283,59.279 440.844,100.623 540.968,142.466 557.406,182.316 
	514.567,199.75 416.436,158.406 399.5,200.248 "/>
<polyline style="fill:#DAFFFD;" points="299.877,440.342 259.031,540.466 358.158,498.623 342.217,458.275 "/>
<polygon style="fill:#DAFFFD;" points="200.252,398.998 241.596,416.432 200.75,515.559 158.908,416.432 "/>
<polygon style="fill:#DAFFFD;" points="282.941,597.75 382.068,556.406 399.004,597.75 381.569,639.094 "/>
<polygon style="fill:#DAFFFD;" points="259.031,655.532 358.158,697.375 340.723,737.723 299.379,755.157 "/>
<polygon style="fill:#DAFFFD;" points="59.781,457.279 101.125,440.342 142.967,540.466 42.844,498.623 "/>
<polygon style="fill:#DAFFFD;" points="18.436,556.406 116.567,597.75 18.436,639.094 1.5,597.75 "/>
<polygon style="fill:#DAFFFD;" points="42.844,697.375 142.967,655.532 101.125,755.157 59.283,738.719 "/>
<polygon style="fill:#DAFFFD;" points="200.252,681.435 241.596,779.068 200.75,796.502 158.908,779.566 "/>
<polygon style="fill:#E1FFD5;" points="1.5,714.809 59.283,738.719 85.185,797 1.5,797 "/>
<polygon style="fill:#E1FFD5;" points="341.221,738.719 400,714.809 400,797 315.817,797 "/>
<polygon style="fill:#E1FFD5;" points="1.5,398.998 85.185,398.998 58.784,457.279 1.5,481.189 "/>
<polygon style="fill:#E1FFD5;" points="399.004,398.5 317.809,398.998 341.221,457.279 399.004,482.185 "/>
<polygon style="fill:#FFE7FF;" points="142.967,540.466 185.308,556.406 200.75,515.559 216.69,556.406 259.031,540.466 
	241.596,577.825 282.941,597.75 241.596,615.184 259.031,655.532 217.188,639.094 200.252,681.435 183.814,639.094 142.967,655.532 
	158.908,615.184 116.567,597.75 158.908,580.316 "/>
<polygon style="fill:#5CD6FF;" points="200.252,398.998 158.908,416.432 200.75,515.559 185.308,556.406 142.967,540.466 
	101.125,440.342 59.283,457.279 85.185,398.998 "/>
<polygon style="fill:#5CA5FF;" points="1.5,597.75 18.436,639.094 116.567,597.75 158.908,615.184 142.967,655.532 42.844,697.375 
	59.283,738.719 1.5,714.809 "/>
<polygon style="fill:#5CD6FF;" points="200.252,681.435 241.596,779.068 200.75,796.502 315.817,797 341.221,738.719 
	299.379,755.157 259.031,655.532 217.188,639.094 "/>
<polygon style="fill:#5CA5FF;" points="259.529,540.466 358.656,498.623 341.719,457.279 399.502,482.185 399.502,597.75 
	382.566,556.406 283.439,597.75 242.094,580.316 "/>
<polygon style="fill:#5CD6FF;" points="200.75,398.998 241.596,416.432 200.75,515.559 217.686,556.406 259.031,540.466 
	299.877,440.342 341.221,457.279 317.809,398.998 "/>
<polygon style="fill:#5CA5FF;" points="282.941,597.75 380.573,639.094 399.004,598.248 399.502,714.809 340.723,738.719 
	358.656,697.375 259.031,655.532 241.596,615.184 "/>
<polygon style="fill:#5CD6FF;" points="101.125,755.157 142.967,655.532 184.312,639.094 200.252,681.435 158.908,779.566 
	200.252,796.502 85.185,796.502 59.283,738.719 "/>
<polygon style="fill:#5CA5FF;" points="1.5,481.189 59.283,457.279 42.844,498.623 142.967,540.466 159.406,580.316 116.567,597.75 
	18.436,556.406 1.5,598.248 "/>
<polyline style="fill:#DAFFFD;" points="697.877,440.342 657.031,540.466 756.157,498.623 740.218,458.275 "/>
<polygon style="fill:#DAFFFD;" points="598.252,398.998 639.596,416.432 598.75,515.559 556.907,416.432 "/>
<polygon style="fill:#DAFFFD;" points="680.941,597.75 780.068,556.406 797.004,597.75 779.569,639.094 "/>
<polygon style="fill:#DAFFFD;" points="657.031,655.532 756.157,697.375 738.723,737.723 697.379,755.157 "/>
<polygon style="fill:#DAFFFD;" points="457.781,457.279 499.125,440.342 540.968,540.466 440.844,498.623 "/>
<polygon style="fill:#DAFFFD;" points="416.436,556.406 514.567,597.75 416.436,639.094 399.5,597.75 "/>
<polygon style="fill:#DAFFFD;" points="440.844,697.375 540.968,655.532 499.125,755.157 457.283,738.719 "/>
<polygon style="fill:#DAFFFD;" points="598.252,681.435 639.596,779.068 598.75,796.502 556.907,779.566 "/>
<polygon style="fill:#E1FFD5;" points="399.5,714.809 457.283,738.719 483.185,797 399.5,797 "/>
<polygon style="fill:#E1FFD5;" points="739.221,738.719 798,714.809 798,797 713.817,797 "/>
<polygon style="fill:#E1FFD5;" points="399.5,398.998 483.185,398.998 456.784,457.279 399.5,481.189 "/>
<polygon style="fill:#E1FFD5;" points="797.004,398.5 715.809,398.998 739.221,457.279 797.004,482.185 "/>
<polygon style="fill:#FFE7FF;" points="540.968,540.466 583.308,556.406 598.75,515.559 614.69,556.406 657.031,540.466 
	639.596,577.825 680.941,597.75 639.596,615.184 657.031,655.532 615.188,639.094 598.252,681.435 581.814,639.094 540.968,655.532 
	556.907,615.184 514.567,597.75 556.907,580.316 "/>
<polygon style="fill:#5CD6FF;" points="598.252,398.998 556.907,416.432 598.75,515.559 583.308,556.406 540.968,540.466 
	499.125,440.342 457.283,457.279 483.185,398.998 "/>
<polygon style="fill:#5CA5FF;" points="399.5,597.75 416.436,639.094 514.567,597.75 556.907,615.184 540.968,655.532 
	440.844,697.375 457.283,738.719 399.5,714.809 "/>
<polygon style="fill:#5CD6FF;" points="598.252,681.435 639.596,779.068 598.75,796.502 713.817,797 739.221,738.719 
	697.379,755.157 657.031,655.532 615.188,639.094 "/>
<polygon style="fill:#5CA5FF;" points="657.529,540.466 756.656,498.623 739.719,457.279 797.502,482.185 797.502,597.75 
	780.566,556.406 681.439,597.75 640.094,580.316 "/>
<polygon style="fill:#5CD6FF;" points="598.75,398.998 639.596,416.432 598.75,515.559 615.686,556.406 657.031,540.466 
	697.877,440.342 739.221,457.279 715.809,398.998 "/>
<polygon style="fill:#5CA5FF;" points="680.941,597.75 778.573,639.094 797.004,598.248 797.502,714.809 738.723,738.719 
	756.656,697.375 657.031,655.532 639.596,615.184 "/>
<polygon style="fill:#5CD6FF;" points="499.125,755.157 540.968,655.532 582.312,639.094 598.252,681.435 556.907,779.566 
	598.252,796.502 483.185,796.502 457.283,738.719 "/>
<polygon style="fill:#5CA5FF;" points="399.5,481.189 457.283,457.279 440.844,498.623 540.968,540.466 557.406,580.316 
	514.567,597.75 416.436,556.406 399.5,598.248 "/>
</svg>
