<?xml version="1.0" encoding="iso-8859-1"?>
<!-- Generator: Adobe Illustrator 23.0.1, SVG Export Plug-In . SVG Version: 6.00 Build 0)  -->
<svg version="1.1" id="pen" xmlns="http://www.w3.org/2000/svg" xmlns:xlink="http://www.w3.org/1999/xlink" x="0px" y="0px"
	 viewBox="0 0 800 800" style="enable-background:new 0 0 800 800;" xml:space="preserve">
<line style="fill:none;stroke:#000000;stroke-width:3;stroke-miterlimit:10;" x1="0.663" y1="82.988" x2="100.164" y2="41.827"/>
<line style="fill:none;stroke:#000000;stroke-width:3;stroke-miterlimit:10;" x1="100.164" y1="41.827" x2="158.538" y2="181.908"/>
<line style="fill:none;stroke:#000000;stroke-width:3;stroke-miterlimit:10;" x1="158.538" y1="181.908" x2="17.247" y2="240.33"/>
<line style="fill:none;stroke:#000000;stroke-width:3;stroke-miterlimit:10;" x1="0" y1="199.833" x2="17.247" y2="240.33"/>
<line style="fill:none;stroke:#000000;stroke-width:3;stroke-miterlimit:10;" x1="17.247" y1="159.335" x2="0" y2="199.833"/>
<line style="fill:none;stroke:#000000;stroke-width:3;stroke-miterlimit:10;" x1="17.247" y1="159.335" x2="158.538" y2="217.094"/>
<line style="fill:none;stroke:#000000;stroke-width:3;stroke-miterlimit:10;" x1="100.164" y1="357.175" x2="158.538" y2="217.094"/>
<line style="fill:none;stroke:#000000;stroke-width:3;stroke-miterlimit:10;" x1="0.663" y1="316.678" x2="100.164" y2="357.175"/>
<line style="fill:none;stroke:#000000;stroke-width:3;stroke-miterlimit:10;" x1="83.581" y1="398.336" x2="41.127" y2="299.416"/>
<line style="fill:none;stroke:#000000;stroke-width:3;stroke-miterlimit:10;" x1="183.082" y1="240.994" x2="41.127" y2="299.416"/>
<line style="fill:none;stroke:#000000;stroke-width:3;stroke-miterlimit:10;" x1="241.455" y1="381.075" x2="183.082" y2="240.994"/>
<line style="fill:none;stroke:#000000;stroke-width:3;stroke-miterlimit:10;" x1="199.002" y1="398.336" x2="241.455" y2="381.075"/>
<line style="fill:none;stroke:#000000;stroke-width:3;stroke-miterlimit:10;" x1="157.875" y1="381.739" x2="199.002" y2="398.336"/>
<line style="fill:none;stroke:#000000;stroke-width:3;stroke-miterlimit:10;" x1="216.248" y1="240.994" x2="157.875" y2="381.739"/>
<line style="fill:none;stroke:#000000;stroke-width:3;stroke-miterlimit:10;" x1="357.54" y1="299.416" x2="216.248" y2="240.994"/>
<line style="fill:none;stroke:#000000;stroke-width:3;stroke-miterlimit:10;" x1="315.086" y1="399" x2="357.54" y2="299.416"/>
<line style="fill:none;stroke:#000000;stroke-width:3;stroke-miterlimit:10;" x1="297.839" y1="357.175" x2="398.667" y2="316.014"/>
<line style="fill:none;stroke:#000000;stroke-width:3;stroke-miterlimit:10;" x1="240.129" y1="217.094" x2="297.839" y2="357.175"/>
<line style="fill:none;stroke:#000000;stroke-width:3;stroke-miterlimit:10;" x1="381.42" y1="158.672" x2="240.129" y2="217.094"/>
<line style="fill:none;stroke:#000000;stroke-width:3;stroke-miterlimit:10;" x1="398.003" y1="199.833" x2="381.42" y2="158.672"/>
<line style="fill:none;stroke:#000000;stroke-width:3;stroke-miterlimit:10;" x1="380.757" y1="240.994" x2="398.003" y2="199.833"/>
<line style="fill:none;stroke:#000000;stroke-width:3;stroke-miterlimit:10;" x1="240.792" y1="182.572" x2="380.757" y2="240.994"/>
<line style="fill:none;stroke:#000000;stroke-width:3;stroke-miterlimit:10;" x1="299.829" y1="42.491" x2="240.792" y2="182.572"/>
<line style="fill:none;stroke:#000000;stroke-width:3;stroke-miterlimit:10;" x1="398.003" y1="83.652" x2="299.829" y2="42.491"/>
<line style="fill:none;stroke:#000000;stroke-width:3;stroke-miterlimit:10;" x1="317.076" y1="0.666" x2="357.54" y2="100.249"/>
<line style="fill:none;stroke:#000000;stroke-width:3;stroke-miterlimit:10;" x1="215.585" y1="158.672" x2="357.54" y2="100.249"/>
<line style="fill:none;stroke:#000000;stroke-width:3;stroke-miterlimit:10;" x1="157.875" y1="17.927" x2="215.585" y2="158.672"/>
<line style="fill:none;stroke:#000000;stroke-width:3;stroke-miterlimit:10;" x1="199.002" y1="0.666" x2="157.875" y2="17.927"/>
<line style="fill:none;stroke:#000000;stroke-width:3;stroke-miterlimit:10;" x1="240.792" y1="17.927" x2="199.002" y2="0.666"/>
<line style="fill:none;stroke:#000000;stroke-width:3;stroke-miterlimit:10;" x1="182.418" y1="158.672" x2="240.792" y2="17.927"/>
<line style="fill:none;stroke:#000000;stroke-width:3;stroke-miterlimit:10;" x1="41.79" y1="99.585" x2="182.418" y2="158.672"/>
<line style="fill:none;stroke:#000000;stroke-width:3;stroke-miterlimit:10;" x1="82.917" y1="0.666" x2="41.79" y2="99.585"/>
<line style="fill:none;stroke:#000000;stroke-width:3;stroke-miterlimit:10;" x1="400.663" y1="82.988" x2="500.164" y2="41.827"/>
<line style="fill:none;stroke:#000000;stroke-width:3;stroke-miterlimit:10;" x1="500.164" y1="41.827" x2="558.538" y2="181.908"/>
<line style="fill:none;stroke:#000000;stroke-width:3;stroke-miterlimit:10;" x1="558.538" y1="181.908" x2="417.247" y2="240.33"/>
<line style="fill:none;stroke:#000000;stroke-width:3;stroke-miterlimit:10;" x1="400" y1="199.833" x2="417.247" y2="240.33"/>
<line style="fill:none;stroke:#000000;stroke-width:3;stroke-miterlimit:10;" x1="417.247" y1="159.335" x2="400" y2="199.833"/>
<line style="fill:none;stroke:#000000;stroke-width:3;stroke-miterlimit:10;" x1="417.247" y1="159.335" x2="558.538" y2="217.094"/>
<line style="fill:none;stroke:#000000;stroke-width:3;stroke-miterlimit:10;" x1="500.164" y1="357.175" x2="558.538" y2="217.094"/>
<line style="fill:none;stroke:#000000;stroke-width:3;stroke-miterlimit:10;" x1="400.663" y1="316.678" x2="500.164" y2="357.175"/>
<line style="fill:none;stroke:#000000;stroke-width:3;stroke-miterlimit:10;" x1="483.581" y1="398.336" x2="441.127" y2="299.416"/>
<line style="fill:none;stroke:#000000;stroke-width:3;stroke-miterlimit:10;" x1="583.082" y1="240.994" x2="441.127" y2="299.416"/>
<line style="fill:none;stroke:#000000;stroke-width:3;stroke-miterlimit:10;" x1="641.455" y1="381.075" x2="583.082" y2="240.994"/>
<line style="fill:none;stroke:#000000;stroke-width:3;stroke-miterlimit:10;" x1="599.002" y1="398.336" x2="641.455" y2="381.075"/>
<line style="fill:none;stroke:#000000;stroke-width:3;stroke-miterlimit:10;" x1="557.875" y1="381.739" x2="599.002" y2="398.336"/>
<line style="fill:none;stroke:#000000;stroke-width:3;stroke-miterlimit:10;" x1="616.248" y1="240.994" x2="557.875" y2="381.739"/>
<line style="fill:none;stroke:#000000;stroke-width:3;stroke-miterlimit:10;" x1="757.54" y1="299.416" x2="616.248" y2="240.994"/>
<line style="fill:none;stroke:#000000;stroke-width:3;stroke-miterlimit:10;" x1="715.086" y1="399" x2="757.54" y2="299.416"/>
<line style="fill:none;stroke:#000000;stroke-width:3;stroke-miterlimit:10;" x1="697.839" y1="357.175" x2="798.667" y2="316.014"/>
<line style="fill:none;stroke:#000000;stroke-width:3;stroke-miterlimit:10;" x1="640.129" y1="217.094" x2="697.839" y2="357.175"/>
<line style="fill:none;stroke:#000000;stroke-width:3;stroke-miterlimit:10;" x1="781.42" y1="158.672" x2="640.129" y2="217.094"/>
<line style="fill:none;stroke:#000000;stroke-width:3;stroke-miterlimit:10;" x1="798.003" y1="199.833" x2="781.42" y2="158.672"/>
<line style="fill:none;stroke:#000000;stroke-width:3;stroke-miterlimit:10;" x1="780.757" y1="240.994" x2="798.003" y2="199.833"/>
<line style="fill:none;stroke:#000000;stroke-width:3;stroke-miterlimit:10;" x1="640.792" y1="182.572" x2="780.757" y2="240.994"/>
<line style="fill:none;stroke:#000000;stroke-width:3;stroke-miterlimit:10;" x1="699.829" y1="42.491" x2="640.792" y2="182.572"/>
<line style="fill:none;stroke:#000000;stroke-width:3;stroke-miterlimit:10;" x1="798.003" y1="83.652" x2="699.829" y2="42.491"/>
<line style="fill:none;stroke:#000000;stroke-width:3;stroke-miterlimit:10;" x1="717.076" y1="0.666" x2="757.54" y2="100.249"/>
<line style="fill:none;stroke:#000000;stroke-width:3;stroke-miterlimit:10;" x1="615.585" y1="158.672" x2="757.54" y2="100.249"/>
<line style="fill:none;stroke:#000000;stroke-width:3;stroke-miterlimit:10;" x1="557.875" y1="17.927" x2="615.585" y2="158.672"/>
<line style="fill:none;stroke:#000000;stroke-width:3;stroke-miterlimit:10;" x1="599.002" y1="0.666" x2="557.875" y2="17.927"/>
<line style="fill:none;stroke:#000000;stroke-width:3;stroke-miterlimit:10;" x1="640.792" y1="17.927" x2="599.002" y2="0.666"/>
<line style="fill:none;stroke:#000000;stroke-width:3;stroke-miterlimit:10;" x1="582.418" y1="158.672" x2="640.792" y2="17.927"/>
<line style="fill:none;stroke:#000000;stroke-width:3;stroke-miterlimit:10;" x1="441.79" y1="99.585" x2="582.418" y2="158.672"/>
<line style="fill:none;stroke:#000000;stroke-width:3;stroke-miterlimit:10;" x1="482.917" y1="0.666" x2="441.79" y2="99.585"/>
<line style="fill:none;stroke:#000000;stroke-width:3;stroke-miterlimit:10;" x1="1.663" y1="479.988" x2="101.164" y2="438.827"/>
<line style="fill:none;stroke:#000000;stroke-width:3;stroke-miterlimit:10;" x1="101.164" y1="438.827" x2="159.538" y2="578.908"/>
<line style="fill:none;stroke:#000000;stroke-width:3;stroke-miterlimit:10;" x1="159.538" y1="578.908" x2="18.247" y2="637.33"/>
<line style="fill:none;stroke:#000000;stroke-width:3;stroke-miterlimit:10;" x1="1" y1="596.833" x2="18.247" y2="637.33"/>
<line style="fill:none;stroke:#000000;stroke-width:3;stroke-miterlimit:10;" x1="18.247" y1="556.335" x2="1" y2="596.833"/>
<line style="fill:none;stroke:#000000;stroke-width:3;stroke-miterlimit:10;" x1="18.247" y1="556.335" x2="159.538" y2="614.094"/>
<line style="fill:none;stroke:#000000;stroke-width:3;stroke-miterlimit:10;" x1="101.164" y1="754.175" x2="159.538" y2="614.094"/>
<line style="fill:none;stroke:#000000;stroke-width:3;stroke-miterlimit:10;" x1="1.663" y1="713.678" x2="101.164" y2="754.175"/>
<line style="fill:none;stroke:#000000;stroke-width:3;stroke-miterlimit:10;" x1="84.581" y1="795.336" x2="42.127" y2="696.416"/>
<line style="fill:none;stroke:#000000;stroke-width:3;stroke-miterlimit:10;" x1="184.082" y1="637.994" x2="42.127" y2="696.416"/>
<line style="fill:none;stroke:#000000;stroke-width:3;stroke-miterlimit:10;" x1="242.455" y1="778.075" x2="184.082" y2="637.994"/>
<line style="fill:none;stroke:#000000;stroke-width:3;stroke-miterlimit:10;" x1="200.002" y1="795.336" x2="242.455" y2="778.075"/>
<line style="fill:none;stroke:#000000;stroke-width:3;stroke-miterlimit:10;" x1="158.875" y1="778.739" x2="200.002" y2="795.336"/>
<line style="fill:none;stroke:#000000;stroke-width:3;stroke-miterlimit:10;" x1="217.248" y1="637.994" x2="158.875" y2="778.739"/>
<line style="fill:none;stroke:#000000;stroke-width:3;stroke-miterlimit:10;" x1="358.54" y1="696.416" x2="217.248" y2="637.994"/>
<line style="fill:none;stroke:#000000;stroke-width:3;stroke-miterlimit:10;" x1="316.086" y1="796" x2="358.54" y2="696.416"/>
<line style="fill:none;stroke:#000000;stroke-width:3;stroke-miterlimit:10;" x1="298.839" y1="754.175" x2="399.667" y2="713.014"/>
<line style="fill:none;stroke:#000000;stroke-width:3;stroke-miterlimit:10;" x1="241.129" y1="614.094" x2="298.839" y2="754.175"/>
<line style="fill:none;stroke:#000000;stroke-width:3;stroke-miterlimit:10;" x1="382.42" y1="555.672" x2="241.129" y2="614.094"/>
<line style="fill:none;stroke:#000000;stroke-width:3;stroke-miterlimit:10;" x1="399.003" y1="596.833" x2="382.42" y2="555.672"/>
<line style="fill:none;stroke:#000000;stroke-width:3;stroke-miterlimit:10;" x1="381.757" y1="637.994" x2="399.003" y2="596.833"/>
<line style="fill:none;stroke:#000000;stroke-width:3;stroke-miterlimit:10;" x1="241.792" y1="579.572" x2="381.757" y2="637.994"/>
<line style="fill:none;stroke:#000000;stroke-width:3;stroke-miterlimit:10;" x1="300.829" y1="439.491" x2="241.792" y2="579.572"/>
<line style="fill:none;stroke:#000000;stroke-width:3;stroke-miterlimit:10;" x1="399.003" y1="480.652" x2="300.829" y2="439.491"/>
<line style="fill:none;stroke:#000000;stroke-width:3;stroke-miterlimit:10;" x1="318.076" y1="397.666" x2="358.54" y2="497.249"/>
<line style="fill:none;stroke:#000000;stroke-width:3;stroke-miterlimit:10;" x1="216.585" y1="555.672" x2="358.54" y2="497.249"/>
<line style="fill:none;stroke:#000000;stroke-width:3;stroke-miterlimit:10;" x1="158.875" y1="414.927" x2="216.585" y2="555.672"/>
<line style="fill:none;stroke:#000000;stroke-width:3;stroke-miterlimit:10;" x1="200.002" y1="397.666" x2="158.875" y2="414.927"/>
<line style="fill:none;stroke:#000000;stroke-width:3;stroke-miterlimit:10;" x1="241.792" y1="414.927" x2="200.002" y2="397.666"/>
<line style="fill:none;stroke:#000000;stroke-width:3;stroke-miterlimit:10;" x1="183.418" y1="555.672" x2="241.792" y2="414.927"/>
<line style="fill:none;stroke:#000000;stroke-width:3;stroke-miterlimit:10;" x1="42.79" y1="496.585" x2="183.418" y2="555.672"/>
<line style="fill:none;stroke:#000000;stroke-width:3;stroke-miterlimit:10;" x1="83.917" y1="397.666" x2="42.79" y2="496.585"/>
<line style="fill:none;stroke:#000000;stroke-width:3;stroke-miterlimit:10;" x1="401.663" y1="479.988" x2="501.164" y2="438.827"/>
<line style="fill:none;stroke:#000000;stroke-width:3;stroke-miterlimit:10;" x1="501.164" y1="438.827" x2="559.538" y2="578.908"/>
<line style="fill:none;stroke:#000000;stroke-width:3;stroke-miterlimit:10;" x1="559.538" y1="578.908" x2="418.247" y2="637.33"/>
<line style="fill:none;stroke:#000000;stroke-width:3;stroke-miterlimit:10;" x1="401" y1="596.833" x2="418.247" y2="637.33"/>
<line style="fill:none;stroke:#000000;stroke-width:3;stroke-miterlimit:10;" x1="418.247" y1="556.335" x2="401" y2="596.833"/>
<line style="fill:none;stroke:#000000;stroke-width:3;stroke-miterlimit:10;" x1="418.247" y1="556.335" x2="559.538" y2="614.094"/>
<line style="fill:none;stroke:#000000;stroke-width:3;stroke-miterlimit:10;" x1="501.164" y1="754.175" x2="559.538" y2="614.094"/>
<line style="fill:none;stroke:#000000;stroke-width:3;stroke-miterlimit:10;" x1="401.663" y1="713.678" x2="501.164" y2="754.175"/>
<line style="fill:none;stroke:#000000;stroke-width:3;stroke-miterlimit:10;" x1="484.581" y1="795.336" x2="442.127" y2="696.416"/>
<line style="fill:none;stroke:#000000;stroke-width:3;stroke-miterlimit:10;" x1="584.082" y1="637.994" x2="442.127" y2="696.416"/>
<line style="fill:none;stroke:#000000;stroke-width:3;stroke-miterlimit:10;" x1="642.455" y1="778.075" x2="584.082" y2="637.994"/>
<line style="fill:none;stroke:#000000;stroke-width:3;stroke-miterlimit:10;" x1="600.002" y1="795.336" x2="642.455" y2="778.075"/>
<line style="fill:none;stroke:#000000;stroke-width:3;stroke-miterlimit:10;" x1="558.875" y1="778.739" x2="600.002" y2="795.336"/>
<line style="fill:none;stroke:#000000;stroke-width:3;stroke-miterlimit:10;" x1="617.248" y1="637.994" x2="558.875" y2="778.739"/>
<line style="fill:none;stroke:#000000;stroke-width:3;stroke-miterlimit:10;" x1="758.54" y1="696.416" x2="617.248" y2="637.994"/>
<line style="fill:none;stroke:#000000;stroke-width:3;stroke-miterlimit:10;" x1="716.086" y1="796" x2="758.54" y2="696.416"/>
<line style="fill:none;stroke:#000000;stroke-width:3;stroke-miterlimit:10;" x1="698.839" y1="754.175" x2="799.667" y2="713.014"/>
<line style="fill:none;stroke:#000000;stroke-width:3;stroke-miterlimit:10;" x1="641.129" y1="614.094" x2="698.839" y2="754.175"/>
<line style="fill:none;stroke:#000000;stroke-width:3;stroke-miterlimit:10;" x1="782.42" y1="555.672" x2="641.129" y2="614.094"/>
<line style="fill:none;stroke:#000000;stroke-width:3;stroke-miterlimit:10;" x1="799.003" y1="596.833" x2="782.42" y2="555.672"/>
<line style="fill:none;stroke:#000000;stroke-width:3;stroke-miterlimit:10;" x1="781.757" y1="637.994" x2="799.003" y2="596.833"/>
<line style="fill:none;stroke:#000000;stroke-width:3;stroke-miterlimit:10;" x1="641.792" y1="579.572" x2="781.757" y2="637.994"/>
<line style="fill:none;stroke:#000000;stroke-width:3;stroke-miterlimit:10;" x1="700.829" y1="439.491" x2="641.792" y2="579.572"/>
<line style="fill:none;stroke:#000000;stroke-width:3;stroke-miterlimit:10;" x1="799.003" y1="480.652" x2="700.829" y2="439.491"/>
<line style="fill:none;stroke:#000000;stroke-width:3;stroke-miterlimit:10;" x1="718.076" y1="397.666" x2="758.54" y2="497.249"/>
<line style="fill:none;stroke:#000000;stroke-width:3;stroke-miterlimit:10;" x1="616.585" y1="555.672" x2="758.54" y2="497.249"/>
<line style="fill:none;stroke:#000000;stroke-width:3;stroke-miterlimit:10;" x1="558.875" y1="414.927" x2="616.585" y2="555.672"/>
<line style="fill:none;stroke:#000000;stroke-width:3;stroke-miterlimit:10;" x1="600.002" y1="397.666" x2="558.875" y2="414.927"/>
<line style="fill:none;stroke:#000000;stroke-width:3;stroke-miterlimit:10;" x1="641.792" y1="414.927" x2="600.002" y2="397.666"/>
<line style="fill:none;stroke:#000000;stroke-width:3;stroke-miterlimit:10;" x1="583.418" y1="555.672" x2="641.792" y2="414.927"/>
<line style="fill:none;stroke:#000000;stroke-width:3;stroke-miterlimit:10;" x1="442.79" y1="496.585" x2="583.418" y2="555.672"/>
<line style="fill:none;stroke:#000000;stroke-width:3;stroke-miterlimit:10;" x1="483.917" y1="397.666" x2="442.79" y2="496.585"/>

</svg>
