<?xml version="1.0" encoding="iso-8859-1"?>
<!-- Generator: Adobe Illustrator 23.0.1, SVG Export Plug-In . SVG Version: 6.00 Build 0)  -->
<svg version="1.1" id="colour" xmlns="http://www.w3.org/2000/svg" xmlns:xlink="http://www.w3.org/1999/xlink" x="0px" y="0px"
	 width="800px" height="800px" viewBox="0 0 800 800" style="enable-background:new 0 0 800 800;" xml:space="preserve">
<polyline style="fill:#21E5EA;" points="325,376 352,369 354,337 384,355 392,330 417,316 444,353 444,368 471,377 477,400 431,415 
	444,433 444,463 417,434 398,475 382,454 354,462 353,433 385,415 "/>
<polygon style="fill:#ED0000;" points="354,269 393,330 443,263 444,215 399,199 354,214 "/>
<polygon style="fill:#ED0000;" points="454,344 454,253 481,214 527,229 554,266 522,312 "/>
<polygon style="fill:#ED0000;" points="475,413 553,359 566,336 664,374 594,421 548,437 "/>
<polygon style="fill:#ED0000;" points="593,493 666,469 712,484 711,531 682,569 635,554 "/>
<polygon style="fill:#ED0000;" points="464,483 536,507 563,544 536,581 491,596 463,559 "/>
<polygon style="fill:#ED0000;" points="398,477 443,539 444,586 398,600 353,586 353,538 "/>
<polygon style="fill:#ED0000;" points="354,462 353,538 325,576 276,562 253,525 272,497 "/>
<polyline style="fill:#ED0000;" points="297,474 216,511 189,468 189,416 232,401 "/>
<polyline style="fill:#ED0000;" points="203,294 247,356 174,381 131,367 131,317 "/>
<polygon style="fill:#ED0000;" points="272,268 296,203 345,290 345,366 272,343 244,304 "/>
<polygon style="fill:#ED0000;" points="398,56 444,118 444,165 399,178 353,165 353,113 "/>
<polygon style="fill:#ED0000;" points="471.801,50.529 522.374,44.584 587.269,83.937 527.702,133.985 480.719,137.669 
	462.586,95.607 "/>
<polygon style="fill:#ED0000;" points="618,122 618,199 589,241 544,224 517,185 544,147 "/>
<polygon style="fill:#ED0000;" points="707.377,132.109 691.31,256.076 650.191,237.986 656.1,189.343 "/>
<polygon style="fill:#ED0000;" points="690.882,266.556 724.216,233.68 776.784,345.99 710.955,307.957 "/>
<polygon style="fill:#ED0000;" points="725,473 770,410 780,544 726,521 "/>
<polygon style="fill:#ED0000;" points="779.742,599.602 798.535,651.533 691.422,680.667 739.117,610.26 "/>
<polygon style="fill:#ED0000;" points="616.765,603.555 664.187,604.665 678.207,654.339 651.626,722.357 590.11,674.735 
	577.56,629.841 "/>
<polygon style="fill:#ED0000;" points="515,632 559,646 603,708 535,732 488,715 487,670 "/>
<polygon style="fill:#ED0000;" points="352,636 398,620 444,636 443,682 398,745 353,682 "/>
<polygon style="fill:#ED0000;" points="352.621,691.067 341.33,736.899 304.568,766.2 264.25,741.212 237.91,672.058 
	313.071,665.439 "/>
<polygon style="fill:#ED0000;" points="165,567 206,582 237,625 210,658 139,682 139,606 "/>
<polygon style="fill:#ED0000;" points="39.352,565.349 84.353,548.41 113,585.67 111.885,659.689 "/>
<polygon style="fill:#ED0000;" points="120,406 166,467 166,513 120,530 "/>
<polygon style="fill:#ED0000;" points="111.472,317.118 125.657,361.736 89.832,390.607 11.059,393.238 "/>
<polygon style="fill:#ED0000;" points="29.748,164.762 100.826,186.067 129.027,224.909 100.837,262.676 "/>
<polygon style="fill:#ED0000;" points="132,117 204,140 230,179 204,219 160,235 132,193 "/>
<polygon style="fill:#ED0000;" points="187,43 257,21 304,37 303,79 275,121 231,105 "/>
<polygon style="fill:#21E5EA;" points="630.02,43.477 620.691,69.896 648.846,70.451 656.536,98.413 681.147,82.31 702.673,100.244 
	752.786,27.929 "/>
<polygon style="fill:#21E5EA;" points="669.592,800.546 617.081,784.187 606.737,756.875 638.416,759.412 646.681,729.517 
	669.125,744.888 702.104,733.166 "/>
<polygon style="fill:#21E5EA;" points="103,743 103,664 121,690 149,682 149,710 177,720 162,742 "/>
<polygon style="fill:#21E5EA;" points="105,48 158,48 175,70 147,79 147,109 121,100 103,121 "/>
</svg>
