<?xml version="1.0" encoding="iso-8859-1"?>
<!-- Generator: Adobe Illustrator 23.0.1, SVG Export Plug-In . SVG Version: 6.00 Build 0)  -->
<svg version="1.1" id="pen" xmlns="http://www.w3.org/2000/svg" xmlns:xlink="http://www.w3.org/1999/xlink" x="0px" y="0px"
	 width="800px" height="800px" viewBox="0 0 800 800" style="enable-background:new 0 0 800 800;" xml:space="preserve">
<line style="fill:none;stroke:#351313;stroke-width:4;stroke-linecap:round;stroke-linejoin:bevel;stroke-miterlimit:10;" x1="187" y1="43" x2="257" y2="21"/>
<line style="fill:none;stroke:#351313;stroke-width:4;stroke-linecap:round;stroke-linejoin:bevel;stroke-miterlimit:10;" x1="304" y1="37" x2="257" y2="21"/>
<line style="fill:none;stroke:#351313;stroke-width:4;stroke-linecap:round;stroke-linejoin:bevel;stroke-miterlimit:10;" x1="307" y1="91" x2="304" y2="37"/>
<line style="fill:none;stroke:#351313;stroke-width:4;stroke-linecap:round;stroke-linejoin:bevel;stroke-miterlimit:10;" x1="275" y1="121" x2="307" y2="91"/>
<line style="fill:none;stroke:#351313;stroke-width:4;stroke-linecap:round;stroke-linejoin:bevel;stroke-miterlimit:10;" x1="187" y1="43" x2="231" y2="105"/>
<line style="fill:none;stroke:#351313;stroke-width:4;stroke-linecap:round;stroke-linejoin:bevel;stroke-miterlimit:10;" x1="275" y1="121" x2="231" y2="105"/>
<line style="fill:none;stroke:#351313;stroke-width:4;stroke-linecap:round;stroke-linejoin:bevel;stroke-miterlimit:10;" x1="129" y1="113" x2="222" y2="141"/>
<line style="fill:none;stroke:#351313;stroke-width:4;stroke-linecap:round;stroke-linejoin:bevel;stroke-miterlimit:10;" x1="238" y1="182" x2="222" y2="141"/>
<line style="fill:none;stroke:#351313;stroke-width:4;stroke-linecap:round;stroke-linejoin:bevel;stroke-miterlimit:10;" x1="204" y1="219" x2="238" y2="182"/>
<line style="fill:none;stroke:#351313;stroke-width:4;stroke-linecap:round;stroke-linejoin:bevel;stroke-miterlimit:10;" x1="160" y1="235" x2="204" y2="219"/>
<line style="fill:none;stroke:#351313;stroke-width:4;stroke-linecap:round;stroke-linejoin:bevel;stroke-miterlimit:10;" x1="129" y1="113" x2="132" y2="193"/>
<line style="fill:none;stroke:#351313;stroke-width:4;stroke-linecap:round;stroke-linejoin:bevel;stroke-miterlimit:10;" x1="160" y1="235" x2="132" y2="193"/>
<line style="fill:none;stroke:#351313;stroke-width:4;stroke-linecap:round;stroke-linejoin:bevel;stroke-miterlimit:10;" x1="21" y1="161" x2="101" y2="186"/>
<line style="fill:none;stroke:#351313;stroke-width:4;stroke-linecap:round;stroke-linejoin:bevel;stroke-miterlimit:10;" x1="132" y1="234" x2="101" y2="186"/>
<line style="fill:none;stroke:#351313;stroke-width:4;stroke-linecap:round;stroke-linejoin:bevel;stroke-miterlimit:10;" x1="96" y1="276" x2="132" y2="234"/>
<line style="fill:none;stroke:#351313;stroke-width:4;stroke-linecap:round;stroke-linejoin:bevel;stroke-miterlimit:10;" x1="21" y1="161" x2="96" y2="276"/>
<line style="fill:none;stroke:#351313;stroke-width:4;stroke-linecap:round;stroke-linejoin:bevel;stroke-miterlimit:10;" x1="103" y1="29" x2="103" y2="121"/>
<line style="fill:none;stroke:#351313;stroke-width:4;stroke-linecap:round;stroke-linejoin:bevel;stroke-miterlimit:10;" x1="156" y1="45" x2="103" y2="29"/>
<line style="fill:none;stroke:#351313;stroke-width:4;stroke-linecap:round;stroke-linejoin:bevel;stroke-miterlimit:10;" x1="175" y1="70" x2="156" y2="45"/>
<line style="fill:none;stroke:#351313;stroke-width:4;stroke-linecap:round;stroke-linejoin:bevel;stroke-miterlimit:10;" x1="143" y1="64" x2="175" y2="70"/>
<line style="fill:none;stroke:#351313;stroke-width:4;stroke-linecap:round;stroke-linejoin:bevel;stroke-miterlimit:10;" x1="147" y1="109" x2="143" y2="64"/>
<line style="fill:none;stroke:#351313;stroke-width:4;stroke-linecap:round;stroke-linejoin:bevel;stroke-miterlimit:10;" x1="120" y1="93" x2="147" y2="109"/>
<line style="fill:none;stroke:#351313;stroke-width:4;stroke-linecap:round;stroke-linejoin:bevel;stroke-miterlimit:10;" x1="103" y1="121" x2="120" y2="93"/>
<line style="fill:none;stroke:#351313;stroke-width:4;stroke-linecap:round;stroke-linejoin:bevel;stroke-miterlimit:10;" x1="345" y1="114" x2="398" y2="48"/>
<line style="fill:none;stroke:#351313;stroke-width:4;stroke-linecap:round;stroke-linejoin:bevel;stroke-miterlimit:10;" x1="454" y1="127" x2="398" y2="48"/>
<line style="fill:none;stroke:#351313;stroke-width:4;stroke-linecap:round;stroke-linejoin:bevel;stroke-miterlimit:10;" x1="444" y1="173" x2="454" y2="127"/>
<line style="fill:none;stroke:#351313;stroke-width:4;stroke-linecap:round;stroke-linejoin:bevel;stroke-miterlimit:10;" x1="399" y1="178" x2="444" y2="173"/>
<line style="fill:none;stroke:#351313;stroke-width:4;stroke-linecap:round;stroke-linejoin:bevel;stroke-miterlimit:10;" x1="345" y1="114" x2="353" y2="165"/>
<line style="fill:none;stroke:#351313;stroke-width:4;stroke-linecap:round;stroke-linejoin:bevel;stroke-miterlimit:10;" x1="399" y1="178" x2="353" y2="165"/>
<line style="fill:none;stroke:#351313;stroke-width:4;stroke-linecap:round;stroke-linejoin:bevel;stroke-miterlimit:10;" x1="287" y1="150" x2="321" y2="127"/>
<line style="fill:none;stroke:#351313;stroke-width:4;stroke-linecap:round;stroke-linejoin:bevel;stroke-miterlimit:10;" x1="325" y1="165" x2="321" y2="127"/>
<line style="fill:none;stroke:#351313;stroke-width:4;stroke-linecap:round;stroke-linejoin:bevel;stroke-miterlimit:10;" x1="297" y1="166" x2="325" y2="165"/>
<line style="fill:none;stroke:#351313;stroke-width:4;stroke-linecap:round;stroke-linejoin:bevel;stroke-miterlimit:10;" x1="287" y1="150" x2="297" y2="166"/>
<line style="fill:none;stroke:#351313;stroke-width:4;stroke-linecap:round;stroke-linejoin:bevel;stroke-miterlimit:10;" x1="296" y1="203" x2="244" y2="304"/>
<line style="fill:none;stroke:#351313;stroke-width:4;stroke-linecap:round;stroke-linejoin:bevel;stroke-miterlimit:10;" x1="281" y1="355" x2="244" y2="304"/>
<line style="fill:none;stroke:#351313;stroke-width:4;stroke-linecap:round;stroke-linejoin:bevel;stroke-miterlimit:10;" x1="345" y1="366" x2="281" y2="355"/>
<line style="fill:none;stroke:#351313;stroke-width:4;stroke-linecap:round;stroke-linejoin:bevel;stroke-miterlimit:10;" x1="345" y1="290" x2="345" y2="366"/>
<line style="fill:none;stroke:#351313;stroke-width:4;stroke-linecap:round;stroke-linejoin:bevel;stroke-miterlimit:10;" x1="296" y1="203" x2="345" y2="290"/>
<line style="fill:none;stroke:#351313;stroke-width:4;stroke-linecap:round;stroke-linejoin:bevel;stroke-miterlimit:10;" x1="131" y1="317" x2="203" y2="294"/>
<line style="fill:none;stroke:#351313;stroke-width:4;stroke-linecap:round;stroke-linejoin:bevel;stroke-miterlimit:10;" x1="258" y1="361" x2="203" y2="294"/>
<line style="fill:none;stroke:#351313;stroke-width:4;stroke-linecap:round;stroke-linejoin:bevel;stroke-miterlimit:10;" x1="174" y1="381" x2="258" y2="361"/>
<line style="fill:none;stroke:#351313;stroke-width:4;stroke-linecap:round;stroke-linejoin:bevel;stroke-miterlimit:10;" x1="131" y1="317" x2="131" y2="367"/>
<line style="fill:none;stroke:#351313;stroke-width:4;stroke-linecap:round;stroke-linejoin:bevel;stroke-miterlimit:10;" x1="174" y1="381" x2="131" y2="367"/>
<line style="fill:none;stroke:#351313;stroke-width:4;stroke-linecap:round;stroke-linejoin:bevel;stroke-miterlimit:10;" x1="6" y1="396" x2="111" y2="317"/>
<line style="fill:none;stroke:#351313;stroke-width:4;stroke-linecap:round;stroke-linejoin:bevel;stroke-miterlimit:10;" x1="120" y1="366" x2="111" y2="306"/>
<line style="fill:none;stroke:#351313;stroke-width:4;stroke-linecap:round;stroke-linejoin:bevel;stroke-miterlimit:10;" x1="79" y1="401" x2="120" y2="366"/>
<line style="fill:none;stroke:#351313;stroke-width:4;stroke-linecap:round;stroke-linejoin:bevel;stroke-miterlimit:10;" x1="6" y1="396" x2="79" y2="401"/>
<line style="fill:none;stroke:#351313;stroke-width:4;stroke-linecap:round;stroke-linejoin:bevel;stroke-miterlimit:10;" x1="111" y1="400" x2="116" y2="547"/>
<line style="fill:none;stroke:#351313;stroke-width:4;stroke-linecap:round;stroke-linejoin:bevel;stroke-miterlimit:10;" x1="281" y1="474" x2="103" y2="534"/>
<line style="fill:none;stroke:#351313;stroke-width:4;stroke-linecap:round;stroke-linejoin:bevel;stroke-miterlimit:10;" x1="232" y1="401" x2="280" y2="462"/>
<line style="fill:none;stroke:#351313;stroke-width:4;stroke-linecap:round;stroke-linejoin:bevel;stroke-miterlimit:10;" x1="100" y1="402" x2="232" y2="401"/>
<line style="fill:none;stroke:#351313;stroke-width:4;stroke-linecap:round;stroke-linejoin:bevel;stroke-miterlimit:10;" x1="174" y1="381" x2="182" y2="539"/>
<line style="fill:none;stroke:#351313;stroke-width:4;stroke-linecap:round;stroke-linejoin:bevel;stroke-miterlimit:10;" x1="79" y1="544" x2="117" y2="596"/>
<line style="fill:none;stroke:#351313;stroke-width:4;stroke-linecap:round;stroke-linejoin:bevel;stroke-miterlimit:10;" x1="103" y1="745" x2="117" y2="596"/>
<line style="fill:none;stroke:#351313;stroke-width:4;stroke-linecap:round;stroke-linejoin:bevel;stroke-miterlimit:10;" x1="30" y1="576" x2="79" y2="544"/>
<line style="fill:none;stroke:#351313;stroke-width:4;stroke-linecap:round;stroke-linejoin:bevel;stroke-miterlimit:10;" x1="132" y1="687" x2="48" y2="593"/>
<line style="fill:none;stroke:#351313;stroke-width:4;stroke-linecap:round;stroke-linejoin:bevel;stroke-miterlimit:10;" x1="177" y1="720" x2="149" y2="682"/>
<line style="fill:none;stroke:#351313;stroke-width:4;stroke-linecap:round;stroke-linejoin:bevel;stroke-miterlimit:10;" x1="90" y1="743" x2="177" y2="720"/>
<line style="fill:none;stroke:#351313;stroke-width:4;stroke-linecap:round;stroke-linejoin:bevel;stroke-miterlimit:10;" x1="250" y1="534" x2="281" y2="474"/>
<line style="fill:none;stroke:#351313;stroke-width:4;stroke-linecap:round;stroke-linejoin:bevel;stroke-miterlimit:10;" x1="382" y1="454" x2="281" y2="474"/>
<line style="fill:none;stroke:#351313;stroke-width:4;stroke-linecap:round;stroke-linejoin:bevel;stroke-miterlimit:10;" x1="311" y1="576" x2="364" y2="530"/>
<line style="fill:none;stroke:#351313;stroke-width:4;stroke-linecap:round;stroke-linejoin:bevel;stroke-miterlimit:10;" x1="382" y1="454" x2="364" y2="530"/>
<line style="fill:none;stroke:#351313;stroke-width:4;stroke-linecap:round;stroke-linejoin:bevel;stroke-miterlimit:10;" x1="408" y1="464" x2="364" y2="530"/>
<line style="fill:none;stroke:#351313;stroke-width:4;stroke-linecap:round;stroke-linejoin:bevel;stroke-miterlimit:10;" x1="449" y1="540" x2="408" y2="464"/>
<line style="fill:none;stroke:#351313;stroke-width:4;stroke-linecap:round;stroke-linejoin:bevel;stroke-miterlimit:10;" x1="443" y1="595" x2="449" y2="540"/>
<line style="fill:none;stroke:#351313;stroke-width:4;stroke-linecap:round;stroke-linejoin:bevel;stroke-miterlimit:10;" x1="386" y1="604" x2="443" y2="595"/>
<line style="fill:none;stroke:#351313;stroke-width:4;stroke-linecap:round;stroke-linejoin:bevel;stroke-miterlimit:10;" x1="352" y1="545" x2="349" y2="594"/>
<line style="fill:none;stroke:#351313;stroke-width:4;stroke-linecap:round;stroke-linejoin:bevel;stroke-miterlimit:10;" x1="386" y1="604" x2="349" y2="594"/>
<line style="fill:none;stroke:#351313;stroke-width:4;stroke-linecap:round;stroke-linejoin:bevel;stroke-miterlimit:10;" x1="345" y1="625" x2="398" y2="620"/>
<line style="fill:none;stroke:#351313;stroke-width:4;stroke-linecap:round;stroke-linejoin:bevel;stroke-miterlimit:10;" x1="444" y1="636" x2="398" y2="620"/>
<line style="fill:none;stroke:#351313;stroke-width:4;stroke-linecap:round;stroke-linejoin:bevel;stroke-miterlimit:10;" x1="446" y1="686" x2="446" y2="625"/>
<line style="fill:none;stroke:#351313;stroke-width:4;stroke-linecap:round;stroke-linejoin:bevel;stroke-miterlimit:10;" x1="399" y1="752" x2="446" y2="686"/>
<line style="fill:none;stroke:#351313;stroke-width:4;stroke-linecap:round;stroke-linejoin:bevel;stroke-miterlimit:10;" x1="345" y1="625" x2="353" y2="691"/>
<line style="fill:none;stroke:#351313;stroke-width:4;stroke-linecap:round;stroke-linejoin:bevel;stroke-miterlimit:10;" x1="415" y1="765" x2="313" y2="656"/>
<line style="fill:none;stroke:#351313;stroke-width:4;stroke-linecap:round;stroke-linejoin:bevel;stroke-miterlimit:10;" x1="222" y1="671" x2="313" y2="656"/>
<line style="fill:none;stroke:#351313;stroke-width:4;stroke-linecap:round;stroke-linejoin:bevel;stroke-miterlimit:10;" x1="264" y1="741" x2="222" y2="671"/>
<line style="fill:none;stroke:#351313;stroke-width:4;stroke-linecap:round;stroke-linejoin:bevel;stroke-miterlimit:10;" x1="311" y1="775" x2="264" y2="741"/>
<line style="fill:none;stroke:#351313;stroke-width:4;stroke-linecap:round;stroke-linejoin:bevel;stroke-miterlimit:10;" x1="360" y1="706" x2="311" y2="775"/>
<line style="fill:none;stroke:#351313;stroke-width:4;stroke-linecap:round;stroke-linejoin:bevel;stroke-miterlimit:10;" x1="345" y1="330" x2="377" y2="346"/>
<line style="fill:none;stroke:#351313;stroke-width:4;stroke-linecap:round;stroke-linejoin:bevel;stroke-miterlimit:10;" x1="417" y1="316" x2="377" y2="346"/>
<line style="fill:none;stroke:#351313;stroke-width:4;stroke-linecap:round;stroke-linejoin:bevel;stroke-miterlimit:10;" x1="463" y1="371" x2="417" y2="316"/>
<line style="fill:none;stroke:#351313;stroke-width:4;stroke-linecap:round;stroke-linejoin:bevel;stroke-miterlimit:10;" x1="436" y1="413" x2="463" y2="371"/>
<line style="fill:none;stroke:#351313;stroke-width:4;stroke-linecap:round;stroke-linejoin:bevel;stroke-miterlimit:10;" x1="454" y1="437" x2="436" y2="413"/>
<line style="fill:none;stroke:#351313;stroke-width:4;stroke-linecap:round;stroke-linejoin:bevel;stroke-miterlimit:10;" x1="444" y1="463" x2="454" y2="437"/>
<line style="fill:none;stroke:#351313;stroke-width:4;stroke-linecap:round;stroke-linejoin:bevel;stroke-miterlimit:10;" x1="415" y1="432" x2="444" y2="463"/>
<line style="fill:none;stroke:#351313;stroke-width:4;stroke-linecap:round;stroke-linejoin:bevel;stroke-miterlimit:10;" x1="408" y1="464" x2="415" y2="432"/>
<line style="fill:none;stroke:#351313;stroke-width:4;stroke-linecap:round;stroke-linejoin:bevel;stroke-miterlimit:10;" x1="345" y1="454" x2="408" y2="464"/>
<line style="fill:none;stroke:#351313;stroke-width:4;stroke-linecap:round;stroke-linejoin:bevel;stroke-miterlimit:10;" x1="376" y1="410" x2="345" y2="454"/>
<line style="fill:none;stroke:#351313;stroke-width:4;stroke-linecap:round;stroke-linejoin:bevel;stroke-miterlimit:10;" x1="331" y1="382" x2="376" y2="410"/>
<line style="fill:none;stroke:#351313;stroke-width:4;stroke-linecap:round;stroke-linejoin:bevel;stroke-miterlimit:10;" x1="359" y1="366" x2="331" y2="382"/>
<line style="fill:none;stroke:#351313;stroke-width:4;stroke-linecap:round;stroke-linejoin:bevel;stroke-miterlimit:10;" x1="345" y1="330" x2="359" y2="366"/>
<line style="fill:none;stroke:#351313;stroke-width:4;stroke-linecap:round;stroke-linejoin:bevel;stroke-miterlimit:10;" x1="339" y1="214" x2="399" y2="199"/>
<line style="fill:none;stroke:#351313;stroke-width:4;stroke-linecap:round;stroke-linejoin:bevel;stroke-miterlimit:10;" x1="545" y1="227" x2="399" y2="199"/>
<line style="fill:none;stroke:#351313;stroke-width:4;stroke-linecap:round;stroke-linejoin:bevel;stroke-miterlimit:10;" x1="436" y1="316" x2="464" y2="214"/>
<line style="fill:none;stroke:#351313;stroke-width:4;stroke-linecap:round;stroke-linejoin:bevel;stroke-miterlimit:10;" x1="397" y1="316" x2="436" y2="316"/>
<line style="fill:none;stroke:#351313;stroke-width:4;stroke-linecap:round;stroke-linejoin:bevel;stroke-miterlimit:10;" x1="339" y1="214" x2="397" y2="316"/>
<line style="fill:none;stroke:#351313;stroke-width:4;stroke-linecap:round;stroke-linejoin:bevel;stroke-miterlimit:10;" x1="531" y1="235" x2="549" y2="294"/>
<line style="fill:none;stroke:#351313;stroke-width:4;stroke-linecap:round;stroke-linejoin:bevel;stroke-miterlimit:10;" x1="500" y1="338" x2="549" y2="294"/>
<line style="fill:none;stroke:#351313;stroke-width:4;stroke-linecap:round;stroke-linejoin:bevel;stroke-miterlimit:10;" x1="454" y1="344" x2="500" y2="338"/>
<line style="fill:none;stroke:#351313;stroke-width:4;stroke-linecap:round;stroke-linejoin:bevel;stroke-miterlimit:10;" x1="467" y1="410" x2="566" y2="336"/>
<line style="fill:none;stroke:#351313;stroke-width:4;stroke-linecap:round;stroke-linejoin:bevel;stroke-miterlimit:10;" x1="679" y1="374" x2="554" y2="331"/>
<line style="fill:none;stroke:#351313;stroke-width:4;stroke-linecap:round;stroke-linejoin:bevel;stroke-miterlimit:10;" x1="537" y1="444" x2="679" y2="374"/>
<line style="fill:none;stroke:#351313;stroke-width:4;stroke-linecap:round;stroke-linejoin:bevel;stroke-miterlimit:10;" x1="467" y1="410" x2="537" y2="444"/>
<line style="fill:none;stroke:#351313;stroke-width:4;stroke-linecap:round;stroke-linejoin:bevel;stroke-miterlimit:10;" x1="462" y1="492" x2="549" y2="504"/>
<line style="fill:none;stroke:#351313;stroke-width:4;stroke-linecap:round;stroke-linejoin:bevel;stroke-miterlimit:10;" x1="565" y1="553" x2="549" y2="504"/>
<line style="fill:none;stroke:#351313;stroke-width:4;stroke-linecap:round;stroke-linejoin:bevel;stroke-miterlimit:10;" x1="491" y1="596" x2="565" y2="553"/>
<line style="fill:none;stroke:#351313;stroke-width:4;stroke-linecap:round;stroke-linejoin:bevel;stroke-miterlimit:10;" x1="462" y1="492" x2="491" y2="596"/>
<line style="fill:none;stroke:#351313;stroke-width:4;stroke-linecap:round;stroke-linejoin:bevel;stroke-miterlimit:10;" x1="477" y1="663" x2="525" y2="807"/>
<line style="fill:none;stroke:#351313;stroke-width:4;stroke-linecap:round;stroke-linejoin:bevel;stroke-miterlimit:10;" x1="515" y1="632" x2="477" y2="683"/>
<line style="fill:none;stroke:#351313;stroke-width:4;stroke-linecap:round;stroke-linejoin:bevel;stroke-miterlimit:10;" x1="678" y1="596" x2="557" y2="640"/>
<line style="fill:none;stroke:#351313;stroke-width:4;stroke-linecap:round;stroke-linejoin:bevel;stroke-miterlimit:10;" x1="634" y1="723" x2="557" y2="640"/>
<line style="fill:none;stroke:#351313;stroke-width:4;stroke-linecap:round;stroke-linejoin:bevel;stroke-miterlimit:10;" x1="502" y1="730" x2="634" y2="723"/>
<line style="fill:none;stroke:#351313;stroke-width:4;stroke-linecap:round;stroke-linejoin:bevel;stroke-miterlimit:10;" x1="687" y1="649" x2="652" y2="722"/>
<line style="fill:none;stroke:#351313;stroke-width:4;stroke-linecap:round;stroke-linejoin:bevel;stroke-miterlimit:10;" x1="664" y1="583" x2="687" y2="649"/>
<line style="fill:none;stroke:#351313;stroke-width:4;stroke-linecap:round;stroke-linejoin:bevel;stroke-miterlimit:10;" x1="691" y1="681" x2="743" y2="604"/>
<line style="fill:none;stroke:#351313;stroke-width:4;stroke-linecap:round;stroke-linejoin:bevel;stroke-miterlimit:10;" x1="786" y1="596" x2="725" y2="599"/>
<line style="fill:none;stroke:#351313;stroke-width:4;stroke-linecap:round;stroke-linejoin:bevel;stroke-miterlimit:10;" x1="793" y1="665" x2="786" y2="596"/>
<line style="fill:none;stroke:#351313;stroke-width:4;stroke-linecap:round;stroke-linejoin:bevel;stroke-miterlimit:10;" x1="691" y1="681" x2="793" y2="665"/>
<line style="fill:none;stroke:#351313;stroke-width:4;stroke-linecap:round;stroke-linejoin:bevel;stroke-miterlimit:10;" x1="634" y1="723" x2="669" y2="745"/>
<line style="fill:none;stroke:#351313;stroke-width:4;stroke-linecap:round;stroke-linejoin:bevel;stroke-miterlimit:10;" x1="702" y1="733" x2="669" y2="745"/>
<line style="fill:none;stroke:#351313;stroke-width:4;stroke-linecap:round;stroke-linejoin:bevel;stroke-miterlimit:10;" x1="675" y1="788" x2="702" y2="733"/>
<line style="fill:none;stroke:#351313;stroke-width:4;stroke-linecap:round;stroke-linejoin:bevel;stroke-miterlimit:10;" x1="616" y1="783" x2="675" y2="788"/>
<line style="fill:none;stroke:#351313;stroke-width:4;stroke-linecap:round;stroke-linejoin:bevel;stroke-miterlimit:10;" x1="645" y1="734" x2="616" y2="783"/>
<line style="fill:none;stroke:#351313;stroke-width:4;stroke-linecap:round;stroke-linejoin:bevel;stroke-miterlimit:10;" x1="645" y1="317" x2="654" y2="172"/>
<line style="fill:none;stroke:#351313;stroke-width:4;stroke-linecap:round;stroke-linejoin:bevel;stroke-miterlimit:10;" x1="712" y1="107" x2="654" y2="172"/>
<line style="fill:none;stroke:#351313;stroke-width:4;stroke-linecap:round;stroke-linejoin:bevel;stroke-miterlimit:10;" x1="702" y1="302" x2="712" y2="107"/>
<line style="fill:none;stroke:#351313;stroke-width:4;stroke-linecap:round;stroke-linejoin:bevel;stroke-miterlimit:10;" x1="645" y1="254" x2="742" y2="241"/>
<line style="fill:none;stroke:#351313;stroke-width:4;stroke-linecap:round;stroke-linejoin:bevel;stroke-miterlimit:10;" x1="780" y1="341" x2="742" y2="241"/>
<line style="fill:none;stroke:#351313;stroke-width:4;stroke-linecap:round;stroke-linejoin:bevel;stroke-miterlimit:10;" x1="702" y1="302" x2="780" y2="341"/>
<line style="fill:none;stroke:#351313;stroke-width:4;stroke-linecap:round;stroke-linejoin:bevel;stroke-miterlimit:10;" x1="777" y1="416" x2="712" y2="492"/>
<line style="fill:none;stroke:#351313;stroke-width:4;stroke-linecap:round;stroke-linejoin:bevel;stroke-miterlimit:10;" x1="711" y1="531" x2="712" y2="492"/>
<line style="fill:none;stroke:#351313;stroke-width:4;stroke-linecap:round;stroke-linejoin:bevel;stroke-miterlimit:10;" x1="789" y1="553" x2="702" y2="519"/>
<line style="fill:none;stroke:#351313;stroke-width:4;stroke-linecap:round;stroke-linejoin:bevel;stroke-miterlimit:10;" x1="777" y1="416" x2="789" y2="553"/>
<line style="fill:none;stroke:#351313;stroke-width:4;stroke-linecap:round;stroke-linejoin:bevel;stroke-miterlimit:10;" x1="603" y1="490" x2="707" y2="475"/>
<line style="fill:none;stroke:#351313;stroke-width:4;stroke-linecap:round;stroke-linejoin:bevel;stroke-miterlimit:10;" x1="711" y1="531" x2="664" y2="583"/>
<line style="fill:none;stroke:#351313;stroke-width:4;stroke-linecap:round;stroke-linejoin:bevel;stroke-miterlimit:10;" x1="602" y1="502" x2="664" y2="583"/>
<line style="fill:none;stroke:#351313;stroke-width:4;stroke-linecap:round;stroke-linejoin:bevel;stroke-miterlimit:10;" x1="725" y1="353" x2="761" y2="353"/>
<line style="fill:none;stroke:#351313;stroke-width:4;stroke-linecap:round;stroke-linejoin:bevel;stroke-miterlimit:10;" x1="725" y1="381" x2="761" y2="353"/>
<line style="fill:none;stroke:#351313;stroke-width:4;stroke-linecap:round;stroke-linejoin:bevel;stroke-miterlimit:10;" x1="725" y1="353" x2="725" y2="381"/>
<line style="fill:none;stroke:#351313;stroke-width:4;stroke-linecap:round;stroke-linejoin:bevel;stroke-miterlimit:10;" x1="608" y1="448" x2="569" y2="474"/>
<line style="fill:none;stroke:#351313;stroke-width:4;stroke-linecap:round;stroke-linejoin:bevel;stroke-miterlimit:10;" x1="617" y1="477" x2="569" y2="474"/>
<line style="fill:none;stroke:#351313;stroke-width:4;stroke-linecap:round;stroke-linejoin:bevel;stroke-miterlimit:10;" x1="595" y1="437" x2="617" y2="477"/>
<line style="fill:none;stroke:#351313;stroke-width:4;stroke-linecap:round;stroke-linejoin:bevel;stroke-miterlimit:10;" x1="204" y1="758" x2="167" y2="792"/>
<line style="fill:none;stroke:#351313;stroke-width:4;stroke-linecap:round;stroke-linejoin:bevel;stroke-miterlimit:10;" x1="253" y1="786" x2="167" y2="792"/>
<line style="fill:none;stroke:#351313;stroke-width:4;stroke-linecap:round;stroke-linejoin:bevel;stroke-miterlimit:10;" x1="204" y1="758" x2="209" y2="786"/>
<line style="fill:none;stroke:#351313;stroke-width:4;stroke-linecap:round;stroke-linejoin:bevel;stroke-miterlimit:10;" x1="253" y1="786" x2="198" y2="775"/>
<line style="fill:none;stroke:#351313;stroke-width:4;stroke-linecap:round;stroke-linejoin:bevel;stroke-miterlimit:10;" x1="68" y1="464" x2="30" y2="492"/>
<line style="fill:none;stroke:#351313;stroke-width:4;stroke-linecap:round;stroke-linejoin:bevel;stroke-miterlimit:10;" x1="76" y1="492" x2="21" y2="410"/>
<line style="fill:none;stroke:#351313;stroke-width:4;stroke-linecap:round;stroke-linejoin:bevel;stroke-miterlimit:10;" x1="152" y1="256" x2="55" y2="107"/>
<line style="fill:none;stroke:#351313;stroke-width:4;stroke-linecap:round;stroke-linejoin:bevel;stroke-miterlimit:10;" x1="480" y1="189" x2="633" y2="122"/>
<line style="fill:none;stroke:#351313;stroke-width:4;stroke-linecap:round;stroke-linejoin:bevel;stroke-miterlimit:10;" x1="608" y1="220" x2="633" y2="122"/>
<line style="fill:none;stroke:#351313;stroke-width:4;stroke-linecap:round;stroke-linejoin:bevel;stroke-miterlimit:10;" x1="516" y1="199" x2="608" y2="220"/>
<line style="fill:none;stroke:#351313;stroke-width:4;stroke-linecap:round;stroke-linejoin:bevel;stroke-miterlimit:10;" x1="528" y1="146" x2="645" y2="45"/>
<line style="fill:none;stroke:#351313;stroke-width:4;stroke-linecap:round;stroke-linejoin:bevel;stroke-miterlimit:10;" x1="517" y1="32" x2="593" y2="81"/>
<line style="fill:none;stroke:#351313;stroke-width:4;stroke-linecap:round;stroke-linejoin:bevel;stroke-miterlimit:10;" x1="463" y1="56" x2="517" y2="32"/>
<line style="fill:none;stroke:#351313;stroke-width:4;stroke-linecap:round;stroke-linejoin:bevel;stroke-miterlimit:10;" x1="521.98" y1="115.827" x2="434.02" y2="51.173"/>
<line style="fill:none;stroke:#351313;stroke-width:4;stroke-linecap:round;stroke-linejoin:bevel;stroke-miterlimit:10;" x1="745" y1="29" x2="628" y2="60"/>
<line style="fill:none;stroke:#351313;stroke-width:4;stroke-linecap:round;stroke-linejoin:bevel;stroke-miterlimit:10;" x1="712" y1="107" x2="745" y2="29"/>
<line style="fill:none;stroke:#351313;stroke-width:4;stroke-linecap:round;stroke-linejoin:bevel;stroke-miterlimit:10;" x1="693" y1="106" x2="628" y2="60"/>
<line style="fill:none;stroke:#351313;stroke-width:4;stroke-linecap:round;stroke-linejoin:bevel;stroke-miterlimit:10;" x1="603" y1="28" x2="766" y2="21"/>
<line style="fill:none;stroke:#351313;stroke-width:4;stroke-linecap:round;stroke-linejoin:bevel;stroke-miterlimit:10;" x1="745" y1="74" x2="734" y2="161"/>
<line style="fill:none;stroke:#351313;stroke-width:4;stroke-linecap:round;stroke-linejoin:bevel;stroke-miterlimit:10;" x1="679" y1="294" x2="691" y2="329"/>
<line style="fill:none;stroke:#351313;stroke-width:4;stroke-linecap:round;stroke-linejoin:bevel;stroke-miterlimit:10;" x1="712" y1="338" x2="800" y2="346"/>
<line style="fill:none;stroke:#351313;stroke-width:4;stroke-linecap:round;stroke-linejoin:bevel;stroke-miterlimit:10;" x1="734" y1="432" x2="693" y2="474"/>
<line style="fill:none;stroke:#351313;stroke-width:4;stroke-linecap:round;stroke-linejoin:bevel;stroke-miterlimit:10;" x1="608" y1="600" x2="485" y2="616"/>
<line style="fill:none;stroke:#351313;stroke-width:4;stroke-linecap:round;stroke-linejoin:bevel;stroke-miterlimit:10;" x1="477" y1="640" x2="436" y2="766"/>
<line style="fill:none;stroke:#351313;stroke-width:4;stroke-linecap:round;stroke-linejoin:bevel;stroke-miterlimit:10;" x1="237" y1="608" x2="143" y2="530"/>
<line style="fill:none;stroke:#351313;stroke-width:4;stroke-linecap:round;stroke-linejoin:bevel;stroke-miterlimit:10;" x1="237" y1="317" x2="187" y2="248"/>
<line style="fill:none;stroke:#351313;stroke-width:4;stroke-linecap:round;stroke-linejoin:bevel;stroke-miterlimit:10;" x1="228" y1="255" x2="297" y2="166"/>
<line style="fill:none;stroke:#351313;stroke-width:4;stroke-linecap:round;stroke-linejoin:bevel;stroke-miterlimit:10;" x1="349" y1="37" x2="398" y2="48"/>
<line style="fill:none;stroke:#351313;stroke-width:4;stroke-linecap:round;stroke-linejoin:bevel;stroke-miterlimit:10;" x1="445" y1="21" x2="472" y2="6"/>
<line style="fill:none;stroke:#351313;stroke-width:4;stroke-linecap:round;stroke-linejoin:bevel;stroke-miterlimit:10;" x1="55" y1="29" x2="21" y2="0"/>
</svg>
