<?xml version="1.0" encoding="iso-8859-1"?>
<!-- Generator: Adobe Illustrator 23.0.1, SVG Export Plug-In . SVG Version: 6.00 Build 0)  -->
<svg version="1.1" id="colour" xmlns="http://www.w3.org/2000/svg" xmlns:xlink="http://www.w3.org/1999/xlink" x="0px" y="0px"
	 viewBox="0 0 800 800" style="enable-background:new 0 0 800 800;" xml:space="preserve">
<polygon style="fill:#94C93D;" points="364,263 437,264 500,300 536,363 536,437 500,499 437,536 364,536 300,499 263,437 263,363 
	300,299 "/>
<polygon style="fill:#94C93D;" points="336,53 336,90 300,153 237,190 200,190 200,54 "/>
<polygon style="fill:#94C93D;" points="600,54 600,190 564,190 500,153 463,90 463,54 "/>
<polygon style="fill:#94C93D;" points="200,610 237,610 301,645 336,713 336,747 200,746 "/>
<polygon style="fill:#94C93D;" points="601,746 463,746 463,710 501,645 564,610 600,610 "/>
<polygon style="fill:#E9E626;" points="300,154 364,190 364,263 300,300 237,263 237,190 "/>
<polygon style="fill:#E9E626;" points="500,154 564,190 564,263 500,300 437,264 437,190 "/>
<polygon style="fill:#E9E626;" points="500,500 564,536 564,610 500,646 437,609 437,536 "/>
<polygon style="fill:#E9E626;" points="300,500 364,536 364,610 300,646 237,610 237,537 "/>
<polygon style="fill:#BF59A2;" points="336,53 336,90 400,127 463,90 463,54 "/>
<polygon style="fill:#BF59A2;" points="600,327 536,363 536,437 601,473 "/>
<polygon style="fill:#BF59A2;" points="200,327 263,363 263,437 201,473 "/>
<polygon style="fill:#BF59A2;" points="336,747 336,710 400,673 463,710 463,746 "/>
<polygon style="fill:#83D4F1;" points="400,127 437,190 364,190 "/>
<polygon style="fill:#83D4F1;" points="201,473 237,537 200,537 "/>
<polygon style="fill:#83D4F1;" points="601,473 564,536 600,537 "/>
<polygon style="fill:#83D4F1;" points="564,263 600,327 600,263 "/>
<polygon style="fill:#83D4F1;" points="237,263 200,263 200,327 "/>
<polygon style="fill:#83D4F1;" points="364,610 437,609 400,673 "/>
<polygon style="fill:#F47D5E;" points="364,536 364,610 437,609 437,536 "/>
<polygon style="fill:#F47D5E;" points="400,673 437,609 500,646 463,710 "/>
<polygon style="fill:#F47D5E;" points="364,610 300,646 336,710 400,673 "/>
<polygon style="fill:#F47D5E;" points="336,90 400,127 364,190 300,154 "/>
<polygon style="fill:#F47D5E;" points="463,90 500,154 437,190 400,127 "/>
<polygon style="fill:#F47D5E;" points="364,263 364,190 437,190 437,264 "/>
<polygon style="fill:#F47D5E;" points="263,363 200,327 237,263 300,300 "/>
<polygon style="fill:#F47D5E;" points="263,437 300,500 237,537 201,473 "/>
<polygon style="fill:#F47D5E;" points="564,263 500,300 536,363 600,327 "/>
<polygon style="fill:#F47D5E;" points="536,437 601,473 564,536 500,500 "/>
<polygon style="fill:#F47D5E;" points="600,537 564,536 564,610 600,610 "/>
<rect x="564" y="190" style="fill:#F47D5E;" width="36" height="73"/>
<rect x="200" y="190" style="fill:#F47D5E;" width="37" height="73"/>
<rect x="200" y="537" style="fill:#F47D5E;" width="37" height="73"/>
<g>
</g>
<g>
</g>
<g>
</g>
<g>
</g>
<g>
</g>
<g>
</g>
<g>
</g>
<g>
</g>
<g>
</g>
<g>
</g>
<g>
</g>
<g>
</g>
<g>
</g>
<g>
</g>
<g>
</g>
</svg>
