<?xml version="1.0" encoding="iso-8859-1"?>
<!-- Generator: Adobe Illustrator 23.0.1, SVG Export Plug-In . SVG Version: 6.00 Build 0)  -->
<svg version="1.1" id="colour" xmlns="http://www.w3.org/2000/svg" xmlns:xlink="http://www.w3.org/1999/xlink" x="0px" y="0px"
	 viewBox="0 0 800 800" style="enable-background:new 0 0 800 800;" xml:space="preserve">
<polygon style="fill:#EAE298;" points="351.015,188.374 236.001,123.966 236.001,251.249 318.811,263.517 "/>
<polygon style="fill:#EAE298;" points="447.627,188.374 479.831,263.517 561.107,251.249 561.107,120.899 "/>
<polygon style="fill:#EAE298;" points="561.107,400 608.647,337.126 723.661,400 608.647,467.475 "/>
<polygon style="fill:#EAE298;" points="561.107,553.352 479.831,544.151 447.627,619.293 561.107,683.701 "/>
<polygon style="fill:#EAE298;" points="237.535,553.352 318.811,544.151 351.015,613.159 237.535,680.634 "/>
<polygon style="fill:#EAE298;" points="185.395,467.475 74.982,400 185.395,337.126 237.535,403.067 "/>
<polygon style="fill:#6CBE45;" points="400.088,76.427 447.627,192.975 400.088,215.978 351.015,192.975 "/>
<polygon style="fill:#6CBE45;" points="561.107,251.249 680.722,240.514 608.647,337.126 561.107,311.056 "/>
<polygon style="fill:#6CBE45;" points="561.107,495.078 608.647,467.475 680.722,564.087 561.107,553.352 "/>
<polygon style="fill:#6CBE45;" points="400.088,588.623 447.627,613.159 400.088,723.573 351.015,613.159 "/>
<polygon style="fill:#6CBE45;" points="185.395,467.475 237.535,495.078 237.535,553.352 120.987,564.087 "/>
<polygon style="fill:#6CBE45;" points="237.535,306.455 185.395,337.126 120.987,240.514 236.001,251.249 "/>
<polygon style="fill:#CECE2A;" points="351.015,194.508 400.088,215.978 447.627,194.508 479.831,263.517 561.107,251.249 
	561.107,311.056 608.647,337.126 561.107,400 608.647,467.475 561.107,495.078 561.107,553.352 479.831,544.151 447.627,613.159 
	400.088,588.623 351.015,613.159 318.811,544.151 237.535,553.352 237.535,495.078 185.395,467.475 237.535,403.067 
	185.395,337.126 237.535,306.455 236.001,251.249 318.811,263.517 "/>

</svg>
