<?xml version="1.0" encoding="iso-8859-1"?>
<!-- Generator: Adobe Illustrator 23.0.1, SVG Export Plug-In . SVG Version: 6.00 Build 0)  -->
<svg version="1.1" id="colour" xmlns="http://www.w3.org/2000/svg" xmlns:xlink="http://www.w3.org/1999/xlink" x="0px" y="0px"
	 viewBox="0 0 800 800" style="enable-background:new 0 0 800 800;" xml:space="preserve">
<polygon style="fill:#F15F49;" points="400,0 505,76 465,200 335,200 295,76 "/>
<polygon style="fill:#B96A28;" points="635,76 505,76 465,200 570,277 676,200 "/>
<polygon style="fill:#CFAF2B;" points="780,277 740,399 611,400 570,277 676,200 "/>
<polygon style="fill:#55B948;" points="780,523 675,599 570,523 611,400 740,399 "/>
<polygon style="fill:#008B54;" points="635,723 505,723 465,599 570,523 675,599 "/>
<polygon style="fill:#00A28E;" points="399,799 295,723 335,599 465,599 505,723 "/>
<polygon style="fill:#345BA9;" points="229,523 335,599 295,723 164,723 124,599 "/>
<polygon style="fill:#623D98;" points="59,400 190,400 229,523 124,599 19,523 "/>
<polygon style="fill:#CF1A6C;" points="124,200 229,277 190,400 59,400 19,277 "/>
<polygon style="fill:#E71E29;" points="164,76 295,76 335,200 229,277 124,200 "/>

</svg>
