<?xml version="1.0" encoding="iso-8859-1"?>
<!-- Generator: Adobe Illustrator 23.0.1, SVG Export Plug-In . SVG Version: 6.00 Build 0)  -->
<svg version="1.1" id="pen" xmlns="http://www.w3.org/2000/svg" xmlns:xlink="http://www.w3.org/1999/xlink" x="0px" y="0px"
	 width="800px" height="800px" viewBox="0 0 800 800" style="enable-background:new 0 0 800 800;" xml:space="preserve">
<line style="fill:none;stroke:#B82225;stroke-width:4;stroke-linecap:round;stroke-linejoin:bevel;stroke-miterlimit:10;" x1="381" y1="346" x2="472" y2="224"/>
<line style="fill:none;stroke:#B82225;stroke-width:4;stroke-linecap:round;stroke-linejoin:bevel;stroke-miterlimit:10;" x1="415" y1="366" x2="562" y2="300"/>
<line style="fill:none;stroke:#B82225;stroke-width:4;stroke-linecap:round;stroke-linejoin:bevel;stroke-miterlimit:10;" x1="444" y1="368" x2="590" y2="416"/>
<line style="fill:none;stroke:#B82225;stroke-width:4;stroke-linecap:round;stroke-linejoin:bevel;stroke-miterlimit:10;" x1="454" y1="400" x2="543" y2="523"/>
<line style="fill:none;stroke:#B82225;stroke-width:4;stroke-linecap:round;stroke-linejoin:bevel;stroke-miterlimit:10;" x1="444" y1="433" x2="444" y2="585"/>
<line style="fill:none;stroke:#B82225;stroke-width:4;stroke-linecap:round;stroke-linejoin:bevel;stroke-miterlimit:10;" x1="416" y1="454" x2="326" y2="577"/>
<line style="fill:none;stroke:#B82225;stroke-width:4;stroke-linecap:round;stroke-linejoin:bevel;stroke-miterlimit:10;" x1="382" y1="453" x2="236" y2="511"/>
<line style="fill:none;stroke:#B82225;stroke-width:4;stroke-linecap:round;stroke-linejoin:bevel;stroke-miterlimit:10;" x1="353" y1="434" x2="209" y2="387"/>
<line style="fill:none;stroke:#B82225;stroke-width:4;stroke-linecap:round;stroke-linejoin:bevel;stroke-miterlimit:10;" x1="344" y1="399" x2="254" y2="275"/>
<line style="fill:none;stroke:#B82225;stroke-width:4;stroke-linecap:round;stroke-linejoin:bevel;stroke-miterlimit:10;" x1="354" y1="368" x2="354" y2="214"/>
<line style="fill:none;stroke:#B82225;stroke-width:4;stroke-linecap:round;stroke-linejoin:bevel;stroke-miterlimit:10;" x1="444" y1="368" x2="444" y2="215"/>
<line style="fill:none;stroke:#B82225;stroke-width:4;stroke-linecap:round;stroke-linejoin:bevel;stroke-miterlimit:10;" x1="454" y1="400" x2="544" y2="276"/>
<line style="fill:none;stroke:#B82225;stroke-width:4;stroke-linecap:round;stroke-linejoin:bevel;stroke-miterlimit:10;" x1="444" y1="433" x2="591" y2="385"/>
<line style="fill:none;stroke:#B82225;stroke-width:4;stroke-linecap:round;stroke-linejoin:bevel;stroke-miterlimit:10;" x1="416" y1="454" x2="560" y2="501"/>
<line style="fill:none;stroke:#B82225;stroke-width:4;stroke-linecap:round;stroke-linejoin:bevel;stroke-miterlimit:10;" x1="382" y1="453" x2="471" y2="576"/>
<line style="fill:none;stroke:#B82225;stroke-width:4;stroke-linecap:round;stroke-linejoin:bevel;stroke-miterlimit:10;" x1="353" y1="434" x2="353" y2="586"/>
<line style="fill:none;stroke:#B82225;stroke-width:4;stroke-linecap:round;stroke-linejoin:bevel;stroke-miterlimit:10;" x1="344" y1="399" x2="253" y2="524"/>
<line style="fill:none;stroke:#B82225;stroke-width:4;stroke-linecap:round;stroke-linejoin:bevel;stroke-miterlimit:10;" x1="354" y1="368" x2="209" y2="416"/>
<line style="fill:none;stroke:#B82225;stroke-width:4;stroke-linecap:round;stroke-linejoin:bevel;stroke-miterlimit:10;" x1="381" y1="346" x2="237" y2="299"/>
<line style="fill:none;stroke:#B82225;stroke-width:4;stroke-linecap:round;stroke-linejoin:bevel;stroke-miterlimit:10;" x1="415" y1="366" x2="326" y2="223"/>
<line style="fill:none;stroke:#B82225;stroke-width:4;stroke-linecap:round;stroke-linejoin:bevel;stroke-miterlimit:10;" x1="353" y1="186" x2="444" y2="215"/>
<line style="fill:none;stroke:#B82225;stroke-width:4;stroke-linecap:round;stroke-linejoin:bevel;stroke-miterlimit:10;" x1="354" y1="214" x2="444" y2="186"/>
<line style="fill:none;stroke:#B82225;stroke-width:4;stroke-linecap:round;stroke-linejoin:bevel;stroke-miterlimit:10;" x1="472" y1="224" x2="561" y2="254"/>
<line style="fill:none;stroke:#B82225;stroke-width:4;stroke-linecap:round;stroke-linejoin:bevel;stroke-miterlimit:10;" x1="544" y1="276" x2="489" y2="201"/>
<line style="fill:none;stroke:#B82225;stroke-width:4;stroke-linecap:round;stroke-linejoin:bevel;stroke-miterlimit:10;" x1="562" y1="300" x2="634" y2="399"/>
<line style="fill:none;stroke:#B82225;stroke-width:4;stroke-linecap:round;stroke-linejoin:bevel;stroke-miterlimit:10;" x1="560" y1="501" x2="634" y2="399"/>
<line style="fill:none;stroke:#B82225;stroke-width:4;stroke-linecap:round;stroke-linejoin:bevel;stroke-miterlimit:10;" x1="543" y1="523" x2="488" y2="600"/>
<line style="fill:none;stroke:#B82225;stroke-width:4;stroke-linecap:round;stroke-linejoin:bevel;stroke-miterlimit:10;" x1="471" y1="576" x2="561" y2="547"/>
<line style="fill:none;stroke:#B82225;stroke-width:4;stroke-linecap:round;stroke-linejoin:bevel;stroke-miterlimit:10;" x1="444" y1="585" x2="352" y2="615"/>
<line style="fill:none;stroke:#B82225;stroke-width:4;stroke-linecap:round;stroke-linejoin:bevel;stroke-miterlimit:10;" x1="353" y1="586" x2="444" y2="615"/>
<line style="fill:none;stroke:#B82225;stroke-width:4;stroke-linecap:round;stroke-linejoin:bevel;stroke-miterlimit:10;" x1="326" y1="577" x2="235" y2="548"/>
<line style="fill:none;stroke:#B82225;stroke-width:4;stroke-linecap:round;stroke-linejoin:bevel;stroke-miterlimit:10;" x1="253" y1="524" x2="307" y2="603"/>
<line style="fill:none;stroke:#B82225;stroke-width:4;stroke-linecap:round;stroke-linejoin:bevel;stroke-miterlimit:10;" x1="236" y1="511" x2="164" y2="400"/>
<line style="fill:none;stroke:#B82225;stroke-width:4;stroke-linecap:round;stroke-linejoin:bevel;stroke-miterlimit:10;" x1="237" y1="299" x2="209" y2="342"/>
<line style="fill:none;stroke:#B82225;stroke-width:4;stroke-linecap:round;stroke-linejoin:bevel;stroke-miterlimit:10;" x1="254" y1="275" x2="307" y2="199"/>
<line style="fill:none;stroke:#B82225;stroke-width:4;stroke-linecap:round;stroke-linejoin:bevel;stroke-miterlimit:10;" x1="326" y1="223" x2="237" y2="252"/>
<line style="fill:none;stroke:#B82225;stroke-width:4;stroke-linecap:round;stroke-linejoin:bevel;stroke-miterlimit:10;" x1="397" y1="77" x2="471" y2="176"/>
<line style="fill:none;stroke:#B82225;stroke-width:4;stroke-linecap:round;stroke-linejoin:bevel;stroke-miterlimit:10;" x1="444" y1="186" x2="443" y2="93"/>
<line style="fill:none;stroke:#B82225;stroke-width:4;stroke-linecap:round;stroke-linejoin:bevel;stroke-miterlimit:10;" x1="491" y1="76" x2="443" y2="93"/>
<line style="fill:none;stroke:#B82225;stroke-width:4;stroke-linecap:round;stroke-linejoin:bevel;stroke-miterlimit:10;" x1="563" y1="99" x2="491" y2="76"/>
<line style="fill:none;stroke:#B82225;stroke-width:4;stroke-linecap:round;stroke-linejoin:bevel;stroke-miterlimit:10;" x1="471" y1="176" x2="590" y2="139"/>
<line style="fill:none;stroke:#B82225;stroke-width:4;stroke-linecap:round;stroke-linejoin:bevel;stroke-miterlimit:10;" x1="489" y1="201" x2="563" y2="99"/>
<line style="fill:none;stroke:#B82225;stroke-width:4;stroke-linecap:round;stroke-linejoin:bevel;stroke-miterlimit:10;" x1="590" y1="139" x2="589" y2="214"/>
<line style="fill:none;stroke:#B82225;stroke-width:4;stroke-linecap:round;stroke-linejoin:bevel;stroke-miterlimit:10;" x1="561" y1="254" x2="589" y2="214"/>
<line style="fill:none;stroke:#B82225;stroke-width:4;stroke-linecap:round;stroke-linejoin:bevel;stroke-miterlimit:10;" x1="588" y1="292" x2="633" y2="276"/>
<line style="fill:none;stroke:#B82225;stroke-width:4;stroke-linecap:round;stroke-linejoin:bevel;stroke-miterlimit:10;" x1="591" y1="385" x2="588" y2="292"/>
<line style="fill:none;stroke:#B82225;stroke-width:4;stroke-linecap:round;stroke-linejoin:bevel;stroke-miterlimit:10;" x1="590" y1="416" x2="591" y2="511"/>
<line style="fill:none;stroke:#B82225;stroke-width:4;stroke-linecap:round;stroke-linejoin:bevel;stroke-miterlimit:10;" x1="643" y1="534" x2="591" y2="511"/>
<line style="fill:none;stroke:#B82225;stroke-width:4;stroke-linecap:round;stroke-linejoin:bevel;stroke-miterlimit:10;" x1="591" y1="662" x2="590" y2="582"/>
<line style="fill:none;stroke:#B82225;stroke-width:4;stroke-linecap:round;stroke-linejoin:bevel;stroke-miterlimit:10;" x1="561" y1="547" x2="590" y2="582"/>
<line style="fill:none;stroke:#B82225;stroke-width:4;stroke-linecap:round;stroke-linejoin:bevel;stroke-miterlimit:10;" x1="471" y1="624" x2="591" y2="662"/>
<line style="fill:none;stroke:#B82225;stroke-width:4;stroke-linecap:round;stroke-linejoin:bevel;stroke-miterlimit:10;" x1="488" y1="600" x2="559" y2="702"/>
<line style="fill:none;stroke:#B82225;stroke-width:4;stroke-linecap:round;stroke-linejoin:bevel;stroke-miterlimit:10;" x1="559" y1="702" x2="491" y2="723"/>
<line style="fill:none;stroke:#B82225;stroke-width:4;stroke-linecap:round;stroke-linejoin:bevel;stroke-miterlimit:10;" x1="444" y1="707" x2="491" y2="723"/>
<line style="fill:none;stroke:#B82225;stroke-width:4;stroke-linecap:round;stroke-linejoin:bevel;stroke-miterlimit:10;" x1="444" y1="615" x2="444" y2="707"/>
<line style="fill:none;stroke:#B82225;stroke-width:4;stroke-linecap:round;stroke-linejoin:bevel;stroke-miterlimit:10;" x1="471" y1="624" x2="398" y2="725"/>
<line style="fill:none;stroke:#B82225;stroke-width:4;stroke-linecap:round;stroke-linejoin:bevel;stroke-miterlimit:10;" x1="325" y1="624" x2="398" y2="725"/>
<line style="fill:none;stroke:#B82225;stroke-width:4;stroke-linecap:round;stroke-linejoin:bevel;stroke-miterlimit:10;" x1="352" y1="615" x2="352" y2="709"/>
<line style="fill:none;stroke:#B82225;stroke-width:4;stroke-linecap:round;stroke-linejoin:bevel;stroke-miterlimit:10;" x1="307" y1="723" x2="352" y2="709"/>
<line style="fill:none;stroke:#B82225;stroke-width:4;stroke-linecap:round;stroke-linejoin:bevel;stroke-miterlimit:10;" x1="209" y1="690" x2="307" y2="723"/>
<line style="fill:none;stroke:#B82225;stroke-width:4;stroke-linecap:round;stroke-linejoin:bevel;stroke-miterlimit:10;" x1="220" y1="724" x2="307" y2="603"/>
<line style="fill:none;stroke:#B82225;stroke-width:4;stroke-linecap:round;stroke-linejoin:bevel;stroke-miterlimit:10;" x1="325" y1="624" x2="181" y2="670"/>
<line style="fill:none;stroke:#B82225;stroke-width:4;stroke-linecap:round;stroke-linejoin:bevel;stroke-miterlimit:10;" x1="163" y1="646" x2="181" y2="670"/>
<line style="fill:none;stroke:#B82225;stroke-width:4;stroke-linecap:round;stroke-linejoin:bevel;stroke-miterlimit:10;" x1="235" y1="548" x2="163" y2="646"/>
<line style="fill:none;stroke:#B82225;stroke-width:4;stroke-linecap:round;stroke-linejoin:bevel;stroke-miterlimit:10;" x1="209" y1="539" x2="209" y2="690"/>
<line style="fill:none;stroke:#B82225;stroke-width:4;stroke-linecap:round;stroke-linejoin:bevel;stroke-miterlimit:10;" x1="163" y1="525" x2="209" y2="539"/>
<line style="fill:none;stroke:#B82225;stroke-width:4;stroke-linecap:round;stroke-linejoin:bevel;stroke-miterlimit:10;" x1="209" y1="510" x2="163" y2="525"/>
<line style="fill:none;stroke:#B82225;stroke-width:4;stroke-linecap:round;stroke-linejoin:bevel;stroke-miterlimit:10;" x1="209" y1="416" x2="209" y2="510"/>
<line style="fill:none;stroke:#B82225;stroke-width:4;stroke-linecap:round;stroke-linejoin:bevel;stroke-miterlimit:10;" x1="209" y1="342" x2="209" y2="387"/>
<line style="fill:none;stroke:#B82225;stroke-width:4;stroke-linecap:round;stroke-linejoin:bevel;stroke-miterlimit:10;" x1="207" y1="107" x2="210" y2="214"/>
<line style="fill:none;stroke:#B82225;stroke-width:4;stroke-linecap:round;stroke-linejoin:bevel;stroke-miterlimit:10;" x1="210" y1="214" x2="237" y2="252"/>
<line style="fill:none;stroke:#B82225;stroke-width:4;stroke-linecap:round;stroke-linejoin:bevel;stroke-miterlimit:10;" x1="181" y1="128" x2="164" y2="150"/>
<line style="fill:none;stroke:#B82225;stroke-width:4;stroke-linecap:round;stroke-linejoin:bevel;stroke-miterlimit:10;" x1="278" y1="160" x2="181" y2="128"/>
<line style="fill:none;stroke:#B82225;stroke-width:4;stroke-linecap:round;stroke-linejoin:bevel;stroke-miterlimit:10;" x1="307" y1="199" x2="278" y2="160"/>
<line style="fill:none;stroke:#B82225;stroke-width:4;stroke-linecap:round;stroke-linejoin:bevel;stroke-miterlimit:10;" x1="207" y1="107" x2="231" y2="99"/>
<line style="fill:none;stroke:#B82225;stroke-width:4;stroke-linecap:round;stroke-linejoin:bevel;stroke-miterlimit:10;" x1="353" y1="186" x2="353" y2="138"/>
<line style="fill:none;stroke:#B82225;stroke-width:4;stroke-linecap:round;stroke-linejoin:bevel;stroke-miterlimit:10;" x1="353" y1="138" x2="397" y2="77"/>
<line style="fill:none;stroke:#B82225;stroke-width:4;stroke-linecap:round;stroke-linejoin:bevel;stroke-miterlimit:10;" x1="231" y1="99" x2="218" y2="76"/>
<line style="fill:none;stroke:#B82225;stroke-width:4;stroke-linecap:round;stroke-linejoin:bevel;stroke-miterlimit:10;" x1="237" y1="88" x2="281" y2="150"/>
<line style="fill:none;stroke:#B82225;stroke-width:4;stroke-linecap:round;stroke-linejoin:bevel;stroke-miterlimit:10;" x1="325" y1="166" x2="281" y2="150"/>
<line style="fill:none;stroke:#B82225;stroke-width:4;stroke-linecap:round;stroke-linejoin:bevel;stroke-miterlimit:10;" x1="353" y1="124" x2="325" y2="166"/>
<line style="fill:none;stroke:#B82225;stroke-width:4;stroke-linecap:round;stroke-linejoin:bevel;stroke-miterlimit:10;" x1="377" y1="56" x2="353" y2="124"/>
<line style="fill:none;stroke:#B82225;stroke-width:4;stroke-linecap:round;stroke-linejoin:bevel;stroke-miterlimit:10;" x1="309" y1="87" x2="377" y2="56"/>
<line style="fill:none;stroke:#B82225;stroke-width:4;stroke-linecap:round;stroke-linejoin:bevel;stroke-miterlimit:10;" x1="237" y1="88" x2="309" y2="87"/>
<line style="fill:none;stroke:#B82225;stroke-width:4;stroke-linecap:round;stroke-linejoin:bevel;stroke-miterlimit:10;" x1="644" y1="66" x2="589" y2="67"/>
<line style="fill:none;stroke:#B82225;stroke-width:4;stroke-linecap:round;stroke-linejoin:bevel;stroke-miterlimit:10;" x1="573" y1="90" x2="589" y2="67"/>
<line style="fill:none;stroke:#B82225;stroke-width:4;stroke-linecap:round;stroke-linejoin:bevel;stroke-miterlimit:10;" x1="600" y1="98" x2="573" y2="90"/>
<line style="fill:none;stroke:#B82225;stroke-width:4;stroke-linecap:round;stroke-linejoin:bevel;stroke-miterlimit:10;" x1="600" y1="127" x2="600" y2="98"/>
<line style="fill:none;stroke:#B82225;stroke-width:4;stroke-linecap:round;stroke-linejoin:bevel;stroke-miterlimit:10;" x1="628" y1="118" x2="600" y2="127"/>
<line style="fill:none;stroke:#B82225;stroke-width:4;stroke-linecap:round;stroke-linejoin:bevel;stroke-miterlimit:10;" x1="644" y1="141" x2="628" y2="118"/>
<line style="fill:none;stroke:#B82225;stroke-width:4;stroke-linecap:round;stroke-linejoin:bevel;stroke-miterlimit:10;" x1="644" y1="66" x2="644" y2="141"/>
<line style="fill:none;stroke:#B82225;stroke-width:4;stroke-linecap:round;stroke-linejoin:bevel;stroke-miterlimit:10;" x1="655" y1="263" x2="600" y2="258"/>
<line style="fill:none;stroke:#B82225;stroke-width:4;stroke-linecap:round;stroke-linejoin:bevel;stroke-miterlimit:10;" x1="600" y1="209" x2="600" y2="258"/>
<line style="fill:none;stroke:#B82225;stroke-width:4;stroke-linecap:round;stroke-linejoin:bevel;stroke-miterlimit:10;" x1="644" y1="150" x2="600" y2="209"/>
<line style="fill:none;stroke:#B82225;stroke-width:4;stroke-linecap:round;stroke-linejoin:bevel;stroke-miterlimit:10;" x1="655" y1="263" x2="644" y2="150"/>
<line style="fill:none;stroke:#B82225;stroke-width:4;stroke-linecap:round;stroke-linejoin:bevel;stroke-miterlimit:10;" x1="119" y1="176" x2="185" y2="233"/>
<line style="fill:none;stroke:#B82225;stroke-width:4;stroke-linecap:round;stroke-linejoin:bevel;stroke-miterlimit:10;" x1="185" y1="284" x2="185" y2="233"/>
<line style="fill:none;stroke:#B82225;stroke-width:4;stroke-linecap:round;stroke-linejoin:bevel;stroke-miterlimit:10;" x1="140" y1="298" x2="185" y2="284"/>
<line style="fill:none;stroke:#B82225;stroke-width:4;stroke-linecap:round;stroke-linejoin:bevel;stroke-miterlimit:10;" x1="127" y1="398" x2="184" y2="367"/>
<line style="fill:none;stroke:#B82225;stroke-width:4;stroke-linecap:round;stroke-linejoin:bevel;stroke-miterlimit:10;" x1="189" y1="320" x2="184" y2="367"/>
<line style="fill:none;stroke:#B82225;stroke-width:4;stroke-linecap:round;stroke-linejoin:bevel;stroke-miterlimit:10;" x1="154" y1="300" x2="189" y2="320"/>
<line style="fill:none;stroke:#B82225;stroke-width:4;stroke-linecap:round;stroke-linejoin:bevel;stroke-miterlimit:10;" x1="599" y1="549" x2="654" y2="563"/>
<line style="fill:none;stroke:#B82225;stroke-width:4;stroke-linecap:round;stroke-linejoin:bevel;stroke-miterlimit:10;" x1="655" y1="655" x2="654" y2="563"/>
<line style="fill:none;stroke:#B82225;stroke-width:4;stroke-linecap:round;stroke-linejoin:bevel;stroke-miterlimit:10;" x1="599" y1="591" x2="599" y2="549"/>
<line style="fill:none;stroke:#B82225;stroke-width:4;stroke-linecap:round;stroke-linejoin:bevel;stroke-miterlimit:10;" x1="655" y1="655" x2="599" y2="591"/>
<line style="fill:none;stroke:#B82225;stroke-width:4;stroke-linecap:round;stroke-linejoin:bevel;stroke-miterlimit:10;" x1="577" y1="743" x2="559" y2="720"/>
<line style="fill:none;stroke:#B82225;stroke-width:4;stroke-linecap:round;stroke-linejoin:bevel;stroke-miterlimit:10;" x1="590" y1="713" x2="559" y2="720"/>
<line style="fill:none;stroke:#B82225;stroke-width:4;stroke-linecap:round;stroke-linejoin:bevel;stroke-miterlimit:10;" x1="589" y1="682" x2="590" y2="713"/>
<line style="fill:none;stroke:#B82225;stroke-width:4;stroke-linecap:round;stroke-linejoin:bevel;stroke-miterlimit:10;" x1="615" y1="690" x2="589" y2="682"/>
<line style="fill:none;stroke:#B82225;stroke-width:4;stroke-linecap:round;stroke-linejoin:bevel;stroke-miterlimit:10;" x1="643" y1="669" x2="615" y2="690"/>
<line style="fill:none;stroke:#B82225;stroke-width:4;stroke-linecap:round;stroke-linejoin:bevel;stroke-miterlimit:10;" x1="632" y1="743" x2="643" y2="669"/>
<line style="fill:none;stroke:#B82225;stroke-width:4;stroke-linecap:round;stroke-linejoin:bevel;stroke-miterlimit:10;" x1="218" y1="76" x2="164" y2="77"/>
<line style="fill:none;stroke:#B82225;stroke-width:4;stroke-linecap:round;stroke-linejoin:bevel;stroke-miterlimit:10;" x1="164" y1="150" x2="164" y2="77"/>
<line style="fill:none;stroke:#B82225;stroke-width:4;stroke-linecap:round;stroke-linejoin:bevel;stroke-miterlimit:10;" x1="119" y1="176" x2="140" y2="298"/>
<line style="fill:none;stroke:#B82225;stroke-width:4;stroke-linecap:round;stroke-linejoin:bevel;stroke-miterlimit:10;" x1="154" y1="300" x2="127" y2="398"/>
<line style="fill:none;stroke:#B82225;stroke-width:4;stroke-linecap:round;stroke-linejoin:bevel;stroke-miterlimit:10;" x1="163" y1="646" x2="141" y2="735"/>
<line style="fill:none;stroke:#B82225;stroke-width:4;stroke-linecap:round;stroke-linejoin:bevel;stroke-miterlimit:10;" x1="220" y1="724" x2="141" y2="735"/>
<line style="fill:none;stroke:#B82225;stroke-width:4;stroke-linecap:round;stroke-linejoin:bevel;stroke-miterlimit:10;" x1="577" y1="743" x2="632" y2="743"/>
</svg>
