<?xml version="1.0" encoding="iso-8859-1"?>
<!-- Generator: Adobe Illustrator 23.0.1, SVG Export Plug-In . SVG Version: 6.00 Build 0)  -->
<svg version="1.1" id="colour" xmlns="http://www.w3.org/2000/svg" xmlns:xlink="http://www.w3.org/1999/xlink" x="0px" y="0px"
	 width="800px" height="800px" viewBox="0 0 800 800" style="enable-background:new 0 0 800 800;" xml:space="preserve">
<polyline style="fill:#21E5EA;" points="368,552 367,523 339,515 269,488 339,466 366,459 348,417 395,436 446,410 431,456 458,443 
	458,458 535,467 471,490 485,515 438,503 488,583 431,544 412,565 "/>
<polygon style="fill:#ED0000;" points="302,197 378,200 419,249 392,173 347,157 242,172 "/>
<polygon style="fill:#ED0000;" points="689.281,461.561 728.705,520.354 733.439,564.686 701.744,575.168 667.081,558.697 
	662.026,513.479 "/>
<polyline style="fill:#ED0000;" points="143.911,622.133 242,640 306.647,651.637 253,751 220.093,668.763 "/>
<polyline style="fill:#ED0000;" points="80,337 372,380 51,424 8,410 144,384 "/>
<polygon style="fill:#ED0000;" points="117.086,285.639 133.105,242 180.11,212.733 239.188,290.542 155.387,292.82 
	127.456,330.052 "/>
<polygon style="fill:#ED0000;" points="256.088,-1.549 294,49.549 294,88.286 256.912,99 219,88.286 219,45.429 "/>
<polygon style="fill:#ED0000;" points="563.866,115.449 636,-3 660.901,143.524 609,107 571.36,188.679 521,151 "/>
<polygon style="fill:#ED0000;" points="786,18 786,85.089 760.733,121.683 721.525,106.871 698,72.891 721.525,39.782 "/>
<polygon style="fill:#ED0000;" points="690.882,266.556 724.216,233.68 776.784,345.99 710.955,307.957 "/>
<polygon style="fill:#ED0000;" points="742,503 787,440 797,574 743,551 "/>
<polygon style="fill:#ED0000;" points="779.742,624.602 798.535,676.533 691.422,705.667 739.117,635.26 "/>
<polyline style="fill:#ED0000;" points="629.187,485.665 643.207,535.339 614,710 614,547 542.56,510.841 "/>
<polygon style="fill:#ED0000;" points="332.324,733.903 367.88,710.06 391.941,736.953 374.768,766.402 322.975,791.061 
	316.447,734.07 "/>
<polygon style="fill:#ED0000;" points="142.7,555.105 197.942,540.726 199.059,593.723 158.099,605.568 86.021,585.029 
	129.158,522.457 "/>
<polygon style="fill:#ED0000;" points="20.352,601.349 65.353,584.41 94,621.67 92.885,695.689 "/>
<polygon style="fill:#ED0000;" points="3.748,165.762 74.826,187.067 103.027,225.909 74.837,263.676 "/>
<polygon style="fill:#21E5EA;" points="723.592,800.546 671.081,784.187 515,725 692.416,759.412 700.681,729.517 723.125,744.888 
	756.104,733.166 "/>
<polygon style="fill:#21E5EA;" points="157.764,50.633 197.429,85.786 195.559,113.526 199,213 148.737,124.141 135.248,100.161 
	54,135 "/>
</svg>
