<?xml version="1.0" encoding="iso-8859-1"?>
<!-- Generator: Adobe Illustrator 23.0.1, SVG Export Plug-In . SVG Version: 6.00 Build 0)  -->
<svg version="1.1" id="pencil" xmlns="http://www.w3.org/2000/svg" xmlns:xlink="http://www.w3.org/1999/xlink" x="0px" y="0px"
	 viewBox="0 0 800 800" style="enable-background:new 0 0 800 800;" xml:space="preserve">
	<ellipse style="fill:#FFFFFF;" cx="199.834" cy="199.667" rx="199.001" ry="199.167"/>
	<line style="fill:none;stroke:#9E9E9E;stroke-miterlimit:10;" x1="0.665" y1="0.333" x2="399.668" y2="399.667"/>
<line style="fill:none;stroke:#9E9E9E;stroke-miterlimit:10;" x1="399.668" y1="0.333" x2="0.665" y2="399.667"/>
<line style="fill:none;stroke:#9E9E9E;stroke-miterlimit:10;" x1="199.501" y1="0.333" x2="199.501" y2="399.002"/>
<line style="fill:none;stroke:#9E9E9E;stroke-miterlimit:10;" x1="0" y1="200" x2="399.003" y2="200"/>
<line style="fill:none;stroke:#9E9E9E;stroke-miterlimit:10;" x1="0" y1="200" x2="83.126" y2="0.333"/>
<line style="fill:none;stroke:#9E9E9E;stroke-miterlimit:10;" x1="399.003" y1="200" x2="317.872" y2="0.333"/>
<line style="fill:none;stroke:#9E9E9E;stroke-miterlimit:10;" x1="0" y1="200" x2="83.791" y2="399.002"/>
<line style="fill:none;stroke:#9E9E9E;stroke-miterlimit:10;" x1="399.003" y1="200" x2="315.877" y2="399.667"/>
<line style="fill:none;stroke:#9E9E9E;stroke-miterlimit:10;" x1="199.501" y1="0.333" x2="0.665" y2="82.862"/>
<line style="fill:none;stroke:#9E9E9E;stroke-miterlimit:10;" x1="199.501" y1="399.002" x2="399.003" y2="200"/>
<line style="fill:none;stroke:#9E9E9E;stroke-miterlimit:10;" x1="199.501" y1="0.333" x2="399.003" y2="83.527"/>
<line style="fill:none;stroke:#9E9E9E;stroke-miterlimit:10;" x1="199.501" y1="399.002" x2="399.668" y2="316.473"/>
<line style="fill:none;stroke:#9E9E9E;stroke-miterlimit:10;" x1="199.501" y1="399.002" x2="0.665" y2="317.138"/>
<line style="fill:none;stroke:#9E9E9E;stroke-miterlimit:10;" x1="58.52" y1="58.902" x2="199.501" y2="399.002"/>
<line style="fill:none;stroke:#9E9E9E;stroke-miterlimit:10;" x1="340.482" y1="59.567" x2="199.501" y2="399.002"/>
<line style="fill:none;stroke:#9E9E9E;stroke-miterlimit:10;" x1="199.501" y1="0.333" x2="59.185" y2="341.098"/>
<line style="fill:none;stroke:#9E9E9E;stroke-miterlimit:10;" x1="341.147" y1="340.433" x2="199.501" y2="0.333"/>
<line style="fill:none;stroke:#9E9E9E;stroke-miterlimit:10;" x1="58.52" y1="58.902" x2="399.003" y2="200"/>
<line style="fill:none;stroke:#9E9E9E;stroke-miterlimit:10;" x1="59.185" y1="341.098" x2="399.003" y2="200"/>
<line style="fill:none;stroke:#9E9E9E;stroke-miterlimit:10;" x1="340.482" y1="59.567" x2="0" y2="200"/>
<line style="fill:none;stroke:#9E9E9E;stroke-miterlimit:10;" x1="341.147" y1="340.433" x2="0" y2="200"/>
<line style="fill:none;stroke:#9E9E9E;stroke-miterlimit:10;" x1="315.877" y1="399.667" x2="150.956" y2="0.333"/>
<line style="fill:none;stroke:#9E9E9E;stroke-miterlimit:10;" x1="83.126" y1="0.333" x2="249.377" y2="399.002"/>
<line style="fill:none;stroke:#9E9E9E;stroke-miterlimit:10;" x1="317.872" y1="0.333" x2="150.956" y2="399.667"/>
<line style="fill:none;stroke:#9E9E9E;stroke-miterlimit:10;" x1="83.791" y1="399.002" x2="248.712" y2="0.333"/>
<line style="fill:none;stroke:#9E9E9E;stroke-miterlimit:10;" x1="0.665" y1="82.862" x2="399.668" y2="248.586"/>
<line style="fill:none;stroke:#9E9E9E;stroke-miterlimit:10;" x1="399.668" y1="316.473" x2="0" y2="152.08"/>
<line style="fill:none;stroke:#9E9E9E;stroke-miterlimit:10;" x1="399.003" y1="83.527" x2="0.665" y2="247.255"/>
<line style="fill:none;stroke:#9E9E9E;stroke-miterlimit:10;" x1="0.665" y1="317.138" x2="399.003" y2="151.414"/>
	<ellipse style="fill:#FFFFFF;" cx="599.834" cy="199.667" rx="199.001" ry="199.167"/>
	
	<line style="fill:none;stroke:#9E9E9E;stroke-miterlimit:10;" x1="400.665" y1="0.333" x2="799.667" y2="399.667"/>
<line style="fill:none;stroke:#9E9E9E;stroke-miterlimit:10;" x1="799.667" y1="0.333" x2="400.665" y2="399.667"/>
<line style="fill:none;stroke:#9E9E9E;stroke-miterlimit:10;" x1="599.501" y1="0.333" x2="599.501" y2="399.002"/>
<line style="fill:none;stroke:#9E9E9E;stroke-miterlimit:10;" x1="400" y1="200" x2="799.003" y2="200"/>
<line style="fill:none;stroke:#9E9E9E;stroke-miterlimit:10;" x1="400" y1="200" x2="483.126" y2="0.333"/>
<line style="fill:none;stroke:#9E9E9E;stroke-miterlimit:10;" x1="799.003" y1="200" x2="717.872" y2="0.333"/>
<line style="fill:none;stroke:#9E9E9E;stroke-miterlimit:10;" x1="400" y1="200" x2="483.791" y2="399.002"/>
<line style="fill:none;stroke:#9E9E9E;stroke-miterlimit:10;" x1="799.003" y1="200" x2="715.877" y2="399.667"/>
<line style="fill:none;stroke:#9E9E9E;stroke-miterlimit:10;" x1="599.501" y1="0.333" x2="400.665" y2="82.862"/>
<line style="fill:none;stroke:#9E9E9E;stroke-miterlimit:10;" x1="599.501" y1="399.002" x2="799.003" y2="200"/>
<line style="fill:none;stroke:#9E9E9E;stroke-miterlimit:10;" x1="599.501" y1="0.333" x2="799.003" y2="83.527"/>
<line style="fill:none;stroke:#9E9E9E;stroke-miterlimit:10;" x1="599.501" y1="399.002" x2="799.667" y2="316.473"/>
<line style="fill:none;stroke:#9E9E9E;stroke-miterlimit:10;" x1="599.501" y1="399.002" x2="400.665" y2="317.138"/>
<line style="fill:none;stroke:#9E9E9E;stroke-miterlimit:10;" x1="458.52" y1="58.902" x2="599.501" y2="399.002"/>
<line style="fill:none;stroke:#9E9E9E;stroke-miterlimit:10;" x1="740.482" y1="59.567" x2="599.501" y2="399.002"/>
<line style="fill:none;stroke:#9E9E9E;stroke-miterlimit:10;" x1="599.501" y1="0.333" x2="459.185" y2="341.098"/>
<line style="fill:none;stroke:#9E9E9E;stroke-miterlimit:10;" x1="741.147" y1="340.433" x2="599.501" y2="0.333"/>
<line style="fill:none;stroke:#9E9E9E;stroke-miterlimit:10;" x1="458.52" y1="58.902" x2="799.003" y2="200"/>
<line style="fill:none;stroke:#9E9E9E;stroke-miterlimit:10;" x1="459.185" y1="341.098" x2="799.003" y2="200"/>
<line style="fill:none;stroke:#9E9E9E;stroke-miterlimit:10;" x1="740.482" y1="59.567" x2="400" y2="200"/>
<line style="fill:none;stroke:#9E9E9E;stroke-miterlimit:10;" x1="741.147" y1="340.433" x2="400" y2="200"/>
<line style="fill:none;stroke:#9E9E9E;stroke-miterlimit:10;" x1="715.877" y1="399.667" x2="550.956" y2="0.333"/>
<line style="fill:none;stroke:#9E9E9E;stroke-miterlimit:10;" x1="483.126" y1="0.333" x2="649.377" y2="399.002"/>
<line style="fill:none;stroke:#9E9E9E;stroke-miterlimit:10;" x1="717.872" y1="0.333" x2="550.956" y2="399.667"/>
<line style="fill:none;stroke:#9E9E9E;stroke-miterlimit:10;" x1="483.791" y1="399.002" x2="648.712" y2="0.333"/>
<line style="fill:none;stroke:#9E9E9E;stroke-miterlimit:10;" x1="400.665" y1="82.862" x2="799.667" y2="248.586"/>
<line style="fill:none;stroke:#9E9E9E;stroke-miterlimit:10;" x1="799.667" y1="316.473" x2="400" y2="152.08"/>
<line style="fill:none;stroke:#9E9E9E;stroke-miterlimit:10;" x1="799.003" y1="83.527" x2="400.665" y2="247.255"/>
<line style="fill:none;stroke:#9E9E9E;stroke-miterlimit:10;" x1="400.665" y1="317.138" x2="799.003" y2="151.414"/>
	<ellipse style="fill:#FFFFFF;" cx="199.834" cy="599.667" rx="199.001" ry="199.167"/>
	
	<line style="fill:none;stroke:#9E9E9E;stroke-miterlimit:10;" x1="0.665" y1="400.333" x2="399.668" y2="799.667"/>
<line style="fill:none;stroke:#9E9E9E;stroke-miterlimit:10;" x1="399.668" y1="400.333" x2="0.665" y2="799.667"/>
<line style="fill:none;stroke:#9E9E9E;stroke-miterlimit:10;" x1="199.501" y1="400.333" x2="199.501" y2="799.002"/>
<line style="fill:none;stroke:#9E9E9E;stroke-miterlimit:10;" x1="0" y1="600" x2="399.003" y2="600"/>
<line style="fill:none;stroke:#9E9E9E;stroke-miterlimit:10;" x1="0" y1="600" x2="83.126" y2="400.333"/>
<line style="fill:none;stroke:#9E9E9E;stroke-miterlimit:10;" x1="399.003" y1="600" x2="317.872" y2="400.333"/>
<line style="fill:none;stroke:#9E9E9E;stroke-miterlimit:10;" x1="0" y1="600" x2="83.791" y2="799.002"/>
<line style="fill:none;stroke:#9E9E9E;stroke-miterlimit:10;" x1="399.003" y1="600" x2="315.877" y2="799.667"/>
<line style="fill:none;stroke:#9E9E9E;stroke-miterlimit:10;" x1="199.501" y1="400.333" x2="0.665" y2="482.862"/>
<line style="fill:none;stroke:#9E9E9E;stroke-miterlimit:10;" x1="199.501" y1="799.002" x2="399.003" y2="600"/>
<line style="fill:none;stroke:#9E9E9E;stroke-miterlimit:10;" x1="199.501" y1="400.333" x2="399.003" y2="483.527"/>
<line style="fill:none;stroke:#9E9E9E;stroke-miterlimit:10;" x1="199.501" y1="799.002" x2="399.668" y2="716.473"/>
<line style="fill:none;stroke:#9E9E9E;stroke-miterlimit:10;" x1="199.501" y1="799.002" x2="0.665" y2="717.138"/>
<line style="fill:none;stroke:#9E9E9E;stroke-miterlimit:10;" x1="58.52" y1="458.902" x2="199.501" y2="799.002"/>
<line style="fill:none;stroke:#9E9E9E;stroke-miterlimit:10;" x1="340.482" y1="459.567" x2="199.501" y2="799.002"/>
<line style="fill:none;stroke:#9E9E9E;stroke-miterlimit:10;" x1="199.501" y1="400.333" x2="59.185" y2="741.098"/>
<line style="fill:none;stroke:#9E9E9E;stroke-miterlimit:10;" x1="341.147" y1="740.433" x2="199.501" y2="400.333"/>
<line style="fill:none;stroke:#9E9E9E;stroke-miterlimit:10;" x1="58.52" y1="458.902" x2="399.003" y2="600"/>
<line style="fill:none;stroke:#9E9E9E;stroke-miterlimit:10;" x1="59.185" y1="741.098" x2="399.003" y2="600"/>
<line style="fill:none;stroke:#9E9E9E;stroke-miterlimit:10;" x1="340.482" y1="459.567" x2="0" y2="600"/>
<line style="fill:none;stroke:#9E9E9E;stroke-miterlimit:10;" x1="341.147" y1="740.433" x2="0" y2="600"/>
<line style="fill:none;stroke:#9E9E9E;stroke-miterlimit:10;" x1="315.877" y1="799.667" x2="150.956" y2="400.333"/>
<line style="fill:none;stroke:#9E9E9E;stroke-miterlimit:10;" x1="83.126" y1="400.333" x2="249.377" y2="799.002"/>
<line style="fill:none;stroke:#9E9E9E;stroke-miterlimit:10;" x1="317.872" y1="400.333" x2="150.956" y2="799.667"/>
<line style="fill:none;stroke:#9E9E9E;stroke-miterlimit:10;" x1="83.791" y1="799.002" x2="248.712" y2="400.333"/>
<line style="fill:none;stroke:#9E9E9E;stroke-miterlimit:10;" x1="0.665" y1="482.862" x2="399.668" y2="648.586"/>
<line style="fill:none;stroke:#9E9E9E;stroke-miterlimit:10;" x1="399.668" y1="716.473" x2="0" y2="552.08"/>
<line style="fill:none;stroke:#9E9E9E;stroke-miterlimit:10;" x1="399.003" y1="483.527" x2="0.665" y2="647.255"/>
<line style="fill:none;stroke:#9E9E9E;stroke-miterlimit:10;" x1="0.665" y1="717.138" x2="399.003" y2="551.414"/>
	<ellipse style="fill:#FFFFFF;" cx="599.834" cy="599.667" rx="199.001" ry="199.167"/>
	
	<line style="fill:none;stroke:#9E9E9E;stroke-miterlimit:10;" x1="400.665" y1="400.333" x2="799.667" y2="799.667"/>
<line style="fill:none;stroke:#9E9E9E;stroke-miterlimit:10;" x1="799.667" y1="400.333" x2="400.665" y2="799.667"/>
<line style="fill:none;stroke:#9E9E9E;stroke-miterlimit:10;" x1="599.501" y1="400.333" x2="599.501" y2="799.002"/>
<line style="fill:none;stroke:#9E9E9E;stroke-miterlimit:10;" x1="400" y1="600" x2="799.003" y2="600"/>
<line style="fill:none;stroke:#9E9E9E;stroke-miterlimit:10;" x1="400" y1="600" x2="483.126" y2="400.333"/>
<line style="fill:none;stroke:#9E9E9E;stroke-miterlimit:10;" x1="799.003" y1="600" x2="717.872" y2="400.333"/>
<line style="fill:none;stroke:#9E9E9E;stroke-miterlimit:10;" x1="400" y1="600" x2="483.791" y2="799.002"/>
<line style="fill:none;stroke:#9E9E9E;stroke-miterlimit:10;" x1="799.003" y1="600" x2="715.877" y2="799.667"/>
<line style="fill:none;stroke:#9E9E9E;stroke-miterlimit:10;" x1="599.501" y1="400.333" x2="400.665" y2="482.862"/>
<line style="fill:none;stroke:#9E9E9E;stroke-miterlimit:10;" x1="599.501" y1="799.002" x2="799.003" y2="600"/>
<line style="fill:none;stroke:#9E9E9E;stroke-miterlimit:10;" x1="599.501" y1="400.333" x2="799.003" y2="483.527"/>
<line style="fill:none;stroke:#9E9E9E;stroke-miterlimit:10;" x1="599.501" y1="799.002" x2="799.667" y2="716.473"/>
<line style="fill:none;stroke:#9E9E9E;stroke-miterlimit:10;" x1="599.501" y1="799.002" x2="400.665" y2="717.138"/>
<line style="fill:none;stroke:#9E9E9E;stroke-miterlimit:10;" x1="458.52" y1="458.902" x2="599.501" y2="799.002"/>
<line style="fill:none;stroke:#9E9E9E;stroke-miterlimit:10;" x1="740.482" y1="459.567" x2="599.501" y2="799.002"/>
<line style="fill:none;stroke:#9E9E9E;stroke-miterlimit:10;" x1="599.501" y1="400.333" x2="459.185" y2="741.098"/>
<line style="fill:none;stroke:#9E9E9E;stroke-miterlimit:10;" x1="741.147" y1="740.433" x2="599.501" y2="400.333"/>
<line style="fill:none;stroke:#9E9E9E;stroke-miterlimit:10;" x1="458.52" y1="458.902" x2="799.003" y2="600"/>
<line style="fill:none;stroke:#9E9E9E;stroke-miterlimit:10;" x1="459.185" y1="741.098" x2="799.003" y2="600"/>
<line style="fill:none;stroke:#9E9E9E;stroke-miterlimit:10;" x1="740.482" y1="459.567" x2="400" y2="600"/>
<line style="fill:none;stroke:#9E9E9E;stroke-miterlimit:10;" x1="741.147" y1="740.433" x2="400" y2="600"/>
<line style="fill:none;stroke:#9E9E9E;stroke-miterlimit:10;" x1="715.877" y1="799.667" x2="550.956" y2="400.333"/>
<line style="fill:none;stroke:#9E9E9E;stroke-miterlimit:10;" x1="483.126" y1="400.333" x2="649.377" y2="799.002"/>
<line style="fill:none;stroke:#9E9E9E;stroke-miterlimit:10;" x1="717.872" y1="400.333" x2="550.956" y2="799.667"/>
<line style="fill:none;stroke:#9E9E9E;stroke-miterlimit:10;" x1="483.791" y1="799.002" x2="648.712" y2="400.333"/>
<line style="fill:none;stroke:#9E9E9E;stroke-miterlimit:10;" x1="400.665" y1="482.862" x2="799.667" y2="648.586"/>
<line style="fill:none;stroke:#9E9E9E;stroke-miterlimit:10;" x1="799.667" y1="716.473" x2="400" y2="552.08"/>
<line style="fill:none;stroke:#9E9E9E;stroke-miterlimit:10;" x1="799.003" y1="483.527" x2="400.665" y2="647.255"/>
<line style="fill:none;stroke:#9E9E9E;stroke-miterlimit:10;" x1="400.665" y1="717.138" x2="799.003" y2="551.414"/>

</svg>
