<?xml version="1.0" encoding="iso-8859-1"?>
<!-- Generator: Adobe Illustrator 23.0.1, SVG Export Plug-In . SVG Version: 6.00 Build 0)  -->
<svg version="1.1" id="colours" xmlns="http://www.w3.org/2000/svg" xmlns:xlink="http://www.w3.org/1999/xlink" x="0px" y="0px"
	 viewBox="0 0 800 800" style="enable-background:new 0 0 800 800;" xml:space="preserve">
<polygon style="fill:#A2FFFD;" points="137.796,138.503 164.438,124.274 137.796,77.651 112.062,122.761 "/>
<polygon style="fill:#A2FFFD;" points="190.474,168.475 190.474,137.898 243.152,138.503 216.813,183.613 "/>
<polygon style="fill:#A2FFFD;" points="190.474,229.025 216.813,214.796 242.849,258.694 190.474,258.997 "/>
<polygon style="fill:#A2FFFD;" points="138.704,258.997 164.438,274.437 137.796,319.546 112.062,274.134 "/>
<polygon style="fill:#A2FFFD;" points="59.99,214.796 86.026,229.025 86.026,258.694 34.257,258.694 "/>
<polygon style="fill:#A2FFFD;" points="85.421,168.475 85.421,137.898 33.348,137.898 59.99,183.613 "/>
<polygon style="fill:#A2B6FD;" points="85.421,168.475 137.796,138.503 112.062,122.761 137.796,77.651 33.348,137.898 
	85.421,137.898 "/>
<polygon style="fill:#A2B6FD;" points="86.026,229.025 86.026,258.694 34.257,258.694 137.796,319.546 112.062,274.437 
	138.704,258.997 "/>
<polygon style="fill:#A2B6FD;" points="190.474,168.475 190.474,229.025 216.813,214.796 242.849,258.694 243.152,138.503 
	216.813,183.613 "/>
<polygon style="fill:#A2B6FD;" points="59.99,183.613 33.348,137.898 34.257,258.694 59.99,214.796 86.026,229.025 85.421,168.475 
	"/>
<polygon style="fill:#A2B6FD;" points="190.474,229.025 138.704,258.997 164.438,274.134 137.796,319.546 242.849,258.694 
	190.474,258.997 "/>
<polygon style="fill:#A2B6FD;" points="137.796,77.651 243.152,138.503 190.474,137.898 190.474,168.475 137.796,138.503 
	164.438,123.063 "/>
<polygon style="fill:#A272FD;" points="137.796,138.503 190.474,168.475 190.474,229.025 138.704,258.997 86.026,229.025 
	85.421,168.475 "/>
<polygon style="fill:#A2FFFD;" points="347.796,138.503 374.438,124.274 347.796,77.651 322.062,122.761 "/>
<polygon style="fill:#A2FFFD;" points="400.474,168.475 400.474,137.898 453.152,138.503 426.813,183.613 "/>
<polygon style="fill:#A2FFFD;" points="400.474,229.025 426.813,214.796 452.849,258.694 400.474,258.997 "/>
<polygon style="fill:#A2FFFD;" points="348.704,258.997 374.438,274.437 347.796,319.546 322.062,274.134 "/>
<polygon style="fill:#A2FFFD;" points="269.99,214.796 296.026,229.025 296.026,258.694 244.257,258.694 "/>
<polygon style="fill:#A2FFFD;" points="295.421,168.475 295.421,137.898 243.348,137.898 269.99,183.613 "/>
<polygon style="fill:#A2B6FD;" points="295.421,168.475 347.796,138.503 322.062,122.761 347.796,77.651 243.348,137.898 
	295.421,137.898 "/>
<polygon style="fill:#A2B6FD;" points="296.026,229.025 296.026,258.694 244.257,258.694 347.796,319.546 322.062,274.437 
	348.704,258.997 "/>
<polygon style="fill:#A2B6FD;" points="400.474,168.475 400.474,229.025 426.813,214.796 452.849,258.694 453.152,138.503 
	426.813,183.613 "/>
<polygon style="fill:#A2B6FD;" points="269.99,183.613 243.348,137.898 244.257,258.694 269.99,214.796 296.026,229.025 
	295.421,168.475 "/>
<polygon style="fill:#A2B6FD;" points="400.474,229.025 348.704,258.997 374.438,274.134 347.796,319.546 452.849,258.694 
	400.474,258.997 "/>
<polygon style="fill:#A2B6FD;" points="347.796,77.651 453.152,138.503 400.474,137.898 400.474,168.475 347.796,138.503 
	374.438,123.063 "/>
<polygon style="fill:#A272FD;" points="347.796,138.503 400.474,168.475 400.474,229.025 348.704,258.997 296.026,229.025 
	295.421,168.475 "/>
<polygon style="fill:#A2FFFD;" points="556.796,138.503 583.438,124.274 556.796,77.651 531.062,122.761 "/>
<polygon style="fill:#A2FFFD;" points="609.474,168.475 609.474,137.898 662.152,138.503 635.813,183.613 "/>
<polygon style="fill:#A2FFFD;" points="609.474,229.025 635.813,214.796 661.849,258.694 609.474,258.997 "/>
<polygon style="fill:#A2FFFD;" points="557.704,258.997 583.438,274.437 556.796,319.546 531.062,274.134 "/>
<polygon style="fill:#A2FFFD;" points="478.99,214.796 505.026,229.025 505.026,258.694 453.257,258.694 "/>
<polygon style="fill:#A2FFFD;" points="504.421,168.475 504.421,137.898 452.348,137.898 478.99,183.613 "/>
<polygon style="fill:#A2B6FD;" points="504.421,168.475 556.796,138.503 531.062,122.761 556.796,77.651 452.348,137.898 
	504.421,137.898 "/>
<polygon style="fill:#A2B6FD;" points="505.026,229.025 505.026,258.694 453.257,258.694 556.796,319.546 531.062,274.437 
	557.704,258.997 "/>
<polygon style="fill:#A2B6FD;" points="609.474,168.475 609.474,229.025 635.813,214.796 661.849,258.694 662.152,138.503 
	635.813,183.613 "/>
<polygon style="fill:#A2B6FD;" points="478.99,183.613 452.348,137.898 453.257,258.694 478.99,214.796 505.026,229.025 
	504.421,168.475 "/>
<polygon style="fill:#A2B6FD;" points="609.474,229.025 557.704,258.997 583.438,274.134 556.796,319.546 661.849,258.694 
	609.474,258.997 "/>
<polygon style="fill:#A2B6FD;" points="556.796,77.651 662.152,138.503 609.474,137.898 609.474,168.475 556.796,138.503 
	583.438,123.063 "/>
<polygon style="fill:#A272FD;" points="556.796,138.503 609.474,168.475 609.474,229.025 557.704,258.997 505.026,229.025 
	504.421,168.475 "/>
<polygon style="fill:#A2FFFD;" points="242.796,319.503 269.438,305.274 242.796,258.651 217.062,303.761 "/>
<polygon style="fill:#A2FFFD;" points="295.474,349.475 295.474,318.898 348.152,319.503 321.813,364.613 "/>
<polygon style="fill:#A2FFFD;" points="295.474,410.025 321.813,395.796 347.849,439.694 295.474,439.997 "/>
<polygon style="fill:#A2FFFD;" points="243.704,439.997 269.438,455.437 242.796,500.546 217.062,455.134 "/>
<polygon style="fill:#A2FFFD;" points="164.99,395.796 191.026,410.025 191.026,439.694 139.257,439.694 "/>
<polygon style="fill:#A2FFFD;" points="190.421,349.475 190.421,318.898 138.348,318.898 164.99,364.613 "/>
<polygon style="fill:#A2B6FD;" points="190.421,349.475 242.796,319.503 217.062,303.761 242.796,258.651 138.348,318.898 
	190.421,318.898 "/>
<polygon style="fill:#A2B6FD;" points="191.026,410.025 191.026,439.694 139.257,439.694 242.796,500.546 217.062,455.437 
	243.704,439.997 "/>
<polygon style="fill:#A2B6FD;" points="295.474,349.475 295.474,410.025 321.813,395.796 347.849,439.694 348.152,319.503 
	321.813,364.613 "/>
<polygon style="fill:#A2B6FD;" points="164.99,364.613 138.348,318.898 139.257,439.694 164.99,395.796 191.026,410.025 
	190.421,349.475 "/>
<polygon style="fill:#A2B6FD;" points="295.474,410.025 243.704,439.997 269.438,455.134 242.796,500.546 347.849,439.694 
	295.474,439.997 "/>
<polygon style="fill:#A2B6FD;" points="242.796,258.651 348.152,319.503 295.474,318.898 295.474,349.475 242.796,319.503 
	269.438,304.063 "/>
<polygon style="fill:#A272FD;" points="242.796,319.503 295.474,349.475 295.474,410.025 243.704,439.997 191.026,410.025 
	190.421,349.475 "/>
<polygon style="fill:#A2FFFD;" points="452.796,319.503 479.438,305.274 452.796,258.651 427.062,303.761 "/>
<polygon style="fill:#A2FFFD;" points="505.474,349.475 505.474,318.898 558.152,319.503 531.813,364.613 "/>
<polygon style="fill:#A2FFFD;" points="505.474,410.025 531.813,395.796 557.849,439.694 505.474,439.997 "/>
<polygon style="fill:#A2FFFD;" points="453.704,439.997 479.438,455.437 452.796,500.546 427.062,455.134 "/>
<polygon style="fill:#A2FFFD;" points="374.99,395.796 401.026,410.025 401.026,439.694 349.257,439.694 "/>
<polygon style="fill:#A2FFFD;" points="400.421,349.475 400.421,318.898 348.348,318.898 374.99,364.613 "/>
<polygon style="fill:#A2B6FD;" points="400.421,349.475 452.796,319.503 427.062,303.761 452.796,258.651 348.348,318.898 
	400.421,318.898 "/>
<polygon style="fill:#A2B6FD;" points="401.026,410.025 401.026,439.694 349.257,439.694 452.796,500.546 427.062,455.437 
	453.704,439.997 "/>
<polygon style="fill:#A2B6FD;" points="505.474,349.475 505.474,410.025 531.813,395.796 557.849,439.694 558.152,319.503 
	531.813,364.613 "/>
<polygon style="fill:#A2B6FD;" points="374.99,364.613 348.348,318.898 349.257,439.694 374.99,395.796 401.026,410.025 
	400.421,349.475 "/>
<polygon style="fill:#A2B6FD;" points="505.474,410.025 453.704,439.997 479.438,455.134 452.796,500.546 557.849,439.694 
	505.474,439.997 "/>
<polygon style="fill:#A2B6FD;" points="452.796,258.651 558.152,319.503 505.474,318.898 505.474,349.475 452.796,319.503 
	479.438,304.063 "/>
<polygon style="fill:#A272FD;" points="452.796,319.503 505.474,349.475 505.474,410.025 453.704,439.997 401.026,410.025 
	400.421,349.475 "/>
<polygon style="fill:#A2FFFD;" points="661.796,319.503 688.438,305.274 661.796,258.651 636.062,303.761 "/>
<polygon style="fill:#A2FFFD;" points="714.474,349.475 714.474,318.898 767.152,319.503 740.813,364.613 "/>
<polygon style="fill:#A2FFFD;" points="714.474,410.025 740.813,395.796 766.849,439.694 714.474,439.997 "/>
<polygon style="fill:#A2FFFD;" points="662.704,439.997 688.438,455.437 661.796,500.546 636.062,455.134 "/>
<polygon style="fill:#A2FFFD;" points="583.99,395.796 610.026,410.025 610.026,439.694 558.257,439.694 "/>
<polygon style="fill:#A2FFFD;" points="609.421,349.475 609.421,318.898 557.348,318.898 583.99,364.613 "/>
<polygon style="fill:#A2B6FD;" points="609.421,349.475 661.796,319.503 636.062,303.761 661.796,258.651 557.348,318.898 
	609.421,318.898 "/>
<polygon style="fill:#A2B6FD;" points="610.026,410.025 610.026,439.694 558.257,439.694 661.796,500.546 636.062,455.437 
	662.704,439.997 "/>
<polygon style="fill:#A2B6FD;" points="714.474,349.475 714.474,410.025 740.813,395.796 766.849,439.694 767.152,319.503 
	740.813,364.613 "/>
<polygon style="fill:#A2B6FD;" points="583.99,364.613 557.348,318.898 558.257,439.694 583.99,395.796 610.026,410.025 
	609.421,349.475 "/>
<polygon style="fill:#A2B6FD;" points="714.474,410.025 662.704,439.997 688.438,455.134 661.796,500.546 766.849,439.694 
	714.474,439.997 "/>
<polygon style="fill:#A2B6FD;" points="661.796,258.651 767.152,319.503 714.474,318.898 714.474,349.475 661.796,319.503 
	688.438,304.063 "/>
<polygon style="fill:#A272FD;" points="661.796,319.503 714.474,349.475 714.474,410.025 662.704,439.997 610.026,410.025 
	609.421,349.475 "/>
<polygon style="fill:#A2FFFD;" points="137.796,500.503 164.438,486.274 137.796,439.651 112.062,484.761 "/>
<polygon style="fill:#A2FFFD;" points="190.474,530.475 190.474,499.898 243.152,500.503 216.813,545.613 "/>
<polygon style="fill:#A2FFFD;" points="190.474,591.025 216.813,576.796 242.849,620.694 190.474,620.997 "/>
<polygon style="fill:#A2FFFD;" points="138.704,620.997 164.438,636.437 137.796,681.546 112.062,636.134 "/>
<polygon style="fill:#A2FFFD;" points="59.99,576.796 86.026,591.025 86.026,620.694 34.257,620.694 "/>
<polygon style="fill:#A2FFFD;" points="85.421,530.475 85.421,499.898 33.348,499.898 59.99,545.613 "/>
<polygon style="fill:#A2B6FD;" points="85.421,530.475 137.796,500.503 112.062,484.761 137.796,439.651 33.348,499.898 
	85.421,499.898 "/>
<polygon style="fill:#A2B6FD;" points="86.026,591.025 86.026,620.694 34.257,620.694 137.796,681.546 112.062,636.437 
	138.704,620.997 "/>
<polygon style="fill:#A2B6FD;" points="190.474,530.475 190.474,591.025 216.813,576.796 242.849,620.694 243.152,500.503 
	216.813,545.613 "/>
<polygon style="fill:#A2B6FD;" points="59.99,545.613 33.348,499.898 34.257,620.694 59.99,576.796 86.026,591.025 85.421,530.475 
	"/>
<polygon style="fill:#A2B6FD;" points="190.474,591.025 138.704,620.997 164.438,636.134 137.796,681.546 242.849,620.694 
	190.474,620.997 "/>
<polygon style="fill:#A2B6FD;" points="137.796,439.651 243.152,500.503 190.474,499.898 190.474,530.475 137.796,500.503 
	164.438,485.063 "/>
<polygon style="fill:#A272FD;" points="137.796,500.503 190.474,530.475 190.474,591.025 138.704,620.997 86.026,591.025 
	85.421,530.475 "/>
<polygon style="fill:#A2FFFD;" points="347.796,500.503 374.438,486.274 347.796,439.651 322.062,484.761 "/>
<polygon style="fill:#A2FFFD;" points="400.474,530.475 400.474,499.898 453.152,500.503 426.813,545.613 "/>
<polygon style="fill:#A2FFFD;" points="400.474,591.025 426.813,576.796 452.849,620.694 400.474,620.997 "/>
<polygon style="fill:#A2FFFD;" points="348.704,620.997 374.438,636.437 347.796,681.546 322.062,636.134 "/>
<polygon style="fill:#A2FFFD;" points="269.99,576.796 296.026,591.025 296.026,620.694 244.257,620.694 "/>
<polygon style="fill:#A2FFFD;" points="295.421,530.475 295.421,499.898 243.348,499.898 269.99,545.613 "/>
<polygon style="fill:#A2B6FD;" points="295.421,530.475 347.796,500.503 322.062,484.761 347.796,439.651 243.348,499.898 
	295.421,499.898 "/>
<polygon style="fill:#A2B6FD;" points="296.026,591.025 296.026,620.694 244.257,620.694 347.796,681.546 322.062,636.437 
	348.704,620.997 "/>
<polygon style="fill:#A2B6FD;" points="400.474,530.475 400.474,591.025 426.813,576.796 452.849,620.694 453.152,500.503 
	426.813,545.613 "/>
<polygon style="fill:#A2B6FD;" points="269.99,545.613 243.348,499.898 244.257,620.694 269.99,576.796 296.026,591.025 
	295.421,530.475 "/>
<polygon style="fill:#A2B6FD;" points="400.474,591.025 348.704,620.997 374.438,636.134 347.796,681.546 452.849,620.694 
	400.474,620.997 "/>
<polygon style="fill:#A2B6FD;" points="347.796,439.651 453.152,500.503 400.474,499.898 400.474,530.475 347.796,500.503 
	374.438,485.063 "/>
<polygon style="fill:#A272FD;" points="347.796,500.503 400.474,530.475 400.474,591.025 348.704,620.997 296.026,591.025 
	295.421,530.475 "/>
<polygon style="fill:#A2FFFD;" points="556.796,500.503 583.438,486.274 556.796,439.651 531.062,484.761 "/>
<polygon style="fill:#A2FFFD;" points="609.474,530.475 609.474,499.898 662.152,500.503 635.813,545.613 "/>
<polygon style="fill:#A2FFFD;" points="609.474,591.025 635.813,576.796 661.849,620.694 609.474,620.997 "/>
<polygon style="fill:#A2FFFD;" points="557.704,620.997 583.438,636.437 556.796,681.546 531.062,636.134 "/>
<polygon style="fill:#A2FFFD;" points="478.99,576.796 505.026,591.025 505.026,620.694 453.257,620.694 "/>
<polygon style="fill:#A2FFFD;" points="504.421,530.475 504.421,499.898 452.348,499.898 478.99,545.613 "/>
<polygon style="fill:#A2B6FD;" points="504.421,530.475 556.796,500.503 531.062,484.761 556.796,439.651 452.348,499.898 
	504.421,499.898 "/>
<polygon style="fill:#A2B6FD;" points="505.026,591.025 505.026,620.694 453.257,620.694 556.796,681.546 531.062,636.437 
	557.704,620.997 "/>
<polygon style="fill:#A2B6FD;" points="609.474,530.475 609.474,591.025 635.813,576.796 661.849,620.694 662.152,500.503 
	635.813,545.613 "/>
<polygon style="fill:#A2B6FD;" points="478.99,545.613 452.348,499.898 453.257,620.694 478.99,576.796 505.026,591.025 
	504.421,530.475 "/>
<polygon style="fill:#A2B6FD;" points="609.474,591.025 557.704,620.997 583.438,636.134 556.796,681.546 661.849,620.694 
	609.474,620.997 "/>
<polygon style="fill:#A2B6FD;" points="556.796,439.651 662.152,500.503 609.474,499.898 609.474,530.475 556.796,500.503 
	583.438,485.063 "/>
<polygon style="fill:#A272FD;" points="556.796,500.503 609.474,530.475 609.474,591.025 557.704,620.997 505.026,591.025 
	504.421,530.475 "/>
</svg>
