<?xml version="1.0" encoding="iso-8859-1"?>
<!-- Generator: Adobe Illustrator 23.0.1, SVG Export Plug-In . SVG Version: 6.00 Build 0)  -->
<svg version="1.1" id="pen" xmlns="http://www.w3.org/2000/svg" xmlns:xlink="http://www.w3.org/1999/xlink" x="0px" y="0px"
	 viewBox="0 0 800 800" style="enable-background:new 0 0 800 800;" xml:space="preserve">
<line style="fill:none;stroke:#000000;stroke-width:3;stroke-miterlimit:10;" x1="33.197" y1="137.747" x2="85.572" y2="138.049"/>
<line style="fill:none;stroke:#000000;stroke-width:3;stroke-miterlimit:10;" x1="85.875" y1="258.845" x2="85.572" y2="138.049"/>
<line style="fill:none;stroke:#000000;stroke-width:3;stroke-miterlimit:10;" x1="34.105" y1="258.845" x2="85.875" y2="258.845"/>
<line style="fill:none;stroke:#000000;stroke-width:3;stroke-miterlimit:10;" x1="59.839" y1="183.764" x2="33.197" y2="137.747"/>
<line style="fill:none;stroke:#000000;stroke-width:3;stroke-miterlimit:10;" x1="164.286" y1="123.215" x2="59.839" y2="183.764"/>
<line style="fill:none;stroke:#000000;stroke-width:3;stroke-miterlimit:10;" x1="137.947" y1="77.803" x2="164.286" y2="123.215"/>
<line style="fill:none;stroke:#000000;stroke-width:3;stroke-miterlimit:10;" x1="112.214" y1="122.912" x2="137.947" y2="77.803"/>
<line style="fill:none;stroke:#000000;stroke-width:3;stroke-miterlimit:10;" x1="217.267" y1="183.764" x2="112.214" y2="122.912"/>
<line style="fill:none;stroke:#000000;stroke-width:3;stroke-miterlimit:10;" x1="243.303" y1="138.655" x2="217.267" y2="183.764"/>
<line style="fill:none;stroke:#000000;stroke-width:3;stroke-miterlimit:10;" x1="190.625" y1="137.747" x2="243.303" y2="138.655"/>
<line style="fill:none;stroke:#000000;stroke-width:3;stroke-miterlimit:10;" x1="190.625" y1="259.148" x2="190.625" y2="137.747"/>
<line style="fill:none;stroke:#000000;stroke-width:3;stroke-miterlimit:10;" x1="243" y1="259.148" x2="190.625" y2="259.148"/>
<line style="fill:none;stroke:#000000;stroke-width:3;stroke-miterlimit:10;" x1="216.964" y1="213.736" x2="243" y2="259.148"/>
<line style="fill:none;stroke:#000000;stroke-width:3;stroke-miterlimit:10;" x1="111.911" y1="274.285" x2="216.964" y2="213.736"/>
<line style="fill:none;stroke:#000000;stroke-width:3;stroke-miterlimit:10;" x1="137.947" y1="320" x2="111.911" y2="274.285"/>
<line style="fill:none;stroke:#000000;stroke-width:3;stroke-miterlimit:10;" x1="60.141" y1="214.039" x2="34.105" y2="258.845"/>
<line style="fill:none;stroke:#000000;stroke-width:3;stroke-miterlimit:10;" x1="164.286" y1="274.588" x2="60.141" y2="214.039"/>
<line style="fill:none;stroke:#000000;stroke-width:3;stroke-miterlimit:10;" x1="137.947" y1="320" x2="164.286" y2="274.588"/>
<line style="fill:none;stroke:#000000;stroke-width:3;stroke-miterlimit:10;" x1="243.197" y1="137.747" x2="295.572" y2="138.049"/>
<line style="fill:none;stroke:#000000;stroke-width:3;stroke-miterlimit:10;" x1="295.875" y1="258.845" x2="295.572" y2="138.049"/>
<line style="fill:none;stroke:#000000;stroke-width:3;stroke-miterlimit:10;" x1="244.105" y1="258.845" x2="295.875" y2="258.845"/>
<line style="fill:none;stroke:#000000;stroke-width:3;stroke-miterlimit:10;" x1="269.839" y1="183.764" x2="243.197" y2="137.747"/>
<line style="fill:none;stroke:#000000;stroke-width:3;stroke-miterlimit:10;" x1="374.286" y1="123.215" x2="269.839" y2="183.764"/>
<line style="fill:none;stroke:#000000;stroke-width:3;stroke-miterlimit:10;" x1="347.947" y1="77.803" x2="374.286" y2="123.215"/>
<line style="fill:none;stroke:#000000;stroke-width:3;stroke-miterlimit:10;" x1="322.214" y1="122.912" x2="347.947" y2="77.803"/>
<line style="fill:none;stroke:#000000;stroke-width:3;stroke-miterlimit:10;" x1="427.267" y1="183.764" x2="322.214" y2="122.912"/>
<line style="fill:none;stroke:#000000;stroke-width:3;stroke-miterlimit:10;" x1="453.303" y1="138.655" x2="427.267" y2="183.764"/>
<line style="fill:none;stroke:#000000;stroke-width:3;stroke-miterlimit:10;" x1="400.625" y1="137.747" x2="453.303" y2="138.655"/>
<line style="fill:none;stroke:#000000;stroke-width:3;stroke-miterlimit:10;" x1="400.625" y1="259.148" x2="400.625" y2="137.747"/>
<line style="fill:none;stroke:#000000;stroke-width:3;stroke-miterlimit:10;" x1="453" y1="259.148" x2="400.625" y2="259.148"/>
<line style="fill:none;stroke:#000000;stroke-width:3;stroke-miterlimit:10;" x1="426.964" y1="213.736" x2="453" y2="259.148"/>
<line style="fill:none;stroke:#000000;stroke-width:3;stroke-miterlimit:10;" x1="321.911" y1="274.285" x2="426.964" y2="213.736"/>
<line style="fill:none;stroke:#000000;stroke-width:3;stroke-miterlimit:10;" x1="347.947" y1="320" x2="321.911" y2="274.285"/>
<line style="fill:none;stroke:#000000;stroke-width:3;stroke-miterlimit:10;" x1="270.141" y1="214.039" x2="244.105" y2="258.845"/>
<line style="fill:none;stroke:#000000;stroke-width:3;stroke-miterlimit:10;" x1="374.286" y1="274.588" x2="270.141" y2="214.039"/>
<line style="fill:none;stroke:#000000;stroke-width:3;stroke-miterlimit:10;" x1="347.947" y1="320" x2="374.286" y2="274.588"/>
<line style="fill:none;stroke:#000000;stroke-width:3;stroke-miterlimit:10;" x1="453.197" y1="137.747" x2="505.572" y2="138.049"/>
<line style="fill:none;stroke:#000000;stroke-width:3;stroke-miterlimit:10;" x1="505.875" y1="258.845" x2="505.572" y2="138.049"/>
<line style="fill:none;stroke:#000000;stroke-width:3;stroke-miterlimit:10;" x1="454.105" y1="258.845" x2="505.875" y2="258.845"/>
<line style="fill:none;stroke:#000000;stroke-width:3;stroke-miterlimit:10;" x1="479.839" y1="183.764" x2="453.197" y2="137.747"/>
<line style="fill:none;stroke:#000000;stroke-width:3;stroke-miterlimit:10;" x1="584.286" y1="123.215" x2="479.839" y2="183.764"/>
<line style="fill:none;stroke:#000000;stroke-width:3;stroke-miterlimit:10;" x1="557.947" y1="77.803" x2="584.286" y2="123.215"/>
<line style="fill:none;stroke:#000000;stroke-width:3;stroke-miterlimit:10;" x1="532.214" y1="122.912" x2="557.947" y2="77.803"/>
<line style="fill:none;stroke:#000000;stroke-width:3;stroke-miterlimit:10;" x1="637.267" y1="183.764" x2="532.214" y2="122.912"/>
<line style="fill:none;stroke:#000000;stroke-width:3;stroke-miterlimit:10;" x1="663.303" y1="138.655" x2="637.267" y2="183.764"/>
<line style="fill:none;stroke:#000000;stroke-width:3;stroke-miterlimit:10;" x1="610.625" y1="137.747" x2="663.303" y2="138.655"/>
<line style="fill:none;stroke:#000000;stroke-width:3;stroke-miterlimit:10;" x1="610.625" y1="259.148" x2="610.625" y2="137.747"/>
<line style="fill:none;stroke:#000000;stroke-width:3;stroke-miterlimit:10;" x1="663" y1="259.148" x2="610.625" y2="259.148"/>
<line style="fill:none;stroke:#000000;stroke-width:3;stroke-miterlimit:10;" x1="636.964" y1="213.736" x2="663" y2="259.148"/>
<line style="fill:none;stroke:#000000;stroke-width:3;stroke-miterlimit:10;" x1="531.911" y1="274.285" x2="636.964" y2="213.736"/>
<line style="fill:none;stroke:#000000;stroke-width:3;stroke-miterlimit:10;" x1="557.947" y1="320" x2="531.911" y2="274.285"/>
<line style="fill:none;stroke:#000000;stroke-width:3;stroke-miterlimit:10;" x1="480.141" y1="214.039" x2="454.105" y2="258.845"/>
<line style="fill:none;stroke:#000000;stroke-width:3;stroke-miterlimit:10;" x1="584.286" y1="274.588" x2="480.141" y2="214.039"/>
<line style="fill:none;stroke:#000000;stroke-width:3;stroke-miterlimit:10;" x1="557.947" y1="320" x2="584.286" y2="274.588"/>
<line style="fill:none;stroke:#000000;stroke-width:3;stroke-miterlimit:10;" x1="137.197" y1="319.747" x2="189.572" y2="320.049"/>
<line style="fill:none;stroke:#000000;stroke-width:3;stroke-miterlimit:10;" x1="189.875" y1="440.845" x2="189.572" y2="320.049"/>
<line style="fill:none;stroke:#000000;stroke-width:3;stroke-miterlimit:10;" x1="138.105" y1="440.845" x2="189.875" y2="440.845"/>
<line style="fill:none;stroke:#000000;stroke-width:3;stroke-miterlimit:10;" x1="163.839" y1="365.764" x2="137.197" y2="319.747"/>
<line style="fill:none;stroke:#000000;stroke-width:3;stroke-miterlimit:10;" x1="268.286" y1="305.215" x2="163.839" y2="365.764"/>
<line style="fill:none;stroke:#000000;stroke-width:3;stroke-miterlimit:10;" x1="241.947" y1="259.803" x2="268.286" y2="305.215"/>
<line style="fill:none;stroke:#000000;stroke-width:3;stroke-miterlimit:10;" x1="216.214" y1="304.912" x2="241.947" y2="259.803"/>
<line style="fill:none;stroke:#000000;stroke-width:3;stroke-miterlimit:10;" x1="321.267" y1="365.764" x2="216.214" y2="304.912"/>
<line style="fill:none;stroke:#000000;stroke-width:3;stroke-miterlimit:10;" x1="347.303" y1="320.655" x2="321.267" y2="365.764"/>
<line style="fill:none;stroke:#000000;stroke-width:3;stroke-miterlimit:10;" x1="294.625" y1="319.747" x2="347.303" y2="320.655"/>
<line style="fill:none;stroke:#000000;stroke-width:3;stroke-miterlimit:10;" x1="294.625" y1="441.148" x2="294.625" y2="319.747"/>
<line style="fill:none;stroke:#000000;stroke-width:3;stroke-miterlimit:10;" x1="347" y1="441.148" x2="294.625" y2="441.148"/>
<line style="fill:none;stroke:#000000;stroke-width:3;stroke-miterlimit:10;" x1="320.964" y1="395.736" x2="347" y2="441.148"/>
<line style="fill:none;stroke:#000000;stroke-width:3;stroke-miterlimit:10;" x1="215.911" y1="456.285" x2="320.964" y2="395.736"/>
<line style="fill:none;stroke:#000000;stroke-width:3;stroke-miterlimit:10;" x1="241.947" y1="502" x2="215.911" y2="456.285"/>
<line style="fill:none;stroke:#000000;stroke-width:3;stroke-miterlimit:10;" x1="164.141" y1="396.039" x2="138.105" y2="440.845"/>
<line style="fill:none;stroke:#000000;stroke-width:3;stroke-miterlimit:10;" x1="268.286" y1="456.588" x2="164.141" y2="396.039"/>
<line style="fill:none;stroke:#000000;stroke-width:3;stroke-miterlimit:10;" x1="241.947" y1="502" x2="268.286" y2="456.588"/>
<line style="fill:none;stroke:#000000;stroke-width:3;stroke-miterlimit:10;" x1="347.197" y1="319.747" x2="399.572" y2="320.049"/>
<line style="fill:none;stroke:#000000;stroke-width:3;stroke-miterlimit:10;" x1="399.875" y1="440.845" x2="399.572" y2="320.049"/>
<line style="fill:none;stroke:#000000;stroke-width:3;stroke-miterlimit:10;" x1="348.105" y1="440.845" x2="399.875" y2="440.845"/>
<line style="fill:none;stroke:#000000;stroke-width:3;stroke-miterlimit:10;" x1="373.839" y1="365.764" x2="347.197" y2="319.747"/>
<line style="fill:none;stroke:#000000;stroke-width:3;stroke-miterlimit:10;" x1="478.286" y1="305.215" x2="373.839" y2="365.764"/>
<line style="fill:none;stroke:#000000;stroke-width:3;stroke-miterlimit:10;" x1="451.947" y1="259.803" x2="478.286" y2="305.215"/>
<line style="fill:none;stroke:#000000;stroke-width:3;stroke-miterlimit:10;" x1="426.214" y1="304.912" x2="451.947" y2="259.803"/>
<line style="fill:none;stroke:#000000;stroke-width:3;stroke-miterlimit:10;" x1="531.267" y1="365.764" x2="426.214" y2="304.912"/>
<line style="fill:none;stroke:#000000;stroke-width:3;stroke-miterlimit:10;" x1="557.303" y1="320.655" x2="531.267" y2="365.764"/>
<line style="fill:none;stroke:#000000;stroke-width:3;stroke-miterlimit:10;" x1="504.625" y1="319.747" x2="557.303" y2="320.655"/>
<line style="fill:none;stroke:#000000;stroke-width:3;stroke-miterlimit:10;" x1="504.625" y1="441.148" x2="504.625" y2="319.747"/>
<line style="fill:none;stroke:#000000;stroke-width:3;stroke-miterlimit:10;" x1="557" y1="441.148" x2="504.625" y2="441.148"/>
<line style="fill:none;stroke:#000000;stroke-width:3;stroke-miterlimit:10;" x1="530.964" y1="395.736" x2="557" y2="441.148"/>
<line style="fill:none;stroke:#000000;stroke-width:3;stroke-miterlimit:10;" x1="425.911" y1="456.285" x2="530.964" y2="395.736"/>
<line style="fill:none;stroke:#000000;stroke-width:3;stroke-miterlimit:10;" x1="451.947" y1="502" x2="425.911" y2="456.285"/>
<line style="fill:none;stroke:#000000;stroke-width:3;stroke-miterlimit:10;" x1="374.141" y1="396.039" x2="348.105" y2="440.845"/>
<line style="fill:none;stroke:#000000;stroke-width:3;stroke-miterlimit:10;" x1="478.286" y1="456.588" x2="374.141" y2="396.039"/>
<line style="fill:none;stroke:#000000;stroke-width:3;stroke-miterlimit:10;" x1="451.947" y1="502" x2="478.286" y2="456.588"/>
<line style="fill:none;stroke:#000000;stroke-width:3;stroke-miterlimit:10;" x1="557.197" y1="319.747" x2="609.572" y2="320.049"/>
<line style="fill:none;stroke:#000000;stroke-width:3;stroke-miterlimit:10;" x1="609.875" y1="440.845" x2="609.572" y2="320.049"/>
<line style="fill:none;stroke:#000000;stroke-width:3;stroke-miterlimit:10;" x1="558.105" y1="440.845" x2="609.875" y2="440.845"/>
<line style="fill:none;stroke:#000000;stroke-width:3;stroke-miterlimit:10;" x1="583.839" y1="365.764" x2="557.197" y2="319.747"/>
<line style="fill:none;stroke:#000000;stroke-width:3;stroke-miterlimit:10;" x1="688.286" y1="305.215" x2="583.839" y2="365.764"/>
<line style="fill:none;stroke:#000000;stroke-width:3;stroke-miterlimit:10;" x1="661.947" y1="259.803" x2="688.286" y2="305.215"/>
<line style="fill:none;stroke:#000000;stroke-width:3;stroke-miterlimit:10;" x1="636.214" y1="304.912" x2="661.947" y2="259.803"/>
<line style="fill:none;stroke:#000000;stroke-width:3;stroke-miterlimit:10;" x1="741.267" y1="365.764" x2="636.214" y2="304.912"/>
<line style="fill:none;stroke:#000000;stroke-width:3;stroke-miterlimit:10;" x1="767.303" y1="320.655" x2="741.267" y2="365.764"/>
<line style="fill:none;stroke:#000000;stroke-width:3;stroke-miterlimit:10;" x1="714.625" y1="319.747" x2="767.303" y2="320.655"/>
<line style="fill:none;stroke:#000000;stroke-width:3;stroke-miterlimit:10;" x1="714.625" y1="441.148" x2="714.625" y2="319.747"/>
<line style="fill:none;stroke:#000000;stroke-width:3;stroke-miterlimit:10;" x1="767" y1="441.148" x2="714.625" y2="441.148"/>
<line style="fill:none;stroke:#000000;stroke-width:3;stroke-miterlimit:10;" x1="740.964" y1="395.736" x2="767" y2="441.148"/>
<line style="fill:none;stroke:#000000;stroke-width:3;stroke-miterlimit:10;" x1="635.911" y1="456.285" x2="740.964" y2="395.736"/>
<line style="fill:none;stroke:#000000;stroke-width:3;stroke-miterlimit:10;" x1="661.947" y1="502" x2="635.911" y2="456.285"/>
<line style="fill:none;stroke:#000000;stroke-width:3;stroke-miterlimit:10;" x1="584.141" y1="396.039" x2="558.105" y2="440.845"/>
<line style="fill:none;stroke:#000000;stroke-width:3;stroke-miterlimit:10;" x1="688.286" y1="456.588" x2="584.141" y2="396.039"/>
<line style="fill:none;stroke:#000000;stroke-width:3;stroke-miterlimit:10;" x1="661.947" y1="502" x2="688.286" y2="456.588"/>
<line style="fill:none;stroke:#000000;stroke-width:3;stroke-miterlimit:10;" x1="33.197" y1="502.747" x2="85.572" y2="503.049"/>
<line style="fill:none;stroke:#000000;stroke-width:3;stroke-miterlimit:10;" x1="85.875" y1="623.845" x2="85.572" y2="503.049"/>
<line style="fill:none;stroke:#000000;stroke-width:3;stroke-miterlimit:10;" x1="34.105" y1="623.845" x2="85.875" y2="623.845"/>
<line style="fill:none;stroke:#000000;stroke-width:3;stroke-miterlimit:10;" x1="59.839" y1="548.764" x2="33.197" y2="502.747"/>
<line style="fill:none;stroke:#000000;stroke-width:3;stroke-miterlimit:10;" x1="164.286" y1="488.215" x2="59.839" y2="548.764"/>
<line style="fill:none;stroke:#000000;stroke-width:3;stroke-miterlimit:10;" x1="137.947" y1="442.803" x2="164.286" y2="488.215"/>
<line style="fill:none;stroke:#000000;stroke-width:3;stroke-miterlimit:10;" x1="112.214" y1="487.912" x2="137.947" y2="442.803"/>
<line style="fill:none;stroke:#000000;stroke-width:3;stroke-miterlimit:10;" x1="217.267" y1="548.764" x2="112.214" y2="487.912"/>
<line style="fill:none;stroke:#000000;stroke-width:3;stroke-miterlimit:10;" x1="243.303" y1="503.655" x2="217.267" y2="548.764"/>
<line style="fill:none;stroke:#000000;stroke-width:3;stroke-miterlimit:10;" x1="190.625" y1="502.747" x2="243.303" y2="503.655"/>
<line style="fill:none;stroke:#000000;stroke-width:3;stroke-miterlimit:10;" x1="190.625" y1="624.148" x2="190.625" y2="502.747"/>
<line style="fill:none;stroke:#000000;stroke-width:3;stroke-miterlimit:10;" x1="243" y1="624.148" x2="190.625" y2="624.148"/>
<line style="fill:none;stroke:#000000;stroke-width:3;stroke-miterlimit:10;" x1="216.964" y1="578.736" x2="243" y2="624.148"/>
<line style="fill:none;stroke:#000000;stroke-width:3;stroke-miterlimit:10;" x1="111.911" y1="639.285" x2="216.964" y2="578.736"/>
<line style="fill:none;stroke:#000000;stroke-width:3;stroke-miterlimit:10;" x1="137.947" y1="685" x2="111.911" y2="639.285"/>
<line style="fill:none;stroke:#000000;stroke-width:3;stroke-miterlimit:10;" x1="60.141" y1="579.039" x2="34.105" y2="623.845"/>
<line style="fill:none;stroke:#000000;stroke-width:3;stroke-miterlimit:10;" x1="164.286" y1="639.588" x2="60.141" y2="579.039"/>
<line style="fill:none;stroke:#000000;stroke-width:3;stroke-miterlimit:10;" x1="137.947" y1="685" x2="164.286" y2="639.588"/>
<line style="fill:none;stroke:#000000;stroke-width:3;stroke-miterlimit:10;" x1="243.197" y1="502.747" x2="295.572" y2="503.049"/>
<line style="fill:none;stroke:#000000;stroke-width:3;stroke-miterlimit:10;" x1="295.875" y1="623.845" x2="295.572" y2="503.049"/>
<line style="fill:none;stroke:#000000;stroke-width:3;stroke-miterlimit:10;" x1="244.105" y1="623.845" x2="295.875" y2="623.845"/>
<line style="fill:none;stroke:#000000;stroke-width:3;stroke-miterlimit:10;" x1="269.839" y1="548.764" x2="243.197" y2="502.747"/>
<line style="fill:none;stroke:#000000;stroke-width:3;stroke-miterlimit:10;" x1="374.286" y1="488.215" x2="269.839" y2="548.764"/>
<line style="fill:none;stroke:#000000;stroke-width:3;stroke-miterlimit:10;" x1="347.947" y1="442.803" x2="374.286" y2="488.215"/>
<line style="fill:none;stroke:#000000;stroke-width:3;stroke-miterlimit:10;" x1="322.214" y1="487.912" x2="347.947" y2="442.803"/>
<line style="fill:none;stroke:#000000;stroke-width:3;stroke-miterlimit:10;" x1="427.267" y1="548.764" x2="322.214" y2="487.912"/>
<line style="fill:none;stroke:#000000;stroke-width:3;stroke-miterlimit:10;" x1="453.303" y1="503.655" x2="427.267" y2="548.764"/>
<line style="fill:none;stroke:#000000;stroke-width:3;stroke-miterlimit:10;" x1="400.625" y1="502.747" x2="453.303" y2="503.655"/>
<line style="fill:none;stroke:#000000;stroke-width:3;stroke-miterlimit:10;" x1="400.625" y1="624.148" x2="400.625" y2="502.747"/>
<line style="fill:none;stroke:#000000;stroke-width:3;stroke-miterlimit:10;" x1="453" y1="624.148" x2="400.625" y2="624.148"/>
<line style="fill:none;stroke:#000000;stroke-width:3;stroke-miterlimit:10;" x1="426.964" y1="578.736" x2="453" y2="624.148"/>
<line style="fill:none;stroke:#000000;stroke-width:3;stroke-miterlimit:10;" x1="321.911" y1="639.285" x2="426.964" y2="578.736"/>
<line style="fill:none;stroke:#000000;stroke-width:3;stroke-miterlimit:10;" x1="347.947" y1="685" x2="321.911" y2="639.285"/>
<line style="fill:none;stroke:#000000;stroke-width:3;stroke-miterlimit:10;" x1="270.141" y1="579.039" x2="244.105" y2="623.845"/>
<line style="fill:none;stroke:#000000;stroke-width:3;stroke-miterlimit:10;" x1="374.286" y1="639.588" x2="270.141" y2="579.039"/>
<line style="fill:none;stroke:#000000;stroke-width:3;stroke-miterlimit:10;" x1="347.947" y1="685" x2="374.286" y2="639.588"/>
<line style="fill:none;stroke:#000000;stroke-width:3;stroke-miterlimit:10;" x1="453.197" y1="502.747" x2="505.572" y2="503.049"/>
<line style="fill:none;stroke:#000000;stroke-width:3;stroke-miterlimit:10;" x1="505.875" y1="623.845" x2="505.572" y2="503.049"/>
<line style="fill:none;stroke:#000000;stroke-width:3;stroke-miterlimit:10;" x1="454.105" y1="623.845" x2="505.875" y2="623.845"/>
<line style="fill:none;stroke:#000000;stroke-width:3;stroke-miterlimit:10;" x1="479.839" y1="548.764" x2="453.197" y2="502.747"/>
<line style="fill:none;stroke:#000000;stroke-width:3;stroke-miterlimit:10;" x1="584.286" y1="488.215" x2="479.839" y2="548.764"/>
<line style="fill:none;stroke:#000000;stroke-width:3;stroke-miterlimit:10;" x1="557.947" y1="442.803" x2="584.286" y2="488.215"/>
<line style="fill:none;stroke:#000000;stroke-width:3;stroke-miterlimit:10;" x1="532.214" y1="487.912" x2="557.947" y2="442.803"/>
<line style="fill:none;stroke:#000000;stroke-width:3;stroke-miterlimit:10;" x1="637.267" y1="548.764" x2="532.214" y2="487.912"/>
<line style="fill:none;stroke:#000000;stroke-width:3;stroke-miterlimit:10;" x1="663.303" y1="503.655" x2="637.267" y2="548.764"/>
<line style="fill:none;stroke:#000000;stroke-width:3;stroke-miterlimit:10;" x1="610.625" y1="502.747" x2="663.303" y2="503.655"/>
<line style="fill:none;stroke:#000000;stroke-width:3;stroke-miterlimit:10;" x1="610.625" y1="624.148" x2="610.625" y2="502.747"/>
<line style="fill:none;stroke:#000000;stroke-width:3;stroke-miterlimit:10;" x1="663" y1="624.148" x2="610.625" y2="624.148"/>
<line style="fill:none;stroke:#000000;stroke-width:3;stroke-miterlimit:10;" x1="636.964" y1="578.736" x2="663" y2="624.148"/>
<line style="fill:none;stroke:#000000;stroke-width:3;stroke-miterlimit:10;" x1="531.911" y1="639.285" x2="636.964" y2="578.736"/>
<line style="fill:none;stroke:#000000;stroke-width:3;stroke-miterlimit:10;" x1="557.947" y1="685" x2="531.911" y2="639.285"/>
<line style="fill:none;stroke:#000000;stroke-width:3;stroke-miterlimit:10;" x1="480.141" y1="579.039" x2="454.105" y2="623.845"/>
<line style="fill:none;stroke:#000000;stroke-width:3;stroke-miterlimit:10;" x1="584.286" y1="639.588" x2="480.141" y2="579.039"/>
<line style="fill:none;stroke:#000000;stroke-width:3;stroke-miterlimit:10;" x1="557.947" y1="685" x2="584.286" y2="639.588"/>
</svg>
