<?xml version="1.0" encoding="utf-8"?>
<!-- Generator: Adobe Illustrator 23.0.1, SVG Export Plug-In . SVG Version: 6.00 Build 0)  -->
<!DOCTYPE svg PUBLIC "-//W3C//DTD SVG 1.1//EN" "http://www.w3.org/Graphics/SVG/1.1/DTD/svg11.dtd" [
	<!ENTITY ns_extend "http://ns.adobe.com/Extensibility/1.0/">
	<!ENTITY ns_ai "http://ns.adobe.com/AdobeIllustrator/10.0/">
	<!ENTITY ns_graphs "http://ns.adobe.com/Graphs/1.0/">
	<!ENTITY ns_vars "http://ns.adobe.com/Variables/1.0/">
	<!ENTITY ns_imrep "http://ns.adobe.com/ImageReplacement/1.0/">
	<!ENTITY ns_sfw "http://ns.adobe.com/SaveForWeb/1.0/">
	<!ENTITY ns_custom "http://ns.adobe.com/GenericCustomNamespace/1.0/">
	<!ENTITY ns_adobe_xpath "http://ns.adobe.com/XPath/1.0/">
]>
<svg version="1.1" id="Layer_2" xmlns:x="&ns_extend;" xmlns:i="&ns_ai;" xmlns:graph="&ns_graphs;"
	 xmlns="http://www.w3.org/2000/svg" xmlns:xlink="http://www.w3.org/1999/xlink" x="0px" y="0px" viewBox="0 0 800 800"
	 style="enable-background:new 0 0 800 800;" xml:space="preserve">
<metadata>
	<sfw  xmlns="&ns_sfw;">
		<slices></slices>
		<sliceSourceBounds  bottomLeftOrigin="true" height="800.64" width="801.28" x="-1.38" y="-799.92"></sliceSourceBounds>
	</sfw>
</metadata>
<line style="fill:none;stroke:#000000;stroke-width:3;stroke-miterlimit:10;" x1="1.33" y1="165.72" x2="200.83" y2="83.19"/>
<line style="fill:none;stroke:#000000;stroke-width:3;stroke-miterlimit:10;" x1="200.83" y1="83.19" x2="317.87" y2="364.06"/>
<line style="fill:none;stroke:#000000;stroke-width:3;stroke-miterlimit:10;" x1="317.87" y1="364.06" x2="34.58" y2="481.2"/>
<line style="fill:none;stroke:#000000;stroke-width:3;stroke-miterlimit:10;" x1="0" y1="400" x2="34.58" y2="481.2"/>
<line style="fill:none;stroke:#000000;stroke-width:3;stroke-miterlimit:10;" x1="34.58" y1="318.8" x2="0" y2="400"/>
<line style="fill:none;stroke:#000000;stroke-width:3;stroke-miterlimit:10;" x1="34.58" y1="318.8" x2="317.87" y2="434.61"/>
<line style="fill:none;stroke:#000000;stroke-width:3;stroke-miterlimit:10;" x1="200.83" y1="715.47" x2="317.87" y2="434.61"/>
<line style="fill:none;stroke:#000000;stroke-width:3;stroke-miterlimit:10;" x1="1.33" y1="634.28" x2="200.83" y2="715.47"/>
<line style="fill:none;stroke:#000000;stroke-width:3;stroke-miterlimit:10;" x1="167.58" y1="798" x2="82.46" y2="599.67"/>
<line style="fill:none;stroke:#000000;stroke-width:3;stroke-miterlimit:10;" x1="367.08" y1="482.53" x2="82.46" y2="599.67"/>
<line style="fill:none;stroke:#000000;stroke-width:3;stroke-miterlimit:10;" x1="484.12" y1="763.39" x2="367.08" y2="482.53"/>
<line style="fill:none;stroke:#000000;stroke-width:3;stroke-miterlimit:10;" x1="399" y1="798" x2="484.12" y2="763.39"/>
<line style="fill:none;stroke:#000000;stroke-width:3;stroke-miterlimit:10;" x1="316.54" y1="764.73" x2="399" y2="798"/>
<line style="fill:none;stroke:#000000;stroke-width:3;stroke-miterlimit:10;" x1="433.58" y1="482.53" x2="316.54" y2="764.73"/>
<line style="fill:none;stroke:#000000;stroke-width:3;stroke-miterlimit:10;" x1="716.87" y1="599.67" x2="433.58" y2="482.53"/>
<line style="fill:none;stroke:#000000;stroke-width:3;stroke-miterlimit:10;" x1="631.75" y1="799.33" x2="716.87" y2="599.67"/>
<line style="fill:none;stroke:#000000;stroke-width:3;stroke-miterlimit:10;" x1="597.17" y1="715.47" x2="799.34" y2="632.95"/>
<line style="fill:none;stroke:#000000;stroke-width:3;stroke-miterlimit:10;" x1="481.46" y1="434.61" x2="597.17" y2="715.47"/>
<line style="fill:none;stroke:#000000;stroke-width:3;stroke-miterlimit:10;" x1="764.75" y1="317.47" x2="481.46" y2="434.61"/>
<line style="fill:none;stroke:#000000;stroke-width:3;stroke-miterlimit:10;" x1="798.01" y1="400" x2="764.75" y2="317.47"/>
<line style="fill:none;stroke:#000000;stroke-width:3;stroke-miterlimit:10;" x1="763.42" y1="482.53" x2="798.01" y2="400"/>
<line style="fill:none;stroke:#000000;stroke-width:3;stroke-miterlimit:10;" x1="482.79" y1="365.39" x2="763.42" y2="482.53"/>
<line style="fill:none;stroke:#000000;stroke-width:3;stroke-miterlimit:10;" x1="601.16" y1="84.53" x2="482.79" y2="365.39"/>
<line style="fill:none;stroke:#000000;stroke-width:3;stroke-miterlimit:10;" x1="798.01" y1="167.05" x2="601.16" y2="84.53"/>
<line style="fill:none;stroke:#000000;stroke-width:3;stroke-miterlimit:10;" x1="635.74" y1="0.67" x2="716.87" y2="200.33"/>
<line style="fill:none;stroke:#000000;stroke-width:3;stroke-miterlimit:10;" x1="432.25" y1="317.47" x2="716.87" y2="200.33"/>
<line style="fill:none;stroke:#000000;stroke-width:3;stroke-miterlimit:10;" x1="316.54" y1="35.27" x2="432.25" y2="317.47"/>
<line style="fill:none;stroke:#000000;stroke-width:3;stroke-miterlimit:10;" x1="399" y1="0.67" x2="316.54" y2="35.27"/>
<line style="fill:none;stroke:#000000;stroke-width:3;stroke-miterlimit:10;" x1="482.79" y1="35.27" x2="399" y2="0.67"/>
<line style="fill:none;stroke:#000000;stroke-width:3;stroke-miterlimit:10;" x1="365.75" y1="317.47" x2="482.79" y2="35.27"/>
<line style="fill:none;stroke:#000000;stroke-width:3;stroke-miterlimit:10;" x1="83.79" y1="199" x2="365.75" y2="317.47"/>
<line style="fill:none;stroke:#000000;stroke-width:3;stroke-miterlimit:10;" x1="166.25" y1="0.67" x2="83.79" y2="199"/>
</svg>
