<?xml version="1.0" encoding="iso-8859-1"?>
<!-- Generator: Adobe Illustrator 23.0.1, SVG Export Plug-In . SVG Version: 6.00 Build 0)  -->
<svg version="1.1" id="colours" xmlns="http://www.w3.org/2000/svg" xmlns:xlink="http://www.w3.org/1999/xlink" x="0px" y="0px"
	 viewBox="0 0 800 800" style="enable-background:new 0 0 800 800;" xml:space="preserve">
<polygon style="fill:#EA8686;" points="200.25,100.875 229.713,129.839 229.713,170.288 270.662,170.288 299.625,200.75 
	270.662,230.213 229.713,229.714 229.713,271.162 199.75,300.625 170.287,271.162 170.287,229.714 129.338,230.213 100.375,200.251 
	129.338,170.288 170.787,170.288 170.287,129.34 "/>
<polygon style="fill:#6AE5C5;" points="100.375,200.251 70.911,170.288 29.963,170.288 29.463,129.839 0.499,100.875 0.499,300.625 
	29.963,271.162 29.463,230.213 70.911,230.213 "/>
<polygon style="fill:#6AE5C5;" points="370.037,170.288 329.089,170.288 299.625,200.75 329.089,230.213 370.037,229.714 
	370.037,271.162 399.501,300.625 400,100.875 370.037,129.34 "/>
<polygon style="fill:#6AE5C5;" points="199.75,300.625 229.713,329.589 229.713,370.039 270.662,370.039 299.625,399.502 
	99.875,399.502 128.34,370.538 169.788,370.538 170.287,329.09 "/>
<polygon style="fill:#6AE5C5;" points="200.25,100.875 229.713,71.911 229.713,29.964 270.662,29.964 299.625,1 99.875,1 
	129.338,29.964 170.287,29.964 170.287,71.412 "/>
<polygon style="fill:#E1E593;" points="29.963,29.964 70.911,30.463 99.875,1 0.999,1 0.499,100.875 29.963,71.412 "/>
<polygon style="fill:#E1E593;" points="399.501,1 400,100.875 370.037,71.412 370.037,29.964 329.089,29.964 299.625,1 "/>
<polygon style="fill:#E1E593;" points="370.037,329.09 399.501,300.625 399.501,399.502 299.625,399.502 329.089,370.039 
	370.037,370.039 "/>
<polygon style="fill:#E1E593;" points="0.499,300.625 29.963,329.589 29.463,370.039 70.911,370.039 99.875,399.502 0.999,400.501 
	"/>
<polygon style="fill:#8FEFFF;" points="99.875,1 129.338,29.964 170.287,29.964 170.287,71.412 200.25,100.875 170.287,129.34 
	170.787,170.288 129.338,170.288 100.375,200.251 70.911,170.288 29.963,170.288 29.463,129.839 0.499,100.875 29.963,71.412 
	29.963,29.964 70.911,30.463 "/>
<polygon style="fill:#8FEFFF;" points="299.625,1 329.089,29.964 370.037,29.964 370.037,71.412 400,100.875 370.037,129.34 
	370.537,170.288 329.089,170.288 300.125,200.251 270.662,170.288 229.713,170.288 229.213,129.839 200.25,100.875 229.713,71.412 
	229.713,29.964 270.662,30.463 "/>
<polygon style="fill:#8FEFFF;" points="299.625,200.75 329.089,229.714 370.037,229.714 370.037,271.162 400,300.625 
	370.037,329.09 370.537,370.039 329.089,370.039 300.125,400.001 270.662,370.039 229.713,370.039 229.213,329.589 200.25,300.625 
	229.713,271.162 229.713,229.714 270.662,230.213 "/>
<polygon style="fill:#8FEFFF;" points="99.376,200.75 128.839,229.714 169.788,229.714 169.788,271.162 199.75,300.625 
	169.788,329.09 170.287,370.039 128.839,370.039 99.875,400.001 70.412,370.039 29.463,370.039 28.964,329.589 0,300.625 
	29.463,271.162 29.463,229.714 70.412,230.213 "/>
<polygon style="fill:#EA8686;" points="599.25,100.875 628.713,129.839 628.713,170.288 669.662,170.288 698.625,200.75 
	669.662,230.213 628.713,229.714 628.713,271.162 598.75,300.625 569.287,271.162 569.287,229.714 528.338,230.213 499.375,200.251 
	528.338,170.288 569.786,170.288 569.287,129.34 "/>
<polygon style="fill:#6AE5C5;" points="499.375,200.251 469.911,170.288 428.963,170.288 428.463,129.839 399.499,100.875 
	399.499,300.625 428.963,271.162 428.463,230.213 469.911,230.213 "/>
<polygon style="fill:#6AE5C5;" points="769.037,170.288 728.089,170.288 698.625,200.75 728.089,230.213 769.037,229.714 
	769.037,271.162 798.501,300.625 799,100.875 769.037,129.34 "/>
<polygon style="fill:#6AE5C5;" points="598.75,300.625 628.713,329.589 628.713,370.039 669.662,370.039 698.625,399.502 
	498.875,399.502 527.34,370.538 568.788,370.538 569.287,329.09 "/>
<polygon style="fill:#6AE5C5;" points="599.25,100.875 628.713,71.911 628.713,29.964 669.662,29.964 698.625,1 498.875,1 
	528.338,29.964 569.287,29.964 569.287,71.412 "/>
<polygon style="fill:#E1E593;" points="428.963,29.964 469.911,30.463 498.875,1 399.999,1 399.499,100.875 428.963,71.412 "/>
<polygon style="fill:#E1E593;" points="798.501,1 799,100.875 769.037,71.412 769.037,29.964 728.089,29.964 698.625,1 "/>
<polygon style="fill:#E1E593;" points="769.037,329.09 798.501,300.625 798.501,399.502 698.625,399.502 728.089,370.039 
	769.037,370.039 "/>
<polygon style="fill:#E1E593;" points="399.499,300.625 428.963,329.589 428.463,370.039 469.911,370.039 498.875,399.502 
	399.999,400.501 "/>
<polygon style="fill:#8FEFFF;" points="498.875,1 528.338,29.964 569.287,29.964 569.287,71.412 599.25,100.875 569.287,129.34 
	569.786,170.288 528.338,170.288 499.375,200.251 469.911,170.288 428.963,170.288 428.463,129.839 399.499,100.875 428.963,71.412 
	428.963,29.964 469.911,30.463 "/>
<polygon style="fill:#8FEFFF;" points="698.625,1 728.089,29.964 769.037,29.964 769.037,71.412 799,100.875 769.037,129.34 
	769.537,170.288 728.089,170.288 699.125,200.251 669.662,170.288 628.713,170.288 628.214,129.839 599.25,100.875 628.713,71.412 
	628.713,29.964 669.662,30.463 "/>
<polygon style="fill:#8FEFFF;" points="698.625,200.75 728.089,229.714 769.037,229.714 769.037,271.162 799,300.625 
	769.037,329.09 769.537,370.039 728.089,370.039 699.125,400.001 669.662,370.039 628.713,370.039 628.214,329.589 599.25,300.625 
	628.713,271.162 628.713,229.714 669.662,230.213 "/>
<polygon style="fill:#8FEFFF;" points="498.376,200.75 527.839,229.714 568.788,229.714 568.788,271.162 598.75,300.625 
	568.788,329.09 569.287,370.039 527.839,370.039 498.875,400.001 469.412,370.039 428.463,370.039 427.964,329.589 399,300.625 
	428.463,271.162 428.463,229.714 469.412,230.213 "/>
<polygon style="fill:#EA8686;" points="200.25,498.875 229.713,527.839 229.713,568.288 270.662,568.288 299.625,598.75 
	270.662,628.214 229.713,627.714 229.713,669.162 199.75,698.625 170.287,669.162 170.287,627.714 129.338,628.214 100.375,598.251 
	129.338,568.288 170.787,568.288 170.287,527.34 "/>
<polygon style="fill:#6AE5C5;" points="100.375,598.251 70.911,568.288 29.963,568.288 29.463,527.839 0.499,498.875 0.499,698.625 
	29.963,669.162 29.463,628.214 70.911,628.214 "/>
<polygon style="fill:#6AE5C5;" points="370.037,568.288 329.089,568.288 299.625,598.75 329.089,628.214 370.037,627.714 
	370.037,669.162 399.501,698.625 400,498.875 370.037,527.34 "/>
<polygon style="fill:#6AE5C5;" points="199.75,698.625 229.713,727.589 229.713,768.039 270.662,768.039 299.625,797.502 
	99.875,797.502 128.34,768.538 169.788,768.538 170.287,727.09 "/>
<polygon style="fill:#6AE5C5;" points="200.25,498.875 229.713,469.911 229.713,427.964 270.662,427.964 299.625,399 99.875,399 
	129.338,427.964 170.287,427.964 170.287,469.412 "/>
<polygon style="fill:#E1E593;" points="29.963,427.964 70.911,428.463 99.875,399 0.999,399 0.499,498.875 29.963,469.412 "/>
<polygon style="fill:#E1E593;" points="399.501,399 400,498.875 370.037,469.412 370.037,427.964 329.089,427.964 299.625,399 "/>
<polygon style="fill:#E1E593;" points="370.037,727.09 399.501,698.625 399.501,797.502 299.625,797.502 329.089,768.039 
	370.037,768.039 "/>
<polygon style="fill:#E1E593;" points="0.499,698.625 29.963,727.589 29.463,768.039 70.911,768.039 99.875,797.502 0.999,798.501 
	"/>
<polygon style="fill:#8FEFFF;" points="99.875,399 129.338,427.964 170.287,427.964 170.287,469.412 200.25,498.875 170.287,527.34 
	170.787,568.288 129.338,568.288 100.375,598.251 70.911,568.288 29.963,568.288 29.463,527.839 0.499,498.875 29.963,469.412 
	29.963,427.964 70.911,428.463 "/>
<polygon style="fill:#8FEFFF;" points="299.625,399 329.089,427.964 370.037,427.964 370.037,469.412 400,498.875 370.037,527.34 
	370.537,568.288 329.089,568.288 300.125,598.251 270.662,568.288 229.713,568.288 229.213,527.839 200.25,498.875 229.713,469.412 
	229.713,427.964 270.662,428.463 "/>
<polygon style="fill:#8FEFFF;" points="299.625,598.75 329.089,627.714 370.037,627.714 370.037,669.162 400,698.625 
	370.037,727.09 370.537,768.039 329.089,768.039 300.125,798.001 270.662,768.039 229.713,768.039 229.213,727.589 200.25,698.625 
	229.713,669.162 229.713,627.714 270.662,628.214 "/>
<polygon style="fill:#8FEFFF;" points="99.376,598.75 128.839,627.714 169.788,627.714 169.788,669.162 199.75,698.625 
	169.788,727.09 170.287,768.039 128.839,768.039 99.875,798.001 70.412,768.039 29.463,768.039 28.964,727.589 0,698.625 
	29.463,669.162 29.463,627.714 70.412,628.214 "/>
<polygon style="fill:#EA8686;" points="599.25,498.875 628.713,527.839 628.713,568.288 669.662,568.288 698.625,598.75 
	669.662,628.214 628.713,627.714 628.713,669.162 598.75,698.625 569.287,669.162 569.287,627.714 528.338,628.214 499.375,598.251 
	528.338,568.288 569.786,568.288 569.287,527.34 "/>
<polygon style="fill:#6AE5C5;" points="499.375,598.251 469.911,568.288 428.963,568.288 428.463,527.839 399.499,498.875 
	399.499,698.625 428.963,669.162 428.463,628.214 469.911,628.214 "/>
<polygon style="fill:#6AE5C5;" points="769.037,568.288 728.089,568.288 698.625,598.75 728.089,628.214 769.037,627.714 
	769.037,669.162 798.501,698.625 799,498.875 769.037,527.34 "/>
<polygon style="fill:#6AE5C5;" points="598.75,698.625 628.713,727.589 628.713,768.039 669.662,768.039 698.625,797.502 
	498.875,797.502 527.34,768.538 568.788,768.538 569.287,727.09 "/>
<polygon style="fill:#6AE5C5;" points="599.25,498.875 628.713,469.911 628.713,427.964 669.662,427.964 698.625,399 498.875,399 
	528.338,427.964 569.287,427.964 569.287,469.412 "/>
<polygon style="fill:#E1E593;" points="428.963,427.964 469.911,428.463 498.875,399 399.999,399 399.499,498.875 428.963,469.412 
	"/>
<polygon style="fill:#E1E593;" points="798.501,399 799,498.875 769.037,469.412 769.037,427.964 728.089,427.964 698.625,399 "/>
<polygon style="fill:#E1E593;" points="769.037,727.09 798.501,698.625 798.501,797.502 698.625,797.502 728.089,768.039 
	769.037,768.039 "/>
<polygon style="fill:#E1E593;" points="399.499,698.625 428.963,727.589 428.463,768.039 469.911,768.039 498.875,797.502 
	399.999,798.501 "/>
<polygon style="fill:#8FEFFF;" points="498.875,399 528.338,427.964 569.287,427.964 569.287,469.412 599.25,498.875 
	569.287,527.34 569.786,568.288 528.338,568.288 499.375,598.251 469.911,568.288 428.963,568.288 428.463,527.839 399.499,498.875 
	428.963,469.412 428.963,427.964 469.911,428.463 "/>
<polygon style="fill:#8FEFFF;" points="698.625,399 728.089,427.964 769.037,427.964 769.037,469.412 799,498.875 769.037,527.34 
	769.537,568.288 728.089,568.288 699.125,598.251 669.662,568.288 628.713,568.288 628.214,527.839 599.25,498.875 628.713,469.412 
	628.713,427.964 669.662,428.463 "/>
<polygon style="fill:#8FEFFF;" points="698.625,598.75 728.089,627.714 769.037,627.714 769.037,669.162 799,698.625 
	769.037,727.09 769.537,768.039 728.089,768.039 699.125,798.001 669.662,768.039 628.713,768.039 628.214,727.589 599.25,698.625 
	628.713,669.162 628.713,627.714 669.662,628.214 "/>
<polygon style="fill:#8FEFFF;" points="498.376,598.75 527.839,627.714 568.788,627.714 568.788,669.162 598.75,698.625 
	568.788,727.09 569.287,768.039 527.839,768.039 498.875,798.001 469.412,768.039 428.463,768.039 427.964,727.589 399,698.625 
	428.463,669.162 428.463,627.714 469.412,628.214 "/>
</svg>
