<?xml version="1.0" encoding="iso-8859-1"?>
<!-- Generator: Adobe Illustrator 23.0.1, SVG Export Plug-In . SVG Version: 6.00 Build 0)  -->
<svg version="1.1" id="pen" xmlns="http://www.w3.org/2000/svg" xmlns:xlink="http://www.w3.org/1999/xlink" x="0px" y="0px"
	 viewBox="0 0 800 800" style="enable-background:new 0 0 800 800;" xml:space="preserve">
<line style="fill:none;stroke:#000000;stroke-width:4;stroke-miterlimit:10;" x1="99.75" y1="0.125" x2="128.963" y2="29.338"/>
<line style="fill:none;stroke:#000000;stroke-width:4;stroke-miterlimit:10;" x1="170.287" y1="29.213" x2="129.088" y2="29.213"/>
<line style="fill:none;stroke:#000000;stroke-width:4;stroke-miterlimit:10;" x1="170.287" y1="70.412" x2="170.287" y2="29.213"/>
<line style="fill:none;stroke:#000000;stroke-width:4;stroke-miterlimit:10;" x1="199.75" y1="99.875" x2="170.287" y2="70.412"/>
<line style="fill:none;stroke:#000000;stroke-width:4;stroke-miterlimit:10;" x1="170.287" y1="128.589" x2="199.75" y2="99.875"/>
<line style="fill:none;stroke:#000000;stroke-width:4;stroke-miterlimit:10;" x1="170.287" y1="169.787" x2="170.287" y2="128.589"/>
<line style="fill:none;stroke:#000000;stroke-width:4;stroke-miterlimit:10;" x1="129.088" y1="170.037" x2="170.287" y2="169.787"/>
<line style="fill:none;stroke:#000000;stroke-width:4;stroke-miterlimit:10;" x1="99.875" y1="199.25" x2="129.088" y2="170.037"/>
<line style="fill:none;stroke:#000000;stroke-width:4;stroke-miterlimit:10;" x1="70.412" y1="169.787" x2="99.875" y2="199.25"/>
<line style="fill:none;stroke:#000000;stroke-width:4;stroke-miterlimit:10;" x1="29.713" y1="169.787" x2="70.412" y2="169.787"/>
<line style="fill:none;stroke:#000000;stroke-width:4;stroke-miterlimit:10;" x1="29.713" y1="129.088" x2="29.713" y2="169.787"/>
<line style="fill:none;stroke:#000000;stroke-width:4;stroke-miterlimit:10;" x1="0" y1="99.875" x2="29.713" y2="129.088"/>
<line style="fill:none;stroke:#000000;stroke-width:4;stroke-miterlimit:10;" x1="29.713" y1="70.412" x2="0" y2="99.875"/>
<line style="fill:none;stroke:#000000;stroke-width:4;stroke-miterlimit:10;" x1="29.713" y1="29.213" x2="29.713" y2="70.412"/>
<line style="fill:none;stroke:#000000;stroke-width:4;stroke-miterlimit:10;" x1="70.412" y1="29.463" x2="29.713" y2="29.213"/>
<line style="fill:none;stroke:#000000;stroke-width:4;stroke-miterlimit:10;" x1="99.875" y1="0" x2="70.412" y2="29.463"/>
<line style="fill:none;stroke:#000000;stroke-width:4;stroke-miterlimit:10;" x1="300" y1="0.125" x2="329.214" y2="29.338"/>
<line style="fill:none;stroke:#000000;stroke-width:4;stroke-miterlimit:10;" x1="370.537" y1="29.213" x2="329.339" y2="29.213"/>
<line style="fill:none;stroke:#000000;stroke-width:4;stroke-miterlimit:10;" x1="370.537" y1="70.412" x2="370.537" y2="29.213"/>
<line style="fill:none;stroke:#000000;stroke-width:4;stroke-miterlimit:10;" x1="400" y1="99.875" x2="370.537" y2="70.412"/>
<line style="fill:none;stroke:#000000;stroke-width:4;stroke-miterlimit:10;" x1="370.537" y1="128.589" x2="400" y2="99.875"/>
<line style="fill:none;stroke:#000000;stroke-width:4;stroke-miterlimit:10;" x1="370.537" y1="169.787" x2="370.537" y2="128.589"/>
<line style="fill:none;stroke:#000000;stroke-width:4;stroke-miterlimit:10;" x1="329.339" y1="170.037" x2="370.537" y2="169.787"/>
<line style="fill:none;stroke:#000000;stroke-width:4;stroke-miterlimit:10;" x1="300.125" y1="199.25" x2="329.339" y2="170.037"/>
<line style="fill:none;stroke:#000000;stroke-width:4;stroke-miterlimit:10;" x1="270.662" y1="169.787" x2="300.125" y2="199.25"/>
<line style="fill:none;stroke:#000000;stroke-width:4;stroke-miterlimit:10;" x1="229.963" y1="169.787" x2="270.662" y2="169.787"/>
<line style="fill:none;stroke:#000000;stroke-width:4;stroke-miterlimit:10;" x1="229.963" y1="129.088" x2="229.963" y2="169.787"/>
<line style="fill:none;stroke:#000000;stroke-width:4;stroke-miterlimit:10;" x1="200.25" y1="99.875" x2="229.963" y2="129.088"/>
<line style="fill:none;stroke:#000000;stroke-width:4;stroke-miterlimit:10;" x1="229.963" y1="70.412" x2="200.25" y2="99.875"/>
<line style="fill:none;stroke:#000000;stroke-width:4;stroke-miterlimit:10;" x1="229.963" y1="29.213" x2="229.963" y2="70.412"/>
<line style="fill:none;stroke:#000000;stroke-width:4;stroke-miterlimit:10;" x1="270.662" y1="29.463" x2="229.963" y2="29.213"/>
<line style="fill:none;stroke:#000000;stroke-width:4;stroke-miterlimit:10;" x1="300.125" y1="0" x2="270.662" y2="29.463"/>
<line style="fill:none;stroke:#000000;stroke-width:4;stroke-miterlimit:10;" x1="99.75" y1="200.375" x2="128.963" y2="229.589"/>
<line style="fill:none;stroke:#000000;stroke-width:4;stroke-miterlimit:10;" x1="170.287" y1="229.464" x2="129.088" y2="229.464"/>
<line style="fill:none;stroke:#000000;stroke-width:4;stroke-miterlimit:10;" x1="170.287" y1="270.662" x2="170.287" y2="229.464"/>
<line style="fill:none;stroke:#000000;stroke-width:4;stroke-miterlimit:10;" x1="199.75" y1="300.125" x2="170.287" y2="270.662"/>
<line style="fill:none;stroke:#000000;stroke-width:4;stroke-miterlimit:10;" x1="170.287" y1="328.839" x2="199.75" y2="300.125"/>
<line style="fill:none;stroke:#000000;stroke-width:4;stroke-miterlimit:10;" x1="170.287" y1="370.038" x2="170.287" y2="328.839"/>
<line style="fill:none;stroke:#000000;stroke-width:4;stroke-miterlimit:10;" x1="129.088" y1="370.287" x2="170.287" y2="370.038"/>
<line style="fill:none;stroke:#000000;stroke-width:4;stroke-miterlimit:10;" x1="99.875" y1="399.501" x2="129.088" y2="370.287"/>
<line style="fill:none;stroke:#000000;stroke-width:4;stroke-miterlimit:10;" x1="70.412" y1="370.038" x2="99.875" y2="399.501"/>
<line style="fill:none;stroke:#000000;stroke-width:4;stroke-miterlimit:10;" x1="29.713" y1="370.038" x2="70.412" y2="370.038"/>
<line style="fill:none;stroke:#000000;stroke-width:4;stroke-miterlimit:10;" x1="29.713" y1="329.339" x2="29.713" y2="370.038"/>
<line style="fill:none;stroke:#000000;stroke-width:4;stroke-miterlimit:10;" x1="0" y1="300.125" x2="29.713" y2="329.339"/>
<line style="fill:none;stroke:#000000;stroke-width:4;stroke-miterlimit:10;" x1="29.713" y1="270.662" x2="0" y2="300.125"/>
<line style="fill:none;stroke:#000000;stroke-width:4;stroke-miterlimit:10;" x1="29.713" y1="229.464" x2="29.713" y2="270.662"/>
<line style="fill:none;stroke:#000000;stroke-width:4;stroke-miterlimit:10;" x1="70.412" y1="229.713" x2="29.713" y2="229.464"/>
<line style="fill:none;stroke:#000000;stroke-width:4;stroke-miterlimit:10;" x1="99.875" y1="200.25" x2="70.412" y2="229.713"/>
<line style="fill:none;stroke:#000000;stroke-width:4;stroke-miterlimit:10;" x1="300" y1="200.375" x2="329.214" y2="229.589"/>
<line style="fill:none;stroke:#000000;stroke-width:4;stroke-miterlimit:10;" x1="370.537" y1="229.464" x2="329.339" y2="229.464"/>
<line style="fill:none;stroke:#000000;stroke-width:4;stroke-miterlimit:10;" x1="370.537" y1="270.662" x2="370.537" y2="229.464"/>
<line style="fill:none;stroke:#000000;stroke-width:4;stroke-miterlimit:10;" x1="400" y1="300.125" x2="370.537" y2="270.662"/>
<line style="fill:none;stroke:#000000;stroke-width:4;stroke-miterlimit:10;" x1="370.537" y1="328.839" x2="400" y2="300.125"/>
<line style="fill:none;stroke:#000000;stroke-width:4;stroke-miterlimit:10;" x1="370.537" y1="370.038" x2="370.537" y2="328.839"/>
<line style="fill:none;stroke:#000000;stroke-width:4;stroke-miterlimit:10;" x1="329.339" y1="370.287" x2="370.537" y2="370.038"/>
<line style="fill:none;stroke:#000000;stroke-width:4;stroke-miterlimit:10;" x1="300.125" y1="399.501" x2="329.339" y2="370.287"/>
<line style="fill:none;stroke:#000000;stroke-width:4;stroke-miterlimit:10;" x1="270.662" y1="370.038" x2="300.125" y2="399.501"/>
<line style="fill:none;stroke:#000000;stroke-width:4;stroke-miterlimit:10;" x1="229.963" y1="370.038" x2="270.662" y2="370.038"/>
<line style="fill:none;stroke:#000000;stroke-width:4;stroke-miterlimit:10;" x1="229.963" y1="329.339" x2="229.963" y2="370.038"/>
<line style="fill:none;stroke:#000000;stroke-width:4;stroke-miterlimit:10;" x1="200.25" y1="300.125" x2="229.963" y2="329.339"/>
<line style="fill:none;stroke:#000000;stroke-width:4;stroke-miterlimit:10;" x1="229.963" y1="270.662" x2="200.25" y2="300.125"/>
<line style="fill:none;stroke:#000000;stroke-width:4;stroke-miterlimit:10;" x1="229.963" y1="229.464" x2="229.963" y2="270.662"/>
<line style="fill:none;stroke:#000000;stroke-width:4;stroke-miterlimit:10;" x1="270.662" y1="229.713" x2="229.963" y2="229.464"/>
<line style="fill:none;stroke:#000000;stroke-width:4;stroke-miterlimit:10;" x1="300.125" y1="200.25" x2="270.662" y2="229.713"/>
<line style="fill:none;stroke:#000000;stroke-width:4;stroke-miterlimit:10;" x1="500.75" y1="0.125" x2="529.963" y2="29.338"/>
<line style="fill:none;stroke:#000000;stroke-width:4;stroke-miterlimit:10;" x1="571.287" y1="29.213" x2="530.088" y2="29.213"/>
<line style="fill:none;stroke:#000000;stroke-width:4;stroke-miterlimit:10;" x1="571.287" y1="70.412" x2="571.287" y2="29.213"/>
<line style="fill:none;stroke:#000000;stroke-width:4;stroke-miterlimit:10;" x1="600.75" y1="99.875" x2="571.287" y2="70.412"/>
<line style="fill:none;stroke:#000000;stroke-width:4;stroke-miterlimit:10;" x1="571.287" y1="128.589" x2="600.75" y2="99.875"/>
<line style="fill:none;stroke:#000000;stroke-width:4;stroke-miterlimit:10;" x1="571.287" y1="169.787" x2="571.287" y2="128.589"/>
<line style="fill:none;stroke:#000000;stroke-width:4;stroke-miterlimit:10;" x1="530.088" y1="170.037" x2="571.287" y2="169.787"/>
<line style="fill:none;stroke:#000000;stroke-width:4;stroke-miterlimit:10;" x1="500.875" y1="199.25" x2="530.088" y2="170.037"/>
<line style="fill:none;stroke:#000000;stroke-width:4;stroke-miterlimit:10;" x1="471.412" y1="169.787" x2="500.875" y2="199.25"/>
<line style="fill:none;stroke:#000000;stroke-width:4;stroke-miterlimit:10;" x1="430.713" y1="169.787" x2="471.412" y2="169.787"/>
<line style="fill:none;stroke:#000000;stroke-width:4;stroke-miterlimit:10;" x1="430.713" y1="129.088" x2="430.713" y2="169.787"/>
<line style="fill:none;stroke:#000000;stroke-width:4;stroke-miterlimit:10;" x1="401" y1="99.875" x2="430.713" y2="129.088"/>
<line style="fill:none;stroke:#000000;stroke-width:4;stroke-miterlimit:10;" x1="430.713" y1="70.412" x2="401" y2="99.875"/>
<line style="fill:none;stroke:#000000;stroke-width:4;stroke-miterlimit:10;" x1="430.713" y1="29.213" x2="430.713" y2="70.412"/>
<line style="fill:none;stroke:#000000;stroke-width:4;stroke-miterlimit:10;" x1="471.412" y1="29.463" x2="430.713" y2="29.213"/>
<line style="fill:none;stroke:#000000;stroke-width:4;stroke-miterlimit:10;" x1="500.875" y1="0" x2="471.412" y2="29.463"/>
<line style="fill:none;stroke:#000000;stroke-width:4;stroke-miterlimit:10;" x1="701" y1="0.125" x2="730.214" y2="29.338"/>
<line style="fill:none;stroke:#000000;stroke-width:4;stroke-miterlimit:10;" x1="771.537" y1="29.213" x2="730.339" y2="29.213"/>
<line style="fill:none;stroke:#000000;stroke-width:4;stroke-miterlimit:10;" x1="771.537" y1="70.412" x2="771.537" y2="29.213"/>
<line style="fill:none;stroke:#000000;stroke-width:4;stroke-miterlimit:10;" x1="801" y1="99.875" x2="771.537" y2="70.412"/>
<line style="fill:none;stroke:#000000;stroke-width:4;stroke-miterlimit:10;" x1="771.537" y1="128.589" x2="801" y2="99.875"/>
<line style="fill:none;stroke:#000000;stroke-width:4;stroke-miterlimit:10;" x1="771.537" y1="169.787" x2="771.537" y2="128.589"/>
<line style="fill:none;stroke:#000000;stroke-width:4;stroke-miterlimit:10;" x1="730.339" y1="170.037" x2="771.537" y2="169.787"/>
<line style="fill:none;stroke:#000000;stroke-width:4;stroke-miterlimit:10;" x1="701.125" y1="199.25" x2="730.339" y2="170.037"/>
<line style="fill:none;stroke:#000000;stroke-width:4;stroke-miterlimit:10;" x1="671.662" y1="169.787" x2="701.125" y2="199.25"/>
<line style="fill:none;stroke:#000000;stroke-width:4;stroke-miterlimit:10;" x1="630.963" y1="169.787" x2="671.662" y2="169.787"/>
<line style="fill:none;stroke:#000000;stroke-width:4;stroke-miterlimit:10;" x1="630.963" y1="129.088" x2="630.963" y2="169.787"/>
<line style="fill:none;stroke:#000000;stroke-width:4;stroke-miterlimit:10;" x1="601.25" y1="99.875" x2="630.963" y2="129.088"/>
<line style="fill:none;stroke:#000000;stroke-width:4;stroke-miterlimit:10;" x1="630.963" y1="70.412" x2="601.25" y2="99.875"/>
<line style="fill:none;stroke:#000000;stroke-width:4;stroke-miterlimit:10;" x1="630.963" y1="29.213" x2="630.963" y2="70.412"/>
<line style="fill:none;stroke:#000000;stroke-width:4;stroke-miterlimit:10;" x1="671.662" y1="29.463" x2="630.963" y2="29.213"/>
<line style="fill:none;stroke:#000000;stroke-width:4;stroke-miterlimit:10;" x1="701.125" y1="0" x2="671.662" y2="29.463"/>
<line style="fill:none;stroke:#000000;stroke-width:4;stroke-miterlimit:10;" x1="500.75" y1="200.375" x2="529.963" y2="229.589"/>
<line style="fill:none;stroke:#000000;stroke-width:4;stroke-miterlimit:10;" x1="571.287" y1="229.464" x2="530.088" y2="229.464"/>
<line style="fill:none;stroke:#000000;stroke-width:4;stroke-miterlimit:10;" x1="571.287" y1="270.662" x2="571.287" y2="229.464"/>
<line style="fill:none;stroke:#000000;stroke-width:4;stroke-miterlimit:10;" x1="600.75" y1="300.125" x2="571.287" y2="270.662"/>
<line style="fill:none;stroke:#000000;stroke-width:4;stroke-miterlimit:10;" x1="571.287" y1="328.839" x2="600.75" y2="300.125"/>
<line style="fill:none;stroke:#000000;stroke-width:4;stroke-miterlimit:10;" x1="571.287" y1="370.038" x2="571.287" y2="328.839"/>
<line style="fill:none;stroke:#000000;stroke-width:4;stroke-miterlimit:10;" x1="530.088" y1="370.287" x2="571.287" y2="370.038"/>
<line style="fill:none;stroke:#000000;stroke-width:4;stroke-miterlimit:10;" x1="500.875" y1="399.501" x2="530.088" y2="370.287"/>
<line style="fill:none;stroke:#000000;stroke-width:4;stroke-miterlimit:10;" x1="471.412" y1="370.038" x2="500.875" y2="399.501"/>
<line style="fill:none;stroke:#000000;stroke-width:4;stroke-miterlimit:10;" x1="430.713" y1="370.038" x2="471.412" y2="370.038"/>
<line style="fill:none;stroke:#000000;stroke-width:4;stroke-miterlimit:10;" x1="430.713" y1="329.339" x2="430.713" y2="370.038"/>
<line style="fill:none;stroke:#000000;stroke-width:4;stroke-miterlimit:10;" x1="401" y1="300.125" x2="430.713" y2="329.339"/>
<line style="fill:none;stroke:#000000;stroke-width:4;stroke-miterlimit:10;" x1="430.713" y1="270.662" x2="401" y2="300.125"/>
<line style="fill:none;stroke:#000000;stroke-width:4;stroke-miterlimit:10;" x1="430.713" y1="229.464" x2="430.713" y2="270.662"/>
<line style="fill:none;stroke:#000000;stroke-width:4;stroke-miterlimit:10;" x1="471.412" y1="229.713" x2="430.713" y2="229.464"/>
<line style="fill:none;stroke:#000000;stroke-width:4;stroke-miterlimit:10;" x1="500.875" y1="200.25" x2="471.412" y2="229.713"/>
<line style="fill:none;stroke:#000000;stroke-width:4;stroke-miterlimit:10;" x1="701" y1="200.375" x2="730.214" y2="229.589"/>
<line style="fill:none;stroke:#000000;stroke-width:4;stroke-miterlimit:10;" x1="771.537" y1="229.464" x2="730.339" y2="229.464"/>
<line style="fill:none;stroke:#000000;stroke-width:4;stroke-miterlimit:10;" x1="771.537" y1="270.662" x2="771.537" y2="229.464"/>
<line style="fill:none;stroke:#000000;stroke-width:4;stroke-miterlimit:10;" x1="801" y1="300.125" x2="771.537" y2="270.662"/>
<line style="fill:none;stroke:#000000;stroke-width:4;stroke-miterlimit:10;" x1="771.537" y1="328.839" x2="801" y2="300.125"/>
<line style="fill:none;stroke:#000000;stroke-width:4;stroke-miterlimit:10;" x1="771.537" y1="370.038" x2="771.537" y2="328.839"/>
<line style="fill:none;stroke:#000000;stroke-width:4;stroke-miterlimit:10;" x1="730.339" y1="370.287" x2="771.537" y2="370.038"/>
<line style="fill:none;stroke:#000000;stroke-width:4;stroke-miterlimit:10;" x1="701.125" y1="399.501" x2="730.339" y2="370.287"/>
<line style="fill:none;stroke:#000000;stroke-width:4;stroke-miterlimit:10;" x1="671.662" y1="370.038" x2="701.125" y2="399.501"/>
<line style="fill:none;stroke:#000000;stroke-width:4;stroke-miterlimit:10;" x1="630.963" y1="370.038" x2="671.662" y2="370.038"/>
<line style="fill:none;stroke:#000000;stroke-width:4;stroke-miterlimit:10;" x1="630.963" y1="329.339" x2="630.963" y2="370.038"/>
<line style="fill:none;stroke:#000000;stroke-width:4;stroke-miterlimit:10;" x1="601.25" y1="300.125" x2="630.963" y2="329.339"/>
<line style="fill:none;stroke:#000000;stroke-width:4;stroke-miterlimit:10;" x1="630.963" y1="270.662" x2="601.25" y2="300.125"/>
<line style="fill:none;stroke:#000000;stroke-width:4;stroke-miterlimit:10;" x1="630.963" y1="229.464" x2="630.963" y2="270.662"/>
<line style="fill:none;stroke:#000000;stroke-width:4;stroke-miterlimit:10;" x1="671.662" y1="229.713" x2="630.963" y2="229.464"/>
<line style="fill:none;stroke:#000000;stroke-width:4;stroke-miterlimit:10;" x1="701.125" y1="200.25" x2="671.662" y2="229.713"/>
<line style="fill:none;stroke:#000000;stroke-width:4;stroke-miterlimit:10;" x1="99.75" y1="401.125" x2="128.963" y2="430.338"/>
<line style="fill:none;stroke:#000000;stroke-width:4;stroke-miterlimit:10;" x1="170.287" y1="430.213" x2="129.088" y2="430.213"/>
<line style="fill:none;stroke:#000000;stroke-width:4;stroke-miterlimit:10;" x1="170.287" y1="471.412" x2="170.287" y2="430.213"/>
<line style="fill:none;stroke:#000000;stroke-width:4;stroke-miterlimit:10;" x1="199.75" y1="500.875" x2="170.287" y2="471.412"/>
<line style="fill:none;stroke:#000000;stroke-width:4;stroke-miterlimit:10;" x1="170.287" y1="529.589" x2="199.75" y2="500.875"/>
<line style="fill:none;stroke:#000000;stroke-width:4;stroke-miterlimit:10;" x1="170.287" y1="570.787" x2="170.287" y2="529.589"/>
<line style="fill:none;stroke:#000000;stroke-width:4;stroke-miterlimit:10;" x1="129.088" y1="571.037" x2="170.287" y2="570.787"/>
<line style="fill:none;stroke:#000000;stroke-width:4;stroke-miterlimit:10;" x1="99.875" y1="600.25" x2="129.088" y2="571.037"/>
<line style="fill:none;stroke:#000000;stroke-width:4;stroke-miterlimit:10;" x1="70.412" y1="570.787" x2="99.875" y2="600.25"/>
<line style="fill:none;stroke:#000000;stroke-width:4;stroke-miterlimit:10;" x1="29.713" y1="570.787" x2="70.412" y2="570.787"/>
<line style="fill:none;stroke:#000000;stroke-width:4;stroke-miterlimit:10;" x1="29.713" y1="530.088" x2="29.713" y2="570.787"/>
<line style="fill:none;stroke:#000000;stroke-width:4;stroke-miterlimit:10;" x1="0" y1="500.875" x2="29.713" y2="530.088"/>
<line style="fill:none;stroke:#000000;stroke-width:4;stroke-miterlimit:10;" x1="29.713" y1="471.412" x2="0" y2="500.875"/>
<line style="fill:none;stroke:#000000;stroke-width:4;stroke-miterlimit:10;" x1="29.713" y1="430.213" x2="29.713" y2="471.412"/>
<line style="fill:none;stroke:#000000;stroke-width:4;stroke-miterlimit:10;" x1="70.412" y1="430.463" x2="29.713" y2="430.213"/>
<line style="fill:none;stroke:#000000;stroke-width:4;stroke-miterlimit:10;" x1="99.875" y1="401" x2="70.412" y2="430.463"/>
<line style="fill:none;stroke:#000000;stroke-width:4;stroke-miterlimit:10;" x1="300" y1="401.125" x2="329.214" y2="430.338"/>
<line style="fill:none;stroke:#000000;stroke-width:4;stroke-miterlimit:10;" x1="370.537" y1="430.213" x2="329.339" y2="430.213"/>
<line style="fill:none;stroke:#000000;stroke-width:4;stroke-miterlimit:10;" x1="370.537" y1="471.412" x2="370.537" y2="430.213"/>
<line style="fill:none;stroke:#000000;stroke-width:4;stroke-miterlimit:10;" x1="400" y1="500.875" x2="370.537" y2="471.412"/>
<line style="fill:none;stroke:#000000;stroke-width:4;stroke-miterlimit:10;" x1="370.537" y1="529.589" x2="400" y2="500.875"/>
<line style="fill:none;stroke:#000000;stroke-width:4;stroke-miterlimit:10;" x1="370.537" y1="570.787" x2="370.537" y2="529.589"/>
<line style="fill:none;stroke:#000000;stroke-width:4;stroke-miterlimit:10;" x1="329.339" y1="571.037" x2="370.537" y2="570.787"/>
<line style="fill:none;stroke:#000000;stroke-width:4;stroke-miterlimit:10;" x1="300.125" y1="600.25" x2="329.339" y2="571.037"/>
<line style="fill:none;stroke:#000000;stroke-width:4;stroke-miterlimit:10;" x1="270.662" y1="570.787" x2="300.125" y2="600.25"/>
<line style="fill:none;stroke:#000000;stroke-width:4;stroke-miterlimit:10;" x1="229.963" y1="570.787" x2="270.662" y2="570.787"/>
<line style="fill:none;stroke:#000000;stroke-width:4;stroke-miterlimit:10;" x1="229.963" y1="530.088" x2="229.963" y2="570.787"/>
<line style="fill:none;stroke:#000000;stroke-width:4;stroke-miterlimit:10;" x1="200.25" y1="500.875" x2="229.963" y2="530.088"/>
<line style="fill:none;stroke:#000000;stroke-width:4;stroke-miterlimit:10;" x1="229.963" y1="471.412" x2="200.25" y2="500.875"/>
<line style="fill:none;stroke:#000000;stroke-width:4;stroke-miterlimit:10;" x1="229.963" y1="430.213" x2="229.963" y2="471.412"/>
<line style="fill:none;stroke:#000000;stroke-width:4;stroke-miterlimit:10;" x1="270.662" y1="430.463" x2="229.963" y2="430.213"/>
<line style="fill:none;stroke:#000000;stroke-width:4;stroke-miterlimit:10;" x1="300.125" y1="401" x2="270.662" y2="430.463"/>
<line style="fill:none;stroke:#000000;stroke-width:4;stroke-miterlimit:10;" x1="99.75" y1="601.375" x2="128.963" y2="630.589"/>
<line style="fill:none;stroke:#000000;stroke-width:4;stroke-miterlimit:10;" x1="170.287" y1="630.464" x2="129.088" y2="630.464"/>
<line style="fill:none;stroke:#000000;stroke-width:4;stroke-miterlimit:10;" x1="170.287" y1="671.662" x2="170.287" y2="630.464"/>
<line style="fill:none;stroke:#000000;stroke-width:4;stroke-miterlimit:10;" x1="199.75" y1="701.125" x2="170.287" y2="671.662"/>
<line style="fill:none;stroke:#000000;stroke-width:4;stroke-miterlimit:10;" x1="170.287" y1="729.839" x2="199.75" y2="701.125"/>
<line style="fill:none;stroke:#000000;stroke-width:4;stroke-miterlimit:10;" x1="170.287" y1="771.038" x2="170.287" y2="729.839"/>
<line style="fill:none;stroke:#000000;stroke-width:4;stroke-miterlimit:10;" x1="129.088" y1="771.287" x2="170.287" y2="771.038"/>
<line style="fill:none;stroke:#000000;stroke-width:4;stroke-miterlimit:10;" x1="99.875" y1="800.501" x2="129.088" y2="771.287"/>
<line style="fill:none;stroke:#000000;stroke-width:4;stroke-miterlimit:10;" x1="70.412" y1="771.038" x2="99.875" y2="800.501"/>
<line style="fill:none;stroke:#000000;stroke-width:4;stroke-miterlimit:10;" x1="29.713" y1="771.038" x2="70.412" y2="771.038"/>
<line style="fill:none;stroke:#000000;stroke-width:4;stroke-miterlimit:10;" x1="29.713" y1="730.339" x2="29.713" y2="771.038"/>
<line style="fill:none;stroke:#000000;stroke-width:4;stroke-miterlimit:10;" x1="0" y1="701.125" x2="29.713" y2="730.339"/>
<line style="fill:none;stroke:#000000;stroke-width:4;stroke-miterlimit:10;" x1="29.713" y1="671.662" x2="0" y2="701.125"/>
<line style="fill:none;stroke:#000000;stroke-width:4;stroke-miterlimit:10;" x1="29.713" y1="630.464" x2="29.713" y2="671.662"/>
<line style="fill:none;stroke:#000000;stroke-width:4;stroke-miterlimit:10;" x1="70.412" y1="630.713" x2="29.713" y2="630.464"/>
<line style="fill:none;stroke:#000000;stroke-width:4;stroke-miterlimit:10;" x1="99.875" y1="601.25" x2="70.412" y2="630.713"/>
<line style="fill:none;stroke:#000000;stroke-width:4;stroke-miterlimit:10;" x1="300" y1="601.375" x2="329.214" y2="630.589"/>
<line style="fill:none;stroke:#000000;stroke-width:4;stroke-miterlimit:10;" x1="370.537" y1="630.464" x2="329.339" y2="630.464"/>
<line style="fill:none;stroke:#000000;stroke-width:4;stroke-miterlimit:10;" x1="370.537" y1="671.662" x2="370.537" y2="630.464"/>
<line style="fill:none;stroke:#000000;stroke-width:4;stroke-miterlimit:10;" x1="400" y1="701.125" x2="370.537" y2="671.662"/>
<line style="fill:none;stroke:#000000;stroke-width:4;stroke-miterlimit:10;" x1="370.537" y1="729.839" x2="400" y2="701.125"/>
<line style="fill:none;stroke:#000000;stroke-width:4;stroke-miterlimit:10;" x1="370.537" y1="771.038" x2="370.537" y2="729.839"/>
<line style="fill:none;stroke:#000000;stroke-width:4;stroke-miterlimit:10;" x1="329.339" y1="771.287" x2="370.537" y2="771.038"/>
<line style="fill:none;stroke:#000000;stroke-width:4;stroke-miterlimit:10;" x1="300.125" y1="800.501" x2="329.339" y2="771.287"/>
<line style="fill:none;stroke:#000000;stroke-width:4;stroke-miterlimit:10;" x1="270.662" y1="771.038" x2="300.125" y2="800.501"/>
<line style="fill:none;stroke:#000000;stroke-width:4;stroke-miterlimit:10;" x1="229.963" y1="771.038" x2="270.662" y2="771.038"/>
<line style="fill:none;stroke:#000000;stroke-width:4;stroke-miterlimit:10;" x1="229.963" y1="730.339" x2="229.963" y2="771.038"/>
<line style="fill:none;stroke:#000000;stroke-width:4;stroke-miterlimit:10;" x1="200.25" y1="701.125" x2="229.963" y2="730.339"/>
<line style="fill:none;stroke:#000000;stroke-width:4;stroke-miterlimit:10;" x1="229.963" y1="671.662" x2="200.25" y2="701.125"/>
<line style="fill:none;stroke:#000000;stroke-width:4;stroke-miterlimit:10;" x1="229.963" y1="630.464" x2="229.963" y2="671.662"/>
<line style="fill:none;stroke:#000000;stroke-width:4;stroke-miterlimit:10;" x1="270.662" y1="630.713" x2="229.963" y2="630.464"/>
<line style="fill:none;stroke:#000000;stroke-width:4;stroke-miterlimit:10;" x1="300.125" y1="601.25" x2="270.662" y2="630.713"/>
<line style="fill:none;stroke:#000000;stroke-width:4;stroke-miterlimit:10;" x1="500.75" y1="401.125" x2="529.963" y2="430.338"/>
<line style="fill:none;stroke:#000000;stroke-width:4;stroke-miterlimit:10;" x1="571.287" y1="430.213" x2="530.088" y2="430.213"/>
<line style="fill:none;stroke:#000000;stroke-width:4;stroke-miterlimit:10;" x1="571.287" y1="471.412" x2="571.287" y2="430.213"/>
<line style="fill:none;stroke:#000000;stroke-width:4;stroke-miterlimit:10;" x1="600.75" y1="500.875" x2="571.287" y2="471.412"/>
<line style="fill:none;stroke:#000000;stroke-width:4;stroke-miterlimit:10;" x1="571.287" y1="529.589" x2="600.75" y2="500.875"/>
<line style="fill:none;stroke:#000000;stroke-width:4;stroke-miterlimit:10;" x1="571.287" y1="570.787" x2="571.287" y2="529.589"/>
<line style="fill:none;stroke:#000000;stroke-width:4;stroke-miterlimit:10;" x1="530.088" y1="571.037" x2="571.287" y2="570.787"/>
<line style="fill:none;stroke:#000000;stroke-width:4;stroke-miterlimit:10;" x1="500.875" y1="600.25" x2="530.088" y2="571.037"/>
<line style="fill:none;stroke:#000000;stroke-width:4;stroke-miterlimit:10;" x1="471.412" y1="570.787" x2="500.875" y2="600.25"/>
<line style="fill:none;stroke:#000000;stroke-width:4;stroke-miterlimit:10;" x1="430.713" y1="570.787" x2="471.412" y2="570.787"/>
<line style="fill:none;stroke:#000000;stroke-width:4;stroke-miterlimit:10;" x1="430.713" y1="530.088" x2="430.713" y2="570.787"/>
<line style="fill:none;stroke:#000000;stroke-width:4;stroke-miterlimit:10;" x1="401" y1="500.875" x2="430.713" y2="530.088"/>
<line style="fill:none;stroke:#000000;stroke-width:4;stroke-miterlimit:10;" x1="430.713" y1="471.412" x2="401" y2="500.875"/>
<line style="fill:none;stroke:#000000;stroke-width:4;stroke-miterlimit:10;" x1="430.713" y1="430.213" x2="430.713" y2="471.412"/>
<line style="fill:none;stroke:#000000;stroke-width:4;stroke-miterlimit:10;" x1="471.412" y1="430.463" x2="430.713" y2="430.213"/>
<line style="fill:none;stroke:#000000;stroke-width:4;stroke-miterlimit:10;" x1="500.875" y1="401" x2="471.412" y2="430.463"/>
<line style="fill:none;stroke:#000000;stroke-width:4;stroke-miterlimit:10;" x1="701" y1="401.125" x2="730.214" y2="430.338"/>
<line style="fill:none;stroke:#000000;stroke-width:4;stroke-miterlimit:10;" x1="771.537" y1="430.213" x2="730.339" y2="430.213"/>
<line style="fill:none;stroke:#000000;stroke-width:4;stroke-miterlimit:10;" x1="771.537" y1="471.412" x2="771.537" y2="430.213"/>
<line style="fill:none;stroke:#000000;stroke-width:4;stroke-miterlimit:10;" x1="801" y1="500.875" x2="771.537" y2="471.412"/>
<line style="fill:none;stroke:#000000;stroke-width:4;stroke-miterlimit:10;" x1="771.537" y1="529.589" x2="801" y2="500.875"/>
<line style="fill:none;stroke:#000000;stroke-width:4;stroke-miterlimit:10;" x1="771.537" y1="570.787" x2="771.537" y2="529.589"/>
<line style="fill:none;stroke:#000000;stroke-width:4;stroke-miterlimit:10;" x1="730.339" y1="571.037" x2="771.537" y2="570.787"/>
<line style="fill:none;stroke:#000000;stroke-width:4;stroke-miterlimit:10;" x1="701.125" y1="600.25" x2="730.339" y2="571.037"/>
<line style="fill:none;stroke:#000000;stroke-width:4;stroke-miterlimit:10;" x1="671.662" y1="570.787" x2="701.125" y2="600.25"/>
<line style="fill:none;stroke:#000000;stroke-width:4;stroke-miterlimit:10;" x1="630.963" y1="570.787" x2="671.662" y2="570.787"/>
<line style="fill:none;stroke:#000000;stroke-width:4;stroke-miterlimit:10;" x1="630.963" y1="530.088" x2="630.963" y2="570.787"/>
<line style="fill:none;stroke:#000000;stroke-width:4;stroke-miterlimit:10;" x1="601.25" y1="500.875" x2="630.963" y2="530.088"/>
<line style="fill:none;stroke:#000000;stroke-width:4;stroke-miterlimit:10;" x1="630.963" y1="471.412" x2="601.25" y2="500.875"/>
<line style="fill:none;stroke:#000000;stroke-width:4;stroke-miterlimit:10;" x1="630.963" y1="430.213" x2="630.963" y2="471.412"/>
<line style="fill:none;stroke:#000000;stroke-width:4;stroke-miterlimit:10;" x1="671.662" y1="430.463" x2="630.963" y2="430.213"/>
<line style="fill:none;stroke:#000000;stroke-width:4;stroke-miterlimit:10;" x1="701.125" y1="401" x2="671.662" y2="430.463"/>
<line style="fill:none;stroke:#000000;stroke-width:4;stroke-miterlimit:10;" x1="500.75" y1="601.375" x2="529.963" y2="630.589"/>
<line style="fill:none;stroke:#000000;stroke-width:4;stroke-miterlimit:10;" x1="571.287" y1="630.464" x2="530.088" y2="630.464"/>
<line style="fill:none;stroke:#000000;stroke-width:4;stroke-miterlimit:10;" x1="571.287" y1="671.662" x2="571.287" y2="630.464"/>
<line style="fill:none;stroke:#000000;stroke-width:4;stroke-miterlimit:10;" x1="600.75" y1="701.125" x2="571.287" y2="671.662"/>
<line style="fill:none;stroke:#000000;stroke-width:4;stroke-miterlimit:10;" x1="571.287" y1="729.839" x2="600.75" y2="701.125"/>
<line style="fill:none;stroke:#000000;stroke-width:4;stroke-miterlimit:10;" x1="571.287" y1="771.038" x2="571.287" y2="729.839"/>
<line style="fill:none;stroke:#000000;stroke-width:4;stroke-miterlimit:10;" x1="530.088" y1="771.287" x2="571.287" y2="771.038"/>
<line style="fill:none;stroke:#000000;stroke-width:4;stroke-miterlimit:10;" x1="500.875" y1="800.501" x2="530.088" y2="771.287"/>
<line style="fill:none;stroke:#000000;stroke-width:4;stroke-miterlimit:10;" x1="471.412" y1="771.038" x2="500.875" y2="800.501"/>
<line style="fill:none;stroke:#000000;stroke-width:4;stroke-miterlimit:10;" x1="430.713" y1="771.038" x2="471.412" y2="771.038"/>
<line style="fill:none;stroke:#000000;stroke-width:4;stroke-miterlimit:10;" x1="430.713" y1="730.339" x2="430.713" y2="771.038"/>
<line style="fill:none;stroke:#000000;stroke-width:4;stroke-miterlimit:10;" x1="401" y1="701.125" x2="430.713" y2="730.339"/>
<line style="fill:none;stroke:#000000;stroke-width:4;stroke-miterlimit:10;" x1="430.713" y1="671.662" x2="401" y2="701.125"/>
<line style="fill:none;stroke:#000000;stroke-width:4;stroke-miterlimit:10;" x1="430.713" y1="630.464" x2="430.713" y2="671.662"/>
<line style="fill:none;stroke:#000000;stroke-width:4;stroke-miterlimit:10;" x1="471.412" y1="630.713" x2="430.713" y2="630.464"/>
<line style="fill:none;stroke:#000000;stroke-width:4;stroke-miterlimit:10;" x1="500.875" y1="601.25" x2="471.412" y2="630.713"/>
<line style="fill:none;stroke:#000000;stroke-width:4;stroke-miterlimit:10;" x1="701" y1="601.375" x2="730.214" y2="630.589"/>
<line style="fill:none;stroke:#000000;stroke-width:4;stroke-miterlimit:10;" x1="771.537" y1="630.464" x2="730.339" y2="630.464"/>
<line style="fill:none;stroke:#000000;stroke-width:4;stroke-miterlimit:10;" x1="771.537" y1="671.662" x2="771.537" y2="630.464"/>
<line style="fill:none;stroke:#000000;stroke-width:4;stroke-miterlimit:10;" x1="801" y1="701.125" x2="771.537" y2="671.662"/>
<line style="fill:none;stroke:#000000;stroke-width:4;stroke-miterlimit:10;" x1="771.537" y1="729.839" x2="801" y2="701.125"/>
<line style="fill:none;stroke:#000000;stroke-width:4;stroke-miterlimit:10;" x1="771.537" y1="771.038" x2="771.537" y2="729.839"/>
<line style="fill:none;stroke:#000000;stroke-width:4;stroke-miterlimit:10;" x1="730.339" y1="771.287" x2="771.537" y2="771.038"/>
<line style="fill:none;stroke:#000000;stroke-width:4;stroke-miterlimit:10;" x1="701.125" y1="800.501" x2="730.339" y2="771.287"/>
<line style="fill:none;stroke:#000000;stroke-width:4;stroke-miterlimit:10;" x1="671.662" y1="771.038" x2="701.125" y2="800.501"/>
<line style="fill:none;stroke:#000000;stroke-width:4;stroke-miterlimit:10;" x1="630.963" y1="771.038" x2="671.662" y2="771.038"/>
<line style="fill:none;stroke:#000000;stroke-width:4;stroke-miterlimit:10;" x1="630.963" y1="730.339" x2="630.963" y2="771.038"/>
<line style="fill:none;stroke:#000000;stroke-width:4;stroke-miterlimit:10;" x1="601.25" y1="701.125" x2="630.963" y2="730.339"/>
<line style="fill:none;stroke:#000000;stroke-width:4;stroke-miterlimit:10;" x1="630.963" y1="671.662" x2="601.25" y2="701.125"/>
<line style="fill:none;stroke:#000000;stroke-width:4;stroke-miterlimit:10;" x1="630.963" y1="630.464" x2="630.963" y2="671.662"/>
<line style="fill:none;stroke:#000000;stroke-width:4;stroke-miterlimit:10;" x1="671.662" y1="630.713" x2="630.963" y2="630.464"/>
<line style="fill:none;stroke:#000000;stroke-width:4;stroke-miterlimit:10;" x1="701.125" y1="601.25" x2="671.662" y2="630.713"/>

</svg>
