<?xml version="1.0" encoding="iso-8859-1"?>
<!-- Generator: Adobe Illustrator 23.0.1, SVG Export Plug-In . SVG Version: 6.00 Build 0)  -->
<svg version="1.1" id="pencil" xmlns="http://www.w3.org/2000/svg" xmlns:xlink="http://www.w3.org/1999/xlink" x="0px" y="0px"
	 viewBox="0 0 800 800" style="enable-background:new 0 0 800 800;" xml:space="preserve">
<line style="fill:none;stroke:#9E9E9E;stroke-miterlimit:10;" x1="-0.166" y1="0.166" x2="199.584" y2="199.583"/>
<line style="fill:none;stroke:#9E9E9E;stroke-miterlimit:10;" x1="199.584" y1="0.166" x2="-0.166" y2="199.583"/>
<line style="fill:none;stroke:#9E9E9E;stroke-miterlimit:10;" x1="99.501" y1="0.125" x2="170.089" y2="29.338"/>
<line style="fill:none;stroke:#9E9E9E;stroke-miterlimit:10;" x1="199.125" y1="99.75" x2="170.089" y2="29.338"/>
<line style="fill:none;stroke:#9E9E9E;stroke-miterlimit:10;" x1="170.089" y1="169.912" x2="199.125" y2="99.75"/>
<line style="fill:none;stroke:#9E9E9E;stroke-miterlimit:10;" x1="99.501" y1="199.375" x2="170.089" y2="169.912"/>
<line style="fill:none;stroke:#9E9E9E;stroke-miterlimit:10;" x1="29.163" y1="169.912" x2="99.501" y2="199.375"/>
<line style="fill:none;stroke:#9E9E9E;stroke-miterlimit:10;" x1="-0.124" y1="99.75" x2="29.163" y2="169.912"/>
<line style="fill:none;stroke:#9E9E9E;stroke-miterlimit:10;" x1="29.163" y1="29.338" x2="-0.124" y2="99.75"/>
<line style="fill:none;stroke:#9E9E9E;stroke-miterlimit:10;" x1="99.501" y1="0.125" x2="29.163" y2="29.338"/>
<line style="fill:none;stroke:#9E9E9E;stroke-miterlimit:10;" x1="99.501" y1="99.75" x2="99.501" y2="0.125"/>
<line style="fill:none;stroke:#9E9E9E;stroke-miterlimit:10;" x1="-0.124" y1="99.75" x2="99.501" y2="99.75"/>
<line style="fill:none;stroke:#9E9E9E;stroke-miterlimit:10;" x1="99.501" y1="199.375" x2="99.501" y2="99.75"/>
<line style="fill:none;stroke:#9E9E9E;stroke-miterlimit:10;" x1="199.125" y1="99.75" x2="99.501" y2="99.75"/>
<line style="fill:none;stroke:#9E9E9E;stroke-miterlimit:10;" x1="29.163" y1="29.338" x2="170.089" y2="29.338"/>
<line style="fill:none;stroke:#9E9E9E;stroke-miterlimit:10;" x1="170.089" y1="169.912" x2="170.089" y2="29.338"/>
<line style="fill:none;stroke:#9E9E9E;stroke-miterlimit:10;" x1="29.163" y1="169.912" x2="170.089" y2="169.912"/>
<line style="fill:none;stroke:#9E9E9E;stroke-miterlimit:10;" x1="29.163" y1="29.338" x2="29.163" y2="169.912"/>
<line style="fill:none;stroke:#9E9E9E;stroke-miterlimit:10;" x1="-0.374" y1="99.75" x2="99.501" y2="199.375"/>
<line style="fill:none;stroke:#9E9E9E;stroke-miterlimit:10;" x1="199.125" y1="99.75" x2="99.501" y2="199.375"/>
<line style="fill:none;stroke:#9E9E9E;stroke-miterlimit:10;" x1="99.501" y1="0.125" x2="199.375" y2="99.75"/>
<line style="fill:none;stroke:#9E9E9E;stroke-miterlimit:10;" x1="-0.374" y1="99.75" x2="99.501" y2="0.125"/>
<ellipse style="fill:none;" cx="99.626" cy="99.875" rx="100.125" ry="99.875"/>
<line style="fill:none;stroke:#9E9E9E;stroke-miterlimit:10;" x1="199.583" y1="0.166" x2="399.334" y2="199.583"/>
<line style="fill:none;stroke:#9E9E9E;stroke-miterlimit:10;" x1="399.334" y1="0.166" x2="199.583" y2="199.583"/>
<line style="fill:none;stroke:#9E9E9E;stroke-miterlimit:10;" x1="299.25" y1="0.125" x2="369.839" y2="29.338"/>
<line style="fill:none;stroke:#9E9E9E;stroke-miterlimit:10;" x1="398.875" y1="99.75" x2="369.839" y2="29.338"/>
<line style="fill:none;stroke:#9E9E9E;stroke-miterlimit:10;" x1="369.839" y1="169.912" x2="398.875" y2="99.75"/>
<line style="fill:none;stroke:#9E9E9E;stroke-miterlimit:10;" x1="299.25" y1="199.375" x2="369.839" y2="169.912"/>
<line style="fill:none;stroke:#9E9E9E;stroke-miterlimit:10;" x1="228.912" y1="169.912" x2="299.25" y2="199.375"/>
<line style="fill:none;stroke:#9E9E9E;stroke-miterlimit:10;" x1="199.626" y1="99.75" x2="228.912" y2="169.912"/>
<line style="fill:none;stroke:#9E9E9E;stroke-miterlimit:10;" x1="228.912" y1="29.338" x2="199.626" y2="99.75"/>
<line style="fill:none;stroke:#9E9E9E;stroke-miterlimit:10;" x1="299.25" y1="0.125" x2="228.912" y2="29.338"/>
<line style="fill:none;stroke:#9E9E9E;stroke-miterlimit:10;" x1="299.25" y1="99.75" x2="299.25" y2="0.125"/>
<line style="fill:none;stroke:#9E9E9E;stroke-miterlimit:10;" x1="199.626" y1="99.75" x2="299.25" y2="99.75"/>
<line style="fill:none;stroke:#9E9E9E;stroke-miterlimit:10;" x1="299.25" y1="199.375" x2="299.25" y2="99.75"/>
<line style="fill:none;stroke:#9E9E9E;stroke-miterlimit:10;" x1="398.875" y1="99.75" x2="299.25" y2="99.75"/>
<line style="fill:none;stroke:#9E9E9E;stroke-miterlimit:10;" x1="228.912" y1="29.338" x2="369.839" y2="29.338"/>
<line style="fill:none;stroke:#9E9E9E;stroke-miterlimit:10;" x1="369.839" y1="169.912" x2="369.839" y2="29.338"/>
<line style="fill:none;stroke:#9E9E9E;stroke-miterlimit:10;" x1="228.912" y1="169.912" x2="369.839" y2="169.912"/>
<line style="fill:none;stroke:#9E9E9E;stroke-miterlimit:10;" x1="228.912" y1="29.338" x2="228.912" y2="169.912"/>
<line style="fill:none;stroke:#9E9E9E;stroke-miterlimit:10;" x1="199.375" y1="99.75" x2="299.25" y2="199.375"/>
<line style="fill:none;stroke:#9E9E9E;stroke-miterlimit:10;" x1="398.875" y1="99.75" x2="299.25" y2="199.375"/>
<line style="fill:none;stroke:#9E9E9E;stroke-miterlimit:10;" x1="299.25" y1="0.125" x2="399.125" y2="99.75"/>
<line style="fill:none;stroke:#9E9E9E;stroke-miterlimit:10;" x1="199.375" y1="99.75" x2="299.25" y2="0.125"/>
<ellipse style="fill:none;" cx="299.375" cy="99.875" rx="100.125" ry="99.875"/>
<line style="fill:none;stroke:#9E9E9E;stroke-miterlimit:10;" x1="-0.667" y1="200.417" x2="199.084" y2="399.834"/>
<line style="fill:none;stroke:#9E9E9E;stroke-miterlimit:10;" x1="199.084" y1="200.417" x2="-0.667" y2="399.834"/>
<line style="fill:none;stroke:#9E9E9E;stroke-miterlimit:10;" x1="99" y1="200.375" x2="169.588" y2="229.589"/>
<line style="fill:none;stroke:#9E9E9E;stroke-miterlimit:10;" x1="198.625" y1="300" x2="169.588" y2="229.589"/>
<line style="fill:none;stroke:#9E9E9E;stroke-miterlimit:10;" x1="169.588" y1="370.162" x2="198.625" y2="300"/>
<line style="fill:none;stroke:#9E9E9E;stroke-miterlimit:10;" x1="99" y1="399.625" x2="169.588" y2="370.162"/>
<line style="fill:none;stroke:#9E9E9E;stroke-miterlimit:10;" x1="28.662" y1="370.162" x2="99" y2="399.625"/>
<line style="fill:none;stroke:#9E9E9E;stroke-miterlimit:10;" x1="-0.625" y1="300" x2="28.662" y2="370.162"/>
<line style="fill:none;stroke:#9E9E9E;stroke-miterlimit:10;" x1="28.662" y1="229.589" x2="-0.625" y2="300"/>
<line style="fill:none;stroke:#9E9E9E;stroke-miterlimit:10;" x1="99" y1="200.375" x2="28.662" y2="229.589"/>
<line style="fill:none;stroke:#9E9E9E;stroke-miterlimit:10;" x1="99" y1="300" x2="99" y2="200.375"/>
<line style="fill:none;stroke:#9E9E9E;stroke-miterlimit:10;" x1="-0.625" y1="300" x2="99" y2="300"/>
<line style="fill:none;stroke:#9E9E9E;stroke-miterlimit:10;" x1="99" y1="399.625" x2="99" y2="300"/>
<line style="fill:none;stroke:#9E9E9E;stroke-miterlimit:10;" x1="198.625" y1="300" x2="99" y2="300"/>
<line style="fill:none;stroke:#9E9E9E;stroke-miterlimit:10;" x1="28.662" y1="229.589" x2="169.588" y2="229.589"/>
<line style="fill:none;stroke:#9E9E9E;stroke-miterlimit:10;" x1="169.588" y1="370.162" x2="169.588" y2="229.589"/>
<line style="fill:none;stroke:#9E9E9E;stroke-miterlimit:10;" x1="28.662" y1="370.162" x2="169.588" y2="370.162"/>
<line style="fill:none;stroke:#9E9E9E;stroke-miterlimit:10;" x1="28.662" y1="229.589" x2="28.662" y2="370.162"/>
<line style="fill:none;stroke:#9E9E9E;stroke-miterlimit:10;" x1="-0.875" y1="300" x2="99" y2="399.625"/>
<line style="fill:none;stroke:#9E9E9E;stroke-miterlimit:10;" x1="198.625" y1="300" x2="99" y2="399.625"/>
<line style="fill:none;stroke:#9E9E9E;stroke-miterlimit:10;" x1="99" y1="200.375" x2="198.875" y2="300"/>
<line style="fill:none;stroke:#9E9E9E;stroke-miterlimit:10;" x1="-0.875" y1="300" x2="99" y2="200.375"/>
<ellipse style="fill:none;" cx="99.125" cy="300.125" rx="100.125" ry="99.875"/>
<line style="fill:none;stroke:#9E9E9E;stroke-miterlimit:10;" x1="199.583" y1="199.916" x2="399.334" y2="399.333"/>
<line style="fill:none;stroke:#9E9E9E;stroke-miterlimit:10;" x1="399.334" y1="199.916" x2="199.583" y2="399.333"/>
<line style="fill:none;stroke:#9E9E9E;stroke-miterlimit:10;" x1="299.25" y1="199.875" x2="369.839" y2="229.088"/>
<line style="fill:none;stroke:#9E9E9E;stroke-miterlimit:10;" x1="398.875" y1="299.5" x2="369.839" y2="229.088"/>
<line style="fill:none;stroke:#9E9E9E;stroke-miterlimit:10;" x1="369.839" y1="369.662" x2="398.875" y2="299.5"/>
<line style="fill:none;stroke:#9E9E9E;stroke-miterlimit:10;" x1="299.25" y1="399.125" x2="369.839" y2="369.662"/>
<line style="fill:none;stroke:#9E9E9E;stroke-miterlimit:10;" x1="228.912" y1="369.662" x2="299.25" y2="399.125"/>
<line style="fill:none;stroke:#9E9E9E;stroke-miterlimit:10;" x1="199.626" y1="299.5" x2="228.912" y2="369.662"/>
<line style="fill:none;stroke:#9E9E9E;stroke-miterlimit:10;" x1="228.912" y1="229.088" x2="199.626" y2="299.5"/>
<line style="fill:none;stroke:#9E9E9E;stroke-miterlimit:10;" x1="299.25" y1="199.875" x2="228.912" y2="229.088"/>
<line style="fill:none;stroke:#9E9E9E;stroke-miterlimit:10;" x1="299.25" y1="299.5" x2="299.25" y2="199.875"/>
<line style="fill:none;stroke:#9E9E9E;stroke-miterlimit:10;" x1="199.626" y1="299.5" x2="299.25" y2="299.5"/>
<line style="fill:none;stroke:#9E9E9E;stroke-miterlimit:10;" x1="299.25" y1="399.125" x2="299.25" y2="299.5"/>
<line style="fill:none;stroke:#9E9E9E;stroke-miterlimit:10;" x1="398.875" y1="299.5" x2="299.25" y2="299.5"/>
<line style="fill:none;stroke:#9E9E9E;stroke-miterlimit:10;" x1="228.912" y1="229.088" x2="369.839" y2="229.088"/>
<line style="fill:none;stroke:#9E9E9E;stroke-miterlimit:10;" x1="369.839" y1="369.662" x2="369.839" y2="229.088"/>
<line style="fill:none;stroke:#9E9E9E;stroke-miterlimit:10;" x1="228.912" y1="369.662" x2="369.839" y2="369.662"/>
<line style="fill:none;stroke:#9E9E9E;stroke-miterlimit:10;" x1="228.912" y1="229.088" x2="228.912" y2="369.662"/>
<line style="fill:none;stroke:#9E9E9E;stroke-miterlimit:10;" x1="199.375" y1="299.5" x2="299.25" y2="399.125"/>
<line style="fill:none;stroke:#9E9E9E;stroke-miterlimit:10;" x1="398.875" y1="299.5" x2="299.25" y2="399.125"/>
<line style="fill:none;stroke:#9E9E9E;stroke-miterlimit:10;" x1="299.25" y1="199.875" x2="399.125" y2="299.5"/>
<line style="fill:none;stroke:#9E9E9E;stroke-miterlimit:10;" x1="199.375" y1="299.5" x2="299.25" y2="199.875"/>
<ellipse style="fill:none;" cx="299.375" cy="299.625" rx="100.125" ry="99.875"/>
<line style="fill:none;stroke:#9E9E9E;stroke-miterlimit:10;" x1="400.834" y1="0.166" x2="600.584" y2="199.583"/>
<line style="fill:none;stroke:#9E9E9E;stroke-miterlimit:10;" x1="600.584" y1="0.166" x2="400.834" y2="199.583"/>
<line style="fill:none;stroke:#9E9E9E;stroke-miterlimit:10;" x1="500.501" y1="0.125" x2="571.089" y2="29.338"/>
<line style="fill:none;stroke:#9E9E9E;stroke-miterlimit:10;" x1="600.125" y1="99.75" x2="571.089" y2="29.338"/>
<line style="fill:none;stroke:#9E9E9E;stroke-miterlimit:10;" x1="571.089" y1="169.912" x2="600.125" y2="99.75"/>
<line style="fill:none;stroke:#9E9E9E;stroke-miterlimit:10;" x1="500.501" y1="199.375" x2="571.089" y2="169.912"/>
<line style="fill:none;stroke:#9E9E9E;stroke-miterlimit:10;" x1="430.163" y1="169.912" x2="500.501" y2="199.375"/>
<line style="fill:none;stroke:#9E9E9E;stroke-miterlimit:10;" x1="400.876" y1="99.75" x2="430.163" y2="169.912"/>
<line style="fill:none;stroke:#9E9E9E;stroke-miterlimit:10;" x1="430.163" y1="29.338" x2="400.876" y2="99.75"/>
<line style="fill:none;stroke:#9E9E9E;stroke-miterlimit:10;" x1="500.501" y1="0.125" x2="430.163" y2="29.338"/>
<line style="fill:none;stroke:#9E9E9E;stroke-miterlimit:10;" x1="500.501" y1="99.75" x2="500.501" y2="0.125"/>
<line style="fill:none;stroke:#9E9E9E;stroke-miterlimit:10;" x1="400.876" y1="99.75" x2="500.501" y2="99.75"/>
<line style="fill:none;stroke:#9E9E9E;stroke-miterlimit:10;" x1="500.501" y1="199.375" x2="500.501" y2="99.75"/>
<line style="fill:none;stroke:#9E9E9E;stroke-miterlimit:10;" x1="600.125" y1="99.75" x2="500.501" y2="99.75"/>
<line style="fill:none;stroke:#9E9E9E;stroke-miterlimit:10;" x1="430.163" y1="29.338" x2="571.089" y2="29.338"/>
<line style="fill:none;stroke:#9E9E9E;stroke-miterlimit:10;" x1="571.089" y1="169.912" x2="571.089" y2="29.338"/>
<line style="fill:none;stroke:#9E9E9E;stroke-miterlimit:10;" x1="430.163" y1="169.912" x2="571.089" y2="169.912"/>
<line style="fill:none;stroke:#9E9E9E;stroke-miterlimit:10;" x1="430.163" y1="29.338" x2="430.163" y2="169.912"/>
<line style="fill:none;stroke:#9E9E9E;stroke-miterlimit:10;" x1="400.626" y1="99.75" x2="500.501" y2="199.375"/>
<line style="fill:none;stroke:#9E9E9E;stroke-miterlimit:10;" x1="600.125" y1="99.75" x2="500.501" y2="199.375"/>
<line style="fill:none;stroke:#9E9E9E;stroke-miterlimit:10;" x1="500.501" y1="0.125" x2="600.375" y2="99.75"/>
<line style="fill:none;stroke:#9E9E9E;stroke-miterlimit:10;" x1="400.626" y1="99.75" x2="500.501" y2="0.125"/>
<ellipse style="fill:none;" cx="500.626" cy="99.875" rx="100.125" ry="99.875"/>
<line style="fill:none;stroke:#9E9E9E;stroke-miterlimit:10;" x1="600.583" y1="0.166" x2="800.334" y2="199.583"/>
<line style="fill:none;stroke:#9E9E9E;stroke-miterlimit:10;" x1="800.334" y1="0.166" x2="600.583" y2="199.583"/>
<line style="fill:none;stroke:#9E9E9E;stroke-miterlimit:10;" x1="700.25" y1="0.125" x2="770.839" y2="29.338"/>
<line style="fill:none;stroke:#9E9E9E;stroke-miterlimit:10;" x1="799.875" y1="99.75" x2="770.839" y2="29.338"/>
<line style="fill:none;stroke:#9E9E9E;stroke-miterlimit:10;" x1="770.839" y1="169.912" x2="799.875" y2="99.75"/>
<line style="fill:none;stroke:#9E9E9E;stroke-miterlimit:10;" x1="700.25" y1="199.375" x2="770.839" y2="169.912"/>
<line style="fill:none;stroke:#9E9E9E;stroke-miterlimit:10;" x1="629.912" y1="169.912" x2="700.25" y2="199.375"/>
<line style="fill:none;stroke:#9E9E9E;stroke-miterlimit:10;" x1="600.626" y1="99.75" x2="629.912" y2="169.912"/>
<line style="fill:none;stroke:#9E9E9E;stroke-miterlimit:10;" x1="629.912" y1="29.338" x2="600.626" y2="99.75"/>
<line style="fill:none;stroke:#9E9E9E;stroke-miterlimit:10;" x1="700.25" y1="0.125" x2="629.912" y2="29.338"/>
<line style="fill:none;stroke:#9E9E9E;stroke-miterlimit:10;" x1="700.25" y1="99.75" x2="700.25" y2="0.125"/>
<line style="fill:none;stroke:#9E9E9E;stroke-miterlimit:10;" x1="600.626" y1="99.75" x2="700.25" y2="99.75"/>
<line style="fill:none;stroke:#9E9E9E;stroke-miterlimit:10;" x1="700.25" y1="199.375" x2="700.25" y2="99.75"/>
<line style="fill:none;stroke:#9E9E9E;stroke-miterlimit:10;" x1="799.875" y1="99.75" x2="700.25" y2="99.75"/>
<line style="fill:none;stroke:#9E9E9E;stroke-miterlimit:10;" x1="629.912" y1="29.338" x2="770.839" y2="29.338"/>
<line style="fill:none;stroke:#9E9E9E;stroke-miterlimit:10;" x1="770.839" y1="169.912" x2="770.839" y2="29.338"/>
<line style="fill:none;stroke:#9E9E9E;stroke-miterlimit:10;" x1="629.912" y1="169.912" x2="770.839" y2="169.912"/>
<line style="fill:none;stroke:#9E9E9E;stroke-miterlimit:10;" x1="629.912" y1="29.338" x2="629.912" y2="169.912"/>
<line style="fill:none;stroke:#9E9E9E;stroke-miterlimit:10;" x1="600.375" y1="99.75" x2="700.25" y2="199.375"/>
<line style="fill:none;stroke:#9E9E9E;stroke-miterlimit:10;" x1="799.875" y1="99.75" x2="700.25" y2="199.375"/>
<line style="fill:none;stroke:#9E9E9E;stroke-miterlimit:10;" x1="700.25" y1="0.125" x2="800.125" y2="99.75"/>
<line style="fill:none;stroke:#9E9E9E;stroke-miterlimit:10;" x1="600.375" y1="99.75" x2="700.25" y2="0.125"/>
<ellipse style="fill:none;" cx="700.375" cy="99.875" rx="100.125" ry="99.875"/>
<line style="fill:none;stroke:#9E9E9E;stroke-miterlimit:10;" x1="400.333" y1="200.417" x2="600.084" y2="399.834"/>
<line style="fill:none;stroke:#9E9E9E;stroke-miterlimit:10;" x1="600.084" y1="200.417" x2="400.333" y2="399.834"/>
<line style="fill:none;stroke:#9E9E9E;stroke-miterlimit:10;" x1="500" y1="200.375" x2="570.588" y2="229.589"/>
<line style="fill:none;stroke:#9E9E9E;stroke-miterlimit:10;" x1="599.625" y1="300" x2="570.588" y2="229.589"/>
<line style="fill:none;stroke:#9E9E9E;stroke-miterlimit:10;" x1="570.588" y1="370.162" x2="599.625" y2="300"/>
<line style="fill:none;stroke:#9E9E9E;stroke-miterlimit:10;" x1="500" y1="399.625" x2="570.588" y2="370.162"/>
<line style="fill:none;stroke:#9E9E9E;stroke-miterlimit:10;" x1="429.662" y1="370.162" x2="500" y2="399.625"/>
<line style="fill:none;stroke:#9E9E9E;stroke-miterlimit:10;" x1="400.375" y1="300" x2="429.662" y2="370.162"/>
<line style="fill:none;stroke:#9E9E9E;stroke-miterlimit:10;" x1="429.662" y1="229.589" x2="400.375" y2="300"/>
<line style="fill:none;stroke:#9E9E9E;stroke-miterlimit:10;" x1="500" y1="200.375" x2="429.662" y2="229.589"/>
<line style="fill:none;stroke:#9E9E9E;stroke-miterlimit:10;" x1="500" y1="300" x2="500" y2="200.375"/>
<line style="fill:none;stroke:#9E9E9E;stroke-miterlimit:10;" x1="400.375" y1="300" x2="500" y2="300"/>
<line style="fill:none;stroke:#9E9E9E;stroke-miterlimit:10;" x1="500" y1="399.625" x2="500" y2="300"/>
<line style="fill:none;stroke:#9E9E9E;stroke-miterlimit:10;" x1="599.625" y1="300" x2="500" y2="300"/>
<line style="fill:none;stroke:#9E9E9E;stroke-miterlimit:10;" x1="429.662" y1="229.589" x2="570.588" y2="229.589"/>
<line style="fill:none;stroke:#9E9E9E;stroke-miterlimit:10;" x1="570.588" y1="370.162" x2="570.588" y2="229.589"/>
<line style="fill:none;stroke:#9E9E9E;stroke-miterlimit:10;" x1="429.662" y1="370.162" x2="570.588" y2="370.162"/>
<line style="fill:none;stroke:#9E9E9E;stroke-miterlimit:10;" x1="429.662" y1="229.589" x2="429.662" y2="370.162"/>
<line style="fill:none;stroke:#9E9E9E;stroke-miterlimit:10;" x1="400.125" y1="300" x2="500" y2="399.625"/>
<line style="fill:none;stroke:#9E9E9E;stroke-miterlimit:10;" x1="599.625" y1="300" x2="500" y2="399.625"/>
<line style="fill:none;stroke:#9E9E9E;stroke-miterlimit:10;" x1="500" y1="200.375" x2="599.875" y2="300"/>
<line style="fill:none;stroke:#9E9E9E;stroke-miterlimit:10;" x1="400.125" y1="300" x2="500" y2="200.375"/>
<ellipse style="fill:none;" cx="500.125" cy="300.125" rx="100.125" ry="99.875"/>
<line style="fill:none;stroke:#9E9E9E;stroke-miterlimit:10;" x1="600.583" y1="199.916" x2="800.334" y2="399.333"/>
<line style="fill:none;stroke:#9E9E9E;stroke-miterlimit:10;" x1="800.334" y1="199.916" x2="600.583" y2="399.333"/>
<line style="fill:none;stroke:#9E9E9E;stroke-miterlimit:10;" x1="700.25" y1="199.875" x2="770.839" y2="229.088"/>
<line style="fill:none;stroke:#9E9E9E;stroke-miterlimit:10;" x1="799.875" y1="299.5" x2="770.839" y2="229.088"/>
<line style="fill:none;stroke:#9E9E9E;stroke-miterlimit:10;" x1="770.839" y1="369.662" x2="799.875" y2="299.5"/>
<line style="fill:none;stroke:#9E9E9E;stroke-miterlimit:10;" x1="700.25" y1="399.125" x2="770.839" y2="369.662"/>
<line style="fill:none;stroke:#9E9E9E;stroke-miterlimit:10;" x1="629.912" y1="369.662" x2="700.25" y2="399.125"/>
<line style="fill:none;stroke:#9E9E9E;stroke-miterlimit:10;" x1="600.626" y1="299.5" x2="629.912" y2="369.662"/>
<line style="fill:none;stroke:#9E9E9E;stroke-miterlimit:10;" x1="629.912" y1="229.088" x2="600.626" y2="299.5"/>
<line style="fill:none;stroke:#9E9E9E;stroke-miterlimit:10;" x1="700.25" y1="199.875" x2="629.912" y2="229.088"/>
<line style="fill:none;stroke:#9E9E9E;stroke-miterlimit:10;" x1="700.25" y1="299.5" x2="700.25" y2="199.875"/>
<line style="fill:none;stroke:#9E9E9E;stroke-miterlimit:10;" x1="600.626" y1="299.5" x2="700.25" y2="299.5"/>
<line style="fill:none;stroke:#9E9E9E;stroke-miterlimit:10;" x1="700.25" y1="399.125" x2="700.25" y2="299.5"/>
<line style="fill:none;stroke:#9E9E9E;stroke-miterlimit:10;" x1="799.875" y1="299.5" x2="700.25" y2="299.5"/>
<line style="fill:none;stroke:#9E9E9E;stroke-miterlimit:10;" x1="629.912" y1="229.088" x2="770.839" y2="229.088"/>
<line style="fill:none;stroke:#9E9E9E;stroke-miterlimit:10;" x1="770.839" y1="369.662" x2="770.839" y2="229.088"/>
<line style="fill:none;stroke:#9E9E9E;stroke-miterlimit:10;" x1="629.912" y1="369.662" x2="770.839" y2="369.662"/>
<line style="fill:none;stroke:#9E9E9E;stroke-miterlimit:10;" x1="629.912" y1="229.088" x2="629.912" y2="369.662"/>
<line style="fill:none;stroke:#9E9E9E;stroke-miterlimit:10;" x1="600.375" y1="299.5" x2="700.25" y2="399.125"/>
<line style="fill:none;stroke:#9E9E9E;stroke-miterlimit:10;" x1="799.875" y1="299.5" x2="700.25" y2="399.125"/>
<line style="fill:none;stroke:#9E9E9E;stroke-miterlimit:10;" x1="700.25" y1="199.875" x2="800.125" y2="299.5"/>
<line style="fill:none;stroke:#9E9E9E;stroke-miterlimit:10;" x1="600.375" y1="299.5" x2="700.25" y2="199.875"/>
<ellipse style="fill:none;" cx="700.375" cy="299.625" rx="100.125" ry="99.875"/>
<line style="fill:none;stroke:#9E9E9E;stroke-miterlimit:10;" x1="-0.166" y1="401.166" x2="199.584" y2="600.583"/>
<line style="fill:none;stroke:#9E9E9E;stroke-miterlimit:10;" x1="199.584" y1="401.166" x2="-0.166" y2="600.583"/>
<line style="fill:none;stroke:#9E9E9E;stroke-miterlimit:10;" x1="99.501" y1="401.125" x2="170.089" y2="430.338"/>
<line style="fill:none;stroke:#9E9E9E;stroke-miterlimit:10;" x1="199.125" y1="500.75" x2="170.089" y2="430.338"/>
<line style="fill:none;stroke:#9E9E9E;stroke-miterlimit:10;" x1="170.089" y1="570.912" x2="199.125" y2="500.75"/>
<line style="fill:none;stroke:#9E9E9E;stroke-miterlimit:10;" x1="99.501" y1="600.375" x2="170.089" y2="570.912"/>
<line style="fill:none;stroke:#9E9E9E;stroke-miterlimit:10;" x1="29.163" y1="570.912" x2="99.501" y2="600.375"/>
<line style="fill:none;stroke:#9E9E9E;stroke-miterlimit:10;" x1="-0.124" y1="500.75" x2="29.163" y2="570.912"/>
<line style="fill:none;stroke:#9E9E9E;stroke-miterlimit:10;" x1="29.163" y1="430.338" x2="-0.124" y2="500.75"/>
<line style="fill:none;stroke:#9E9E9E;stroke-miterlimit:10;" x1="99.501" y1="401.125" x2="29.163" y2="430.338"/>
<line style="fill:none;stroke:#9E9E9E;stroke-miterlimit:10;" x1="99.501" y1="500.75" x2="99.501" y2="401.125"/>
<line style="fill:none;stroke:#9E9E9E;stroke-miterlimit:10;" x1="-0.124" y1="500.75" x2="99.501" y2="500.75"/>
<line style="fill:none;stroke:#9E9E9E;stroke-miterlimit:10;" x1="99.501" y1="600.375" x2="99.501" y2="500.75"/>
<line style="fill:none;stroke:#9E9E9E;stroke-miterlimit:10;" x1="199.125" y1="500.75" x2="99.501" y2="500.75"/>
<line style="fill:none;stroke:#9E9E9E;stroke-miterlimit:10;" x1="29.163" y1="430.338" x2="170.089" y2="430.338"/>
<line style="fill:none;stroke:#9E9E9E;stroke-miterlimit:10;" x1="170.089" y1="570.912" x2="170.089" y2="430.338"/>
<line style="fill:none;stroke:#9E9E9E;stroke-miterlimit:10;" x1="29.163" y1="570.912" x2="170.089" y2="570.912"/>
<line style="fill:none;stroke:#9E9E9E;stroke-miterlimit:10;" x1="29.163" y1="430.338" x2="29.163" y2="570.912"/>
<line style="fill:none;stroke:#9E9E9E;stroke-miterlimit:10;" x1="-0.374" y1="500.75" x2="99.501" y2="600.375"/>
<line style="fill:none;stroke:#9E9E9E;stroke-miterlimit:10;" x1="199.125" y1="500.75" x2="99.501" y2="600.375"/>
<line style="fill:none;stroke:#9E9E9E;stroke-miterlimit:10;" x1="99.501" y1="401.125" x2="199.375" y2="500.75"/>
<line style="fill:none;stroke:#9E9E9E;stroke-miterlimit:10;" x1="-0.374" y1="500.75" x2="99.501" y2="401.125"/>
<ellipse style="fill:none;" cx="99.626" cy="500.875" rx="100.125" ry="99.875"/>
<line style="fill:none;stroke:#9E9E9E;stroke-miterlimit:10;" x1="199.583" y1="401.166" x2="399.334" y2="600.583"/>
<line style="fill:none;stroke:#9E9E9E;stroke-miterlimit:10;" x1="399.334" y1="401.166" x2="199.583" y2="600.583"/>
<line style="fill:none;stroke:#9E9E9E;stroke-miterlimit:10;" x1="299.25" y1="401.125" x2="369.839" y2="430.338"/>
<line style="fill:none;stroke:#9E9E9E;stroke-miterlimit:10;" x1="398.875" y1="500.75" x2="369.839" y2="430.338"/>
<line style="fill:none;stroke:#9E9E9E;stroke-miterlimit:10;" x1="369.839" y1="570.912" x2="398.875" y2="500.75"/>
<line style="fill:none;stroke:#9E9E9E;stroke-miterlimit:10;" x1="299.25" y1="600.375" x2="369.839" y2="570.912"/>
<line style="fill:none;stroke:#9E9E9E;stroke-miterlimit:10;" x1="228.912" y1="570.912" x2="299.25" y2="600.375"/>
<line style="fill:none;stroke:#9E9E9E;stroke-miterlimit:10;" x1="199.626" y1="500.75" x2="228.912" y2="570.912"/>
<line style="fill:none;stroke:#9E9E9E;stroke-miterlimit:10;" x1="228.912" y1="430.338" x2="199.626" y2="500.75"/>
<line style="fill:none;stroke:#9E9E9E;stroke-miterlimit:10;" x1="299.25" y1="401.125" x2="228.912" y2="430.338"/>
<line style="fill:none;stroke:#9E9E9E;stroke-miterlimit:10;" x1="299.25" y1="500.75" x2="299.25" y2="401.125"/>
<line style="fill:none;stroke:#9E9E9E;stroke-miterlimit:10;" x1="199.626" y1="500.75" x2="299.25" y2="500.75"/>
<line style="fill:none;stroke:#9E9E9E;stroke-miterlimit:10;" x1="299.25" y1="600.375" x2="299.25" y2="500.75"/>
<line style="fill:none;stroke:#9E9E9E;stroke-miterlimit:10;" x1="398.875" y1="500.75" x2="299.25" y2="500.75"/>
<line style="fill:none;stroke:#9E9E9E;stroke-miterlimit:10;" x1="228.912" y1="430.338" x2="369.839" y2="430.338"/>
<line style="fill:none;stroke:#9E9E9E;stroke-miterlimit:10;" x1="369.839" y1="570.912" x2="369.839" y2="430.338"/>
<line style="fill:none;stroke:#9E9E9E;stroke-miterlimit:10;" x1="228.912" y1="570.912" x2="369.839" y2="570.912"/>
<line style="fill:none;stroke:#9E9E9E;stroke-miterlimit:10;" x1="228.912" y1="430.338" x2="228.912" y2="570.912"/>
<line style="fill:none;stroke:#9E9E9E;stroke-miterlimit:10;" x1="199.375" y1="500.75" x2="299.25" y2="600.375"/>
<line style="fill:none;stroke:#9E9E9E;stroke-miterlimit:10;" x1="398.875" y1="500.75" x2="299.25" y2="600.375"/>
<line style="fill:none;stroke:#9E9E9E;stroke-miterlimit:10;" x1="299.25" y1="401.125" x2="399.125" y2="500.75"/>
<line style="fill:none;stroke:#9E9E9E;stroke-miterlimit:10;" x1="199.375" y1="500.75" x2="299.25" y2="401.125"/>
<ellipse style="fill:none;" cx="299.375" cy="500.875" rx="100.125" ry="99.875"/>
<line style="fill:none;stroke:#9E9E9E;stroke-miterlimit:10;" x1="-0.667" y1="601.417" x2="199.084" y2="800.834"/>
<line style="fill:none;stroke:#9E9E9E;stroke-miterlimit:10;" x1="199.084" y1="601.417" x2="-0.667" y2="800.834"/>
<line style="fill:none;stroke:#9E9E9E;stroke-miterlimit:10;" x1="99" y1="601.375" x2="169.588" y2="630.589"/>
<line style="fill:none;stroke:#9E9E9E;stroke-miterlimit:10;" x1="198.625" y1="701" x2="169.588" y2="630.589"/>
<line style="fill:none;stroke:#9E9E9E;stroke-miterlimit:10;" x1="169.588" y1="771.162" x2="198.625" y2="701"/>
<line style="fill:none;stroke:#9E9E9E;stroke-miterlimit:10;" x1="99" y1="800.625" x2="169.588" y2="771.162"/>
<line style="fill:none;stroke:#9E9E9E;stroke-miterlimit:10;" x1="28.662" y1="771.162" x2="99" y2="800.625"/>
<line style="fill:none;stroke:#9E9E9E;stroke-miterlimit:10;" x1="-0.625" y1="701" x2="28.662" y2="771.162"/>
<line style="fill:none;stroke:#9E9E9E;stroke-miterlimit:10;" x1="28.662" y1="630.589" x2="-0.625" y2="701"/>
<line style="fill:none;stroke:#9E9E9E;stroke-miterlimit:10;" x1="99" y1="601.375" x2="28.662" y2="630.589"/>
<line style="fill:none;stroke:#9E9E9E;stroke-miterlimit:10;" x1="99" y1="701" x2="99" y2="601.375"/>
<line style="fill:none;stroke:#9E9E9E;stroke-miterlimit:10;" x1="-0.625" y1="701" x2="99" y2="701"/>
<line style="fill:none;stroke:#9E9E9E;stroke-miterlimit:10;" x1="99" y1="800.625" x2="99" y2="701"/>
<line style="fill:none;stroke:#9E9E9E;stroke-miterlimit:10;" x1="198.625" y1="701" x2="99" y2="701"/>
<line style="fill:none;stroke:#9E9E9E;stroke-miterlimit:10;" x1="28.662" y1="630.589" x2="169.588" y2="630.589"/>
<line style="fill:none;stroke:#9E9E9E;stroke-miterlimit:10;" x1="169.588" y1="771.162" x2="169.588" y2="630.589"/>
<line style="fill:none;stroke:#9E9E9E;stroke-miterlimit:10;" x1="28.662" y1="771.162" x2="169.588" y2="771.162"/>
<line style="fill:none;stroke:#9E9E9E;stroke-miterlimit:10;" x1="28.662" y1="630.589" x2="28.662" y2="771.162"/>
<line style="fill:none;stroke:#9E9E9E;stroke-miterlimit:10;" x1="-0.875" y1="701" x2="99" y2="800.625"/>
<line style="fill:none;stroke:#9E9E9E;stroke-miterlimit:10;" x1="198.625" y1="701" x2="99" y2="800.625"/>
<line style="fill:none;stroke:#9E9E9E;stroke-miterlimit:10;" x1="99" y1="601.375" x2="198.875" y2="701"/>
<line style="fill:none;stroke:#9E9E9E;stroke-miterlimit:10;" x1="-0.875" y1="701" x2="99" y2="601.375"/>
<ellipse style="fill:none;" cx="99.125" cy="701.125" rx="100.125" ry="99.875"/>
<line style="fill:none;stroke:#9E9E9E;stroke-miterlimit:10;" x1="199.583" y1="600.916" x2="399.334" y2="800.333"/>
<line style="fill:none;stroke:#9E9E9E;stroke-miterlimit:10;" x1="399.334" y1="600.916" x2="199.583" y2="800.333"/>
<line style="fill:none;stroke:#9E9E9E;stroke-miterlimit:10;" x1="299.25" y1="600.875" x2="369.839" y2="630.088"/>
<line style="fill:none;stroke:#9E9E9E;stroke-miterlimit:10;" x1="398.875" y1="700.5" x2="369.839" y2="630.088"/>
<line style="fill:none;stroke:#9E9E9E;stroke-miterlimit:10;" x1="369.839" y1="770.662" x2="398.875" y2="700.5"/>
<line style="fill:none;stroke:#9E9E9E;stroke-miterlimit:10;" x1="299.25" y1="800.125" x2="369.839" y2="770.662"/>
<line style="fill:none;stroke:#9E9E9E;stroke-miterlimit:10;" x1="228.912" y1="770.662" x2="299.25" y2="800.125"/>
<line style="fill:none;stroke:#9E9E9E;stroke-miterlimit:10;" x1="199.626" y1="700.5" x2="228.912" y2="770.662"/>
<line style="fill:none;stroke:#9E9E9E;stroke-miterlimit:10;" x1="228.912" y1="630.088" x2="199.626" y2="700.5"/>
<line style="fill:none;stroke:#9E9E9E;stroke-miterlimit:10;" x1="299.25" y1="600.875" x2="228.912" y2="630.088"/>
<line style="fill:none;stroke:#9E9E9E;stroke-miterlimit:10;" x1="299.25" y1="700.5" x2="299.25" y2="600.875"/>
<line style="fill:none;stroke:#9E9E9E;stroke-miterlimit:10;" x1="199.626" y1="700.5" x2="299.25" y2="700.5"/>
<line style="fill:none;stroke:#9E9E9E;stroke-miterlimit:10;" x1="299.25" y1="800.125" x2="299.25" y2="700.5"/>
<line style="fill:none;stroke:#9E9E9E;stroke-miterlimit:10;" x1="398.875" y1="700.5" x2="299.25" y2="700.5"/>
<line style="fill:none;stroke:#9E9E9E;stroke-miterlimit:10;" x1="228.912" y1="630.088" x2="369.839" y2="630.088"/>
<line style="fill:none;stroke:#9E9E9E;stroke-miterlimit:10;" x1="369.839" y1="770.662" x2="369.839" y2="630.088"/>
<line style="fill:none;stroke:#9E9E9E;stroke-miterlimit:10;" x1="228.912" y1="770.662" x2="369.839" y2="770.662"/>
<line style="fill:none;stroke:#9E9E9E;stroke-miterlimit:10;" x1="228.912" y1="630.088" x2="228.912" y2="770.662"/>
<line style="fill:none;stroke:#9E9E9E;stroke-miterlimit:10;" x1="199.375" y1="700.5" x2="299.25" y2="800.125"/>
<line style="fill:none;stroke:#9E9E9E;stroke-miterlimit:10;" x1="398.875" y1="700.5" x2="299.25" y2="800.125"/>
<line style="fill:none;stroke:#9E9E9E;stroke-miterlimit:10;" x1="299.25" y1="600.875" x2="399.125" y2="700.5"/>
<line style="fill:none;stroke:#9E9E9E;stroke-miterlimit:10;" x1="199.375" y1="700.5" x2="299.25" y2="600.875"/>
<ellipse style="fill:none;" cx="299.375" cy="700.625" rx="100.125" ry="99.875"/>
<line style="fill:none;stroke:#9E9E9E;stroke-miterlimit:10;" x1="400.834" y1="401.166" x2="600.584" y2="600.583"/>
<line style="fill:none;stroke:#9E9E9E;stroke-miterlimit:10;" x1="600.584" y1="401.166" x2="400.834" y2="600.583"/>
<line style="fill:none;stroke:#9E9E9E;stroke-miterlimit:10;" x1="500.501" y1="401.125" x2="571.089" y2="430.338"/>
<line style="fill:none;stroke:#9E9E9E;stroke-miterlimit:10;" x1="600.125" y1="500.75" x2="571.089" y2="430.338"/>
<line style="fill:none;stroke:#9E9E9E;stroke-miterlimit:10;" x1="571.089" y1="570.912" x2="600.125" y2="500.75"/>
<line style="fill:none;stroke:#9E9E9E;stroke-miterlimit:10;" x1="500.501" y1="600.375" x2="571.089" y2="570.912"/>
<line style="fill:none;stroke:#9E9E9E;stroke-miterlimit:10;" x1="430.163" y1="570.912" x2="500.501" y2="600.375"/>
<line style="fill:none;stroke:#9E9E9E;stroke-miterlimit:10;" x1="400.876" y1="500.75" x2="430.163" y2="570.912"/>
<line style="fill:none;stroke:#9E9E9E;stroke-miterlimit:10;" x1="430.163" y1="430.338" x2="400.876" y2="500.75"/>
<line style="fill:none;stroke:#9E9E9E;stroke-miterlimit:10;" x1="500.501" y1="401.125" x2="430.163" y2="430.338"/>
<line style="fill:none;stroke:#9E9E9E;stroke-miterlimit:10;" x1="500.501" y1="500.75" x2="500.501" y2="401.125"/>
<line style="fill:none;stroke:#9E9E9E;stroke-miterlimit:10;" x1="400.876" y1="500.75" x2="500.501" y2="500.75"/>
<line style="fill:none;stroke:#9E9E9E;stroke-miterlimit:10;" x1="500.501" y1="600.375" x2="500.501" y2="500.75"/>
<line style="fill:none;stroke:#9E9E9E;stroke-miterlimit:10;" x1="600.125" y1="500.75" x2="500.501" y2="500.75"/>
<line style="fill:none;stroke:#9E9E9E;stroke-miterlimit:10;" x1="430.163" y1="430.338" x2="571.089" y2="430.338"/>
<line style="fill:none;stroke:#9E9E9E;stroke-miterlimit:10;" x1="571.089" y1="570.912" x2="571.089" y2="430.338"/>
<line style="fill:none;stroke:#9E9E9E;stroke-miterlimit:10;" x1="430.163" y1="570.912" x2="571.089" y2="570.912"/>
<line style="fill:none;stroke:#9E9E9E;stroke-miterlimit:10;" x1="430.163" y1="430.338" x2="430.163" y2="570.912"/>
<line style="fill:none;stroke:#9E9E9E;stroke-miterlimit:10;" x1="400.626" y1="500.75" x2="500.501" y2="600.375"/>
<line style="fill:none;stroke:#9E9E9E;stroke-miterlimit:10;" x1="600.125" y1="500.75" x2="500.501" y2="600.375"/>
<line style="fill:none;stroke:#9E9E9E;stroke-miterlimit:10;" x1="500.501" y1="401.125" x2="600.375" y2="500.75"/>
<line style="fill:none;stroke:#9E9E9E;stroke-miterlimit:10;" x1="400.626" y1="500.75" x2="500.501" y2="401.125"/>
<ellipse style="fill:none;" cx="500.626" cy="500.875" rx="100.125" ry="99.875"/>
<line style="fill:none;stroke:#9E9E9E;stroke-miterlimit:10;" x1="600.583" y1="401.166" x2="800.334" y2="600.583"/>
<line style="fill:none;stroke:#9E9E9E;stroke-miterlimit:10;" x1="800.334" y1="401.166" x2="600.583" y2="600.583"/>
<line style="fill:none;stroke:#9E9E9E;stroke-miterlimit:10;" x1="700.25" y1="401.125" x2="770.839" y2="430.338"/>
<line style="fill:none;stroke:#9E9E9E;stroke-miterlimit:10;" x1="799.875" y1="500.75" x2="770.839" y2="430.338"/>
<line style="fill:none;stroke:#9E9E9E;stroke-miterlimit:10;" x1="770.839" y1="570.912" x2="799.875" y2="500.75"/>
<line style="fill:none;stroke:#9E9E9E;stroke-miterlimit:10;" x1="700.25" y1="600.375" x2="770.839" y2="570.912"/>
<line style="fill:none;stroke:#9E9E9E;stroke-miterlimit:10;" x1="629.912" y1="570.912" x2="700.25" y2="600.375"/>
<line style="fill:none;stroke:#9E9E9E;stroke-miterlimit:10;" x1="600.626" y1="500.75" x2="629.912" y2="570.912"/>
<line style="fill:none;stroke:#9E9E9E;stroke-miterlimit:10;" x1="629.912" y1="430.338" x2="600.626" y2="500.75"/>
<line style="fill:none;stroke:#9E9E9E;stroke-miterlimit:10;" x1="700.25" y1="401.125" x2="629.912" y2="430.338"/>
<line style="fill:none;stroke:#9E9E9E;stroke-miterlimit:10;" x1="700.25" y1="500.75" x2="700.25" y2="401.125"/>
<line style="fill:none;stroke:#9E9E9E;stroke-miterlimit:10;" x1="600.626" y1="500.75" x2="700.25" y2="500.75"/>
<line style="fill:none;stroke:#9E9E9E;stroke-miterlimit:10;" x1="700.25" y1="600.375" x2="700.25" y2="500.75"/>
<line style="fill:none;stroke:#9E9E9E;stroke-miterlimit:10;" x1="799.875" y1="500.75" x2="700.25" y2="500.75"/>
<line style="fill:none;stroke:#9E9E9E;stroke-miterlimit:10;" x1="629.912" y1="430.338" x2="770.839" y2="430.338"/>
<line style="fill:none;stroke:#9E9E9E;stroke-miterlimit:10;" x1="770.839" y1="570.912" x2="770.839" y2="430.338"/>
<line style="fill:none;stroke:#9E9E9E;stroke-miterlimit:10;" x1="629.912" y1="570.912" x2="770.839" y2="570.912"/>
<line style="fill:none;stroke:#9E9E9E;stroke-miterlimit:10;" x1="629.912" y1="430.338" x2="629.912" y2="570.912"/>
<line style="fill:none;stroke:#9E9E9E;stroke-miterlimit:10;" x1="600.375" y1="500.75" x2="700.25" y2="600.375"/>
<line style="fill:none;stroke:#9E9E9E;stroke-miterlimit:10;" x1="799.875" y1="500.75" x2="700.25" y2="600.375"/>
<line style="fill:none;stroke:#9E9E9E;stroke-miterlimit:10;" x1="700.25" y1="401.125" x2="800.125" y2="500.75"/>
<line style="fill:none;stroke:#9E9E9E;stroke-miterlimit:10;" x1="600.375" y1="500.75" x2="700.25" y2="401.125"/>
<ellipse style="fill:none;" cx="700.375" cy="500.875" rx="100.125" ry="99.875"/>
<line style="fill:none;stroke:#9E9E9E;stroke-miterlimit:10;" x1="400.333" y1="601.417" x2="600.084" y2="800.834"/>
<line style="fill:none;stroke:#9E9E9E;stroke-miterlimit:10;" x1="600.084" y1="601.417" x2="400.333" y2="800.834"/>
<line style="fill:none;stroke:#9E9E9E;stroke-miterlimit:10;" x1="500" y1="601.375" x2="570.588" y2="630.589"/>
<line style="fill:none;stroke:#9E9E9E;stroke-miterlimit:10;" x1="599.625" y1="701" x2="570.588" y2="630.589"/>
<line style="fill:none;stroke:#9E9E9E;stroke-miterlimit:10;" x1="570.588" y1="771.162" x2="599.625" y2="701"/>
<line style="fill:none;stroke:#9E9E9E;stroke-miterlimit:10;" x1="500" y1="800.625" x2="570.588" y2="771.162"/>
<line style="fill:none;stroke:#9E9E9E;stroke-miterlimit:10;" x1="429.662" y1="771.162" x2="500" y2="800.625"/>
<line style="fill:none;stroke:#9E9E9E;stroke-miterlimit:10;" x1="400.375" y1="701" x2="429.662" y2="771.162"/>
<line style="fill:none;stroke:#9E9E9E;stroke-miterlimit:10;" x1="429.662" y1="630.589" x2="400.375" y2="701"/>
<line style="fill:none;stroke:#9E9E9E;stroke-miterlimit:10;" x1="500" y1="601.375" x2="429.662" y2="630.589"/>
<line style="fill:none;stroke:#9E9E9E;stroke-miterlimit:10;" x1="500" y1="701" x2="500" y2="601.375"/>
<line style="fill:none;stroke:#9E9E9E;stroke-miterlimit:10;" x1="400.375" y1="701" x2="500" y2="701"/>
<line style="fill:none;stroke:#9E9E9E;stroke-miterlimit:10;" x1="500" y1="800.625" x2="500" y2="701"/>
<line style="fill:none;stroke:#9E9E9E;stroke-miterlimit:10;" x1="599.625" y1="701" x2="500" y2="701"/>
<line style="fill:none;stroke:#9E9E9E;stroke-miterlimit:10;" x1="429.662" y1="630.589" x2="570.588" y2="630.589"/>
<line style="fill:none;stroke:#9E9E9E;stroke-miterlimit:10;" x1="570.588" y1="771.162" x2="570.588" y2="630.589"/>
<line style="fill:none;stroke:#9E9E9E;stroke-miterlimit:10;" x1="429.662" y1="771.162" x2="570.588" y2="771.162"/>
<line style="fill:none;stroke:#9E9E9E;stroke-miterlimit:10;" x1="429.662" y1="630.589" x2="429.662" y2="771.162"/>
<line style="fill:none;stroke:#9E9E9E;stroke-miterlimit:10;" x1="400.125" y1="701" x2="500" y2="800.625"/>
<line style="fill:none;stroke:#9E9E9E;stroke-miterlimit:10;" x1="599.625" y1="701" x2="500" y2="800.625"/>
<line style="fill:none;stroke:#9E9E9E;stroke-miterlimit:10;" x1="500" y1="601.375" x2="599.875" y2="701"/>
<line style="fill:none;stroke:#9E9E9E;stroke-miterlimit:10;" x1="400.125" y1="701" x2="500" y2="601.375"/>
<ellipse style="fill:none;" cx="500.125" cy="701.125" rx="100.125" ry="99.875"/>
<line style="fill:none;stroke:#9E9E9E;stroke-miterlimit:10;" x1="600.583" y1="600.916" x2="800.334" y2="800.333"/>
<line style="fill:none;stroke:#9E9E9E;stroke-miterlimit:10;" x1="800.334" y1="600.916" x2="600.583" y2="800.333"/>
<line style="fill:none;stroke:#9E9E9E;stroke-miterlimit:10;" x1="700.25" y1="600.875" x2="770.839" y2="630.088"/>
<line style="fill:none;stroke:#9E9E9E;stroke-miterlimit:10;" x1="799.875" y1="700.5" x2="770.839" y2="630.088"/>
<line style="fill:none;stroke:#9E9E9E;stroke-miterlimit:10;" x1="770.839" y1="770.662" x2="799.875" y2="700.5"/>
<line style="fill:none;stroke:#9E9E9E;stroke-miterlimit:10;" x1="700.25" y1="800.125" x2="770.839" y2="770.662"/>
<line style="fill:none;stroke:#9E9E9E;stroke-miterlimit:10;" x1="629.912" y1="770.662" x2="700.25" y2="800.125"/>
<line style="fill:none;stroke:#9E9E9E;stroke-miterlimit:10;" x1="600.626" y1="700.5" x2="629.912" y2="770.662"/>
<line style="fill:none;stroke:#9E9E9E;stroke-miterlimit:10;" x1="629.912" y1="630.088" x2="600.626" y2="700.5"/>
<line style="fill:none;stroke:#9E9E9E;stroke-miterlimit:10;" x1="700.25" y1="600.875" x2="629.912" y2="630.088"/>
<line style="fill:none;stroke:#9E9E9E;stroke-miterlimit:10;" x1="700.25" y1="700.5" x2="700.25" y2="600.875"/>
<line style="fill:none;stroke:#9E9E9E;stroke-miterlimit:10;" x1="600.626" y1="700.5" x2="700.25" y2="700.5"/>
<line style="fill:none;stroke:#9E9E9E;stroke-miterlimit:10;" x1="700.25" y1="800.125" x2="700.25" y2="700.5"/>
<line style="fill:none;stroke:#9E9E9E;stroke-miterlimit:10;" x1="799.875" y1="700.5" x2="700.25" y2="700.5"/>
<line style="fill:none;stroke:#9E9E9E;stroke-miterlimit:10;" x1="629.912" y1="630.088" x2="770.839" y2="630.088"/>
<line style="fill:none;stroke:#9E9E9E;stroke-miterlimit:10;" x1="770.839" y1="770.662" x2="770.839" y2="630.088"/>
<line style="fill:none;stroke:#9E9E9E;stroke-miterlimit:10;" x1="629.912" y1="770.662" x2="770.839" y2="770.662"/>
<line style="fill:none;stroke:#9E9E9E;stroke-miterlimit:10;" x1="629.912" y1="630.088" x2="629.912" y2="770.662"/>
<line style="fill:none;stroke:#9E9E9E;stroke-miterlimit:10;" x1="600.375" y1="700.5" x2="700.25" y2="800.125"/>
<line style="fill:none;stroke:#9E9E9E;stroke-miterlimit:10;" x1="799.875" y1="700.5" x2="700.25" y2="800.125"/>
<line style="fill:none;stroke:#9E9E9E;stroke-miterlimit:10;" x1="700.25" y1="600.875" x2="800.125" y2="700.5"/>
<line style="fill:none;stroke:#9E9E9E;stroke-miterlimit:10;" x1="600.375" y1="700.5" x2="700.25" y2="600.875"/>
<ellipse style="fill:none;" cx="700.375" cy="700.625" rx="100.125" ry="99.875"/>

</svg>
