<?xml version="1.0" encoding="iso-8859-1"?>
<!-- Generator: Adobe Illustrator 23.0.1, SVG Export Plug-In . SVG Version: 6.00 Build 0)  -->
<svg version="1.1" id="pen" xmlns="http://www.w3.org/2000/svg" xmlns:xlink="http://www.w3.org/1999/xlink" x="0px" y="0px"
	 viewBox="0 0 800 800" style="enable-background:new 0 0 800 800;" xml:space="preserve">
<path style="fill:none;stroke:#000000;stroke-width:4;stroke-miterlimit:10;" d="M351,299c1-63,50-85,50-85"/>
<path style="fill:none;stroke:#000000;stroke-width:4;stroke-miterlimit:10;" d="M303,214"/>
<path style="fill:none;stroke:#000000;stroke-width:4;stroke-miterlimit:10;" d="M350.107,298.292
	c55.276-30.242,98.604,1.502,98.604,1.502"/>
<path style="fill:none;stroke:#000000;stroke-width:4;stroke-miterlimit:10;" d="M349.652,298.984
	c55.022,30.702,51.207,84.279,51.207,84.279"/>
<path style="fill:none;stroke:#000000;stroke-width:4;stroke-miterlimit:10;" d="M350.698,298.532
	c0.474,63.006-47.997,86.147-47.997,86.147"/>
<path style="fill:none;stroke:#000000;stroke-width:4;stroke-miterlimit:10;" d="M353.046,298.254
	C298.473,329.748,254.433,299,254.433,299"/>
<path style="fill:none;stroke:#000000;stroke-width:4;stroke-miterlimit:10;" d="M352.897,299.384
	c-54.335-31.901-49.347-85.381-49.347-85.381"/>
<path style="fill:none;stroke:#000000;stroke-width:4;stroke-miterlimit:10;" d="M400.044,212.584"/>
<path style="fill:none;stroke:#000000;stroke-width:4;stroke-miterlimit:10;" d="M352.144,299c-1-63-50-85-50-85"/>
<path style="fill:none;stroke:#000000;stroke-width:4;stroke-miterlimit:10;" d="M400.144,214"/>
<path style="fill:none;stroke:#000000;stroke-width:4;stroke-miterlimit:10;" d="M353.037,298.292
	c-55.276-30.242-98.604,1.502-98.604,1.502"/>
<path style="fill:none;stroke:#000000;stroke-width:4;stroke-miterlimit:10;" d="M353.492,298.984
	c-55.022,30.702-51.207,84.279-51.207,84.279"/>
<path style="fill:none;stroke:#000000;stroke-width:4;stroke-miterlimit:10;" d="M352.446,298.532
	c-0.474,63.006,47.997,86.147,47.997,86.147"/>
<path style="fill:none;stroke:#000000;stroke-width:4;stroke-miterlimit:10;" d="M350.098,298.254
	C404.67,329.748,448.711,299,448.711,299"/>
<path style="fill:none;stroke:#000000;stroke-width:4;stroke-miterlimit:10;" d="M350.247,299.384
	c54.335-31.901,49.347-85.381,49.347-85.381"/>
<path style="fill:none;stroke:#000000;stroke-width:4;stroke-miterlimit:10;" d="M303.1,212.584"/>
<path style="fill:none;stroke:#000000;stroke-width:4;stroke-miterlimit:10;" d="M449,299c1-63,50-85,50-85"/>
<path style="fill:none;stroke:#000000;stroke-width:4;stroke-miterlimit:10;" d="M401,214"/>
<path style="fill:none;stroke:#000000;stroke-width:4;stroke-miterlimit:10;" d="M448.107,298.292
	c55.276-30.242,98.604,1.502,98.604,1.502"/>
<path style="fill:none;stroke:#000000;stroke-width:4;stroke-miterlimit:10;" d="M447.652,298.984
	c55.022,30.702,51.207,84.279,51.207,84.279"/>
<path style="fill:none;stroke:#000000;stroke-width:4;stroke-miterlimit:10;" d="M448.698,298.532
	c0.474,63.006-47.997,86.147-47.997,86.147"/>
<path style="fill:none;stroke:#000000;stroke-width:4;stroke-miterlimit:10;" d="M450.897,299.384
	c-54.335-31.901-49.347-85.381-49.347-85.381"/>
<path style="fill:none;stroke:#000000;stroke-width:4;stroke-miterlimit:10;" d="M498.044,212.584"/>
<path style="fill:none;stroke:#000000;stroke-width:4;stroke-miterlimit:10;" d="M450.144,299c-1-63-50-85-50-85"/>
<path style="fill:none;stroke:#000000;stroke-width:4;stroke-miterlimit:10;" d="M498.144,214"/>
<path style="fill:none;stroke:#000000;stroke-width:4;stroke-miterlimit:10;" d="M451.492,298.984
	c-55.022,30.702-51.207,84.279-51.207,84.279"/>
<path style="fill:none;stroke:#000000;stroke-width:4;stroke-miterlimit:10;" d="M450.446,298.532
	c-0.474,63.006,47.997,86.147,47.997,86.147"/>
<path style="fill:none;stroke:#000000;stroke-width:4;stroke-miterlimit:10;" d="M448.098,298.254
	C502.67,329.748,546.711,299,546.711,299"/>
<path style="fill:none;stroke:#000000;stroke-width:4;stroke-miterlimit:10;" d="M448.247,299.384
	c54.335-31.901,49.347-85.381,49.347-85.381"/>
<path style="fill:none;stroke:#000000;stroke-width:4;stroke-miterlimit:10;" d="M401.1,212.584"/>
<path style="fill:none;stroke:#000000;stroke-width:4;stroke-miterlimit:10;" d="M243,314"/>
<path style="fill:none;stroke:#000000;stroke-width:4;stroke-miterlimit:10;" d="M301.107,383.292
	c55.276-30.242,98.604,1.502,98.604,1.502"/>
<path style="fill:none;stroke:#000000;stroke-width:4;stroke-miterlimit:10;" d="M300.652,383.984
	c55.022,30.702,51.207,84.279,51.207,84.279"/>
<path style="fill:none;stroke:#000000;stroke-width:4;stroke-miterlimit:10;" d="M301.698,383.532
	c0.474,63.006-47.998,86.147-47.998,86.147"/>
<path style="fill:none;stroke:#000000;stroke-width:4;stroke-miterlimit:10;" d="M304.046,383.254
	C249.473,414.748,205.433,384,205.433,384"/>
<path style="fill:none;stroke:#000000;stroke-width:4;stroke-miterlimit:10;" d="M303.897,384.384
	c-54.335-31.901-49.347-85.381-49.347-85.381"/>
<path style="fill:none;stroke:#000000;stroke-width:4;stroke-miterlimit:10;" d="M340.044,312.584"/>
<path style="fill:none;stroke:#000000;stroke-width:4;stroke-miterlimit:10;" d="M303.144,384c-1-63-50-85-50-85"/>
<path style="fill:none;stroke:#000000;stroke-width:4;stroke-miterlimit:10;" d="M340.144,314"/>
<path style="fill:none;stroke:#000000;stroke-width:4;stroke-miterlimit:10;" d="M351,469.263c1,63,50,85,50,85"/>
<path style="fill:none;stroke:#000000;stroke-width:4;stroke-miterlimit:10;" d="M303,554.263"/>
<path style="fill:none;stroke:#000000;stroke-width:4;stroke-miterlimit:10;" d="M350.107,469.971
	c55.276,30.242,98.604-1.502,98.604-1.502"/>
<path style="fill:none;stroke:#000000;stroke-width:4;stroke-miterlimit:10;" d="M349.652,469.279
	C404.673,438.577,400.858,385,400.858,385"/>
<path style="fill:none;stroke:#000000;stroke-width:4;stroke-miterlimit:10;" d="M353.046,470.008
	c-54.572-31.494-98.613-0.746-98.613-0.746"/>
<path style="fill:none;stroke:#000000;stroke-width:4;stroke-miterlimit:10;" d="M352.897,468.878
	c-54.335,31.901-49.347,85.381-49.347,85.381"/>
<path style="fill:none;stroke:#000000;stroke-width:4;stroke-miterlimit:10;" d="M400.044,555.679"/>
<path style="fill:none;stroke:#000000;stroke-width:4;stroke-miterlimit:10;" d="M352.144,469.263c-1,63-50,85-50,85"/>
<path style="fill:none;stroke:#000000;stroke-width:4;stroke-miterlimit:10;" d="M400.144,554.263"/>
<path style="fill:none;stroke:#000000;stroke-width:4;stroke-miterlimit:10;" d="M353.037,469.971
	c-55.276,30.242-98.604-1.502-98.604-1.502"/>
<path style="fill:none;stroke:#000000;stroke-width:4;stroke-miterlimit:10;" d="M352.446,469.73
	c-0.474-63.006,47.997-86.147,47.997-86.147"/>
<path style="fill:none;stroke:#000000;stroke-width:4;stroke-miterlimit:10;" d="M350.098,470.008
	c54.572-31.494,98.613-0.746,98.613-0.746"/>
<path style="fill:none;stroke:#000000;stroke-width:4;stroke-miterlimit:10;" d="M350.247,468.878
	c54.335,31.901,49.347,85.381,49.347,85.381"/>
<path style="fill:none;stroke:#000000;stroke-width:4;stroke-miterlimit:10;" d="M303.1,555.679"/>
<path style="fill:none;stroke:#000000;stroke-width:4;stroke-miterlimit:10;" d="M449,469.263c1,63,50,85,50,85"/>
<path style="fill:none;stroke:#000000;stroke-width:4;stroke-miterlimit:10;" d="M401,554.263"/>
<path style="fill:none;stroke:#000000;stroke-width:4;stroke-miterlimit:10;" d="M448.107,469.971
	c55.276,30.242,98.604-1.502,98.604-1.502"/>
<path style="fill:none;stroke:#000000;stroke-width:4;stroke-miterlimit:10;" d="M448.698,469.73
	c0.474-63.006-47.997-86.147-47.997-86.147"/>
<path style="fill:none;stroke:#000000;stroke-width:4;stroke-miterlimit:10;" d="M450.897,468.878
	c-54.335,31.901-49.347,85.381-49.347,85.381"/>
<path style="fill:none;stroke:#000000;stroke-width:4;stroke-miterlimit:10;" d="M450.144,469.263c-1,63-50,85-50,85"/>
<path style="fill:none;stroke:#000000;stroke-width:4;stroke-miterlimit:10;" d="M451.492,469.279
	C396.471,438.577,400.286,385,400.286,385"/>
<path style="fill:none;stroke:#000000;stroke-width:4;stroke-miterlimit:10;" d="M448.098,470.008
	c54.572-31.494,98.613-0.746,98.613-0.746"/>
<path style="fill:none;stroke:#000000;stroke-width:4;stroke-miterlimit:10;" d="M448.247,468.878
	c54.335,31.901,49.347,85.381,49.347,85.381"/>
<path style="fill:none;stroke:#000000;stroke-width:4;stroke-miterlimit:10;" d="M401.1,555.679"/>
<path style="fill:none;stroke:#000000;stroke-width:4;stroke-miterlimit:10;" d="M340.044,455.679"/>
<path style="fill:none;stroke:#000000;stroke-width:4;stroke-miterlimit:10;" d="M340.144,454.263"/>
<path style="fill:none;stroke:#000000;stroke-width:4;stroke-miterlimit:10;" d="M304.037,383.292
	c-55.276-30.242-98.604,1.502-98.604,1.502"/>
<path style="fill:none;stroke:#000000;stroke-width:4;stroke-miterlimit:10;" d="M304.492,383.984
	c-55.022,30.702-51.207,84.279-51.207,84.279"/>
<path style="fill:none;stroke:#000000;stroke-width:4;stroke-miterlimit:10;" d="M303.446,383.532
	c-0.474,63.006,47.997,86.147,47.997,86.147"/>
<path style="fill:none;stroke:#000000;stroke-width:4;stroke-miterlimit:10;" d="M301.098,383.254
	C355.67,414.748,399.711,384,399.711,384"/>
<path style="fill:none;stroke:#000000;stroke-width:4;stroke-miterlimit:10;" d="M499.037,383.292
	c-55.276-30.242-98.604,1.502-98.604,1.502"/>
<path style="fill:none;stroke:#000000;stroke-width:4;stroke-miterlimit:10;" d="M499.492,383.984
	c-55.022,30.702-51.207,84.279-51.207,84.279"/>
<path style="fill:none;stroke:#000000;stroke-width:4;stroke-miterlimit:10;" d="M498.446,383.532
	c-0.474,63.006,47.997,86.147,47.997,86.147"/>
<path style="fill:none;stroke:#000000;stroke-width:4;stroke-miterlimit:10;" d="M496.098,383.254
	C550.67,414.748,594.711,384,594.711,384"/>
<path style="fill:none;stroke:#000000;stroke-width:4;stroke-miterlimit:10;" d="M496.247,384.384
	c54.335-31.901,49.347-85.381,49.347-85.381"/>
<path style="fill:none;stroke:#000000;stroke-width:4;stroke-miterlimit:10;" d="M497,384c1-63,50-85,50-85"/>
<path style="fill:none;stroke:#000000;stroke-width:4;stroke-miterlimit:10;" d="M496.107,383.292
	c55.276-30.242,98.604,1.502,98.604,1.502"/>
<path style="fill:none;stroke:#000000;stroke-width:4;stroke-miterlimit:10;" d="M495.652,383.984
	c55.022,30.702,51.207,84.279,51.207,84.279"/>
<path style="fill:none;stroke:#000000;stroke-width:4;stroke-miterlimit:10;" d="M496.698,383.532
	c0.474,63.006-47.997,86.147-47.997,86.147"/>
<path style="fill:none;stroke:#000000;stroke-width:4;stroke-miterlimit:10;" d="M499.046,383.254
	C444.473,414.748,400.433,384,400.433,384"/>
<path style="fill:none;stroke:#000000;stroke-width:4;stroke-miterlimit:10;" d="M243.1,312.584"/>
</svg>
