<?xml version="1.0" encoding="iso-8859-1"?>
<!-- Generator: Adobe Illustrator 23.0.1, SVG Export Plug-In . SVG Version: 6.00 Build 0)  -->
<svg version="1.1" id="colour" xmlns="http://www.w3.org/2000/svg" xmlns:xlink="http://www.w3.org/1999/xlink" x="0px" y="0px"
	 viewBox="0 0 800 800" style="enable-background:new 0 0 800 800;" xml:space="preserve">
<polygon style="fill:#21D658;" points="200,254 326,326 327,472 200,546 72,472 73,326 "/>
<polygon style="fill:#13D3C0;" points="0,200 126,126 200,254 73,326 "/>
<polygon style="fill:#13D3C0;" points="273,126 399,199 326,326 200,254 "/>
<polygon style="fill:#13D3C0;" points="400,326 326,326 327,472 400,472 "/>
<polygon style="fill:#13D3C0;" points="200,546 327,472 399,600 273,672 "/>
<polygon style="fill:#13D3C0;" points="72,472 200,546 126,673 0,599 "/>
<polygon style="fill:#13D3C0;" points="0,326 73,326 72,472 0,472 "/>
<polygon style="fill:#13D3C0;" points="126,54 126,126 273,126 272,53 "/>
<polygon style="fill:#13D3C0;" points="126,673 273,672 273,745 126,745 "/>
<polygon style="fill:#D1CC20;" points="273,126 272,53 400,54 399,199 "/>
<polygon style="fill:#D1CC20;" points="399,745 273,745 273,672 399,600 "/>
<polygon style="fill:#D1CC20;" points="0,745 0,599 126,673 126,745 "/>
<polygon style="fill:#D1CC20;" points="0,54 126,54 126,126 0,200 "/>
<polygon style="fill:#BF36CE;" points="200,254 126,126 273,126 "/>
<polygon style="fill:#BF36CE;" points="0,326 0,200 73,326 "/>
<polygon style="fill:#BF36CE;" points="326,326 399,199 400,326 "/>
<polygon style="fill:#BF36CE;" points="0,472 72,472 0,599 "/>
<polygon style="fill:#BF36CE;" points="327,472 400,472 399,600 "/>
<polygon style="fill:#BF36CE;" points="200,546 273,672 126,673 "/>
<polygon style="fill:#21D658;" points="600,254 726,326 727,472 600,546 472,472 473,326 "/>
<polygon style="fill:#13D3C0;" points="400,200 526,126 600,254 473,326 "/>
<polygon style="fill:#13D3C0;" points="673,126 799,199 726,326 600,254 "/>
<polygon style="fill:#13D3C0;" points="800,326 726,326 727,472 800,472 "/>
<polygon style="fill:#13D3C0;" points="600,546 727,472 799,600 673,672 "/>
<polygon style="fill:#13D3C0;" points="472,472 600,546 526,673 400,599 "/>
<polygon style="fill:#13D3C0;" points="400,326 473,326 472,472 400,472 "/>
<polygon style="fill:#13D3C0;" points="526,54 526,126 673,126 672,53 "/>
<polygon style="fill:#13D3C0;" points="526,673 673,672 673,745 526,745 "/>
<polygon style="fill:#D1CC20;" points="673,126 672,53 800,54 799,199 "/>
<polygon style="fill:#D1CC20;" points="799,745 673,745 673,672 799,600 "/>
<polygon style="fill:#D1CC20;" points="400,745 400,599 526,673 526,745 "/>
<polygon style="fill:#D1CC20;" points="400,54 526,54 526,126 400,200 "/>
<polygon style="fill:#BF36CE;" points="600,254 526,126 673,126 "/>
<polygon style="fill:#BF36CE;" points="400,326 400,200 473,326 "/>
<polygon style="fill:#BF36CE;" points="726,326 799,199 800,326 "/>
<polygon style="fill:#BF36CE;" points="400,472 472,472 400,599 "/>
<polygon style="fill:#BF36CE;" points="727,472 800,472 799,600 "/>
<polygon style="fill:#BF36CE;" points="600,546 673,672 526,673 "/>

</svg>
