<?xml version="1.0" encoding="iso-8859-1"?>
<!-- Generator: Adobe Illustrator 23.0.1, SVG Export Plug-In . SVG Version: 6.00 Build 0)  -->
<svg version="1.1" id="colour" xmlns="http://www.w3.org/2000/svg" xmlns:xlink="http://www.w3.org/1999/xlink" x="0px" y="0px"
	 viewBox="0 0 800 800" style="enable-background:new 0 0 800 800;" xml:space="preserve">
<polygon style="fill:#00CED8;" points="400,107 346,200 455,201 "/>
<polygon style="fill:#00CED8;" points="547,254 600,239 603,351 "/>
<polygon style="fill:#00CED8;" points="600,453 547,546 600,560 "/>
<polygon style="fill:#00CED8;" points="347,600 452,600 399,692 "/>
<polygon style="fill:#00CED8;" points="254,546 200,560 199,450 "/>
<polygon style="fill:#00CED8;" points="200,239 254,253 199,344 "/>
<polygon style="fill:#21D658;" points="455,201 547,254 603,351 600,453 547,546 452,600 347,600 254,546 199,450 200.5,338.874 
	254,253 346,200 "/>
<polygon style="fill:#21D658;" points="601,54 400,54 400,107 455,201 547,254 600,239 "/>
<polygon style="fill:#21D658;" points="200,54 400,54 400,107 346,200 254,254 200,239 "/>
<polygon style="fill:#21D658;" points="200,560 200,746 400,746 399,692 347,600 254,546 "/>
<polygon style="fill:#21D658;" points="452,600 547,546 600,560 600,746 400,746 399,692 "/>
</svg>
