<?xml version="1.0" encoding="iso-8859-1"?>
<!-- Generator: Adobe Illustrator 23.0.1, SVG Export Plug-In . SVG Version: 6.00 Build 0)  -->
<svg version="1.1" id="pen" xmlns="http://www.w3.org/2000/svg" xmlns:xlink="http://www.w3.org/1999/xlink" x="0px" y="0px"
	 viewBox="0 0 800 800" style="enable-background:new 0 0 800 800;" xml:space="preserve">
<line style="fill:none;stroke:#000000;stroke-width:4;stroke-miterlimit:10;" x1="200" y1="54" x2="600" y2="54"/>
<line style="fill:none;stroke:#000000;stroke-width:4;stroke-miterlimit:10;" x1="600" y1="746" x2="600" y2="54"/>
<line style="fill:none;stroke:#000000;stroke-width:4;stroke-miterlimit:10;" x1="199" y1="746" x2="600" y2="746"/>
<line style="fill:none;stroke:#000000;stroke-width:4;stroke-miterlimit:10;" x1="200" y1="54" x2="199" y2="746"/>
<line style="fill:none;stroke:#000000;stroke-width:4;stroke-miterlimit:10;" x1="400" y1="54" x2="400" y2="107"/>
<line style="fill:none;stroke:#000000;stroke-width:4;stroke-miterlimit:10;" x1="455" y1="201" x2="400" y2="107"/>
<line style="fill:none;stroke:#000000;stroke-width:4;stroke-miterlimit:10;" x1="346" y1="199" x2="400" y2="107"/>
<line style="fill:none;stroke:#000000;stroke-width:4;stroke-miterlimit:10;" x1="455" y1="201" x2="346" y2="199"/>
<line style="fill:none;stroke:#000000;stroke-width:4;stroke-miterlimit:10;" x1="547" y1="254" x2="455" y2="201"/>
<line style="fill:none;stroke:#000000;stroke-width:4;stroke-miterlimit:10;" x1="600" y1="239" x2="547" y2="254"/>
<line style="fill:none;stroke:#000000;stroke-width:4;stroke-miterlimit:10;" x1="600" y1="346" x2="547" y2="254"/>
<line style="fill:none;stroke:#000000;stroke-width:4;stroke-miterlimit:10;" x1="600" y1="453" x2="546" y2="546"/>
<line style="fill:none;stroke:#000000;stroke-width:4;stroke-miterlimit:10;" x1="600" y1="560" x2="546" y2="546"/>
<line style="fill:none;stroke:#000000;stroke-width:4;stroke-miterlimit:10;" x1="452" y1="600" x2="546" y2="546"/>
<line style="fill:none;stroke:#000000;stroke-width:4;stroke-miterlimit:10;" x1="347" y1="599" x2="452" y2="600"/>
<line style="fill:none;stroke:#000000;stroke-width:4;stroke-miterlimit:10;" x1="399" y1="692" x2="347" y2="599"/>
<line style="fill:none;stroke:#000000;stroke-width:4;stroke-miterlimit:10;" x1="452" y1="600" x2="399" y2="692"/>
<line style="fill:none;stroke:#000000;stroke-width:4;stroke-miterlimit:10;" x1="400" y1="746" x2="399" y2="692"/>
<line style="fill:none;stroke:#000000;stroke-width:4;stroke-miterlimit:10;" x1="347" y1="599" x2="254" y2="546"/>
<line style="fill:none;stroke:#000000;stroke-width:4;stroke-miterlimit:10;" x1="200" y1="560" x2="254" y2="546"/>
<line style="fill:none;stroke:#000000;stroke-width:4;stroke-miterlimit:10;" x1="200" y1="452" x2="254" y2="546"/>
<line style="fill:none;stroke:#000000;stroke-width:4;stroke-miterlimit:10;" x1="199" y1="344" x2="254" y2="253"/>
<line style="fill:none;stroke:#000000;stroke-width:4;stroke-miterlimit:10;" x1="197" y1="238" x2="254" y2="253"/>
<line style="fill:none;stroke:#000000;stroke-width:4;stroke-miterlimit:10;" x1="346" y1="199" x2="254" y2="253"/>
</svg>
