<?xml version="1.0" encoding="iso-8859-1"?>
<!-- Generator: Adobe Illustrator 23.0.1, SVG Export Plug-In . SVG Version: 6.00 Build 0)  -->
<svg version="1.1" id="colour" xmlns="http://www.w3.org/2000/svg" xmlns:xlink="http://www.w3.org/1999/xlink" x="0px" y="0px"
	 viewBox="0 0 800 800" style="enable-background:new 0 0 800 800;" xml:space="preserve">
<polygon style="fill:#A0D7CA;" points="400,213 499,215 546,299 498,384 401,384 351,299 "/>
<polygon style="fill:#374EA2;" points="400,383 499,385 546,469 498,554 401,554 351,469 "/>
<polygon style="fill:#007359;" points="401,553 500,555 547,639 499,724 402,724 352,639 "/>
<polygon style="fill:#FAB28B;" points="547,299 646,301 693,385 645,470 548,470 498,385 "/>
<polygon style="fill:#21B24B;" points="548,468 647,470 694,554 646,639 549,639 499,554 "/>
<polygon style="fill:#590B11;" points="254,299 351,299 401,384 353,468 255,468 206,384 "/>
<polygon style="fill:#36461D;" points="255,468 352,468 402,553 354,637 256,637 207,553 "/>
<polygon style="fill:#F68723;" points="254,129 351,129 401,214 353,298 255,298 206,214 "/>
<polygon style="fill:#C9CF2C;" points="107,384 204,384 254,469 206,553 108,553 59,469 "/>
<polygon style="fill:#A13B22;" points="107,214 204,214 254,299 206,383 108,383 59,299 "/>
<polygon style="fill:#DBE471;" points="401,45 498,45 548,130 500,214 402,214 353,130 "/>
<polygon style="fill:#A14B9D;" points="548,129 645,129 695,214 647,298 549,298 500,214 "/>
</svg>
