<?xml version="1.0" encoding="iso-8859-1"?>
<!-- Generator: Adobe Illustrator 23.0.1, SVG Export Plug-In . SVG Version: 6.00 Build 0)  -->
<svg version="1.1" id="colour" xmlns="http://www.w3.org/2000/svg" xmlns:xlink="http://www.w3.org/1999/xlink" x="0px" y="0px"
	 width="800px" height="800px" viewBox="0 0 800 800" style="enable-background:new 0 0 800 800;" xml:space="preserve">
<polyline style="fill:#ED0000;" points="779.742,624.602 777,711 691.422,705.667 "/>
<polyline style="fill:#21E5EA;" points="638.081,733.187 627.737,705.875 659.416,708.412 "/>
<polyline style="fill:#21E5EA;" points="638.081,413.187 627.737,385.875 659.416,388.412 "/>
<polyline style="fill:#21E5EA;" points="364.187,376.286 369.601,321.604 392.716,311.65 "/>
<polyline style="fill:#ED0000;" points="-61.258,309.602 -64,396 -149.578,390.667 "/>
<polyline style="fill:#ED0000;" points="685.252,69.551 613.804,118.206 567.726,45.894 "/>
<polyline style="fill:#ED0000;" points="190.755,184.407 62.691,140.744 99.022,107.225 "/>
<polyline style="fill:#ED0000;" points="503.66,409.211 610.348,492.423 565.04,512.189 "/>
<polyline style="fill:#ED0000;" points="341.224,368.528 300.825,466.196 280.053,431.27 "/>
<polyline style="fill:#ED0000;" points="220,711 273.918,740.485 250.601,748.026 "/>
<polyline style="fill:#ED0000;" points="675,116 728.918,145.485 705.601,153.026 "/>
<polyline style="fill:#ED0000;" points="541,75 594.918,104.485 571.601,112.026 "/>
<polyline style="fill:#ED0000;" points="309,161 413,134 386,195 "/>
<polyline style="fill:#ED0000;" points="14,682 118,655 91,716 "/>
<polyline style="fill:#ED0000;" points="326,397 430,370 403,431 "/>
<polyline style="fill:#ED0000;" points="633,187 737,160 710,221 "/>
<polyline style="fill:#ED0000;" points="475,721 579,694 552,755 "/>
<polyline style="fill:#ED0000;" points="121.612,277.442 164,314 98.085,327.493 "/>
<polyline style="fill:#ED0000;" points="368.612,591.442 411,628 345.085,641.493 "/>
<polyline style="fill:#ED0000;" points="681.612,285.442 724,322 658.085,335.493 "/>
<polyline style="fill:#ED0000;" points="450.339,-94.562 467,-49 381.799,-117.955 "/>
<polyline style="fill:#ED0000;" points="525.764,519.731 551.314,594.552 559.997,566.033 "/>
<polyline style="fill:#ED0000;" points="824.339,369.438 841,415 755.799,346.045 "/>
<polyline style="fill:#ED0000;" points="482,265 475,302 434.691,260.744 471.022,227.225 "/>
<polyline style="fill:#ED0000;" points="183,69 176,106 135.691,64.744 172.022,31.225 "/>
<polyline style="fill:#ED0000;" points="203.037,572.268 183.575,576.905 197.562,549.082 220,559 "/>
<polyline style="fill:#ED0000;" points="511.037,257.268 491.575,261.905 505.562,234.082 528,244 "/>
<polyline style="fill:#ED0000;" points="421.037,267.268 401.575,271.905 415.562,244.082 438,254 "/>
<polyline style="fill:#ED0000;" points="553.037,637.268 533.575,641.905 547.562,614.082 570,624 "/>
<polyline style="fill:#ED0000;" points="738.037,348.268 718.575,352.905 732.562,325.082 755,335 "/>
<polyline style="fill:#ED0000;" points="46.037,148.268 26.575,152.905 40.562,125.082 63,135 "/>
<polyline style="fill:#ED0000;" points="529.44,201.86 528.706,230.338 507.786,214.442 "/>
<polyline style="fill:#ED0000;" points="392.44,443.86 391.706,472.338 370.786,456.442 "/>
<polyline style="fill:#ED0000;" points="572.44,587.86 571.706,616.338 550.786,600.442 "/>
<polyline style="fill:#ED0000;" points="262.44,403.86 261.706,432.338 240.786,416.442 "/>
<polyline style="fill:#ED0000;" points="558.127,211.081 527.037,261.424 563.396,257.1 "/>
<polyline style="fill:#ED0000;" points="425.127,433.081 394.037,483.424 430.396,479.1 "/>
<polyline style="fill:#ED0000;" points="290.376,632.93 323.875,681.703 334.603,646.695 "/>
<polyline style="fill:#ED0000;" points="65.376,252.93 98.875,301.703 109.603,266.695 "/>
<polyline style="fill:#21E5EA;" points="402.826,366.057 378.062,339.404 431.609,350.321 "/>
<polyline style="fill:#21E5EA;" points="-12.919,58.187 -23.263,30.875 8.416,33.412 "/>
</svg>
