<?xml version="1.0" encoding="iso-8859-1"?>
<!-- Generator: Adobe Illustrator 23.0.1, SVG Export Plug-In . SVG Version: 6.00 Build 0)  -->
<svg version="1.1" id="pencil" xmlns="http://www.w3.org/2000/svg" xmlns:xlink="http://www.w3.org/1999/xlink" x="0px" y="0px"
	 viewBox="0 0 800 800" style="enable-background:new 0 0 800 800;" xml:space="preserve">
<line style="fill:none;stroke:#9E9E9E;stroke-miterlimit:10;" x1="800" y1="383.251" x2="0" y2="383.251"/>
<circle style="fill:none;stroke:#9E9E9E;stroke-miterlimit:10;" cx="400.85" cy="383.5" r="97.5"/>
<circle style="fill:none;stroke:#9E9E9E;stroke-miterlimit:10;" cx="498.35" cy="383.5" r="97.5"/>
<circle style="fill:none;stroke:#9E9E9E;stroke-miterlimit:10;" cx="450.25" cy="468" r="97.5"/>
<circle style="fill:none;stroke:#9E9E9E;stroke-miterlimit:10;" cx="352.75" cy="468" r="97.5"/>
<circle style="fill:none;stroke:#9E9E9E;stroke-miterlimit:10;" cx="303.35" cy="383.5" r="97.5"/>
<circle style="fill:none;stroke:#9E9E9E;stroke-miterlimit:10;" cx="207.35" cy="383.5" r="97.5"/>
<circle style="fill:none;stroke:#9E9E9E;stroke-miterlimit:10;" cx="351.45" cy="299" r="97.5"/>
<circle style="fill:none;stroke:#9E9E9E;stroke-miterlimit:10;" cx="448.95" cy="299" r="97.5"/>
<circle style="fill:none;stroke:#9E9E9E;stroke-miterlimit:10;" cx="547.1" cy="299" r="97.5"/>
<circle style="fill:none;stroke:#9E9E9E;stroke-miterlimit:10;" cx="547.75" cy="467.35" r="97.5"/>
<circle style="fill:none;stroke:#9E9E9E;stroke-miterlimit:10;" cx="499.65" cy="552.5" r="97.5"/>
<circle style="fill:none;stroke:#9E9E9E;stroke-miterlimit:10;" cx="401.5" cy="552.5" r="97.5"/>
<circle style="fill:none;stroke:#9E9E9E;stroke-miterlimit:10;" cx="304.65" cy="552.5" r="97.5"/>
<circle style="fill:none;stroke:#9E9E9E;stroke-miterlimit:10;" cx="255.25" cy="468" r="97.5"/>
<circle style="fill:none;stroke:#9E9E9E;stroke-miterlimit:10;" cx="255.25" cy="299" r="97.5"/>
<circle style="fill:none;stroke:#9E9E9E;stroke-miterlimit:10;" cx="303.25" cy="213" r="97.5"/>
<circle style="fill:none;stroke:#9E9E9E;stroke-miterlimit:10;" cx="400.85" cy="214.5" r="97.5"/>
<circle style="fill:none;stroke:#9E9E9E;stroke-miterlimit:10;" cx="594.85" cy="383.5" r="97.5"/>
<circle style="fill:none;stroke:#9E9E9E;stroke-miterlimit:10;" cx="499.25" cy="214" r="97.5"/>
<circle style="fill:none;stroke:#9E9E9E;stroke-miterlimit:10;" cx="597.25" cy="214" r="97.5"/>
<circle style="fill:none;stroke:#9E9E9E;stroke-miterlimit:10;" cx="645.25" cy="300" r="97.5"/>
<circle style="fill:none;stroke:#9E9E9E;stroke-miterlimit:10;" cx="645.25" cy="468" r="97.5"/>
<circle style="fill:none;stroke:#9E9E9E;stroke-miterlimit:10;" cx="694.25" cy="383" r="97.5"/>
<circle style="fill:none;stroke:#9E9E9E;stroke-miterlimit:10;" cx="598.25" cy="553" r="97.5"/>
<circle style="fill:none;stroke:#9E9E9E;stroke-miterlimit:10;" cx="548.25" cy="638" r="97.5"/>
<circle style="fill:none;stroke:#9E9E9E;stroke-miterlimit:10;" cx="450.25" cy="638" r="97.5"/>
<circle style="fill:none;stroke:#9E9E9E;stroke-miterlimit:10;" cx="354.25" cy="638" r="97.5"/>
<circle style="fill:none;stroke:#9E9E9E;stroke-miterlimit:10;" cx="256.25" cy="638" r="97.5"/>
<circle style="fill:none;stroke:#9E9E9E;stroke-miterlimit:10;" cx="208.25" cy="555" r="97.5"/>
<circle style="fill:none;stroke:#9E9E9E;stroke-miterlimit:10;" cx="159.25" cy="469" r="97.5"/>
<circle style="fill:none;stroke:#9E9E9E;stroke-miterlimit:10;" cx="109.25" cy="384" r="97.5"/>
<circle style="fill:none;stroke:#9E9E9E;stroke-miterlimit:10;" cx="157.25" cy="301" r="97.5"/>
<circle style="fill:none;stroke:#9E9E9E;stroke-miterlimit:10;" cx="205.25" cy="217" r="97.5"/>
<circle style="fill:none;stroke:#9E9E9E;stroke-miterlimit:10;" cx="251.25" cy="131" r="97.5"/>
<circle style="fill:none;stroke:#9E9E9E;stroke-miterlimit:10;" cx="352.25" cy="129" r="97.5"/>
<circle style="fill:none;stroke:#9E9E9E;stroke-miterlimit:10;" cx="449.25" cy="129" r="97.5"/>
<circle style="fill:none;stroke:#9E9E9E;stroke-miterlimit:10;" cx="548.25" cy="129" r="97.5"/>
</svg>
