<?xml version="1.0" encoding="iso-8859-1"?>
<!-- Generator: Adobe Illustrator 23.0.1, SVG Export Plug-In . SVG Version: 6.00 Build 0)  -->
<svg version="1.1" id="colours" xmlns="http://www.w3.org/2000/svg" xmlns:xlink="http://www.w3.org/1999/xlink" x="0px" y="0px"
	 viewBox="0 0 800 800" style="enable-background:new 0 0 800 800;" xml:space="preserve">
<path style="fill:#00D1E7;" d="M353,299c0,0,48,28,47,84C400,383,355,368,353,299z"/>
<path style="fill:#00D1E7;" d="M402.685,382.813c0,0-10.407-46.279,47.638-83.64C450.323,299.173,451.148,354.737,402.685,382.813"
	/>
<path style="fill:#00D1E7;" d="M497.05,384.022c0,0-47.521,28.806-96.248,1.189C400.802,385.211,435.468,352.834,497.05,384.022z"/>
<path style="fill:#00D1E7;" d="M400.723,387.033c0,0,45.29,14.099,48.666,83.046C449.389,470.078,400.84,443.041,400.723,387.033"/>
<path style="fill:#00D1E7;" d="M349.368,467.202c0,0,0.584-55.567,49.744-82.404C399.112,384.797,408.341,431.325,349.368,467.202z"
	/>
<path style="fill:#00D1E7;" d="M397.621,382.556c0,0-35.069,31.94-96.255-0.016C301.367,382.54,349.244,354.331,397.621,382.556"/>
<path style="fill:#00D1E7;" d="M450,299c0,0,48,28,47,84C497,383,452,368,450,299z"/>
<path style="fill:#3100E5;" d="M499.685,382.813c0,0-10.407-46.279,47.638-83.64C547.323,299.173,548.148,354.737,499.685,382.813"
	/>
<path style="fill:#3100E5;" d="M594.05,384.022c0,0-47.521,28.806-96.248,1.189C497.802,385.211,532.468,352.834,594.05,384.022z"/>
<path style="fill:#3100E5;" d="M497.723,387.033c0,0,45.29,14.099,48.666,83.046C546.389,470.078,497.84,443.041,497.723,387.033"/>
<path style="fill:#00D1E7;" d="M450,467c0,0-1.084-54.537,45.008-79.987C495.008,387.013,505.183,432.856,450,467z"/>
<path style="fill:#3100E5;" d="M255,299c0,0,48,28,47,84C302,383,257,368,255,299z"/>
<path style="fill:#00D1E7;" d="M304.685,382.813c0,0-10.407-46.279,47.638-83.64C352.323,299.173,353.148,354.737,304.685,382.813"
	/>
<path style="fill:#00D1E7;" d="M302.723,387.033c0,0,45.29,14.099,48.666,83.046C351.389,470.078,302.84,443.041,302.723,387.033"/>
<path style="fill:#3100E5;" d="M254.43,468.378c0,0-2.157-55.528,45.62-84.758C300.05,383.621,311.562,429.637,254.43,468.378z"/>
<path style="fill:#3100E5;" d="M299.621,382.556c0,0-35.069,31.94-96.255-0.016C203.367,382.54,251.244,354.331,299.621,382.556"/>
<path style="fill:#3100E5;" d="M402,214c0,0,48,28,47,84C449,298,404,283,402,214z"/>
<path style="fill:#3100E5;" d="M451.685,297.813c0,0-10.407-46.279,47.638-83.64C499.323,214.173,500.148,269.737,451.685,297.813"
	/>
<path style="fill:#3100E5;" d="M546.05,299.022c0,0-47.521,28.806-96.248,1.189C449.802,300.211,484.468,267.834,546.05,299.022z"/>
<path style="fill:#00D1E7;" d="M446.621,297.556c0,0-35.069,31.94-96.255-0.016C350.367,297.54,398.244,269.331,446.621,297.556"/>
<path style="fill:#3100E5;" d="M303,214c0,0,48,28,47,84C350,298,305,283,303,214z"/>
<path style="fill:#3100E5;" d="M352.685,297.813c0,0-10.407-46.279,47.638-83.64C400.323,214.173,401.148,269.737,352.685,297.813"
	/>
<path style="fill:#3100E5;" d="M350.621,297.556c0,0-35.069,31.94-96.255-0.016C254.367,297.54,302.244,269.331,350.621,297.556"/>
<path style="fill:#3100E5;" d="M398.416,554.184c0,0-48-28-47-84C351.416,470.184,396.416,485.184,398.416,554.184z"/>
<path style="fill:#3100E5;" d="M348.731,470.371c0,0,10.407,46.279-47.638,83.64C301.094,554.011,300.268,498.447,348.731,470.371"
	/>
<path style="fill:#3100E5;" d="M254.367,469.162c0,0,47.521-28.806,96.248-1.189C350.614,467.974,315.948,500.351,254.367,469.162z"
	/>
<path style="fill:#00D1E7;" d="M353.795,470.628c0,0,35.069-31.94,96.255,0.016C450.05,470.644,402.172,498.853,353.795,470.628"/>
<path style="fill:#3100E5;" d="M497.416,554.184c0,0-48-28-47-84C450.416,470.184,495.416,485.184,497.416,554.184z"/>
<path style="fill:#3100E5;" d="M447.731,470.371c0,0,10.407,46.279-47.638,83.64C400.094,554.011,399.268,498.447,447.731,470.371"
	/>
<path style="fill:#3100E5;" d="M449.795,470.628c0,0,35.069-31.94,96.255,0.016C546.05,470.644,498.172,498.853,449.795,470.628"/>

</svg>
