<?xml version="1.0" encoding="iso-8859-1"?>
<!-- Generator: Adobe Illustrator 23.0.1, SVG Export Plug-In . SVG Version: 6.00 Build 0)  -->
<svg version="1.1" id="colours" xmlns="http://www.w3.org/2000/svg" xmlns:xlink="http://www.w3.org/1999/xlink" x="0px" y="0px"
	 viewBox="0 0 800 800" style="enable-background:new 0 0 800 800;" xml:space="preserve">
<rect x="50" y="47" style="fill:#00D1E7;" width="100" height="24"/>
<rect x="127" y="15" transform="matrix(-0.7071 0.7071 -0.7071 -0.7071 321.2498 -79.066)" style="fill:#00D1E7;" width="100" height="24"/>
<rect x="173" y="15" transform="matrix(-0.7071 -0.7071 0.7071 -0.7071 361.5929 203.7767)" style="fill:#00D1E7;" width="100" height="24"/>
<polygon style="fill:#00D1E7;" points="8,185 72.841,252.87 55.87,266.841 -7,202 "/>
<polygon style="fill:#00D1E7;" points="-8,197 56.87,131.159 73.841,148.13 7,215 "/>
<polygon style="fill:#00D1E7;" points="8,584 72.841,651.87 55.87,665.841 -7,601 "/>
<polygon style="fill:#00D1E7;" points="-8,597 56.87,531.159 73.841,548.13 7,615 "/>
<polygon style="fill:#00D1E7;" points="793.841,217 729,149.13 753,140 811,198 "/>
<polygon style="fill:#00D1E7;" points="813,199 745.971,266.841 729,249.87 795.841,183 "/>
<polygon style="fill:#00D1E7;" points="793.841,615 729,547.13 753,538 811,596 "/>
<polygon style="fill:#00D1E7;" points="813,597 745.971,664.841 729,652 795.841,581 "/>
<polygon style="fill:#00D1E7;" points="350,138 471.082,248.861 454.82,265.65 326,149 "/>
<polygon style="fill:#00D1E7;" points="326,249 454.87,131.159 471.841,148.13 350,258 "/>
<polygon style="fill:#00D1E7;" points="350,536 472,652 448,662 326,547 "/>
<polygon style="fill:#00D1E7;" points="326,652 454.87,529.159 471.841,546.13 350,660 "/>
<rect x="524" y="15" transform="matrix(-0.7071 0.7071 -0.7071 -0.7071 998.9712 -359.7874)" style="fill:#00D1E7;" width="100" height="24"/>
<rect x="576" y="15" transform="matrix(-0.7071 -0.7071 0.7071 -0.7071 1049.557 488.7407)" style="fill:#00D1E7;" width="100" height="24"/>
<rect x="576" y="759" transform="matrix(0.7071 -0.7071 0.7071 0.7071 -361.8282 668.4695)" style="fill:#00D1E7;" width="100" height="24"/>
<rect x="525" y="759" transform="matrix(0.7071 0.7071 -0.7071 0.7071 713.593 -180.7657)" style="fill:#00D1E7;" width="100" height="24"/>
<polygon style="fill:#00D1E7;" points="269.841,744.13 199.13,814.841 182.159,797.87 250,727 "/>
<rect x="127" y="759" transform="matrix(0.7071 0.7071 -0.7071 0.7071 597.0214 100.6628)" style="fill:#00D1E7;" width="100" height="24"/>
<polygon style="fill:#00D1E7;" points="262,351 150,471 131,447 249.87,327.159 "/>
<polygon style="fill:#00D1E7;" points="250,471 133.159,344.13 150.13,327.159 262,451 "/>
<polygon style="fill:#00D1E7;" points="664,351 548,471 533,447 651.87,327.159 "/>
<polygon style="fill:#00D1E7;" points="653,471 532.159,344.13 549.13,327.159 661,451 "/>
<rect x="250" y="47" style="fill:#00D1E7;" width="100" height="24"/>
<rect x="448" y="47" style="fill:#00D1E7;" width="100" height="24"/>
<rect x="653" y="47" style="fill:#00D1E7;" width="100" height="24"/>
<rect x="50" y="327" style="fill:#00D1E7;" width="100" height="24"/>
<rect x="250" y="327" style="fill:#00D1E7;" width="100" height="24"/>
<rect x="448" y="327" style="fill:#00D1E7;" width="100" height="24"/>
<rect x="653" y="327" style="fill:#00D1E7;" width="100" height="24"/>
<rect x="50" y="447" style="fill:#00D1E7;" width="100" height="24"/>
<rect x="250" y="447" style="fill:#00D1E7;" width="100" height="24"/>
<rect x="448" y="447" style="fill:#00D1E7;" width="100" height="24"/>
<rect x="653" y="447" style="fill:#00D1E7;" width="100" height="24"/>
<rect x="691" y="87" transform="matrix(-1.836970e-16 1 -1 -1.836970e-16 840 -642)" style="fill:#00D1E7;" width="100" height="24"/>
<rect x="691" y="287" transform="matrix(-1.836970e-16 1 -1 -1.836970e-16 1040 -442)" style="fill:#00D1E7;" width="100" height="24"/>
<rect x="691" y="485" transform="matrix(-1.836970e-16 1 -1 -1.836970e-16 1238 -244)" style="fill:#00D1E7;" width="100" height="24"/>
<rect x="691" y="690" transform="matrix(-1.836970e-16 1 -1 -1.836970e-16 1443 -39)" style="fill:#00D1E7;" width="100" height="24"/>
<rect x="410" y="87" transform="matrix(-1.836970e-16 1 -1 -1.836970e-16 559 -361)" style="fill:#00D1E7;" width="100" height="24"/>
<rect x="410" y="287" transform="matrix(-1.836970e-16 1 -1 -1.836970e-16 759 -161)" style="fill:#00D1E7;" width="100" height="24"/>
<rect x="410" y="485" transform="matrix(-1.836970e-16 1 -1 -1.836970e-16 957 37)" style="fill:#00D1E7;" width="100" height="24"/>
<rect x="410" y="690" transform="matrix(-1.836970e-16 1 -1 -1.836970e-16 1162 242)" style="fill:#00D1E7;" width="100" height="24"/>
<rect x="288" y="87" transform="matrix(-1.836970e-16 1 -1 -1.836970e-16 437 -239)" style="fill:#00D1E7;" width="100" height="24"/>
<rect x="288" y="287" transform="matrix(-1.836970e-16 1 -1 -1.836970e-16 637 -39)" style="fill:#00D1E7;" width="100" height="24"/>
<rect x="288" y="485" transform="matrix(-1.836970e-16 1 -1 -1.836970e-16 835 159)" style="fill:#00D1E7;" width="100" height="24"/>
<rect x="288" y="690" transform="matrix(-1.836970e-16 1 -1 -1.836970e-16 1040 364)" style="fill:#00D1E7;" width="100" height="24"/>
<rect x="12" y="87" transform="matrix(-1.836970e-16 1 -1 -1.836970e-16 161 37)" style="fill:#00D1E7;" width="100" height="24"/>
<polygon style="fill:#00D1E7;" points="50,349 50,249 73,253 74,349 "/>
<rect x="12" y="485" transform="matrix(-1.836970e-16 1 -1 -1.836970e-16 559 435)" style="fill:#00D1E7;" width="100" height="24"/>
<rect x="12" y="690" transform="matrix(-1.836970e-16 1 -1 -1.836970e-16 764 640)" style="fill:#00D1E7;" width="100" height="24"/>
<rect x="50" y="727" style="fill:#00D1E7;" width="100" height="24"/>
<rect x="250" y="727" style="fill:#00D1E7;" width="100" height="24"/>
<rect x="448" y="727" style="fill:#00D1E7;" width="100" height="24"/>
<rect x="653" y="727" style="fill:#00D1E7;" width="100" height="24"/>

</svg>
