<?xml version="1.0" encoding="iso-8859-1"?>
<!-- Generator: Adobe Illustrator 23.0.1, SVG Export Plug-In . SVG Version: 6.00 Build 0)  -->
<svg version="1.1" id="colour" xmlns="http://www.w3.org/2000/svg" xmlns:xlink="http://www.w3.org/1999/xlink" x="0px" y="0px"
	 viewBox="0 0 800 800" style="enable-background:new 0 0 800 800;" xml:space="preserve">
<polygon style="fill:#21D658;" points="400,254 526,326 527,472 400,546 272,472 273,326 "/>
<polygon style="fill:#13D3C0;" points="200,200 326,126 400,254 273,326 "/>
<polygon style="fill:#13D3C0;" points="473,126 599,199 526,326 400,254 "/>
<polygon style="fill:#13D3C0;" points="600,326 526,326 527,472 600,472 "/>
<polygon style="fill:#13D3C0;" points="400,546 527,472 599,600 473,672 "/>
<polygon style="fill:#13D3C0;" points="272,472 400,546 326,673 200,599 "/>
<polygon style="fill:#13D3C0;" points="200,326 273,326 272,472 200,472 "/>
<polygon style="fill:#13D3C0;" points="326,54 326,126 473,126 472,53 "/>
<polygon style="fill:#13D3C0;" points="326,673 473,672 473,745 326,745 "/>
<polygon style="fill:#D1CC20;" points="473,126 472,53 600,54 599,199 "/>
<polygon style="fill:#D1CC20;" points="599,745 473,745 473,672 599,600 "/>
<polygon style="fill:#D1CC20;" points="200,745 200,599 326,673 326,745 "/>
<polygon style="fill:#D1CC20;" points="200,54 326,54 326,126 200,200 "/>
<polygon style="fill:#BF36CE;" points="400,254 326,126 473,126 "/>
<polygon style="fill:#BF36CE;" points="200,326 200,200 273,326 "/>
<polygon style="fill:#BF36CE;" points="526,326 599,199 600,326 "/>
<polygon style="fill:#BF36CE;" points="200,472 272,472 200,599 "/>
<polygon style="fill:#BF36CE;" points="527,472 600,472 599,600 "/>
<polygon style="fill:#BF36CE;" points="400,546 473,672 326,673 "/>
</svg>
