<?xml version="1.0" encoding="iso-8859-1"?>
<!-- Generator: Adobe Illustrator 23.0.1, SVG Export Plug-In . SVG Version: 6.00 Build 0)  -->
<svg version="1.1" id="pen" xmlns="http://www.w3.org/2000/svg" xmlns:xlink="http://www.w3.org/1999/xlink" x="0px" y="0px"
	 viewBox="0 0 800 800" style="enable-background:new 0 0 800 800;" xml:space="preserve">
<line style="fill:none;stroke:#000000;stroke-width:4;stroke-miterlimit:10;" x1="200" y1="53" x2="600" y2="54"/>
<line style="fill:none;stroke:#000000;stroke-width:4;stroke-miterlimit:10;" x1="599" y1="745" x2="600" y2="54"/>
<line style="fill:none;stroke:#000000;stroke-width:4;stroke-miterlimit:10;" x1="200" y1="745" x2="599" y2="745"/>
<line style="fill:none;stroke:#000000;stroke-width:4;stroke-miterlimit:10;" x1="200" y1="53" x2="200" y2="745"/>
<line style="fill:none;stroke:#000000;stroke-width:4;stroke-miterlimit:10;" x1="200" y1="200" x2="326" y2="126"/>
<line style="fill:none;stroke:#000000;stroke-width:4;stroke-miterlimit:10;" x1="599" y1="199" x2="473" y2="127"/>
<line style="fill:none;stroke:#000000;stroke-width:4;stroke-miterlimit:10;" x1="326" y1="673" x2="200" y2="599"/>
<line style="fill:none;stroke:#000000;stroke-width:4;stroke-miterlimit:10;" x1="472" y1="672" x2="599" y2="600"/>
<line style="fill:none;stroke:#000000;stroke-width:4;stroke-miterlimit:10;" x1="326" y1="126" x2="400" y2="254"/>
<line style="fill:none;stroke:#000000;stroke-width:4;stroke-miterlimit:10;" x1="473" y1="127" x2="400" y2="254"/>
<line style="fill:none;stroke:#000000;stroke-width:4;stroke-miterlimit:10;" x1="326" y1="673" x2="400" y2="546"/>
<line style="fill:none;stroke:#000000;stroke-width:4;stroke-miterlimit:10;" x1="472" y1="672" x2="400" y2="546"/>
<line style="fill:none;stroke:#000000;stroke-width:4;stroke-miterlimit:10;" x1="400" y1="254" x2="273" y2="327"/>
<line style="fill:none;stroke:#000000;stroke-width:4;stroke-miterlimit:10;" x1="526" y1="326" x2="400" y2="254"/>
<line style="fill:none;stroke:#000000;stroke-width:4;stroke-miterlimit:10;" x1="400" y1="546" x2="272" y2="472"/>
<line style="fill:none;stroke:#000000;stroke-width:4;stroke-miterlimit:10;" x1="527" y1="472" x2="400" y2="546"/>
<line style="fill:none;stroke:#000000;stroke-width:4;stroke-miterlimit:10;" x1="200" y1="200" x2="273" y2="327"/>
<line style="fill:none;stroke:#000000;stroke-width:4;stroke-miterlimit:10;" x1="599" y1="199" x2="526" y2="326"/>
<line style="fill:none;stroke:#000000;stroke-width:4;stroke-miterlimit:10;" x1="527" y1="472" x2="599" y2="600"/>
<line style="fill:none;stroke:#000000;stroke-width:4;stroke-miterlimit:10;" x1="272" y1="472" x2="200" y2="599"/>
<line style="fill:none;stroke:#000000;stroke-width:4;stroke-miterlimit:10;" x1="273" y1="327" x2="272" y2="472"/>
<line style="fill:none;stroke:#000000;stroke-width:4;stroke-miterlimit:10;" x1="526" y1="326" x2="527" y2="472"/>
<line style="fill:none;stroke:#000000;stroke-width:4;stroke-miterlimit:10;" x1="326" y1="126" x2="473" y2="127"/>
<line style="fill:none;stroke:#000000;stroke-width:4;stroke-miterlimit:10;" x1="472" y1="672" x2="326" y2="673"/>
<line style="fill:none;stroke:#000000;stroke-width:4;stroke-miterlimit:10;" x1="326" y1="126" x2="326" y2="54"/>
<line style="fill:none;stroke:#000000;stroke-width:4;stroke-miterlimit:10;" x1="473" y1="127" x2="472" y2="53"/>
<line style="fill:none;stroke:#000000;stroke-width:4;stroke-miterlimit:10;" x1="526" y1="326" x2="600" y2="326"/>
<line style="fill:none;stroke:#000000;stroke-width:4;stroke-miterlimit:10;" x1="527" y1="472" x2="600" y2="472"/>
<line style="fill:none;stroke:#000000;stroke-width:4;stroke-miterlimit:10;" x1="472" y1="672" x2="473" y2="745"/>
<line style="fill:none;stroke:#000000;stroke-width:4;stroke-miterlimit:10;" x1="326" y1="673" x2="326" y2="745"/>
<line style="fill:none;stroke:#000000;stroke-width:4;stroke-miterlimit:10;" x1="272" y1="472" x2="200" y2="472"/>
<line style="fill:none;stroke:#000000;stroke-width:4;stroke-miterlimit:10;" x1="273" y1="327" x2="200" y2="326"/>

</svg>
