<?xml version="1.0" encoding="iso-8859-1"?>
<!-- Generator: Adobe Illustrator 23.0.1, SVG Export Plug-In . SVG Version: 6.00 Build 0)  -->
<svg version="1.1" id="colour" xmlns="http://www.w3.org/2000/svg" xmlns:xlink="http://www.w3.org/1999/xlink" x="0px" y="0px"
	 width="800px" height="800px" viewBox="0 0 800 800" style="enable-background:new 0 0 800 800;" xml:space="preserve">
<polygon style="fill:#21E5EA;" points="392,330 417,386 444,353 444,368 471,377 457,400 441,425 444,433 444,463 417,454 398,475 
	382,454 354,462 353,433 325,435 345,418 325,376 332,359 354,337 381,346 "/>
<polygon style="fill:#ED0000;" points="354,269 393,300 443,263 444,215 399,199 374,214 "/>
<polygon style="fill:#ED0000;" points="444,354 444,263 471,224 517,239 544,276 512,322 "/>
<polygon style="fill:#ED0000;" points="481,377 549,323 572,300 600,338 600,385 554,381 "/>
<polygon style="fill:#ED0000;" points="471,425 544,401 590,416 589,463 560,501 513,486 "/>
<polygon style="fill:#ED0000;" points="444,463 516,487 543,524 516,561 471,576 443,539 "/>
<polygon style="fill:#ED0000;" points="398,477 443,539 444,586 398,600 353,586 353,538 "/>
<polygon style="fill:#ED0000;" points="354,462 353,538 325,556 276,562 253,525 272,497 "/>
<polygon style="fill:#ED0000;" points="209,468 209,416 252,401 335,395 277,494 236,511 "/>
<polygon style="fill:#ED0000;" points="187,269 251,304 295,366 222,391 179,377 179,327 "/>
<polygon style="fill:#ED0000;" points="281,239 325,224 354,261 354,337 281,294 253,275 "/>
<polygon style="fill:#ED0000;" points="398,77 444,139 444,186 399,199 353,186 353,134 "/>
<polygon style="fill:#ED0000;" points="461.801,60.529 512.374,54.584 577.269,93.937 517.702,143.985 470.719,147.669 
	452.586,105.607 "/>
<polygon style="fill:#ED0000;" points="608,132 538,209 579,251 534,234 507,195 534,157 "/>
<polygon style="fill:#ED0000;" points="697.377,142.109 681.31,266.076 640.191,247.986 646.1,199.343 "/>
<polygon style="fill:#ED0000;" points="609,302 653,286 684,390 610,348 "/>
<polygon style="fill:#ED0000;" points="599,463 714,400 654,534 600,511 "/>
<polygon style="fill:#ED0000;" points="640.29,542.148 693.064,558.423 651.81,661.477 624.33,580.998 "/>
<polygon style="fill:#ED0000;" points="516,562 561,567 591,589 589,662 515,638 488,600 "/>
<polygon style="fill:#ED0000;" points="471,624 515,638 559,700 491,724 444,707 443,662 "/>
<polygon style="fill:#ED0000;" points="322,626 398,610 444,626 443,672 398,735 353,672 "/>
<polygon style="fill:#ED0000;" points="352.621,691.067 341.33,736.899 304.568,766.2 264.25,741.212 237.91,672.058 
	313.071,665.439 "/>
<polygon style="fill:#ED0000;" points="215,547 256,562 287,605 260,638 189,662 189,586 "/>
<polygon style="fill:#ED0000;" points="79.505,562.18 177.515,534.835 188.697,580.485 77.815,647.763 "/>
<polygon style="fill:#ED0000;" points="163,401 209,462 209,508 163,525 "/>
<polygon style="fill:#ED0000;" points="105.326,292.128 145.86,315.558 138.822,361.027 82.364,416.023 "/>
<polygon style="fill:#ED0000;" points="134,144 179,203 179,251 134,265 "/>
<polygon style="fill:#ED0000;" points="209,137 281,160 307,199 281,239 237,255 209,213 "/>
<polygon style="fill:#ED0000;" points="237,88 307,42 334,82 353,124 325,166 281,150 "/>
<polygon style="fill:#21E5EA;" points="620.02,53.477 610.691,79.896 638.846,80.451 646.536,108.413 671.147,92.31 
	692.673,110.244 672.786,37.929 "/>
<polygon style="fill:#21E5EA;" points="639.592,770.546 587.081,754.187 576.737,726.875 608.416,729.412 616.681,699.517 
	639.125,714.888 722.104,703.166 "/>
<polygon style="fill:#21E5EA;" points="133,733 133,654 151,680 179,672 179,700 247,750 212,772 "/>
<polygon style="fill:#21E5EA;" points="165,36 218,66 235,88 207,97 207,127 181,118 163,139 "/>
</svg>
