<?xml version="1.0" encoding="iso-8859-1"?>
<!-- Generator: Adobe Illustrator 23.0.1, SVG Export Plug-In . SVG Version: 6.00 Build 0)  -->
<svg version="1.1" id="pen" xmlns="http://www.w3.org/2000/svg" xmlns:xlink="http://www.w3.org/1999/xlink" x="0px" y="0px"
	 width="800px" height="800px" viewBox="0 0 800 800" style="enable-background:new 0 0 800 800;" xml:space="preserve">
<line style="fill:none;stroke:#B82225;stroke-width:4;stroke-linecap:round;stroke-linejoin:bevel;stroke-miterlimit:10;" x1="354" y1="337" x2="381" y2="346"/>
<line style="fill:none;stroke:#B82225;stroke-width:4;stroke-linecap:round;stroke-linejoin:bevel;stroke-miterlimit:10;" x1="392" y1="330" x2="381" y2="346"/>
<line style="fill:none;stroke:#B82225;stroke-width:4;stroke-linecap:round;stroke-linejoin:bevel;stroke-miterlimit:10;" x1="417" y1="386" x2="392" y2="330"/>
<line style="fill:none;stroke:#B82225;stroke-width:4;stroke-linecap:round;stroke-linejoin:bevel;stroke-miterlimit:10;" x1="444" y1="354" x2="417" y2="386"/>
<line style="fill:none;stroke:#B82225;stroke-width:4;stroke-linecap:round;stroke-linejoin:bevel;stroke-miterlimit:10;" x1="444" y1="368" x2="444" y2="354"/>
<line style="fill:none;stroke:#B82225;stroke-width:4;stroke-linecap:round;stroke-linejoin:bevel;stroke-miterlimit:10;" x1="470" y1="378" x2="444" y2="368"/>
<line style="fill:none;stroke:#B82225;stroke-width:4;stroke-linecap:round;stroke-linejoin:bevel;stroke-miterlimit:10;" x1="441" y1="425" x2="470" y2="378"/>
<line style="fill:none;stroke:#B82225;stroke-width:4;stroke-linecap:round;stroke-linejoin:bevel;stroke-miterlimit:10;" x1="443" y1="539" x2="441" y2="425"/>
<line style="fill:none;stroke:#B82225;stroke-width:4;stroke-linecap:round;stroke-linejoin:bevel;stroke-miterlimit:10;" x1="417" y1="454" x2="516" y2="487"/>
<line style="fill:none;stroke:#B82225;stroke-width:4;stroke-linecap:round;stroke-linejoin:bevel;stroke-miterlimit:10;" x1="398" y1="475" x2="417" y2="454"/>
<line style="fill:none;stroke:#B82225;stroke-width:4;stroke-linecap:round;stroke-linejoin:bevel;stroke-miterlimit:10;" x1="382" y1="454" x2="398" y2="475"/>
<line style="fill:none;stroke:#B82225;stroke-width:4;stroke-linecap:round;stroke-linejoin:bevel;stroke-miterlimit:10;" x1="272" y1="497" x2="382" y2="454"/>
<line style="fill:none;stroke:#B82225;stroke-width:4;stroke-linecap:round;stroke-linejoin:bevel;stroke-miterlimit:10;" x1="353" y1="433" x2="353" y2="538"/>
<line style="fill:none;stroke:#B82225;stroke-width:4;stroke-linecap:round;stroke-linejoin:bevel;stroke-miterlimit:10;" x1="325" y1="435" x2="353" y2="433"/>
<line style="fill:none;stroke:#B82225;stroke-width:4;stroke-linecap:round;stroke-linejoin:bevel;stroke-miterlimit:10;" x1="345" y1="418" x2="325" y2="435"/>
<line style="fill:none;stroke:#B82225;stroke-width:4;stroke-linecap:round;stroke-linejoin:bevel;stroke-miterlimit:10;" x1="325" y1="376" x2="345" y2="418"/>
<line style="fill:none;stroke:#B82225;stroke-width:4;stroke-linecap:round;stroke-linejoin:bevel;stroke-miterlimit:10;" x1="332" y1="359" x2="325" y2="376"/>
<line style="fill:none;stroke:#B82225;stroke-width:4;stroke-linecap:round;stroke-linejoin:bevel;stroke-miterlimit:10;" x1="354" y1="337" x2="332" y2="359"/>
<line style="fill:none;stroke:#B82225;stroke-width:4;stroke-linecap:round;stroke-linejoin:bevel;stroke-miterlimit:10;" x1="253" y1="275" x2="354" y2="337"/>
<line style="fill:none;stroke:#B82225;stroke-width:4;stroke-linecap:round;stroke-linejoin:bevel;stroke-miterlimit:10;" x1="353" y1="257" x2="354" y2="337"/>
<line style="fill:none;stroke:#B82225;stroke-width:4;stroke-linecap:round;stroke-linejoin:bevel;stroke-miterlimit:10;" x1="325" y1="222" x2="353" y2="257"/>
<line style="fill:none;stroke:#B82225;stroke-width:4;stroke-linecap:round;stroke-linejoin:bevel;stroke-miterlimit:10;" x1="281" y1="239" x2="325" y2="222"/>
<line style="fill:none;stroke:#B82225;stroke-width:4;stroke-linecap:round;stroke-linejoin:bevel;stroke-miterlimit:10;" x1="253" y1="275" x2="281" y2="239"/>
<line style="fill:none;stroke:#B82225;stroke-width:4;stroke-linecap:round;stroke-linejoin:bevel;stroke-miterlimit:10;" x1="354" y1="269" x2="374" y2="214"/>
<line style="fill:none;stroke:#B82225;stroke-width:4;stroke-linecap:round;stroke-linejoin:bevel;stroke-miterlimit:10;" x1="399" y1="199" x2="374" y2="214"/>
<line style="fill:none;stroke:#B82225;stroke-width:4;stroke-linecap:round;stroke-linejoin:bevel;stroke-miterlimit:10;" x1="444" y1="215" x2="399" y2="199"/>
<line style="fill:none;stroke:#B82225;stroke-width:4;stroke-linecap:round;stroke-linejoin:bevel;stroke-miterlimit:10;" x1="444" y1="263" x2="444" y2="215"/>
<line style="fill:none;stroke:#B82225;stroke-width:4;stroke-linecap:round;stroke-linejoin:bevel;stroke-miterlimit:10;" x1="393" y1="300" x2="444" y2="263"/>
<line style="fill:none;stroke:#B82225;stroke-width:4;stroke-linecap:round;stroke-linejoin:bevel;stroke-miterlimit:10;" x1="354" y1="269" x2="393" y2="300"/>
<line style="fill:none;stroke:#B82225;stroke-width:4;stroke-linecap:round;stroke-linejoin:bevel;stroke-miterlimit:10;" x1="444" y1="263" x2="471" y2="224"/>
<line style="fill:none;stroke:#B82225;stroke-width:4;stroke-linecap:round;stroke-linejoin:bevel;stroke-miterlimit:10;" x1="519" y1="235" x2="471" y2="224"/>
<line style="fill:none;stroke:#B82225;stroke-width:4;stroke-linecap:round;stroke-linejoin:bevel;stroke-miterlimit:10;" x1="544" y1="276" x2="519" y2="235"/>
<line style="fill:none;stroke:#B82225;stroke-width:4;stroke-linecap:round;stroke-linejoin:bevel;stroke-miterlimit:10;" x1="512" y1="322" x2="544" y2="276"/>
<line style="fill:none;stroke:#B82225;stroke-width:4;stroke-linecap:round;stroke-linejoin:bevel;stroke-miterlimit:10;" x1="444" y1="354" x2="512" y2="322"/>
<line style="fill:none;stroke:#B82225;stroke-width:4;stroke-linecap:round;stroke-linejoin:bevel;stroke-miterlimit:10;" x1="444" y1="263" x2="444" y2="354"/>
<line style="fill:none;stroke:#B82225;stroke-width:4;stroke-linecap:round;stroke-linejoin:bevel;stroke-miterlimit:10;" x1="483" y1="373" x2="572" y2="300"/>
<line style="fill:none;stroke:#B82225;stroke-width:4;stroke-linecap:round;stroke-linejoin:bevel;stroke-miterlimit:10;" x1="600" y1="338" x2="572" y2="300"/>
<line style="fill:none;stroke:#B82225;stroke-width:4;stroke-linecap:round;stroke-linejoin:bevel;stroke-miterlimit:10;" x1="600" y1="385" x2="600" y2="338"/>
<line style="fill:none;stroke:#B82225;stroke-width:4;stroke-linecap:round;stroke-linejoin:bevel;stroke-miterlimit:10;" x1="483" y1="373" x2="600" y2="385"/>
<line style="fill:none;stroke:#B82225;stroke-width:4;stroke-linecap:round;stroke-linejoin:bevel;stroke-miterlimit:10;" x1="609" y1="302" x2="652" y2="282"/>
<line style="fill:none;stroke:#B82225;stroke-width:4;stroke-linecap:round;stroke-linejoin:bevel;stroke-miterlimit:10;" x1="684" y1="390" x2="652" y2="282"/>
<line style="fill:none;stroke:#B82225;stroke-width:4;stroke-linecap:round;stroke-linejoin:bevel;stroke-miterlimit:10;" x1="609" y1="302" x2="608" y2="361"/>
<line style="fill:none;stroke:#B82225;stroke-width:4;stroke-linecap:round;stroke-linejoin:bevel;stroke-miterlimit:10;" x1="684" y1="390" x2="608" y2="361"/>
<line style="fill:none;stroke:#B82225;stroke-width:4;stroke-linecap:round;stroke-linejoin:bevel;stroke-miterlimit:10;" x1="599" y1="463" x2="722" y2="390"/>
<line style="fill:none;stroke:#B82225;stroke-width:4;stroke-linecap:round;stroke-linejoin:bevel;stroke-miterlimit:10;" x1="654" y1="534" x2="722" y2="390"/>
<line style="fill:none;stroke:#B82225;stroke-width:4;stroke-linecap:round;stroke-linejoin:bevel;stroke-miterlimit:10;" x1="586" y1="511" x2="654" y2="534"/>
<line style="fill:none;stroke:#B82225;stroke-width:4;stroke-linecap:round;stroke-linejoin:bevel;stroke-miterlimit:10;" x1="599" y1="463" x2="586" y2="511"/>
<line style="fill:none;stroke:#B82225;stroke-width:4;stroke-linecap:round;stroke-linejoin:bevel;stroke-miterlimit:10;" x1="187" y1="269" x2="257" y2="306"/>
<line style="fill:none;stroke:#B82225;stroke-width:4;stroke-linecap:round;stroke-linejoin:bevel;stroke-miterlimit:10;" x1="295" y1="366" x2="257" y2="306"/>
<line style="fill:none;stroke:#B82225;stroke-width:4;stroke-linecap:round;stroke-linejoin:bevel;stroke-miterlimit:10;" x1="222" y1="391" x2="295" y2="366"/>
<line style="fill:none;stroke:#B82225;stroke-width:4;stroke-linecap:round;stroke-linejoin:bevel;stroke-miterlimit:10;" x1="179" y1="379" x2="222" y2="391"/>
<line style="fill:none;stroke:#B82225;stroke-width:4;stroke-linecap:round;stroke-linejoin:bevel;stroke-miterlimit:10;" x1="187" y1="269" x2="179" y2="379"/>
<line style="fill:none;stroke:#B82225;stroke-width:4;stroke-linecap:round;stroke-linejoin:bevel;stroke-miterlimit:10;" x1="105" y1="292" x2="146" y2="316"/>
<line style="fill:none;stroke:#B82225;stroke-width:4;stroke-linecap:round;stroke-linejoin:bevel;stroke-miterlimit:10;" x1="138" y1="368" x2="146" y2="316"/>
<line style="fill:none;stroke:#B82225;stroke-width:4;stroke-linecap:round;stroke-linejoin:bevel;stroke-miterlimit:10;" x1="78" y1="421" x2="138" y2="368"/>
<line style="fill:none;stroke:#B82225;stroke-width:4;stroke-linecap:round;stroke-linejoin:bevel;stroke-miterlimit:10;" x1="105" y1="292" x2="78" y2="421"/>
<line style="fill:none;stroke:#B82225;stroke-width:4;stroke-linecap:round;stroke-linejoin:bevel;stroke-miterlimit:10;" x1="153" y1="300" x2="69" y2="257"/>
<line style="fill:none;stroke:#B82225;stroke-width:4;stroke-linecap:round;stroke-linejoin:bevel;stroke-miterlimit:10;" x1="134" y1="265" x2="133" y2="139"/>
<line style="fill:none;stroke:#B82225;stroke-width:4;stroke-linecap:round;stroke-linejoin:bevel;stroke-miterlimit:10;" x1="186" y1="207" x2="125" y2="135"/>
<line style="fill:none;stroke:#B82225;stroke-width:4;stroke-linecap:round;stroke-linejoin:bevel;stroke-miterlimit:10;" x1="179" y1="251" x2="186" y2="207"/>
<line style="fill:none;stroke:#B82225;stroke-width:4;stroke-linecap:round;stroke-linejoin:bevel;stroke-miterlimit:10;" x1="134" y1="265" x2="179" y2="251"/>
<line style="fill:none;stroke:#B82225;stroke-width:4;stroke-linecap:round;stroke-linejoin:bevel;stroke-miterlimit:10;" x1="163" y1="401" x2="280" y2="562"/>
<line style="fill:none;stroke:#B82225;stroke-width:4;stroke-linecap:round;stroke-linejoin:bevel;stroke-miterlimit:10;" x1="78" y1="563" x2="182" y2="531"/>
<line style="fill:none;stroke:#B82225;stroke-width:4;stroke-linecap:round;stroke-linejoin:bevel;stroke-miterlimit:10;" x1="189" y1="580" x2="182" y2="531"/>
<line style="fill:none;stroke:#B82225;stroke-width:4;stroke-linecap:round;stroke-linejoin:bevel;stroke-miterlimit:10;" x1="68" y1="648" x2="189" y2="580"/>
<line style="fill:none;stroke:#B82225;stroke-width:4;stroke-linecap:round;stroke-linejoin:bevel;stroke-miterlimit:10;" x1="78" y1="563" x2="68" y2="648"/>
<line style="fill:none;stroke:#B82225;stroke-width:4;stroke-linecap:round;stroke-linejoin:bevel;stroke-miterlimit:10;" x1="189" y1="591" x2="215" y2="547"/>
<line style="fill:none;stroke:#B82225;stroke-width:4;stroke-linecap:round;stroke-linejoin:bevel;stroke-miterlimit:10;" x1="258" y1="565" x2="215" y2="547"/>
<line style="fill:none;stroke:#B82225;stroke-width:4;stroke-linecap:round;stroke-linejoin:bevel;stroke-miterlimit:10;" x1="295" y1="612" x2="258" y2="565"/>
<line style="fill:none;stroke:#B82225;stroke-width:4;stroke-linecap:round;stroke-linejoin:bevel;stroke-miterlimit:10;" x1="258" y1="645" x2="295" y2="612"/>
<line style="fill:none;stroke:#B82225;stroke-width:4;stroke-linecap:round;stroke-linejoin:bevel;stroke-miterlimit:10;" x1="191" y1="661" x2="258" y2="645"/>
<line style="fill:none;stroke:#B82225;stroke-width:4;stroke-linecap:round;stroke-linejoin:bevel;stroke-miterlimit:10;" x1="189" y1="591" x2="191" y2="661"/>
<line style="fill:none;stroke:#B82225;stroke-width:4;stroke-linecap:round;stroke-linejoin:bevel;stroke-miterlimit:10;" x1="133" y1="654" x2="152" y2="686"/>
<line style="fill:none;stroke:#B82225;stroke-width:4;stroke-linecap:round;stroke-linejoin:bevel;stroke-miterlimit:10;" x1="179" y1="672" x2="152" y2="686"/>
<line style="fill:none;stroke:#B82225;stroke-width:4;stroke-linecap:round;stroke-linejoin:bevel;stroke-miterlimit:10;" x1="179" y1="700" x2="179" y2="672"/>
<line style="fill:none;stroke:#B82225;stroke-width:4;stroke-linecap:round;stroke-linejoin:bevel;stroke-miterlimit:10;" x1="250" y1="752" x2="164" y2="694"/>
<line style="fill:none;stroke:#B82225;stroke-width:4;stroke-linecap:round;stroke-linejoin:bevel;stroke-miterlimit:10;" x1="212" y1="772" x2="250" y2="752"/>
<line style="fill:none;stroke:#B82225;stroke-width:4;stroke-linecap:round;stroke-linejoin:bevel;stroke-miterlimit:10;" x1="133" y1="661" x2="134" y2="751"/>
<line style="fill:none;stroke:#B82225;stroke-width:4;stroke-linecap:round;stroke-linejoin:bevel;stroke-miterlimit:10;" x1="358" y1="618" x2="357" y2="529"/>
<line style="fill:none;stroke:#B82225;stroke-width:4;stroke-linecap:round;stroke-linejoin:bevel;stroke-miterlimit:10;" x1="398" y1="475" x2="353" y2="538"/>
<line style="fill:none;stroke:#B82225;stroke-width:4;stroke-linecap:round;stroke-linejoin:bevel;stroke-miterlimit:10;" x1="443" y1="539" x2="398" y2="475"/>
<line style="fill:none;stroke:#B82225;stroke-width:4;stroke-linecap:round;stroke-linejoin:bevel;stroke-miterlimit:10;" x1="444" y1="595" x2="443" y2="529"/>
<line style="fill:none;stroke:#B82225;stroke-width:4;stroke-linecap:round;stroke-linejoin:bevel;stroke-miterlimit:10;" x1="398" y1="600" x2="567" y2="556"/>
<line style="fill:none;stroke:#B82225;stroke-width:4;stroke-linecap:round;stroke-linejoin:bevel;stroke-miterlimit:10;" x1="327" y1="395" x2="241" y2="402"/>
<line style="fill:none;stroke:#B82225;stroke-width:4;stroke-linecap:round;stroke-linejoin:bevel;stroke-miterlimit:10;" x1="209" y1="416" x2="241" y2="402"/>
<line style="fill:none;stroke:#B82225;stroke-width:4;stroke-linecap:round;stroke-linejoin:bevel;stroke-miterlimit:10;" x1="206" y1="461" x2="209" y2="416"/>
<line style="fill:none;stroke:#B82225;stroke-width:4;stroke-linecap:round;stroke-linejoin:bevel;stroke-miterlimit:10;" x1="272" y1="497" x2="335" y2="403"/>
<line style="fill:none;stroke:#B82225;stroke-width:4;stroke-linecap:round;stroke-linejoin:bevel;stroke-miterlimit:10;" x1="246" y1="507" x2="272" y2="497"/>
<line style="fill:none;stroke:#B82225;stroke-width:4;stroke-linecap:round;stroke-linejoin:bevel;stroke-miterlimit:10;" x1="516" y1="487" x2="543" y2="524"/>
<line style="fill:none;stroke:#B82225;stroke-width:4;stroke-linecap:round;stroke-linejoin:bevel;stroke-miterlimit:10;" x1="515" y1="563" x2="543" y2="524"/>
<line style="fill:none;stroke:#B82225;stroke-width:4;stroke-linecap:round;stroke-linejoin:bevel;stroke-miterlimit:10;" x1="471" y1="576" x2="443" y2="539"/>
<line style="fill:none;stroke:#B82225;stroke-width:4;stroke-linecap:round;stroke-linejoin:bevel;stroke-miterlimit:10;" x1="515" y1="563" x2="471" y2="576"/>
<line style="fill:none;stroke:#B82225;stroke-width:4;stroke-linecap:round;stroke-linejoin:bevel;stroke-miterlimit:10;" x1="488" y1="600" x2="515" y2="563"/>
<line style="fill:none;stroke:#B82225;stroke-width:4;stroke-linecap:round;stroke-linejoin:bevel;stroke-miterlimit:10;" x1="593" y1="591" x2="515" y2="563"/>
<line style="fill:none;stroke:#B82225;stroke-width:4;stroke-linecap:round;stroke-linejoin:bevel;stroke-miterlimit:10;" x1="589" y1="662" x2="593" y2="591"/>
<line style="fill:none;stroke:#B82225;stroke-width:4;stroke-linecap:round;stroke-linejoin:bevel;stroke-miterlimit:10;" x1="515" y1="638" x2="589" y2="662"/>
<line style="fill:none;stroke:#B82225;stroke-width:4;stroke-linecap:round;stroke-linejoin:bevel;stroke-miterlimit:10;" x1="488" y1="600" x2="559" y2="700"/>
<line style="fill:none;stroke:#B82225;stroke-width:4;stroke-linecap:round;stroke-linejoin:bevel;stroke-miterlimit:10;" x1="491" y1="724" x2="559" y2="700"/>
<line style="fill:none;stroke:#B82225;stroke-width:4;stroke-linecap:round;stroke-linejoin:bevel;stroke-miterlimit:10;" x1="444" y1="707" x2="491" y2="724"/>
<line style="fill:none;stroke:#B82225;stroke-width:4;stroke-linecap:round;stroke-linejoin:bevel;stroke-miterlimit:10;" x1="443" y1="629" x2="444" y2="707"/>
<line style="fill:none;stroke:#B82225;stroke-width:4;stroke-linecap:round;stroke-linejoin:bevel;stroke-miterlimit:10;" x1="471" y1="624" x2="444" y2="661"/>
<line style="fill:none;stroke:#B82225;stroke-width:4;stroke-linecap:round;stroke-linejoin:bevel;stroke-miterlimit:10;" x1="515" y1="638" x2="471" y2="624"/>
<line style="fill:none;stroke:#B82225;stroke-width:4;stroke-linecap:round;stroke-linejoin:bevel;stroke-miterlimit:10;" x1="404" y1="610" x2="443" y2="629"/>
<line style="fill:none;stroke:#B82225;stroke-width:4;stroke-linecap:round;stroke-linejoin:bevel;stroke-miterlimit:10;" x1="442" y1="674" x2="400" y2="732"/>
<line style="fill:none;stroke:#B82225;stroke-width:4;stroke-linecap:round;stroke-linejoin:bevel;stroke-miterlimit:10;" x1="317" y1="626" x2="400" y2="732"/>
<line style="fill:none;stroke:#B82225;stroke-width:4;stroke-linecap:round;stroke-linejoin:bevel;stroke-miterlimit:10;" x1="404" y1="610" x2="317" y2="626"/>
<line style="fill:none;stroke:#B82225;stroke-width:4;stroke-linecap:round;stroke-linejoin:bevel;stroke-miterlimit:10;" x1="238" y1="672" x2="303" y2="668"/>
<line style="fill:none;stroke:#B82225;stroke-width:4;stroke-linecap:round;stroke-linejoin:bevel;stroke-miterlimit:10;" x1="353" y1="691" x2="303" y2="668"/>
<line style="fill:none;stroke:#B82225;stroke-width:4;stroke-linecap:round;stroke-linejoin:bevel;stroke-miterlimit:10;" x1="341" y1="737" x2="353" y2="691"/>
<line style="fill:none;stroke:#B82225;stroke-width:4;stroke-linecap:round;stroke-linejoin:bevel;stroke-miterlimit:10;" x1="305" y1="766" x2="341" y2="737"/>
<line style="fill:none;stroke:#B82225;stroke-width:4;stroke-linecap:round;stroke-linejoin:bevel;stroke-miterlimit:10;" x1="238" y1="672" x2="268" y2="744"/>
<line style="fill:none;stroke:#B82225;stroke-width:4;stroke-linecap:round;stroke-linejoin:bevel;stroke-miterlimit:10;" x1="305" y1="766" x2="268" y2="744"/>
<line style="fill:none;stroke:#B82225;stroke-width:4;stroke-linecap:round;stroke-linejoin:bevel;stroke-miterlimit:10;" x1="632" y1="544" x2="701" y2="562"/>
<line style="fill:none;stroke:#B82225;stroke-width:4;stroke-linecap:round;stroke-linejoin:bevel;stroke-miterlimit:10;" x1="652" y1="654" x2="701" y2="562"/>
<line style="fill:none;stroke:#B82225;stroke-width:4;stroke-linecap:round;stroke-linejoin:bevel;stroke-miterlimit:10;" x1="632" y1="544" x2="630" y2="580"/>
<line style="fill:none;stroke:#B82225;stroke-width:4;stroke-linecap:round;stroke-linejoin:bevel;stroke-miterlimit:10;" x1="652" y1="654" x2="630" y2="580"/>
<line style="fill:none;stroke:#B82225;stroke-width:4;stroke-linecap:round;stroke-linejoin:bevel;stroke-miterlimit:10;" x1="589" y1="463" x2="582" y2="413"/>
<line style="fill:none;stroke:#B82225;stroke-width:4;stroke-linecap:round;stroke-linejoin:bevel;stroke-miterlimit:10;" x1="539" y1="397" x2="582" y2="413"/>
<line style="fill:none;stroke:#B82225;stroke-width:4;stroke-linecap:round;stroke-linejoin:bevel;stroke-miterlimit:10;" x1="471" y1="423" x2="539" y2="397"/>
<line style="fill:none;stroke:#B82225;stroke-width:4;stroke-linecap:round;stroke-linejoin:bevel;stroke-miterlimit:10;" x1="507" y1="482" x2="471" y2="423"/>
<line style="fill:none;stroke:#B82225;stroke-width:4;stroke-linecap:round;stroke-linejoin:bevel;stroke-miterlimit:10;" x1="563" y1="502" x2="507" y2="482"/>
<line style="fill:none;stroke:#B82225;stroke-width:4;stroke-linecap:round;stroke-linejoin:bevel;stroke-miterlimit:10;" x1="592" y1="455" x2="563" y2="502"/>
<line style="fill:none;stroke:#B82225;stroke-width:4;stroke-linecap:round;stroke-linejoin:bevel;stroke-miterlimit:10;" x1="617" y1="700" x2="647" y2="713"/>
<line style="fill:none;stroke:#B82225;stroke-width:4;stroke-linecap:round;stroke-linejoin:bevel;stroke-miterlimit:10;" x1="730" y1="700" x2="647" y2="713"/>
<line style="fill:none;stroke:#B82225;stroke-width:4;stroke-linecap:round;stroke-linejoin:bevel;stroke-miterlimit:10;" x1="640" y1="771" x2="730" y2="700"/>
<line style="fill:none;stroke:#B82225;stroke-width:4;stroke-linecap:round;stroke-linejoin:bevel;stroke-miterlimit:10;" x1="572" y1="728" x2="640" y2="771"/>
<line style="fill:none;stroke:#B82225;stroke-width:4;stroke-linecap:round;stroke-linejoin:bevel;stroke-miterlimit:10;" x1="617" y1="700" x2="572" y2="728"/>
<line style="fill:none;stroke:#B82225;stroke-width:4;stroke-linecap:round;stroke-linejoin:bevel;stroke-miterlimit:10;" x1="209" y1="137" x2="209" y2="229"/>
<line style="fill:none;stroke:#B82225;stroke-width:4;stroke-linecap:round;stroke-linejoin:bevel;stroke-miterlimit:10;" x1="242" y1="258" x2="209" y2="229"/>
<line style="fill:none;stroke:#B82225;stroke-width:4;stroke-linecap:round;stroke-linejoin:bevel;stroke-miterlimit:10;" x1="307" y1="207" x2="242" y2="258"/>
<line style="fill:none;stroke:#B82225;stroke-width:4;stroke-linecap:round;stroke-linejoin:bevel;stroke-miterlimit:10;" x1="281" y1="150" x2="307" y2="207"/>
<line style="fill:none;stroke:#B82225;stroke-width:4;stroke-linecap:round;stroke-linejoin:bevel;stroke-miterlimit:10;" x1="209" y1="137" x2="281" y2="150"/>
<line style="fill:none;stroke:#B82225;stroke-width:4;stroke-linecap:round;stroke-linejoin:bevel;stroke-miterlimit:10;" x1="307" y1="42" x2="243" y2="96"/>
<line style="fill:none;stroke:#B82225;stroke-width:4;stroke-linecap:round;stroke-linejoin:bevel;stroke-miterlimit:10;" x1="325" y1="166" x2="281" y2="150"/>
<line style="fill:none;stroke:#B82225;stroke-width:4;stroke-linecap:round;stroke-linejoin:bevel;stroke-miterlimit:10;" x1="243" y1="96" x2="281" y2="150"/>
<line style="fill:none;stroke:#B82225;stroke-width:4;stroke-linecap:round;stroke-linejoin:bevel;stroke-miterlimit:10;" x1="349" y1="114" x2="325" y2="166"/>
<line style="fill:none;stroke:#B82225;stroke-width:4;stroke-linecap:round;stroke-linejoin:bevel;stroke-miterlimit:10;" x1="307" y1="42" x2="349" y2="114"/>
<line style="fill:none;stroke:#B82225;stroke-width:4;stroke-linecap:round;stroke-linejoin:bevel;stroke-miterlimit:10;" x1="353" y1="134" x2="398" y2="87"/>
<line style="fill:none;stroke:#B82225;stroke-width:4;stroke-linecap:round;stroke-linejoin:bevel;stroke-miterlimit:10;" x1="444" y1="134" x2="398" y2="87"/>
<line style="fill:none;stroke:#B82225;stroke-width:4;stroke-linecap:round;stroke-linejoin:bevel;stroke-miterlimit:10;" x1="442" y1="196" x2="444" y2="134"/>
<line style="fill:none;stroke:#B82225;stroke-width:4;stroke-linecap:round;stroke-linejoin:bevel;stroke-miterlimit:10;" x1="399" y1="199" x2="442" y2="196"/>
<line style="fill:none;stroke:#B82225;stroke-width:4;stroke-linecap:round;stroke-linejoin:bevel;stroke-miterlimit:10;" x1="353" y1="134" x2="354" y2="178"/>
<line style="fill:none;stroke:#B82225;stroke-width:4;stroke-linecap:round;stroke-linejoin:bevel;stroke-miterlimit:10;" x1="399" y1="199" x2="354" y2="178"/>
<line style="fill:none;stroke:#B82225;stroke-width:4;stroke-linecap:round;stroke-linejoin:bevel;stroke-miterlimit:10;" x1="467" y1="60" x2="462" y2="148"/>
<line style="fill:none;stroke:#B82225;stroke-width:4;stroke-linecap:round;stroke-linejoin:bevel;stroke-miterlimit:10;" x1="523" y1="140" x2="462" y2="148"/>
<line style="fill:none;stroke:#B82225;stroke-width:4;stroke-linecap:round;stroke-linejoin:bevel;stroke-miterlimit:10;" x1="577" y1="94" x2="523" y2="140"/>
<line style="fill:none;stroke:#B82225;stroke-width:4;stroke-linecap:round;stroke-linejoin:bevel;stroke-miterlimit:10;" x1="512" y1="55" x2="577" y2="94"/>
<line style="fill:none;stroke:#B82225;stroke-width:4;stroke-linecap:round;stroke-linejoin:bevel;stroke-miterlimit:10;" x1="467" y1="60" x2="512" y2="55"/>
<line style="fill:none;stroke:#B82225;stroke-width:4;stroke-linecap:round;stroke-linejoin:bevel;stroke-miterlimit:10;" x1="611" y1="55" x2="676" y2="51"/>
<line style="fill:none;stroke:#B82225;stroke-width:4;stroke-linecap:round;stroke-linejoin:bevel;stroke-miterlimit:10;" x1="697" y1="104" x2="676" y2="51"/>
<line style="fill:none;stroke:#B82225;stroke-width:4;stroke-linecap:round;stroke-linejoin:bevel;stroke-miterlimit:10;" x1="671" y1="92" x2="697" y2="104"/>
<line style="fill:none;stroke:#B82225;stroke-width:4;stroke-linecap:round;stroke-linejoin:bevel;stroke-miterlimit:10;" x1="641" y1="104" x2="671" y2="92"/>
<line style="fill:none;stroke:#B82225;stroke-width:4;stroke-linecap:round;stroke-linejoin:bevel;stroke-miterlimit:10;" x1="639" y1="80" x2="641" y2="104"/>
<line style="fill:none;stroke:#B82225;stroke-width:4;stroke-linecap:round;stroke-linejoin:bevel;stroke-miterlimit:10;" x1="611" y1="80" x2="639" y2="80"/>
<line style="fill:none;stroke:#B82225;stroke-width:4;stroke-linecap:round;stroke-linejoin:bevel;stroke-miterlimit:10;" x1="611" y1="55" x2="611" y2="80"/>
<line style="fill:none;stroke:#B82225;stroke-width:4;stroke-linecap:round;stroke-linejoin:bevel;stroke-miterlimit:10;" x1="646" y1="251" x2="646" y2="176"/>
<line style="fill:none;stroke:#B82225;stroke-width:4;stroke-linecap:round;stroke-linejoin:bevel;stroke-miterlimit:10;" x1="700" y1="137" x2="634" y2="183"/>
<line style="fill:none;stroke:#B82225;stroke-width:4;stroke-linecap:round;stroke-linejoin:bevel;stroke-miterlimit:10;" x1="676" y1="272" x2="700" y2="137"/>
<line style="fill:none;stroke:#B82225;stroke-width:4;stroke-linecap:round;stroke-linejoin:bevel;stroke-miterlimit:10;" x1="643" y1="239" x2="676" y2="272"/>
<line style="fill:none;stroke:#B82225;stroke-width:4;stroke-linecap:round;stroke-linejoin:bevel;stroke-miterlimit:10;" x1="600" y1="135" x2="525" y2="165"/>
<line style="fill:none;stroke:#B82225;stroke-width:4;stroke-linecap:round;stroke-linejoin:bevel;stroke-miterlimit:10;" x1="507" y1="195" x2="525" y2="165"/>
<line style="fill:none;stroke:#B82225;stroke-width:4;stroke-linecap:round;stroke-linejoin:bevel;stroke-miterlimit:10;" x1="544" y1="241" x2="507" y2="195"/>
<line style="fill:none;stroke:#B82225;stroke-width:4;stroke-linecap:round;stroke-linejoin:bevel;stroke-miterlimit:10;" x1="576" y1="232" x2="544" y2="241"/>
<line style="fill:none;stroke:#B82225;stroke-width:4;stroke-linecap:round;stroke-linejoin:bevel;stroke-miterlimit:10;" x1="541" y1="202" x2="576" y2="232"/>
<line style="fill:none;stroke:#B82225;stroke-width:4;stroke-linecap:round;stroke-linejoin:bevel;stroke-miterlimit:10;" x1="600" y1="135" x2="541" y2="202"/>
<line style="fill:none;stroke:#B82225;stroke-width:4;stroke-linecap:round;stroke-linejoin:bevel;stroke-miterlimit:10;" x1="258" y1="565" x2="325" y2="556"/>
<line style="fill:none;stroke:#B82225;stroke-width:4;stroke-linecap:round;stroke-linejoin:bevel;stroke-miterlimit:10;" x1="367" y1="518" x2="325" y2="556"/>
<line style="fill:none;stroke:#B82225;stroke-width:4;stroke-linecap:round;stroke-linejoin:bevel;stroke-miterlimit:10;" x1="163" y1="401" x2="163" y2="525"/>
<line style="fill:none;stroke:#B82225;stroke-width:4;stroke-linecap:round;stroke-linejoin:bevel;stroke-miterlimit:10;" x1="228" y1="452" x2="163" y2="525"/>
<line style="fill:none;stroke:#B82225;stroke-width:4;stroke-linecap:round;stroke-linejoin:bevel;stroke-miterlimit:10;" x1="165" y1="23" x2="168" y2="156"/>
<line style="fill:none;stroke:#B82225;stroke-width:4;stroke-linecap:round;stroke-linejoin:bevel;stroke-miterlimit:10;" x1="190" y1="114" x2="168" y2="156"/>
<line style="fill:none;stroke:#B82225;stroke-width:4;stroke-linecap:round;stroke-linejoin:bevel;stroke-miterlimit:10;" x1="209" y1="117" x2="190" y2="114"/>
<line style="fill:none;stroke:#B82225;stroke-width:4;stroke-linecap:round;stroke-linejoin:bevel;stroke-miterlimit:10;" x1="209" y1="85" x2="209" y2="117"/>
<line style="fill:none;stroke:#B82225;stroke-width:4;stroke-linecap:round;stroke-linejoin:bevel;stroke-miterlimit:10;" x1="229" y1="78" x2="209" y2="85"/>
<line style="fill:none;stroke:#B82225;stroke-width:4;stroke-linecap:round;stroke-linejoin:bevel;stroke-miterlimit:10;" x1="165" y1="23" x2="229" y2="78"/>
</svg>
