<?xml version="1.0" encoding="iso-8859-1"?>
<!-- Generator: Adobe Illustrator 23.0.1, SVG Export Plug-In . SVG Version: 6.00 Build 0)  -->
<svg version="1.1" id="pen" xmlns="http://www.w3.org/2000/svg" xmlns:xlink="http://www.w3.org/1999/xlink" x="0px" y="0px"
	 viewBox="0 0 800 800" style="enable-background:new 0 0 800 800;" xml:space="preserve">
<line style="fill:none;stroke:#000000;stroke-width:4;stroke-miterlimit:10;" x1="199.251" y1="0.249" x2="257.604" y2="58.603"/>
<line style="fill:none;stroke:#000000;stroke-width:4;stroke-miterlimit:10;" x1="340.147" y1="58.354" x2="257.854" y2="58.354"/>
<line style="fill:none;stroke:#000000;stroke-width:4;stroke-miterlimit:10;" x1="340.147" y1="140.648" x2="340.147" y2="58.354"/>
<line style="fill:none;stroke:#000000;stroke-width:4;stroke-miterlimit:10;" x1="399" y1="199.5" x2="340.147" y2="140.648"/>
<line style="fill:none;stroke:#000000;stroke-width:4;stroke-miterlimit:10;" x1="340.147" y1="256.856" x2="399" y2="199.5"/>
<line style="fill:none;stroke:#000000;stroke-width:4;stroke-miterlimit:10;" x1="340.147" y1="339.15" x2="340.147" y2="256.856"/>
<line style="fill:none;stroke:#000000;stroke-width:4;stroke-miterlimit:10;" x1="257.854" y1="339.649" x2="340.147" y2="339.15"/>
<line style="fill:none;stroke:#000000;stroke-width:4;stroke-miterlimit:10;" x1="199.5" y1="398.003" x2="257.854" y2="339.649"/>
<line style="fill:none;stroke:#000000;stroke-width:4;stroke-miterlimit:10;" x1="140.648" y1="339.15" x2="199.5" y2="398.003"/>
<line style="fill:none;stroke:#000000;stroke-width:4;stroke-miterlimit:10;" x1="59.351" y1="339.15" x2="140.648" y2="339.15"/>
<line style="fill:none;stroke:#000000;stroke-width:4;stroke-miterlimit:10;" x1="59.351" y1="257.854" x2="59.351" y2="339.15"/>
<line style="fill:none;stroke:#000000;stroke-width:4;stroke-miterlimit:10;" x1="0" y1="199.5" x2="59.351" y2="257.854"/>
<line style="fill:none;stroke:#000000;stroke-width:4;stroke-miterlimit:10;" x1="59.351" y1="140.648" x2="0" y2="199.5"/>
<line style="fill:none;stroke:#000000;stroke-width:4;stroke-miterlimit:10;" x1="59.351" y1="58.354" x2="59.351" y2="140.648"/>
<line style="fill:none;stroke:#000000;stroke-width:4;stroke-miterlimit:10;" x1="140.648" y1="58.853" x2="59.351" y2="58.354"/>
<line style="fill:none;stroke:#000000;stroke-width:4;stroke-miterlimit:10;" x1="199.5" y1="0" x2="140.648" y2="58.853"/>
<line style="fill:none;stroke:#000000;stroke-width:4;stroke-miterlimit:10;" x1="599.251" y1="0.249" x2="657.604" y2="58.603"/>
<line style="fill:none;stroke:#000000;stroke-width:4;stroke-miterlimit:10;" x1="740.148" y1="58.354" x2="657.854" y2="58.354"/>
<line style="fill:none;stroke:#000000;stroke-width:4;stroke-miterlimit:10;" x1="740.148" y1="140.648" x2="740.148" y2="58.354"/>
<line style="fill:none;stroke:#000000;stroke-width:4;stroke-miterlimit:10;" x1="799" y1="199.5" x2="740.148" y2="140.648"/>
<line style="fill:none;stroke:#000000;stroke-width:4;stroke-miterlimit:10;" x1="740.148" y1="256.856" x2="799" y2="199.5"/>
<line style="fill:none;stroke:#000000;stroke-width:4;stroke-miterlimit:10;" x1="740.148" y1="339.15" x2="740.148" y2="256.856"/>
<line style="fill:none;stroke:#000000;stroke-width:4;stroke-miterlimit:10;" x1="657.854" y1="339.649" x2="740.148" y2="339.15"/>
<line style="fill:none;stroke:#000000;stroke-width:4;stroke-miterlimit:10;" x1="599.5" y1="398.003" x2="657.854" y2="339.649"/>
<line style="fill:none;stroke:#000000;stroke-width:4;stroke-miterlimit:10;" x1="540.648" y1="339.15" x2="599.5" y2="398.003"/>
<line style="fill:none;stroke:#000000;stroke-width:4;stroke-miterlimit:10;" x1="459.351" y1="339.15" x2="540.648" y2="339.15"/>
<line style="fill:none;stroke:#000000;stroke-width:4;stroke-miterlimit:10;" x1="459.351" y1="257.854" x2="459.351" y2="339.15"/>
<line style="fill:none;stroke:#000000;stroke-width:4;stroke-miterlimit:10;" x1="400" y1="199.5" x2="459.351" y2="257.854"/>
<line style="fill:none;stroke:#000000;stroke-width:4;stroke-miterlimit:10;" x1="459.351" y1="140.648" x2="400" y2="199.5"/>
<line style="fill:none;stroke:#000000;stroke-width:4;stroke-miterlimit:10;" x1="459.351" y1="58.354" x2="459.351" y2="140.648"/>
<line style="fill:none;stroke:#000000;stroke-width:4;stroke-miterlimit:10;" x1="540.648" y1="58.853" x2="459.351" y2="58.354"/>
<line style="fill:none;stroke:#000000;stroke-width:4;stroke-miterlimit:10;" x1="599.5" y1="0" x2="540.648" y2="58.853"/>
<line style="fill:none;stroke:#000000;stroke-width:4;stroke-miterlimit:10;" x1="199.251" y1="400.249" x2="257.604" y2="458.603"/>
<line style="fill:none;stroke:#000000;stroke-width:4;stroke-miterlimit:10;" x1="340.147" y1="458.354" x2="257.854" y2="458.354"/>
<line style="fill:none;stroke:#000000;stroke-width:4;stroke-miterlimit:10;" x1="340.147" y1="540.648" x2="340.147" y2="458.354"/>
<line style="fill:none;stroke:#000000;stroke-width:4;stroke-miterlimit:10;" x1="399" y1="599.5" x2="340.147" y2="540.648"/>
<line style="fill:none;stroke:#000000;stroke-width:4;stroke-miterlimit:10;" x1="340.147" y1="656.856" x2="399" y2="599.5"/>
<line style="fill:none;stroke:#000000;stroke-width:4;stroke-miterlimit:10;" x1="340.147" y1="739.15" x2="340.147" y2="656.856"/>
<line style="fill:none;stroke:#000000;stroke-width:4;stroke-miterlimit:10;" x1="257.854" y1="739.649" x2="340.147" y2="739.15"/>
<line style="fill:none;stroke:#000000;stroke-width:4;stroke-miterlimit:10;" x1="199.5" y1="798.003" x2="257.854" y2="739.649"/>
<line style="fill:none;stroke:#000000;stroke-width:4;stroke-miterlimit:10;" x1="140.648" y1="739.15" x2="199.5" y2="798.003"/>
<line style="fill:none;stroke:#000000;stroke-width:4;stroke-miterlimit:10;" x1="59.351" y1="739.15" x2="140.648" y2="739.15"/>
<line style="fill:none;stroke:#000000;stroke-width:4;stroke-miterlimit:10;" x1="59.351" y1="657.854" x2="59.351" y2="739.15"/>
<line style="fill:none;stroke:#000000;stroke-width:4;stroke-miterlimit:10;" x1="0" y1="599.5" x2="59.351" y2="657.854"/>
<line style="fill:none;stroke:#000000;stroke-width:4;stroke-miterlimit:10;" x1="59.351" y1="540.648" x2="0" y2="599.5"/>
<line style="fill:none;stroke:#000000;stroke-width:4;stroke-miterlimit:10;" x1="59.351" y1="458.354" x2="59.351" y2="540.648"/>
<line style="fill:none;stroke:#000000;stroke-width:4;stroke-miterlimit:10;" x1="140.648" y1="458.853" x2="59.351" y2="458.354"/>
<line style="fill:none;stroke:#000000;stroke-width:4;stroke-miterlimit:10;" x1="199.5" y1="400" x2="140.648" y2="458.853"/>
<line style="fill:none;stroke:#000000;stroke-width:4;stroke-miterlimit:10;" x1="599.251" y1="400.249" x2="657.604" y2="458.603"/>
<line style="fill:none;stroke:#000000;stroke-width:4;stroke-miterlimit:10;" x1="740.148" y1="458.354" x2="657.854" y2="458.354"/>
<line style="fill:none;stroke:#000000;stroke-width:4;stroke-miterlimit:10;" x1="740.148" y1="540.648" x2="740.148" y2="458.354"/>
<line style="fill:none;stroke:#000000;stroke-width:4;stroke-miterlimit:10;" x1="799" y1="599.5" x2="740.148" y2="540.648"/>
<line style="fill:none;stroke:#000000;stroke-width:4;stroke-miterlimit:10;" x1="740.148" y1="656.856" x2="799" y2="599.5"/>
<line style="fill:none;stroke:#000000;stroke-width:4;stroke-miterlimit:10;" x1="740.148" y1="739.15" x2="740.148" y2="656.856"/>
<line style="fill:none;stroke:#000000;stroke-width:4;stroke-miterlimit:10;" x1="657.854" y1="739.649" x2="740.148" y2="739.15"/>
<line style="fill:none;stroke:#000000;stroke-width:4;stroke-miterlimit:10;" x1="599.5" y1="798.003" x2="657.854" y2="739.649"/>
<line style="fill:none;stroke:#000000;stroke-width:4;stroke-miterlimit:10;" x1="540.648" y1="739.15" x2="599.5" y2="798.003"/>
<line style="fill:none;stroke:#000000;stroke-width:4;stroke-miterlimit:10;" x1="459.351" y1="739.15" x2="540.648" y2="739.15"/>
<line style="fill:none;stroke:#000000;stroke-width:4;stroke-miterlimit:10;" x1="459.351" y1="657.854" x2="459.351" y2="739.15"/>
<line style="fill:none;stroke:#000000;stroke-width:4;stroke-miterlimit:10;" x1="400" y1="599.5" x2="459.351" y2="657.854"/>
<line style="fill:none;stroke:#000000;stroke-width:4;stroke-miterlimit:10;" x1="459.351" y1="540.648" x2="400" y2="599.5"/>
<line style="fill:none;stroke:#000000;stroke-width:4;stroke-miterlimit:10;" x1="459.351" y1="458.354" x2="459.351" y2="540.648"/>
<line style="fill:none;stroke:#000000;stroke-width:4;stroke-miterlimit:10;" x1="540.648" y1="458.853" x2="459.351" y2="458.354"/>
<line style="fill:none;stroke:#000000;stroke-width:4;stroke-miterlimit:10;" x1="599.5" y1="400" x2="540.648" y2="458.853"/>
</svg>
